<svg xmlns="http://www.w3.org/2000/svg" width="57.253" height="54.753" viewBox="0 0 57.253 54.753">
  <path id="Path_41747" data-name="Path 41747" d="M-305.565,16.538l-5.224,3.17V5.853h1.685a1.083,1.083,0,0,0,1.042-1.046V-1.487a4.486,4.486,0,0,0-4.5-4.435h-4.221a6.362,6.362,0,0,0,.3-1.71v-.014a5.63,5.63,0,0,0-5.627-5.589h-.008A5.666,5.666,0,0,0-326-11.669a5.707,5.707,0,0,0-1.757-3.541,6.175,6.175,0,0,0-4.245-1.6,6.3,6.3,0,0,0-6.048,6.506,7,7,0,0,0,1.563,4.386h-4.389a4.48,4.48,0,0,0-4.5,4.435V4.807a1.077,1.077,0,0,0,1.035,1.046h1.2V18.544c-.5.286-1.13.615-1.678.987l-.135-1.924A.981.981,0,0,0-346,16.693h-.012l-8.482.648a.991.991,0,0,0-.912,1.064h0l1.421,18.617a.992.992,0,0,0,.99.916c.025,0,.049,0,.076,0l8.484-.648a.991.991,0,0,0,.913-1.064l-.072-.938,2.114-1.432a3.875,3.875,0,0,1,2.841-.613l13.507,2.318.066.009a14.235,14.235,0,0,0,8.676-1.908.966.966,0,0,0,.115-.08l17.747-14.289a.992.992,0,0,0,.188-1.347A5.335,5.335,0,0,0-305.565,16.538Zm-4.48-18.025V3.87h-15.865V-3.939h13.345A2.5,2.5,0,0,1-310.046-1.487Zm-12.08-9.766h.005a3.646,3.646,0,0,1,3.646,3.607v.006a3.79,3.79,0,0,1-.446,1.717h-6.991V-7.3c0-.124.088-.265.1-.415A3.808,3.808,0,0,1-322.126-11.253Zm-13.939.935a4.327,4.327,0,0,1,4.085-4.513,3.844,3.844,0,0,1,4.086,3.93v4.978h-5.172v-.013A4.524,4.524,0,0,1-336.065-10.317Zm-7.323,8.83a2.5,2.5,0,0,1,2.513-2.452h12.981V3.87h-15.494Zm2.231,7.34h28.385V20.91l-.806.486a6.769,6.769,0,0,0-6.148-3l-7.738.591a8.282,8.282,0,0,1-3.638-.546l-.852-.325a13.923,13.923,0,0,0-9.2-.352Zm-10.921,30.03-1.27-16.64,6.506-.5,1.271,16.64Zm34.621-3.893a12.24,12.24,0,0,1-7.368,1.608L-338.3,31.287a5.853,5.853,0,0,0-4.289.926l-1.176.8-.85-11.137a11.869,11.869,0,0,1,11.961-1.916l.827.325a10.274,10.274,0,0,0,4.513.678l7.737-.591a4.787,4.787,0,0,1,4.948,3.419l-11.626.888a.992.992,0,0,0-.915,1.062.992.992,0,0,0,.99.918c.025,0,.051,0,.076,0l12.717-.971a.992.992,0,0,0,.913-1.064,6.79,6.79,0,0,0-.263-1.416l8.2-4.975.022-.014a3.358,3.358,0,0,1,3.915.2Z" transform="translate(355.405 16.814)" fill="#67a746"/>
</svg>
