<svg xmlns="http://www.w3.org/2000/svg" width="36.157" height="34.559" viewBox="0 0 36.157 34.559">
  <g id="Group_21356" data-name="Group 21356" transform="translate(0.375 0.375)">
    <path id="Path_38813" data-name="Path 38813" d="M-179.055,276.578a6.712,6.712,0,0,1-5.169-2.376l-.341-.416-.352.407a6.754,6.754,0,0,1-5.177,2.385,6.711,6.711,0,0,1-5.169-2.376l-.341-.416-.352.407a6.753,6.753,0,0,1-5.177,2.385,6.636,6.636,0,0,1-6.665-6.592,6.636,6.636,0,0,1,6.665-6.592h10.91v-3.281l-.308-.1a2.955,2.955,0,0,1-2.015-2.8c0-1.259,1.665-3.72,2.291-4.647l.166-.246a.585.585,0,0,1,.5-.247.587.587,0,0,1,.51.255c1.556,2.14,2.451,3.923,2.451,4.885a3.02,3.02,0,0,1-2.02,2.8l-.3.106v3.285h9.821a6.767,6.767,0,0,1,6.737,6.6A6.635,6.635,0,0,1-179.055,276.578Zm-5.592-4.833a.687.687,0,0,1,.6.369,5.434,5.434,0,0,0,4.923,3.189,5.361,5.361,0,0,0,5.391-5.318,5.361,5.361,0,0,0-5.391-5.318H-201.2a5.361,5.361,0,0,0-5.391,5.318A5.361,5.361,0,0,0-201.2,275.3a5.427,5.427,0,0,0,4.914-3.169.639.639,0,0,1,.605-.39.687.687,0,0,1,.6.369,5.434,5.434,0,0,0,4.922,3.189,5.427,5.427,0,0,0,4.914-3.169A.639.639,0,0,1-184.647,271.746Zm-5.322-17.4a8.563,8.563,0,0,0-1.3,2.781,1.669,1.669,0,0,0,1.687,1.687,1.669,1.669,0,0,0,1.687-1.687,8.574,8.574,0,0,0-1.3-2.781l-.384-.614Z" transform="translate(207.797 -252.065)" fill="#67a746" stroke="#67a746" stroke-width="0.75" fill-rule="evenodd"/>
    <path id="Path_38814" data-name="Path 38814" d="M-189.972,378.485a2.117,2.117,0,0,1-2.09-2.089v-4.654c.42.128.859.222,1.274.305V376.4a.8.8,0,0,0,.816.815h24.038a.8.8,0,0,0,.815-.815v-4.344a11.486,11.486,0,0,0,1.274-.306v4.65a2.117,2.117,0,0,1-2.089,2.089Z" transform="translate(195.621 -344.676)" fill="#67a746" stroke="#67a746" stroke-width="0.75" fill-rule="evenodd"/>
  </g>
</svg>
