<svg id="Group_21350" data-name="Group 21350" xmlns="http://www.w3.org/2000/svg" width="24" height="24" viewBox="0 0 24 24">
  <path id="Path_38583" data-name="Path 38583" d="M0,0H24V24H0Z" fill="none"/>
  <path id="Path_38584" data-name="Path 38584" d="M12,4c6.075,0,11,2.686,11,6v4c0,3.314-4.925,6-11,6C6.033,20,1.176,17.409,1.005,14.177L1,14V10C1,6.686,5.925,4,12,4Zm0,12a15.136,15.136,0,0,1-9-2.55V14c0,1.882,3.883,4,9,4,5.01,0,8.838-2.03,8.995-3.882L21,14v-.55A15.144,15.144,0,0,1,12,16ZM12,6C6.883,6,3,8.118,3,10s3.883,4,9,4,9-2.118,9-4S17.117,6,12,6Z" fill="#ffb500"/>
</svg>
