<svg xmlns="http://www.w3.org/2000/svg" width="54.606" height="55.246" viewBox="0 0 54.606 55.246">
  <g id="Group_21315" data-name="Group 21315" transform="translate(337.519 -359.14)">
    <path id="Path_38797" data-name="Path 38797" d="M-285.544,531.663a4.706,4.706,0,0,0-3.662-1.25l-.03,0c-7.576.745-9.595-3.686-9.682-3.887a.857.857,0,0,0-1.118-.457.857.857,0,0,0-.461,1.12c.1.237,2.523,5.8,11.414,4.93a3.024,3.024,0,0,1,2.367.79c1.378,1.294,1.73,3.852,1.815,5.343H-335.53c.085-1.491.438-4.049,1.815-5.343a3.026,3.026,0,0,1,2.367-.79c8.893.867,11.315-4.693,11.414-4.93a.857.857,0,0,0-.461-1.121.857.857,0,0,0-1.12.461c-.019.047-2.025,4.634-9.68,3.883l-.03,0a4.7,4.7,0,0,0-3.661,1.25c-2.149,2.019-2.381,5.881-2.381,7.448a.857.857,0,0,0,.857.857h52.393a.857.857,0,0,0,.857-.857C-283.163,537.544-283.395,533.681-285.544,531.663Z" transform="translate(0 -125.831)" fill="#67a746" stroke="#67a746" stroke-width="0.5"/>
    <path id="Path_38798" data-name="Path 38798" d="M-307.835,389.766h5.741a21.874,21.874,0,0,0,1.874,4.4c2.169,3.779,5.253,5.861,8.686,5.861a9.392,9.392,0,0,0,2.2-.259.856.856,0,0,0,.631-1.034.856.856,0,0,0-1.034-.631,7.68,7.68,0,0,1-1.8.211c-2.793,0-5.35-1.776-7.2-5a20.693,20.693,0,0,1-1.891-4.6c0-.016,0-.032-.008-.047a37.216,37.216,0,0,1-1.118-6.4q-.154-1.845-.159-3.836c0-.069,0-.14,0-.209a10.386,10.386,0,0,1,10.372-10.214,10.325,10.325,0,0,1,8.154,3.958.857.857,0,0,0,1.2.142.857.857,0,0,0,.142-1.2,12.029,12.029,0,0,0-9.5-4.611,12.106,12.106,0,0,0-12.017,10.781h-3.359v-3.146A12.844,12.844,0,0,1-294.082,361.1h5.094a12.844,12.844,0,0,1,12.829,12.829v3.146h-3.727a.856.856,0,0,0-.635.283.856.856,0,0,0-.217.661,33.756,33.756,0,0,1-1.134,10.653.858.858,0,0,0,.14.751.856.856,0,0,0,.684.34h4.485v1.29a2,2,0,0,1-2,2h-8.633V390.33a.857.857,0,0,0-.857-.857.857.857,0,0,0-.857.857v3.583a.857.857,0,0,0,.857.857h9.49a3.718,3.718,0,0,0,3.713-3.714v-1.433a4.7,4.7,0,0,0,3.567-4.554v-3.292a4.7,4.7,0,0,0-3.163-4.435v-3.409a14.559,14.559,0,0,0-14.543-14.543h-5.094a14.559,14.559,0,0,0-14.543,14.543v3.218a4.7,4.7,0,0,0-3.908,4.626v3.292A4.7,4.7,0,0,0-307.835,389.766Zm34.84-7.99v3.292a2.988,2.988,0,0,1-2.63,2.961c-.027,0-.052-.008-.08-.008a.851.851,0,0,0-.206.028c-.023,0-.046,0-.069,0h-3.965a34.942,34.942,0,0,0,.984-9.261h2.981A2.988,2.988,0,0,1-272.995,381.776Zm-37.825,0a2.988,2.988,0,0,1,2.984-2.984h4.209a39.93,39.93,0,0,0,.2,4.032,36.463,36.463,0,0,0,.854,5.229h-5.267a2.988,2.988,0,0,1-2.984-2.984Z" transform="translate(-18.681)" fill="#67a746" stroke="#67a746" stroke-width="0.5"/>
  </g>
</svg>
