<svg xmlns="http://www.w3.org/2000/svg" width="55.217" height="42.621" viewBox="0 0 55.217 42.621">
  <g id="Group_21453" data-name="Group 21453" transform="translate(268.306 15.93)">
    <path id="Path_41745" data-name="Path 41745" d="M-224.232,26.441a6.423,6.423,0,0,1-6.3-5.412l-.035-.23h-19.952l-.036.23a6.425,6.425,0,0,1-6.3,5.412,6.426,6.426,0,0,1-6.3-5.412l-.035-.23h-4.134V12.606h-.72V-15.68h37.192v9.817h7.968l9.556,9.848V20.8h-4.553l-.036.23A6.425,6.425,0,0,1-224.232,26.441Zm0-11.286a4.905,4.905,0,0,0-4.9,4.9,4.905,4.905,0,0,0,4.9,4.9,4.906,4.906,0,0,0,4.9-4.9A4.905,4.905,0,0,0-224.232,15.155Zm-32.631,0a4.906,4.906,0,0,0-4.9,4.9,4.905,4.905,0,0,0,4.9,4.9,4.907,4.907,0,0,0,4.9-4.9A4.906,4.906,0,0,0-256.862,15.155Zm32.63-1.486a6.424,6.424,0,0,1,6.3,5.413l.035.23h3.067V9.178h-11.429v-10h6.179l-3.448-3.553h-7.339V12.607h-.732v6.706h1.025l.035-.23A6.425,6.425,0,0,1-224.233,13.669Zm-32.63,0a6.425,6.425,0,0,1,6.3,5.413l.036.23h17.441V12.607h-32.769v6.706h2.647l.035-.23A6.426,6.426,0,0,1-256.862,13.669Zm-9.707-2.549h34.22V-14.192H-241.6v9.816h-16v-9.816h-8.964Zm41.8-3.43h9.931V4.575l-3.8-3.913h-6.134ZM-256.119-5.862h13.029v-8.33h-13.029Z" transform="translate(0 0)" fill="#67a746" stroke="#67a746" stroke-width="0.5"/>
    <rect id="Rectangle_7137" data-name="Rectangle 7137" width="6.615" height="1.487" transform="translate(-241.735 6.145)" fill="#67a746" stroke="#67a746" stroke-width="0.5"/>
  </g>
</svg>
