<svg xmlns="http://www.w3.org/2000/svg" width="301.399" height="265.782" viewBox="0 0 301.399 265.782">
  <g id="Group_21448" data-name="Group 21448" transform="translate(-167.055 -109.5)">
    <g id="Group_21446" data-name="Group 21446" transform="translate(167.055 109.5)">
      <g id="Group_21445" data-name="Group 21445">
        <g id="Group_21442" data-name="Group 21442" transform="translate(0 124.071)">
          <path id="Path_41726" data-name="Path 41726" d="M234.865,219.829h-7.012a6.54,6.54,0,0,1-4.861-1.876,6.647,6.647,0,0,1-1.874-4.86V186.014c0-3.193-.973-5.553-2.915-6.943a10.488,10.488,0,0,0-6.457-2.151,10.012,10.012,0,0,0-6.388,2.151c-1.876,1.459-2.778,3.819-2.778,6.943V219.9H188.625V188.792q0-13.539,7.081-18.121a31.046,31.046,0,0,1,15.623-5,29.937,29.937,0,0,1,16.107,4.583c4.932,3.055,7.361,9.235,7.361,18.538l.069,31.037Z" transform="translate(-135.648 -151.785)" fill="#fff"/>
          <path id="Path_41727" data-name="Path 41727" d="M213.226,197.314c0,9.3-2.5,15.483-7.358,18.538a29.946,29.946,0,0,1-16.109,4.583,31.05,31.05,0,0,1-15.62-5q-7.084-4.583-7.083-18.123V166.208h13.886v33.883c0,3.193.9,5.484,2.778,6.943a10,10,0,0,0,6.388,2.151,10.633,10.633,0,0,0,6.457-2.151c1.943-1.459,2.847-3.819,2.847-6.943V173.014a6.809,6.809,0,0,1,1.874-4.929,6.7,6.7,0,0,1,4.929-1.876h7.012v31.106Z" transform="translate(-167.055 -151.003)" fill="#fff"/>
          <path id="Path_41728" data-name="Path 41728" d="M296.871,160.017h6.8a6.365,6.365,0,0,1,4.792,2.085,6.719,6.719,0,0,1,2.014,4.652V202.3c0,10.969-3.055,18.607-8.193,22.426-5.556,4.234-11.386,5-17.706,5a31.358,31.358,0,0,1-10.136-1.665,16.894,16.894,0,0,1-7.984-5.487c-3.819-4.929-5.833-11.664-5.833-20.135,0-8.331,1.945-15.065,5.833-20.135,4.025-5.207,9.095-7.776,15.343-7.776a18.463,18.463,0,0,1,8.748,2.014,19.425,19.425,0,0,1,6.388,6.179l-.069-22.706Zm-22.7,41.868c0,5.276.97,9.372,2.984,12.15a9.969,9.969,0,0,0,8.611,4.165,9.725,9.725,0,0,0,8.331-4.165c1.874-2.778,2.778-6.874,2.778-12.15,0-4.792-.973-8.608-2.987-11.386a10.426,10.426,0,0,0-8.608-3.959,9.566,9.566,0,0,0-8.193,4.168C275.137,193.414,274.167,197.093,274.167,201.885Z" transform="translate(-30.811 -160.017)" fill="#fff"/>
          <g id="Group_21441" data-name="Group 21441" transform="translate(106.786 14.095)">
            <path id="Path_41729" data-name="Path 41729" d="M210.534,166.208h7.15a6.773,6.773,0,0,1,4.792,1.945,6.558,6.558,0,0,1,2.014,4.792v46.171H210.534V166.208Z" transform="translate(-210.534 -165.098)" fill="#fff"/>
            <path id="Path_41730" data-name="Path 41730" d="M250.317,219.185H236.153l-18.467-52.977H232.4l10.554,37.216,9.3-32.425c1.041-3.193,3.193-4.792,6.388-4.792h10.345Z" transform="translate(-200.12 -165.098)" fill="#fff"/>
            <path id="Path_41731" data-name="Path 41731" d="M276.739,203.527h10c-1.456,5.553-4.234,9.858-8.4,12.774-4.1,3.055-9.3,4.583-15.554,4.583-7.567,0-13.469-2.5-17.7-7.358-4.237-4.792-6.388-11.595-6.388-20.483,0-8.471,2.083-15.137,6.179-19.926,4.234-4.929,10.136-7.361,17.706-7.361,7.985,0,14.093,2.431,18.538,7.152,4.234,4.929,6.386,11.732,6.386,20.481v2.154a3.224,3.224,0,0,1-.206,1.388H252.854c.138,4.1,1.11,7.152,2.987,9.166,1.734,2.083,4.3,3.193,7.776,3.193a11.616,11.616,0,0,0,5.762-1.388,2.726,2.726,0,0,0,1.11-.7l1.113-1.11c.138-.418.624-.9,1.528-1.6A5.58,5.58,0,0,1,276.739,203.527Zm-23.816-15.554H273.2c-.278-3.61-1.181-6.248-2.778-7.985a9.73,9.73,0,0,0-7.358-2.775,9.9,9.9,0,0,0-7.152,2.775A11.135,11.135,0,0,0,252.923,187.973Z" transform="translate(-169.538 -165.756)" fill="#fff"/>
          </g>
        </g>
        <g id="Group_21443" data-name="Group 21443" transform="translate(289.527 124.141)">
          <path id="Path_41732" data-name="Path 41732" d="M296.811,165.809a5.939,5.939,0,1,1-5.9-5.762A5.734,5.734,0,0,1,296.811,165.809Zm-10.416,0a4.48,4.48,0,1,0,8.957,0,4.482,4.482,0,1,0-8.957,0Zm3.61,2.987h-1.319v-5.764a15.244,15.244,0,0,1,2.223-.206,2.852,2.852,0,0,1,1.943.484,1.573,1.573,0,0,1,.626,1.25,1.549,1.549,0,0,1-1.181,1.39v.069c.555.138.835.624,1.041,1.388a9.25,9.25,0,0,0,.418,1.39h-1.388a7.127,7.127,0,0,1-.486-1.39,1.039,1.039,0,0,0-1.181-.9h-.624l-.071,2.291Zm0-3.264h.626c.764,0,1.319-.277,1.319-.833s-.418-.9-1.25-.9a2.115,2.115,0,0,0-.764.071l.069,1.665Z" transform="translate(-284.939 -160.045)" fill="#fff"/>
        </g>
        <g id="Group_21444" data-name="Group 21444" transform="translate(95.191)">
          <path id="Path_41733" data-name="Path 41733" d="M295.031,192.887h0c0-42.077-39.021-39.159-44.575-83.387h-.069c-4.861,43.393-44.575,40.547-44.575,83.387h0a44.628,44.628,0,0,0,89.218,0Z" transform="translate(-205.813 -109.5)" fill="#67a845"/>
          <path id="Path_41734" data-name="Path 41734" d="M285.119,183.082h0c0-36.8-35.62-37.7-38.4-67.278h-.071c-2.22,29.578-38.324,29.924-38.324,67.278h0a38.4,38.4,0,0,0,76.79,0Z" transform="translate(-202.15 -100.321)" fill="#93b93e"/>
          <path id="Path_41735" data-name="Path 41735" d="M276.162,175.715h0c0-31.383-30.688-32.84-32.771-54.851h0c-1.668,22.149-32.7,22.981-32.7,54.851h-.071a32.783,32.783,0,0,0,65.544,0Z" transform="translate(-198.817 -92.954)" fill="#c0ca31"/>
          <path id="Path_41736" data-name="Path 41736" d="M266.1,169.444h0c.626-26.8-25.619-28.19-26.451-44.368h0c-.9,16.178-27.078,17.5-26.454,44.368h0a26.46,26.46,0,0,0,52.905,0Z" transform="translate(-195.077 -86.821)" fill="#dddd5d"/>
          <path id="Path_41737" data-name="Path 41737" d="M216.088,155.616a26.964,26.964,0,0,0-.486,5.971h0c0,.486.069.9.069,1.319l8.68-1.388Zm.278-1.319,19.162,13.815v-17.5l-11.455-8.262A25.526,25.526,0,0,0,216.366,154.3Zm40.409,5.831a28.455,28.455,0,0,0-.764-5.693l-5.138,10.694Zm-1.319-7.358a23.133,23.133,0,0,0-5.069-8.193l-13.678,11.595v20.967L248.581,167Zm-18.678,26.036v3.055a20.457,20.457,0,0,0,20.066-20.137Zm0-48.811v24.58l12.845-10.9C244.622,138.743,238.583,135.482,236.778,129.995Zm-20.967,34.161A20.492,20.492,0,0,0,235.6,181.862V169.64l-9.859-7.081Zm9.232-22.566,10.554,7.57V130.135C233.931,134.718,229.417,137.773,225.043,141.59Z" transform="translate(-191.579 -79.659)" fill="#fff"/>
        </g>
      </g>
    </g>
    <g id="Group_21447" data-name="Group 21447" transform="translate(235.475 320.554)">
      <path id="Path_41738" data-name="Path 41738" d="M195.168,210.274c0-3.831-.064-6.833-.255-9.77h2.937l.192,5.811h.128a12.267,12.267,0,0,1,11.367-6.513c7.854,0,13.157,6.513,13.157,15.517,0,10.92-6.516,16.541-13.923,16.541a11.582,11.582,0,0,1-10.409-5.686h-.128V243.8h-3.065Zm3.065,8.812a10.131,10.131,0,0,0,.255,2.429,10.359,10.359,0,0,0,10.089,7.788c7.024,0,11.05-5.683,11.05-13.857,0-6.9-3.831-13.091-10.792-13.091a10.642,10.642,0,0,0-10.156,8.112,12.439,12.439,0,0,0-.447,2.616Z" transform="translate(-194.913 -189.073)" fill="#fff"/>
      <path id="Path_41739" data-name="Path 41739" d="M209.52,209.7c0-3.065-.064-6.194-.255-9.2h2.81l.125,6.194h.194c1.339-3.9,4.534-6.9,8.684-6.9a7.862,7.862,0,0,1,1.277.128V202.8a10.765,10.765,0,0,0-1.469-.061c-4.215,0-7.216,3.64-8.046,8.557a14.381,14.381,0,0,0-.255,2.937v16.922H209.52Z" transform="translate(-174.016 -189.073)" fill="#fff"/>
      <path id="Path_41740" data-name="Path 41740" d="M219.219,200.733a2.461,2.461,0,0,1-2.363-2.621,2.62,2.62,0,0,1,2.49-2.68,2.529,2.529,0,0,1,2.427,2.68,2.484,2.484,0,0,1-2.49,2.621Zm-1.4,36.782V206.863h3.065v30.651Z" transform="translate(-162.963 -195.433)" fill="#fff"/>
      <path id="Path_41741" data-name="Path 41741" d="M222.831,207.847c0-2.81-.064-4.917-.255-7.344h2.876l.189,5.364h.128c1.98-3.512,4.917-6.066,9.964-6.066a9.375,9.375,0,0,1,8.812,6.641h.128a12.022,12.022,0,0,1,3.129-4.151,10.576,10.576,0,0,1,7.282-2.49c3,0,10.026,1.66,10.026,13.282v18.072h-3.065V213.339c0-6.9-2.682-10.983-7.982-10.983-3.834,0-6.835,2.874-8.048,6.069a10.945,10.945,0,0,0-.511,3.065v19.665h-3.065V211.934c0-5.492-2.618-9.579-7.6-9.579-4.087,0-7.341,3.321-8.493,6.9a10.964,10.964,0,0,0-.447,3v18.9h-3.065Z" transform="translate(-154.635 -189.073)" fill="#fff"/>
      <path id="Path_41742" data-name="Path 41742" d="M245.934,215.51c0,9.77,5.366,13.668,11.686,13.668a17.832,17.832,0,0,0,8.493-1.724l.769,2.36c-1.149.639-4.281,1.98-9.642,1.98-8.815,0-14.3-6.383-14.3-15.387,0-10.22,5.872-16.605,13.793-16.605,10.026,0,11.941,9.451,11.941,13.857a7.731,7.731,0,0,1-.13,1.852Zm19.54-2.427c.066-4.278-1.724-10.728-9.129-10.728-6.769,0-9.645,6-10.22,10.728Z" transform="translate(-124.991 -189.073)" fill="#fff"/>
    </g>
  </g>
</svg>
