<svg xmlns="http://www.w3.org/2000/svg" width="68.108" height="96.702" viewBox="0 0 68.108 96.702">
  <g id="Group_13125" data-name="Group 13125" transform="translate(-386.953 -181.996)">
    <path id="Path_38010" data-name="Path 38010" d="M455.061,245.621h-.006c0-32.133-29.767-29.891-34.014-63.625h-.06c-3.7,33.124-34.014,30.954-34.014,63.625h-.014a34.068,34.068,0,0,0,68.108,0Z" fill="#67a845"/>
    <path id="Path_38011" data-name="Path 38011" d="M450.329,245.135v-.013c0-28.056-27.2-28.785-29.288-51.35h-.06c-1.675,22.565-29.241,22.828-29.241,51.35l-.013.013a29.3,29.3,0,0,0,58.6,0Z" fill="#93b93e"/>
    <path id="Path_38012" data-name="Path 38012" d="M446.035,245.178h-.014c0-23.944-23.427-25.07-24.98-41.861h-.02c-1.249,16.9-24.987,17.524-24.987,41.861h-.027a25.022,25.022,0,0,0,50.028,0Z" fill="#c0ca31"/>
    <path id="Path_38013" data-name="Path 38013" d="M441.222,245.046h0c.452-20.48-19.546-21.5-20.181-33.859h-.02c-.668,12.361-20.66,13.379-20.213,33.859h0a20.213,20.213,0,0,0,40.414,0Z" fill="#dddd5d"/>
    <path id="Path_38014" data-name="Path 38014" d="M405.681,239.952a20.3,20.3,0,0,0-.391,4.582v.017c0,.351.041.686.061,1.021l6.643-1.067Zm.237-.971,14.637,10.555V236.2l-8.743-6.283A18.559,18.559,0,0,0,405.918,238.981Zm30.834,4.437a18.287,18.287,0,0,0-.6-4.335l-3.915,8.162Zm-.986-5.632a17.483,17.483,0,0,0-3.869-6.259L421.46,240.4v16.033l9.08-7.72ZM421.46,257.65v2.343a15.648,15.648,0,0,0,15.319-15.38Zm0-37.24v18.778l9.789-8.317C427.469,227.07,422.884,224.6,421.46,220.41ZM405.466,246.5a15.6,15.6,0,0,0,15.089,13.492v-9.331l-7.5-5.4Zm7.041-17.239,8.048,5.793V220.512C419.306,224.04,415.843,226.341,412.507,229.262Z" fill="#fff"/>
  </g>
</svg>
