<svg xmlns="http://www.w3.org/2000/svg" width="54.397" height="46.859" viewBox="0 0 54.397 46.859">
  <path id="Path_41748" data-name="Path 41748" d="M-240.978-6.473h0c-.34-5.21-10.334-9.135-23.246-9.135s-22.869,3.925-23.239,9.092a3.222,3.222,0,0,0,0,.328v10.3c-4.914,1.706-7.7,4.116-7.905,6.8a3.46,3.46,0,0,0,0,.358h0V21.841a2.781,2.781,0,0,0,0,.321c.222,2.855,3.239,5.346,8.5,7.021h.056a49.057,49.057,0,0,0,14.679,2.064c12.868,0,22.869-3.912,23.239-9.1h0v-.3h0V11.531c4.92-1.712,7.707-4.123,7.911-6.8V4.683a.406.406,0,0,0,0-.087V-6.195h0v-.278Zm-44.618.111c.235-3.566,8.882-7.417,21.373-7.417s21.138,3.82,21.379,7.417a.6.6,0,0,1,0,.105c0,1.545-1.551,3.121-4.37,4.444-4.147,1.965-10.346,3.09-17.015,3.09S-277.1.147-281.245-1.813c-2.812-1.323-4.364-2.9-4.364-4.444-.006.019-.006-.019,0-.105ZM-287.148,6a.313.313,0,0,0,0,.068,5.928,5.928,0,0,0,.377.742l.056.08a7.17,7.17,0,0,0,.55.742h0a9.618,9.618,0,0,0,.711.717l.049.043c.253.223.532.445.828.661l.111.08c.3.21.618.408.933.618l.161.093c.334.192.68.377,1.045.562l.185.087c.371.179.754.352,1.162.519l.185.08c.414.167.847.328,1.292.482l.155.049c.476.161.958.315,1.459.457h.043c.5.142,1.02.278,1.551.408h.136c.519.124,1.057.235,1.6.34l.229.043c.532.1,1.082.192,1.638.278l.278.043c.556.08,1.119.148,1.693.216h.3c.581.062,1.174.117,1.774.161h.266c.618.037,1.236.074,1.885.1h4.741c.414,0,.834-.037,1.236-.068l.742-.056,1.106-.1.779-.08c.346-.043.686-.08,1.026-.13s.525-.068.785-.111.618-.1.97-.155l.773-.136c.315-.056.618-.124.933-.185l.735-.161c.315-.068.618-.148.921-.229l.674-.167h.087a1.256,1.256,0,0,1-.056.148c0,.068-.062.136-.093.2a3.475,3.475,0,0,1-.216.34,1.561,1.561,0,0,1-.124.192,5.069,5.069,0,0,1-.426.5l-.155.136a4.635,4.635,0,0,1-.408.371l-.26.2-.42.309-.29.192c-.173.111-.352.223-.544.328l-.26.148c-.29.161-.618.321-.915.47s-.766.328-1.162.488c-.173.068-.328.142-.507.21-.618.216-1.2.426-1.854.618l-.1.142-.618.179-.26.074-.618.155-.21.049-.525.111h-.049c-.433.1-.884.192-1.36.266s-.884.167-1.341.241h-.111l-.365.056c-.377.056-.754.111-1.113.155h-.13l-.389.049h-.328c-.581.062-1.162.117-1.749.167l-1.113.068c-.618,0-1.3.049-2.083.062h-.958a46.292,46.292,0,0,1-14.834-2.207,23.386,23.386,0,0,1-2.194-.878,15.564,15.564,0,0,1-1.551-.847c-1.6-.946-2.577-2.027-2.763-3.134a2.336,2.336,0,0,1-.074-.4V11.1c.161-1.842,2.472-3.721,6.354-5.105Zm15.038,23.394a47.03,47.03,0,0,1-14.1-1.978h-.056c-4.376-1.391-7.077-3.412-7.213-5.4a1.292,1.292,0,0,0,0-.155v-6.78l.192.161.241.21c.2.167.408.328.618.488l.29.2c.235.161.488.315.754.47l.29.179c.34.192.7.377,1.082.562l.093.049c.358.167.754.321,1.137.476a45.856,45.856,0,0,0,16.688,2.787h2.917c.488,0,.958-.043,1.415-.08.668-.056,1.4-.124,2.089-.2l.42-.043h.117l1.125-.161.451-.068h.031c.482-.074.964-.155,1.452-.253s.952-.173,1.347-.266l.142-.031h.08c.408-.08.8-.179,1.162-.278l.179-.043c.4-.1.785-.21,1.143-.321.68-.2,1.335-.426,1.972-.661.278-.105.525-.223.8-.334s.68-.272,1-.42l.093-.049q.569-.265,1.075-.556l.3-.173c.26-.161.513-.315.754-.476l.284-.2a7.431,7.431,0,0,0,.618-.488l.247-.21c.056-.056.13-.105.185-.161v6.65h0V21.9h0V22C-250.978,25.568-259.619,29.394-272.11,29.394Zm21.991-19.438a47.174,47.174,0,0,1-14.117,1.984c-11.478,0-19.821-3.294-21.187-6.657a2.489,2.489,0,0,1-.161-.618h0a.21.21,0,0,0,0-.056.747.747,0,0,0,0-.117V-2.375l.167.148c.093.08.192.167.3.247s.365.3.562.439l.34.241c.223.148.457.3.7.439.111.068.216.136.334.2.365.2.748.408,1.162.618,4.388,2.083,10.884,3.276,17.819,3.276s13.431-1.193,17.819-3.276a10.891,10.891,0,0,0,1.162-.618c.117-.062.223-.13.34-.2.241-.142.47-.29.692-.439l.346-.241c.2-.142.377-.284.556-.433l.3-.26c.049-.049.111-.093.167-.142v6.91C-243,6.525-245.712,8.552-250.119,9.955Z" transform="translate(295.372 15.608)" fill="#67a746"/>
</svg>
