<svg id="Group_21459" data-name="Group 21459" xmlns="http://www.w3.org/2000/svg" width="40" height="40" viewBox="0 0 40 40">
  <path id="Path_41749" data-name="Path 41749" d="M0,0H40V40H0Z" fill="none"/>
  <rect id="Rectangle_7138" data-name="Rectangle 7138" width="30" height="7" rx="1" transform="translate(5 13)" fill="none" stroke="#67a746" stroke-linecap="round" stroke-linejoin="round" stroke-width="2"/>
  <line id="Line_1694" data-name="Line 1694" y2="22" transform="translate(20 13)" fill="none" stroke="#67a746" stroke-linecap="round" stroke-linejoin="round" stroke-width="2"/>
  <path id="Path_41750" data-name="Path 41750" d="M28.333,12V23.667A3.333,3.333,0,0,1,25,27H8.333A3.333,3.333,0,0,1,5,23.667V12" transform="translate(3.333 8)" fill="none" stroke="#67a746" stroke-linecap="round" stroke-linejoin="round" stroke-width="2"/>
  <path id="Path_41751" data-name="Path 41751" d="M9.167,11.334A4.167,4.167,0,1,1,9.167,3c3.29-.057,6.266,3.249,7.5,8.333C17.9,6.249,20.876,2.943,24.167,3a4.167,4.167,0,0,1,0,8.333" transform="translate(3.333 1.666)" fill="none" stroke="#67a746" stroke-linecap="round" stroke-linejoin="round" stroke-width="2"/>
</svg>
