<svg id="Group_21357" data-name="Group 21357" xmlns="http://www.w3.org/2000/svg" width="40" height="40" viewBox="0 0 40 40">
  <path id="Path_38588" data-name="Path 38588" d="M0,0H40V40H0Z" fill="none"/>
  <path id="Path_38589" data-name="Path 38589" d="M20.6,24.362l-3.62,1.9a.653.653,0,0,1-.947-.683l.692-4.018L13.8,18.712a.648.648,0,0,1,.362-1.108l4.047-.587,1.81-3.655a.653.653,0,0,1,1.17,0L23,17.017l4.047.587a.65.65,0,0,1,.362,1.108l-2.928,2.845.69,4.017a.65.65,0,0,1-.945.685Z" transform="translate(9.066 8.666)" fill="none" stroke="#67a746" stroke-linecap="round" stroke-linejoin="round" stroke-width="1.5"/>
  <path id="Path_38590" data-name="Path 38590" d="M9,24.362l-3.62,1.9a.653.653,0,0,1-.947-.683l.692-4.018L2.2,18.712A.648.648,0,0,1,2.559,17.6l4.047-.587,1.81-3.655a.653.653,0,0,1,1.17,0l1.81,3.655,4.047.587a.65.65,0,0,1,.362,1.108l-2.928,2.845.69,4.017a.65.65,0,0,1-.945.685L9,24.362Z" transform="translate(1.333 8.666)" fill="none" stroke="#67a746" stroke-linecap="round" stroke-linejoin="round" stroke-width="1.5"/>
  <path id="Path_38591" data-name="Path 38591" d="M14.8,14.362l-3.62,1.9a.653.653,0,0,1-.947-.683l.692-4.018L8,8.712A.648.648,0,0,1,8.359,7.6l4.047-.587,1.81-3.655a.653.653,0,0,1,1.17,0L17.2,7.017l4.047.587A.65.65,0,0,1,21.6,8.712l-2.928,2.845.69,4.017a.65.65,0,0,1-.945.685l-3.62-1.9Z" transform="translate(5.2 2)" fill="none" stroke="#67a746" stroke-linecap="round" stroke-linejoin="round" stroke-width="1.5"/>
</svg>
