<svg xmlns="http://www.w3.org/2000/svg" width="55.083" height="55.077" viewBox="0 0 55.083 55.077">
  <path id="Path_41746" data-name="Path 41746" d="M-176.421,51.242a.844.844,0,0,1-.607-.256l-5.252-5.252-7.122,1.943a.891.891,0,0,1-.209.024.9.9,0,0,1-.859-.649l-1.941-7.176-7.082-1.8a1.25,1.25,0,0,1-.564-.472.829.829,0,0,1-.088-.655l1.871-7.244-5.179-5.183a.859.859,0,0,1-.262-.623.844.844,0,0,1,.256-.6l5.26-5.184-1.944-7.125a.887.887,0,0,1,.624-1.067l7.172-1.94,1.875-7.122a.859.859,0,0,1,.822-.646.864.864,0,0,1,.234.033l7.252,1.875,5.24-5.24a.814.814,0,0,1,.556-.219.806.806,0,0,1,.6.259l5.206,5.272,7.125-1.944a.891.891,0,0,1,.209-.024.9.9,0,0,1,.858.65l1.942,7.175,7.141,1.8a1.233,1.233,0,0,1,.564.471.837.837,0,0,1,.088.656l-1.944,7.187s5.241,5.243,5.258,5.261a.747.747,0,0,1-.049,1.057l-5.271,5.27,1.944,7.123a.809.809,0,0,1-.09.666l-.025.041-.02.043a.66.66,0,0,1-.452.366l-7.214,1.952-1.8,7.14a1.243,1.243,0,0,1-.472.564.829.829,0,0,1-.43.119.825.825,0,0,1-.226-.031l-7.188-1.944-5.187,5.187A.865.865,0,0,1-176.421,51.242Zm-5.717-7.34a.924.924,0,0,1,.663.262l4.984,4.984,5.048-4.981a.815.815,0,0,1,.6-.27.81.81,0,0,1,.227.033l6.786,1.832,1.838-6.757a.919.919,0,0,1,.629-.62l6.746-1.835-1.839-6.758a.8.8,0,0,1,.213-.824l4.989-5.08-4.924-4.923a.8.8,0,0,1-.233-.822l1.843-6.774-6.758-1.839a.918.918,0,0,1-.619-.629l-1.836-6.746-6.758,1.839a.835.835,0,0,1-.243.038.8.8,0,0,1-.579-.251l-5-5-5.058,4.929a.824.824,0,0,1-.6.273.785.785,0,0,1-.227-.034l-6.775-1.843-1.838,6.758a.919.919,0,0,1-.629.62l-6.746,1.835,1.839,6.759a.8.8,0,0,1-.214.823l-5,5,4.925,5.058a.928.928,0,0,1,.23.864l-1.834,6.74,6.758,1.838a.921.921,0,0,1,.62.629l1.835,6.747,6.758-1.84a.474.474,0,0,1,.156-.036Zm11.842-9.8a4.064,4.064,0,0,1-4.059-4.059,4.063,4.063,0,0,1,4.059-4.058,4.032,4.032,0,0,1,2.887,1.194,4.01,4.01,0,0,1,1.171,2.861A4.064,4.064,0,0,1-170.3,34.1Zm0-6.307A2.311,2.311,0,0,0-172.6,30.1a2.311,2.311,0,0,0,2.309,2.309,2.309,2.309,0,0,0,2.308-2.312A2.31,2.31,0,0,0-170.3,27.791Zm-14.091,4.951a.842.842,0,0,1-.607-.256l-.064-.063a.808.808,0,0,1-.218-.584.807.807,0,0,1,.258-.567l15.993-15.934a.814.814,0,0,1,.555-.219.807.807,0,0,1,.6.259.869.869,0,0,1-.028,1.23L-183.773,32.48a.861.861,0,0,1-.613.262Zm1.827-10.788a4.035,4.035,0,0,1-2.886-1.2,4.011,4.011,0,0,1-1.172-2.861,4.064,4.064,0,0,1,4.059-4.061,4.063,4.063,0,0,1,4.059,4.058,4.063,4.063,0,0,1-4.059,4.058h0Zm-.012-6.426a2.286,2.286,0,0,0-1.626.68,2.29,2.29,0,0,0-.668,1.631,2.31,2.31,0,0,0,2.308,2.306,2.311,2.311,0,0,0,2.309-2.309,2.311,2.311,0,0,0-2.309-2.308Z" transform="translate(203.964 3.585)" fill="#67a746" stroke="#67a746" stroke-width="0.5"/>
</svg>
