<svg xmlns="http://www.w3.org/2000/svg" width="100" height="100" viewBox="0 0 100 100">
  <g id="Group_21281" data-name="Group 21281" transform="translate(-73.042 -132.333)">
    <path id="Path_38767" data-name="Path 38767" d="M168.4,182.333c0-4.328,5.875-9.37,4.808-13.361-1.1-4.13-8.744-5.555-10.836-9.171-2.122-3.668.441-10.99-2.536-13.967s-10.3-.413-13.967-2.535c-3.616-2.092-5.04-9.732-9.17-10.836-3.992-1.067-9.034,4.808-13.362,4.808s-9.37-5.875-13.361-4.808c-4.13,1.1-5.555,8.744-9.171,10.836-3.668,2.122-10.99-.441-13.967,2.536s-.413,10.3-2.535,13.967c-2.092,3.616-9.732,5.04-10.836,9.17-1.067,3.992,4.808,9.034,4.808,13.361s-5.875,9.37-4.808,13.361c1.1,4.13,8.744,5.555,10.836,9.171,2.122,3.668-.441,10.99,2.536,13.967s10.3.413,13.967,2.535c3.616,2.092,5.04,9.732,9.17,10.836,3.992,1.067,9.033-4.808,13.361-4.808s9.37,5.875,13.362,4.808c4.13-1.1,5.555-8.744,9.171-10.836,3.668-2.122,10.99.441,13.967-2.536s.413-10.3,2.535-13.967c2.092-3.616,9.732-5.04,10.836-9.17C174.271,191.7,168.4,186.661,168.4,182.333Z" transform="translate(-0.291)" fill="#90b83e"/>
    <g id="Group_21280" data-name="Group 21280" transform="translate(97.231 167.035)">
      <path id="Path_38768" data-name="Path 38768" d="M134.772,205.61,121.8,194.939a2.236,2.236,0,0,1-.238-3.324c1.027-.9,2.957-.2,3.913.6l8.689,7.094L154,176.669a2.98,2.98,0,0,1,3.513-.508,1.74,1.74,0,0,1,.645,2.764Z" transform="translate(-114.108 -175.809)" fill="#fff"/>
    </g>
  </g>
</svg>
