<svg xmlns="http://www.w3.org/2000/svg" width="110" height="110" viewBox="0 0 110 110">
  <g id="Group_21141" data-name="Group 21141" transform="translate(-629 -1480)">
    <g id="Ellipse_568" data-name="Ellipse 568" transform="translate(629 1480)" fill="#fff" stroke="#67a746" stroke-width="1" stroke-dasharray="3 3">
      <circle cx="55" cy="55" r="55" stroke="none"/>
      <circle cx="55" cy="55" r="54.5" fill="none"/>
    </g>
    <path id="Path_28762" data-name="Path 28762" d="M207.206,270.621c0-.945-.293-1.247-1.231-1.247q-7.488,0-14.978,0c-.9,0-1.2.315-1.206,1.216,0,.57,0,1.14,0,1.782-.146-.1-.183-.119-.212-.145a10.041,10.041,0,0,0-15.458,1.706.58.58,0,0,1-.715.252,3.944,3.944,0,0,1-3.084-3.768q-.048-7.138,0-14.275a3.808,3.808,0,0,1,3.328-3.777c1.159-.153,2.348-.057,3.522-.1a.846.846,0,0,1,.8.4,6.145,6.145,0,0,0,5.278,2.637,20.252,20.252,0,0,0,2.646-.4c.027.083.081.234.121.388.494,1.843,1,3.684,1.472,5.531.221.859.481,1.4,1.684,1.005.586-.194,1.2-.3,1.826-.452.447,1.661.866,3.25,1.3,4.833.209.759.561.952,1.31.759q2.061-.53,4.12-1.067c1.083-.284,1.265-.613.97-1.723-.4-1.506-.8-3.011-1.191-4.5a.861.861,0,0,1,.148-.094c.449-.127.9-.249,1.347-.374,1-.278,1.182-.6.916-1.594q-2.238-8.383-4.479-16.766c-.47-1.76-.938-3.521-1.4-5.267,1.415-.861,1.559-1.235,1.132-2.835-.177-.667-.377-1.33-.519-2a2.211,2.211,0,0,0-1.457-1.793h-.853c-.224.081-.444.178-.673.241q-5.841,1.577-11.682,3.15a1.746,1.746,0,0,0-1.4,2.245c.246,1.026.528,2.044.824,3.058a1.679,1.679,0,0,0,1.72,1.271c.156,0,.313,0,.5,0l.948,3.542a1.741,1.741,0,0,1-.256.085,6.555,6.555,0,0,0-4.488,2.76.878.878,0,0,1-.615.237c-1.479.056-2.971-.017-4.437.143a10.538,10.538,0,0,0-9.054,9.05c-.2,1.852-.109,3.736-.137,5.6-.011.717.334,1.13.9,1.135s.918-.413.922-1.121c.006-1.424-.025-2.848.01-4.271a8.715,8.715,0,0,1,2.973-6.451c2.428-2.215,5.372-2.45,8.409-2.2v3.017c-.834,0-1.7-.015-2.571,0a5.778,5.778,0,0,0-5.745,5.7c-.05,4.758-.037,9.519,0,14.278a5.357,5.357,0,0,0,2.219,4.414,19.4,19.4,0,0,0,2.254,1.272c-.179.9-.373,1.863-.567,2.83a8.863,8.863,0,0,1-6.962-8.247c-.05-1.971-.012-3.945-.019-5.918,0-.708-.352-1.137-.909-1.14s-.913.422-.915,1.129c0,1.932-.047,3.866.012,5.8a10.738,10.738,0,0,0,8.826,10.293v3.243c-1.492,0-2.948-.006-4.4,0a2.72,2.72,0,0,0-2.9,2.9c-.015,1.017.018,2.034-.011,3.051a1.537,1.537,0,0,0,.551,1.391h33.741a1.448,1.448,0,0,0,.583-1.374c-.026-.956,0-1.911-.007-2.867a2.784,2.784,0,0,0-3.082-3.1c-1.4,0-2.792,0-4.231,0v-3.066h.693c1.359,0,2.719.01,4.079,0a1.807,1.807,0,0,0,1.968-1.975c.006-.954,0-1.907,0-2.941h.7c1.988,0,3.978.006,5.967,0,.826,0,1.128-.321,1.131-1.151Q207.212,272.787,207.206,270.621Zm-13.333-5.6-1.106-4.138,2.955-.794c.372,1.391.731,2.735,1.109,4.148Zm-12.726-27.928-.79-2.968,12.4-3.33.8,2.962Zm.143,7.628a4.606,4.606,0,0,1,5.916,2.026c.086.16.153.331.237.493a.892.892,0,0,0,1.2.52.9.9,0,0,0,.453-1.274,5.378,5.378,0,0,0-1.861-2.513,22.4,22.4,0,0,0-2.284-1.234c-.167-.089-.421-.178-.462-.316-.38-1.323-.723-2.655-1.09-4.037l8.863-2.38,5.766,21.564-8.859,2.381L188.1,256a3.15,3.15,0,0,0-.1-.352c-.468-1.16-.635-2.248.487-3.19a2.828,2.828,0,0,0,.58-1.059.92.92,0,0,0-.384-1.3.931.931,0,0,0-1.279.573,4.629,4.629,0,0,1-3.057,2.674,4.562,4.562,0,0,1-5.5-2.856A4.615,4.615,0,0,1,181.289,244.719Zm15.52,41.206c1.1,0,1.347.252,1.349,1.372,0,.747,0,1.494,0,2.269H166.973c0-.966-.031-1.9.011-2.827.026-.568.391-.811,1.075-.812q4.232-.007,8.465,0a4.924,4.924,0,0,0,.547-.008.933.933,0,0,0,.889-.913.907.907,0,0,0-.949-.9c-.87-.017-1.74,0-2.824,0a47.078,47.078,0,0,1,.4-6.564,8.2,8.2,0,0,1,16.106.75,49.621,49.621,0,0,1,.039,5.811h-9.208a4.179,4.179,0,0,0-.608.016.829.829,0,0,0-.775.8.819.819,0,0,0,.6.937,2.47,2.47,0,0,0,.719.073Q189.137,285.927,196.809,285.925Zm.751-6.768H192.7l-.544-3.007h5.4Zm7.791-4.929h-13.7V271.24h13.7ZM182.64,281.02a3.367,3.367,0,1,0-3.326-3.417A3.367,3.367,0,0,0,182.64,281.02Zm.054-4.893a1.507,1.507,0,0,1,1.5,1.576,1.532,1.532,0,0,1-1.542,1.48,1.551,1.551,0,0,1-1.5-1.587A1.531,1.531,0,0,1,182.694,276.127Z" transform="translate(500.607 1274.811)" fill="#67a746"/>
  </g>
</svg>
