<svg xmlns="http://www.w3.org/2000/svg" width="110" height="110" viewBox="0 0 110 110">
  <g id="Group_21133" data-name="Group 21133" transform="translate(-629 -1480)">
    <g id="Ellipse_568" data-name="Ellipse 568" transform="translate(629 1480)" fill="#fff" stroke="#67a746" stroke-width="1" stroke-dasharray="3 3">
      <circle cx="55" cy="55" r="55" stroke="none"/>
      <circle cx="55" cy="55" r="54.5" fill="none"/>
    </g>
    <g id="Group_21135" data-name="Group 21135" transform="translate(610.611 1154.109)">
      <path id="Path_37965" data-name="Path 37965" d="M103.413,379.683v3.661a4.472,4.472,0,0,0-.1.51,29.363,29.363,0,0,1-2.4,9.731,2.851,2.851,0,0,1-.585.869q-7.133,7.145-14.29,14.268a2.661,2.661,0,0,1-.761.538A26.865,26.865,0,0,1,79.1,411.2c-1.391.254-2.8.4-4.2.6H71.232c-.132-.033-.262-.075-.4-.095-1.382-.2-2.777-.335-4.145-.608a30.259,30.259,0,0,1-23.38-24.2c-.185-1.141-.316-2.292-.473-3.438v-3.779c.193-1.338.338-2.686.587-4.015a30.254,30.254,0,0,1,24.421-23.861c1.124-.184,2.257-.311,3.385-.465h3.786c.172.034.342.075.515.1,1.535.239,3.092.382,4.6.729a30.2,30.2,0,0,1,22.818,24.188C103.138,377.463,103.261,378.576,103.413,379.683Zm-24,24.413c-.137.031-.29.063-.442.1a23.36,23.36,0,1,1-6.563-45.957,22.915,22.915,0,0,1,19.634,9.582,21.744,21.744,0,0,1,3.719,7.837,1.158,1.158,0,0,1-.823,1.473,1.173,1.173,0,0,1-1.438-.812c-.059-.167-.1-.34-.146-.51A21.035,21.035,0,1,0,79.144,401.7a.783.783,0,0,0,.651-.681,15.071,15.071,0,0,1,11.327-12.033c.585-.166,1.357-.076,1.74-.431.4-.372.443-1.136.641-1.73.007-.018.013-.037.021-.054a1.179,1.179,0,0,1,2.259.652c-.064.356-.14.711-.2,1l4.34.852a27.883,27.883,0,1,0-47.481,10.982,27.288,27.288,0,0,0,17.7,9.027,26.849,26.849,0,0,0,10.016-.74Zm3.162,3.686a5.754,5.754,0,0,0,2.387-1.3c4.406-4.446,8.856-8.852,13.27-13.292a9.815,9.815,0,0,0,1.017-1.483,12.935,12.935,0,0,0-13.386,2.785A12.718,12.718,0,0,0,82.577,407.782Z" transform="translate(0 0)" fill="#67a746"/>
      <path id="Path_37966" data-name="Path 37966" d="M71.076,387.514a1.553,1.553,0,0,1,0-.353,4.021,4.021,0,0,0-1.3-4.067,19.391,19.391,0,0,1-1.6-1.966,1.187,1.187,0,0,1,.678-2.032c1.327-.364,2.653-.733,3.985-1.076a1.543,1.543,0,0,0,1.007-.721c.726-1.169,1.491-2.313,2.252-3.46a1.207,1.207,0,0,1,2.216.013c.792,1.2,1.56,2.41,2.369,3.595a1.34,1.34,0,0,0,.678.481c1.376.406,2.766.764,4.148,1.153a1.2,1.2,0,0,1,.67,2.109c-.894,1.124-1.807,2.233-2.687,3.368a1.236,1.236,0,0,0-.247.737c.044,1.395.126,2.789.2,4.183.071,1.354-.66,1.9-1.92,1.425s-2.529-.986-3.808-1.433a1.613,1.613,0,0,0-.99-.008c-1.336.465-2.651.992-3.979,1.484a1.212,1.212,0,0,1-1.793-1.31C70.986,388.927,71.036,388.221,71.076,387.514Zm6.129-11.04c-.586.895-1.154,1.692-1.647,2.534a2.337,2.337,0,0,1-1.612,1.158c-.944.215-1.873.5-2.883.775.725.9,1.378,1.736,2.057,2.55a1.81,1.81,0,0,1,.446,1.354c-.071,1.076-.1,2.155-.153,3.324,1.02-.387,1.983-.72,2.919-1.117a2.124,2.124,0,0,1,1.76,0c.935.392,1.893.727,2.916,1.115-.045-.864-.029-1.635-.14-2.388a3.337,3.337,0,0,1,1.018-3.037,21.4,21.4,0,0,0,1.464-1.8c-1.091-.3-2.069-.6-3.065-.832a2.05,2.05,0,0,1-1.37-1.011C78.385,378.231,77.808,377.395,77.2,376.474Z" transform="translate(-4.079 -3.555)" fill="#67a746"/>
      <path id="Path_37967" data-name="Path 37967" d="M77.352,401.028q-3.487,0-6.973,0a4.628,4.628,0,0,1-.707-.032,1.157,1.157,0,0,1-.12-2.253,3.079,3.079,0,0,1,.761-.072q7.032-.006,14.065,0a4.436,4.436,0,0,1,.472.012,1.181,1.181,0,0,1,1.135,1.2,1.139,1.139,0,0,1-1.187,1.136c-1.615.023-3.231.011-4.846.013Z" transform="translate(-4.224 -7.726)" fill="#67a746"/>
      <path id="Path_37968" data-name="Path 37968" d="M106.548,387.228a1.192,1.192,0,0,1-1.193,1.2,1.161,1.161,0,0,1-1.161-1.154,1.182,1.182,0,0,1,1.181-1.2A1.2,1.2,0,0,1,106.548,387.228Z" transform="translate(-10.016 -5.669)" fill="#67a746"/>
    </g>
  </g>
</svg>
