<svg xmlns="http://www.w3.org/2000/svg" width="110" height="110" viewBox="0 0 110 110">
  <g id="Group_21132" data-name="Group 21132" transform="translate(-629 -1480)">
    <g id="Ellipse_568" data-name="Ellipse 568" transform="translate(629 1480)" fill="#fff" stroke="#67a746" stroke-width="1" stroke-dasharray="3 3">
      <circle cx="55" cy="55" r="55" stroke="none"/>
      <circle cx="55" cy="55" r="54.5" fill="none"/>
    </g>
    <g id="Group_21134" data-name="Group 21134" transform="translate(495.365 1120.869)">
      <path id="Path_37976" data-name="Path 37976" d="M196.967,431.875c1.329-.008,2.658-.018,3.986-.023.972,0,.985,0,1.239-.972a17.131,17.131,0,0,1,3.624-7.082c.992-1.139,2.089-2.182,2.977-3.418a20.959,20.959,0,0,0,3-6.262,8.123,8.123,0,0,1,1.43-1.6c.144-.134.316-.261.525-.142a.3.3,0,0,1,.134.441,18.615,18.615,0,0,1-2.067,6.149,19.219,19.219,0,0,1-3.684,5.02,17.424,17.424,0,0,0-4.576,8.816,5.625,5.625,0,0,0-.032,1.251q-.014,1.752-.023,3.5a.667.667,0,0,0-1.141.119.779.779,0,0,1-.936.282,22.423,22.423,0,0,0-2.684-.051c-2.051-.011-4.1,0-6.153-.006a1.713,1.713,0,0,1-.957-.143.264.264,0,0,1-.093-.234,2.978,2.978,0,0,1,2.093-1.732c2.334-.009,4.668,0,7-.006.255,0,.53.068.744-.145a2.709,2.709,0,0,0,.012-1.72c-.215-.224-.492-.144-.744-.146-1.412-.008-2.822,0-4.234-.008-.274,0-.624.075-.762-.232-.155-.345.163-.56.368-.769A4.128,4.128,0,0,1,196.967,431.875Z" transform="translate(-4.796 -4.032)" fill="#67a746"/>
      <path id="Path_37977" data-name="Path 37977" d="M200.327,439.077c-.193.215-.449.126-.678.127-2.414.007-4.829.013-7.244,0-.5,0-.919.021-1.209.537-.251.445-.829.645-.961,1.2a1.19,1.19,0,0,1-.871.185c-1.481.008-2.962,0-4.443.009-.289,0-.689-.117-.817.233a1.95,1.95,0,0,0,.019,1.418c.093.226.378.178.591.182.958.016,1.917-.009,2.875.015a1.172,1.172,0,0,1,1.107.569,1.1,1.1,0,0,1-.949,1.657c-.846.073-1.7.021-2.546.026-1.178.005-1.178,0-1.185,1.2,0,.22,0,.44-.015.66a1.3,1.3,0,0,1-.466.9c-.334.31-.6.678-.9,1.018a.817.817,0,0,1-.648-.927q0-5.436.018-10.873a3.087,3.087,0,0,1,1.568-2.148q5.528.01,11.057.021c.327,0,.653.015.979.024a4.778,4.778,0,0,1-1.045,1.25c-.092.106-.283.191-.172.376.077.129.237.081.361.081,1.634,0,3.268,0,4.9.007.226,0,.485-.1.67.139a1.628,1.628,0,0,1-1.134.2q-6.876.009-13.753,0c-.153,0-.305,0-.458,0-.871.009-1.216.54-.907,1.376a.427.427,0,0,0,.393.291,6,6,0,0,0,.785.024q6.975,0,13.949,0A1.573,1.573,0,0,1,200.327,439.077Z" transform="translate(-3.437 -7.27)" fill="#67a746"/>
      <path id="Path_37978" data-name="Path 37978" d="M169.7,407.985a14.126,14.126,0,0,1-.223-4.2,20.734,20.734,0,0,1,3.807-10.879,20.448,20.448,0,0,1,13.922-8.647,20.04,20.04,0,0,1,3.844-.244,1.228,1.228,0,0,1,.7.105c-.419.341-.919.2-1.372.176a1.8,1.8,0,0,0-1.744.744,5.028,5.028,0,0,1-.973.953,23.508,23.508,0,0,0-4.392,1.22,18.966,18.966,0,0,0-11.6,13.979,21.461,21.461,0,0,0-.383,5.316A8.244,8.244,0,0,1,169.7,407.985Z" transform="translate(-1.648)" fill="#67a746"/>
      <path id="Path_37979" data-name="Path 37979" d="M178.305,409.262a5.744,5.744,0,0,1,.763-7.153,1.051,1.051,0,0,0,.319-.973,4.892,4.892,0,0,1,3.4-5.244,1.013,1.013,0,0,0,.777-.736,4.44,4.44,0,0,1,7.419-1.776c.347.348.523.376.858,0a3.531,3.531,0,0,1,2.192-1.2c.184.3-.018.519-.186.7-.959,1.027-1.956,2.017-2.958,3a.477.477,0,0,1-.47.173c-.232-.13-.277-.386-.389-.6a2.549,2.549,0,0,0-2.485-1.379,2.6,2.6,0,0,0-2.151,1.959c-.038.15-.064.3-.092.454-.156.868-.316,1.028-1.165,1.159a3.13,3.13,0,0,0-2.593,1.962c-.088.212-.232.481-.053.688s.413.033.617-.011a3.465,3.465,0,0,1,.976-.081,1.158,1.158,0,0,1,1.137,1.063,1.122,1.122,0,0,1-1.029,1.1,6.419,6.419,0,0,0-1.217.241,3.755,3.755,0,0,0-2.422,4.6,1.838,1.838,0,0,1,.143.774A5.89,5.89,0,0,1,178.305,409.262Z" transform="translate(-2.783 -1.143)" fill="#67a746"/>
      <path id="Path_37980" data-name="Path 37980" d="M201.468,442.048a2.479,2.479,0,0,0,.678-.505c.64-.651.645-.646,1.112.1.007,2.422.022,4.845.017,7.268,0,.714-.374,1.041-1.126,1.065-1.146.037-1.146.037-1.451,1.12-.149.528-.274,1.065-.455,1.582a2.419,2.419,0,0,1-2.285,1.673c-2.681.014-5.361-.007-8.042-.014a.285.285,0,0,1,.045-.412c.488-.493.885-1.069,1.391-1.545a25.5,25.5,0,0,1,3.125-.065c.978-.02,1.956-.009,2.934,0a.942.942,0,0,0,1.05-.78,3.242,3.242,0,0,0,.269-1.335c-.182-.24-.442-.15-.669-.153-1.021-.011-2.044,0-3.065-.009-.235,0-.519.028-.639-.226-.14-.294.1-.5.28-.677.351-.332.584-.764.946-1.084a2.039,2.039,0,0,1,.9-.114c1.33,0,2.66.008,3.991-.005.678-.007.748-.089.768-.762,0-.154-.008-.309,0-.462.026-.46-.2-.625-.635-.617-.545.011-1.09.006-1.635,0a2.138,2.138,0,0,1-.839-.094c-.29-.2-.154-.425,0-.614a12.62,12.62,0,0,1,1.123-1.183c.277-.268.65-.177.99-.216.324-.037.7.17.956-.2a5.7,5.7,0,0,0,.057-1.087C201.274,442.46,201.254,442.215,201.468,442.048Z" transform="translate(-4.556 -8.124)" fill="#67a746"/>
      <path id="Path_37981" data-name="Path 37981" d="M206.987,405.145a5.757,5.757,0,0,1-.8,6.939,1.192,1.192,0,0,0-.38,1.08,4.844,4.844,0,0,1-3.433,5.207,1.013,1.013,0,0,0-.751.756,4.44,4.44,0,0,1-7.594,1.545c-.228-.762.142-1.31,1.041-1.549a14.546,14.546,0,0,0,1.373.873,2.459,2.459,0,0,0,3.339-1.78,5.427,5.427,0,0,0,.111-.584,1.04,1.04,0,0,1,1.01-1.015,3.33,3.33,0,0,0,2.049-.916,2.891,2.891,0,0,0-.081-4.226c-.144-.134-.31-.242-.45-.382a.987.987,0,0,1-.181-1.364,1.013,1.013,0,0,1,1.374-.375,3.358,3.358,0,0,1,.987.75c.282.307.477.228.65-.1a3.8,3.8,0,0,0,.466-2.668,2.865,2.865,0,0,1-.21-1.091,10.4,10.4,0,0,1,.989-.985C206.619,405.134,206.776,404.985,206.987,405.145Z" transform="translate(-5.142 -3)" fill="#67a746"/>
      <path id="Path_37982" data-name="Path 37982" d="M193.568,419.573c-.579.332-1.127.687-1.049,1.491-.21-.218-.36-.114-.53.074a4.47,4.47,0,0,1-7.647-1.9c-.132-.506-.614-.326-.86-.575a.384.384,0,0,1-.019-.485c.389-.482.735-1.027,1.408-1.163.873.015,1.129.221,1.292,1.063a3.248,3.248,0,0,0,.505,1.415,2.425,2.425,0,0,0,2.657.966,2.606,2.606,0,0,0,1.832-2.473c.028-1.983,0-3.967.014-5.95a16.416,16.416,0,0,1,.063-2.573,12.94,12.94,0,0,1,1.465-1.453c.193-.185.453-.3.623.069a3.3,3.3,0,0,1,.073.984q0,4.026,0,8.051a5.345,5.345,0,0,0,.216,1.955A.461.461,0,0,1,193.568,419.573Z" transform="translate(-3.637 -3.394)" fill="#67a746"/>
      <path id="Path_37983" data-name="Path 37983" d="M194.453,405.67c-.443.094-.631.5-.932.773a3.36,3.36,0,0,1-.859.684,1.019,1.019,0,0,1-.231-.86q-.012-4.724,0-9.447a1.108,1.108,0,0,1,.192-.813c1.185-1.021,2.223-2.194,3.322-3.3a1.678,1.678,0,0,0,.234-.528,4.414,4.414,0,0,1,5.247,3.027c.1.3.208.558.533.657a.33.33,0,0,1-.093.3c-.551.374-.791,1.056-1.365,1.406-.573-.037-.765-.429-.834-.926a3.062,3.062,0,0,0-.5-1.479,2.419,2.419,0,0,0-2.647-.976,2.528,2.528,0,0,0-1.842,2.31c-.031.439-.011.88-.011,1.32,0,2.31,0,4.619-.005,6.928C194.658,405.06,194.739,405.41,194.453,405.67Z" transform="translate(-4.924 -1.142)" fill="#67a746"/>
      <path id="Path_37984" data-name="Path 37984" d="M190.214,453.668c-.064.478-.449.726-.729,1.051-.208.24-.536.391-.581.759a7.467,7.467,0,0,1-1.947-.044,2.4,2.4,0,0,1-1.868-1.737c-.2-.671-.41-1.341-.565-2.023a.626.626,0,0,0-.768-.571,1.548,1.548,0,0,1-1.015-.1c-.045-.327.185-.5.366-.717.285-.34.742-.542.827-1.043a1.259,1.259,0,0,1,.874-.184q4.4-.008,8.809,0c.319,0,.661-.049.921.223-.075.558-.55.821-.867,1.2-.1.124-.334.211-.222.421.083.156.277.085.422.086,1.177,0,2.353,0,3.529.007.227,0,.486-.1.672.138a1.437,1.437,0,0,1-1,.191q-4.741.008-9.479,0a5.613,5.613,0,0,0-.588.015c-.229.025-.383.134-.333.384a4.662,4.662,0,0,0,.409,1.318.818.818,0,0,0,.781.385c.523.016,1.046,0,1.569.012C189.7,453.456,190,453.412,190.214,453.668Z" transform="translate(-3.544 -9.262)" fill="#67a746"/>
      <path id="Path_37985" data-name="Path 37985" d="M216.98,410.586c-.07-.395-.225-.505-.555-.2a17.6,17.6,0,0,1-1.533,1.5,22.69,22.69,0,0,0,.637-5.493,19.109,19.109,0,0,0-1.8-7.655c-.093-.2-.2-.393-.286-.593-.278-.622-.154-1.087.357-1.358.493-.261.967-.074,1.277.533a20.893,20.893,0,0,1,2.022,6.182,21.568,21.568,0,0,1-.009,6.778A1.559,1.559,0,0,1,216.98,410.586Z" transform="translate(-7.896 -1.804)" fill="#67a746"/>
      <path id="Path_37986" data-name="Path 37986" d="M169.747,411.721a5.218,5.218,0,0,1,1.591-1.476,19.666,19.666,0,0,0,1.639,6.366,21.128,21.128,0,0,0,3.192,5.027c-.445.426-1,.773-1.051,1.484a20.13,20.13,0,0,1-4.842-8.639A10.677,10.677,0,0,1,169.747,411.721Z" transform="translate(-1.695 -3.736)" fill="#67a746"/>
      <path id="Path_37987" data-name="Path 37987" d="M202,398.093c.209-.729.852-1.091,1.324-1.6a4.846,4.846,0,0,1,3.607,5.443.7.7,0,0,0,.228.684,4.512,4.512,0,0,1,.975,1.3c-.386.058-.537.421-.8.636-.2.16-.328.423-.631.424-.27.011-.36-.219-.485-.387a3.861,3.861,0,0,0-2.834-1.564,2.06,2.06,0,0,1-.45-.075,1.1,1.1,0,0,1-.81-1.135,1.158,1.158,0,0,1,1.015-.967,3.679,3.679,0,0,1,1.23.1c.543.118.644.012.479-.539a2.915,2.915,0,0,0-2.081-2C202.494,398.336,202.193,398.342,202,398.093Z" transform="translate(-6.286 -1.779)" fill="#67a746"/>
      <path id="Path_37988" data-name="Path 37988" d="M190.69,386.013c.3-.767,1.063-1.131,1.5-1.782.071-.105.367-.071.56-.075.675-.011,1.351-.011,2.027-.015a18.941,18.941,0,0,1,8.229,2.332.909.909,0,0,1,.435,1.279.88.88,0,0,1-1.292.346,18.989,18.989,0,0,0-6.052-2.013,16.831,16.831,0,0,0-4.5-.121C191.3,386,190.994,386,190.69,386.013Z" transform="translate(-4.677 -0.019)" fill="#67a746"/>
      <path id="Path_37989" data-name="Path 37989" d="M176,425.014c-.132-.75.093-1.068,1.051-1.484a17.974,17.974,0,0,1,5.374,8.813c.093.361.19.72.286,1.081a7.863,7.863,0,0,0-1.568,2.148,16.1,16.1,0,0,0-4.436-9.788C176.471,425.533,176.24,425.271,176,425.014Z" transform="translate(-2.581 -5.627)" fill="#67a746"/>
      <path id="Path_37990" data-name="Path 37990" d="M184.121,417.478a2.264,2.264,0,0,0-1.34,1.49,4.815,4.815,0,0,1-3.236-5.2.855.855,0,0,0-.279-.852,3.532,3.532,0,0,1-.809-1.106,3.618,3.618,0,0,1,1.309-1.208c.505.525.928.408,1.338-.14a1.521,1.521,0,0,1,.594-.4,1.068,1.068,0,0,1,1.391.349,1.045,1.045,0,0,1-.225,1.421,4.2,4.2,0,0,0-.864.892,2.926,2.926,0,0,0,1.557,4.406C183.763,417.206,184.066,417.144,184.121,417.478Z" transform="translate(-2.935 -3.693)" fill="#67a746"/>
      <path id="Path_37991" data-name="Path 37991" d="M160.919,395.416c.254.084.565.178.87.29,1.407.517,2.816,1.033,4.22,1.56.66.247.938.737.74,1.256a.968.968,0,0,1-1.36.486q-2.388-.875-4.774-1.753a.9.9,0,0,1-.629-1.086C160.066,395.691,160.393,395.47,160.919,395.416Z" transform="translate(-0.302 -1.625)" fill="#67a746"/>
      <path id="Path_37992" data-name="Path 37992" d="M161.378,409.323c-.829,0-1.658.008-2.487,0a.932.932,0,1,1,.009-1.847q2.52-.012,5.039,0a.978.978,0,0,1,1.091.9c.02.546-.429.945-1.1.953C163.08,409.331,162.229,409.324,161.378,409.323Z" transform="translate(0 -3.34)" fill="#67a746"/>
      <path id="Path_37993" data-name="Path 37993" d="M224.839,409.323c-.829,0-1.659.008-2.487,0a.969.969,0,0,1-1.081-.9c-.014-.553.425-.941,1.105-.944q2.487-.012,4.973,0c.682,0,1.115.38,1.106.937s-.432.909-1.131.914C226.5,409.328,225.667,409.324,224.839,409.323Z" transform="translate(-9.03 -3.34)" fill="#67a746"/>
      <path id="Path_37994" data-name="Path 37994" d="M160.921,421.069a.884.884,0,0,1-.931-.722.913.913,0,0,1,.66-1.125c1.328-.485,2.652-.977,3.977-1.466.245-.09.491-.178.736-.267.661-.242,1.221-.036,1.4.515.17.522-.118.979-.792,1.231q-2.231.83-4.467,1.647C161.3,420.957,161.093,421.014,160.921,421.069Z" transform="translate(-0.302 -4.753)" fill="#67a746"/>
      <path id="Path_37995" data-name="Path 37995" d="M226.392,420.155a.862.862,0,0,1-1.117.864q-2.593-.906-5.158-1.9a.853.853,0,0,1-.5-1.147.884.884,0,0,1,1.172-.541c1.665.593,3.323,1.2,4.981,1.816A.885.885,0,0,1,226.392,420.155Z" transform="translate(-8.786 -4.75)" fill="#67a746"/>
      <path id="Path_37996" data-name="Path 37996" d="M226.389,396.363a.9.9,0,0,1-.649.893c-1.638.6-3.28,1.194-4.918,1.8a.88.88,0,0,1-1.194-.5.862.862,0,0,1,.51-1.195c1.71-.658,3.429-1.294,5.16-1.893A.861.861,0,0,1,226.389,396.363Z" transform="translate(-8.784 -1.625)" fill="#67a746"/>
      <path id="Path_37997" data-name="Path 37997" d="M209.087,390.138c.674-.006,2.675,1.983,2.659,2.62a.883.883,0,0,1-.5.8.8.8,0,0,1-.924-.05c-.665-.63-1.3-1.288-1.924-1.962a.815.815,0,0,1-.064-.931A.768.768,0,0,1,209.087,390.138Z" transform="translate(-7.172 -0.873)" fill="#67a746"/>
      <path id="Path_37998" data-name="Path 37998" d="M198.552,446.362c-1.349.008-2.7.023-4.046.02-.684,0-1.048-.32-1.066-.886s.382-.958,1.074-.961c2.328-.009,4.657,0,6.985-.006.152,0,.3-.012.455-.019-.367.293-.8.144-1.189.131a1.258,1.258,0,0,0-1.227.528C199.248,445.6,198.716,445.824,198.552,446.362Z" transform="translate(-5.068 -8.614)" fill="#67a746"/>
    </g>
  </g>
</svg>
