<svg xmlns="http://www.w3.org/2000/svg" width="110" height="110" viewBox="0 0 110 110">
  <g id="Group_21140" data-name="Group 21140" transform="translate(-629 -1480)">
    <g id="Ellipse_568" data-name="Ellipse 568" transform="translate(629 1480)" fill="#fff" stroke="#67a746" stroke-width="1" stroke-dasharray="3 3">
      <circle cx="55" cy="55" r="55" stroke="none"/>
      <circle cx="55" cy="55" r="54.5" fill="none"/>
    </g>
    <g id="Group_21142" data-name="Group 21142" transform="translate(655.453 1506.862)">
      <path id="Path_37964" data-name="Path 37964" d="M144.169,533.923a8.268,8.268,0,0,1-11.985-1.811,8.022,8.022,0,0,1,3.331-11.624c-1.532-4.819-.615-7.754,3.062-10.069a19.1,19.1,0,0,1,.021-2.841,6.64,6.64,0,1,1,13.076,2.3c-.058.3-.075.468.237.663a7.412,7.412,0,0,1,2.953,9.7c-.031.069-.055.141-.1.265a8.479,8.479,0,0,1,3.119,2.551,8.811,8.811,0,0,1,1.542,3.641,9.262,9.262,0,0,1,1.585-3.676,8.359,8.359,0,0,1,3.071-2.5c-1.568-4.83-.65-7.767,3.048-10.113a19.01,19.01,0,0,1,.021-2.843,6.639,6.639,0,1,1,13.074,2.306c-.058.3-.069.467.241.661a7.413,7.413,0,0,1,2.976,9.654c-.039.087-.076.174-.133.306a7.983,7.983,0,0,1,4.612,6.34,7.658,7.658,0,0,1-1.445,5.542,8.222,8.222,0,0,1-11.768,1.535v11.634a3.9,3.9,0,0,1,5.291,1.626,3.9,3.9,0,0,1,5.177,3.674,3.758,3.758,0,0,1-.846,7.389c-.119,0-.237,0-.357,0q-24.532,0-49.063,0a3.832,3.832,0,0,1-3.884-2.759,3.743,3.743,0,0,1,2.237-4.469c.146-.06.295-.112.436-.165a3.9,3.9,0,0,1,5.175-3.672,3.945,3.945,0,0,1,5.3-1.626Zm1.943-14.69.144.066c.65-.657,1.291-1.323,1.954-1.967a.958.958,0,0,1,1.462-.044.948.948,0,0,1-.157,1.4c-1.017,1.015-2.057,2.008-3.055,3.039a1.281,1.281,0,0,0-.334.8q-.037,4.014,0,8.03a1.537,1.537,0,0,0,.291.847,6.188,6.188,0,0,0,6.835,2.146,6.067,6.067,0,0,0,.162-11.544c-1.226-.431-1.366-.856-.638-1.94a5.605,5.605,0,0,0-2.4-8.227c-1-.45-1.11-.706-.746-1.721a4.658,4.658,0,0,0-1.614-5.346,4.8,4.8,0,0,0-5.7-.009,4.657,4.657,0,0,0-1.633,5.34c.369,1.035.267,1.279-.723,1.73a5.6,5.6,0,0,0-2.388,8.268c.7,1.031.534,1.47-.642,1.908a5.852,5.852,0,0,0-4.094,5.2,5.707,5.707,0,0,0,3.046,5.8,5.974,5.974,0,0,0,6.666-.3,3.085,3.085,0,0,0,1.7-3.148,2.338,2.338,0,0,0-.692-1.623c-.976-.885-1.891-1.837-2.825-2.768a.8.8,0,0,1-.216-1.057.981.981,0,0,1,1.676-.135c.656.6,1.267,1.258,1.894,1.893l.129-.076v-.624q0-4.455,0-8.909c0-.742.355-1.169.948-1.17s.95.427.953,1.165C146.115,517.253,146.112,518.243,146.112,519.233Zm28.548.168c.708-.7,1.3-1.291,1.9-1.878.644-.635,1.185-.722,1.635-.265s.346.969-.306,1.613c-.967.954-1.943,1.9-2.891,2.869a1.122,1.122,0,0,0-.32.693c-.022,2.736-.019,5.471-.005,8.207a1.213,1.213,0,0,0,.2.645,6.21,6.21,0,0,0,7.338,2.123,6.066,6.066,0,0,0-.43-11.456c-.946-.331-1.136-.888-.579-1.7.033-.049.07-.1.1-.145a5.6,5.6,0,0,0-2.389-8.268c-.987-.442-1.092-.694-.723-1.73a4.653,4.653,0,0,0-1.635-5.339,4.8,4.8,0,0,0-5.7.011,4.657,4.657,0,0,0-1.611,5.346c.365,1.012.258,1.26-.746,1.72a5.594,5.594,0,0,0-2.327,8.322c.647.94.467,1.451-.649,1.832a6.056,6.056,0,0,0-.444,11.352,6.269,6.269,0,0,0,6.86-1.318,2.217,2.217,0,0,0,.834-2.01c-.05-.325.03-.669-.021-.993a1.34,1.34,0,0,0-.3-.7c-.862-.89-1.756-1.75-2.638-2.62-.168-.166-.342-.327-.5-.5a.933.933,0,0,1-.055-1.4.956.956,0,0,1,1.38.062c.334.305.646.634.971.95.355.346.714.69,1.159,1.119v-3.413c0-2.11,0-4.221,0-6.331,0-.743.517-1.226,1.14-1.072a.954.954,0,0,1,.762,1.044C174.656,517.189,174.66,518.215,174.66,519.4Zm-28.517,25.686a3.975,3.975,0,0,1,3.152,1.731,2.355,2.355,0,0,0,.392.363,1.9,1.9,0,0,0,.235-.522,3.706,3.706,0,0,1,3.041-3.318,13.123,13.123,0,0,1,2.166-.02c1.323-1.9,2.791-2.376,5.029-1.579a.943.943,0,0,0,.6-.06,3.854,3.854,0,0,1,2.438-.209,3.937,3.937,0,0,1,2.522,1.992,3.869,3.869,0,0,1,4.9,2.178l2.087-.633v-11.1a8.093,8.093,0,0,1-8.173,1.24,7.993,7.993,0,0,1-5.09-6.338,8.261,8.261,0,0,1-13.3,5.131Zm28.5,11.281c3.171,0,6.341.008,9.51,0a1.873,1.873,0,1,0,.05-3.745c-.939-.034-1.275-.464-1.067-1.369a1.826,1.826,0,0,0-.739-2.058,1.891,1.891,0,0,0-2.219.066c-.891.62-1.514.381-1.743-.667a1.869,1.869,0,0,0-3.05-1.169,1.116,1.116,0,0,1-1.457-.011,1.868,1.868,0,0,0-3.04,1.2c-.215,1.011-.867,1.272-1.705.673a1.9,1.9,0,0,0-1.621-.365,1.839,1.839,0,0,0-1.381,2.294c.22.954-.1,1.339-1.074,1.422a2.455,2.455,0,0,0-1.1.372,1.765,1.765,0,0,0-.677,2.074,1.873,1.873,0,0,0,1.859,1.286C168.338,556.374,171.489,556.369,174.639,556.369Zm-30.45,0c3.169,0,6.339.008,9.508,0a1.873,1.873,0,1,0,.053-3.745c-.967-.035-1.278-.454-1.054-1.423a1.83,1.83,0,0,0-.761-2,1.878,1.878,0,0,0-2.17.031c-.974.658-1.533.44-1.8-.7a1.862,1.862,0,0,0-2.993-1.136,1.143,1.143,0,0,1-1.505.017,1.866,1.866,0,0,0-3.036,1.205c-.213,1.007-.867,1.266-1.708.665a1.9,1.9,0,0,0-1.621-.361,1.839,1.839,0,0,0-1.376,2.3c.22.949-.1,1.335-1.078,1.419a2.441,2.441,0,0,0-1.1.374,1.767,1.767,0,0,0-.673,2.075,1.874,1.874,0,0,0,1.86,1.283C137.889,556.374,141.039,556.369,144.189,556.369Zm19.987-5.559a3.788,3.788,0,0,1,1.459-3,3.925,3.925,0,0,1,3.31-.725,1.827,1.827,0,0,0-.992-1.736,1.861,1.861,0,0,0-2.111.2c-.753.547-1.543.31-1.645-.547a1.93,1.93,0,0,0-3.2-1.266.866.866,0,0,1-1.2.013,1.94,1.94,0,0,0-3.23,1.289.919.919,0,0,1-1.527.6c-.132-.086-.25-.195-.387-.269a1.888,1.888,0,0,0-2.819,1.682c2.105,1.025,2.594,1.669,2.89,3.807a3.8,3.8,0,0,1,2.336,5.5h4.7C160.935,553.365,161.48,552.116,164.175,550.81Z" transform="translate(-130.888 -501.97)" fill="#67a746"/>
    </g>
  </g>
</svg>
