<svg xmlns="http://www.w3.org/2000/svg" width="110" height="110" viewBox="0 0 110 110">
  <g id="Group_21137" data-name="Group 21137" transform="translate(-629 -1480)">
    <g id="Ellipse_568" data-name="Ellipse 568" transform="translate(629 1480)" fill="#fff" stroke="#67a746" stroke-width="1" stroke-dasharray="3 3">
      <circle cx="55" cy="55" r="55" stroke="none"/>
      <circle cx="55" cy="55" r="54.5" fill="none"/>
    </g>
    <g id="Group_21139" data-name="Group 21139" transform="translate(315.121 1323.77)">
      <path id="Path_37971" data-name="Path 37971" d="M353.136,194.7c-.424-.065-.784-.092-1.129-.178a3.281,3.281,0,0,1-2.481-3.126q-.047-4.132,0-8.265a3.278,3.278,0,0,1,3.057-3.239c.179-.016.36-.018.541-.018q11.3,0,22.607,0a3.362,3.362,0,0,1,3.6,3.621q.008,3.689,0,7.378a3.5,3.5,0,0,1-2.908,3.766c.3.25.545.452.785.665a12.056,12.056,0,0,1,4.207,7.12,9.642,9.642,0,0,1,.1,1.564q.006,16.839.01,33.677a5.466,5.466,0,0,1-.868,3.168,3.679,3.679,0,0,1-3.241,1.759c-8.483-.016-16.966,0-25.45-.011a4.736,4.736,0,0,1-4.637-4.43c-.018-.295-.014-.591-.014-.887,0-10.747.067-21.5-.037-32.242a11.221,11.221,0,0,1,4.085-8.89C351.906,195.635,352.506,195.2,353.136,194.7Zm26.736,36.8H357.191c-1.374,0-1.484-.108-1.485-1.462q0-10.694,0-21.386c0-1.325.12-1.447,1.43-1.447h22.749c0-.935-.045-1.756.008-2.571a9.447,9.447,0,0,0-3.26-7.632,7.638,7.638,0,0,0-5.82-2.392c-3.99.13-7.988.072-11.981.017A7.214,7.214,0,0,0,354.6,195.8a19.937,19.937,0,0,0-3.062,2.449,8.056,8.056,0,0,0-2.613,5.806c.011,11.182.029,22.365-.022,33.547a3.48,3.48,0,0,0,3.317,3.371c8.281-.079,16.563-.035,24.845-.035a2.538,2.538,0,0,0,2.783-2.584C379.934,236.108,379.872,233.853,379.872,231.5Zm-22.494-22.633V229.8h22.459V208.864ZM356.02,181.55V193c.756,0,1.471-.034,2.182.012.487.031.62-.163.616-.728-.021-3.371-.009-6.742-.012-10.113,0-.2-.024-.395-.04-.625Zm12.328,11.422V181.55h-3.2v11.421Zm4.811-.015V181.566h-3.113v11.391Zm-12.675-11.4v11.4h2.944v-11.4Zm14.394-.03v11.491a13.352,13.352,0,0,0,1.389-.074,1.618,1.618,0,0,0,1.421-1.585q.043-4.1,0-8.193a1.656,1.656,0,0,0-1.6-1.634C375.712,181.5,375.327,181.524,374.878,181.524Zm-21.036,11.568v-11.5c-1.687-.359-2.784.388-2.727,2.171.079,2.429.026,4.862.017,7.294a1.627,1.627,0,0,0,.906,1.686A9.08,9.08,0,0,0,353.842,193.092Z" transform="translate(0 0)" fill="#67a746"/>
      <path id="Path_37972" data-name="Path 37972" d="M397.2,229.366q.152,6.648.052,13.3a6.069,6.069,0,0,1-12.129.066c-.111-4.432-.153-8.871-.043-13.3s4.729-7.16,9.039-5.091A5.669,5.669,0,0,1,397.2,229.366Zm-10.535,7.521c.031,2.093-.048,4.118.12,6.123a4.442,4.442,0,0,0,8.832-.156c.118-1.966.032-3.944.036-6Zm8.826-8.037a4.425,4.425,0,0,0-8.732.092c-.194,2.066-.086,4.163-.111,6.3l9.025-.034C395.627,233.056,395.718,230.936,395.493,228.85Z" transform="translate(-0.808 -5.946)" fill="#67a746"/>
      <path id="Path_37973" data-name="Path 37973" d="M352.035,225.945q0-4.679,0-9.358c0-.227-.067-.51.041-.67.181-.271.468-.632.724-.644s.591.312.784.57c.124.168.073.482.073.73q0,9.325,0,18.649a4.593,4.593,0,0,1-.012.545c-.06.493-.313.814-.835.8a.752.752,0,0,1-.771-.851c-.01-1.5-.006-3.005-.007-4.508Q352.034,228.575,352.035,225.945Z" transform="translate(-0.644 -4.81)" fill="#67a746"/>
      <path id="Path_37974" data-name="Path 37974" d="M351.932,212.475c-.022-.569.158-1,.788-1.054.549-.045.844.379.837,1.14-.007.709-.308,1.078-.855,1.052S351.924,213.224,351.932,212.475Z" transform="translate(-0.633 -4.287)" fill="#67a746"/>
      <path id="Path_37975" data-name="Path 37975" d="M394.516,227.649c-.245.089-.655.118-.84.339a.958.958,0,0,0-.086.9c1.085,1.105.985,2.479.972,3.845,0,.227,0,.455,0,.682.021.535.282.886.826.875s.8-.374.8-.907c0-.863.015-1.729-.039-2.591A4.412,4.412,0,0,0,394.516,227.649Z" transform="translate(-3.021 -6.492)" fill="#67a746"/>
      <path id="Path_37999" data-name="Path 37999" d="M4.776,12.263a.721.721,0,0,0,.343.086.739.739,0,0,0,.219-.033.722.722,0,0,0,.428-.367,10.009,10.009,0,0,0,.68-6.742A10.013,10.013,0,0,0,2.01.087.723.723,0,0,0,1.019.4a10.015,10.015,0,0,0-.68,6.742A10.015,10.015,0,0,0,4.776,12.263ZM2.009,1.8A8.041,8.041,0,0,1,5.068,5.645a8.068,8.068,0,0,1-.29,4.9,8.072,8.072,0,0,1-3.06-3.843A8.072,8.072,0,0,1,2.009,1.8Z" transform="translate(376.383 216.814) rotate(68)" fill="#67a746"/>
      <path id="Path_38000" data-name="Path 38000" d="M4.776,12.263a.721.721,0,0,0,.343.086.739.739,0,0,0,.219-.033.722.722,0,0,0,.428-.367,10.01,10.01,0,0,0,.68-6.742A10.013,10.013,0,0,0,2.01.087.723.723,0,0,0,1.019.4a10.016,10.016,0,0,0-.68,6.742A10.015,10.015,0,0,0,4.776,12.263ZM2.009,1.8A8.04,8.04,0,0,1,5.068,5.645a8.069,8.069,0,0,1-.29,4.9A8.072,8.072,0,0,1,1.718,6.705,8.073,8.073,0,0,1,2.009,1.8Z" transform="matrix(0.995, -0.105, 0.105, 0.995, 359.615, 214.432)" fill="#67a746"/>
    </g>
  </g>
</svg>
