<svg xmlns="http://www.w3.org/2000/svg" width="110" height="110" viewBox="0 0 110 110">
  <g id="Group_21129" data-name="Group 21129" transform="translate(-629 -1480)">
    <g id="Ellipse_568" data-name="Ellipse 568" transform="translate(629 1480)" fill="#fff" stroke="#67a746" stroke-width="1" stroke-dasharray="3 3">
      <circle cx="55" cy="55" r="55" stroke="none"/>
      <circle cx="55" cy="55" r="54.5" fill="none"/>
    </g>
    <path id="Path_38551" data-name="Path 38551" d="M183.986,228.945a5.113,5.113,0,0,1,2.324,1.237,4.209,4.209,0,0,1,.817,4.728c-1.835,4.755-3.655,9.515-5.5,14.267a1.384,1.384,0,0,0,.006,1.145c1.377,3.26,2.727,6.533,4.085,9.8.078.185.167.366.321.7a30.861,30.861,0,0,0,2.171-2.346,36.889,36.889,0,0,1,4.768-5.658,21.866,21.866,0,0,1,3.335-2.51,3.846,3.846,0,0,1,5,.852,3.035,3.035,0,0,1-.068,4.195,30.349,30.349,0,0,0-5.637,8.515c-1.485,3.032-2.96,6.071-4.538,9.055A19.035,19.035,0,0,1,187,278.047a6.958,6.958,0,0,0-2.305,5.348c-.013,1.459-.015,2.917-.031,4.376a3.161,3.161,0,0,1-3.457,3.425q-5.166.006-10.332,0c-1.885,0-3.768,0-5.653,0a3.124,3.124,0,0,1-3.38-3.365c-.007-2.208-.043-4.418.015-6.625a7.055,7.055,0,0,0-.786-3.384,29.269,29.269,0,0,1-2.654-6.694c-.322-1.476-.443-3-.666-4.494a3.289,3.289,0,0,0-.229-.867c-.83-1.822-1.7-3.626-2.514-5.456a4.135,4.135,0,0,1,2.808-5.9,10.489,10.489,0,0,1,1.219-.122c-.093-.237-.182-.47-.275-.7a4.137,4.137,0,0,1,7.473-3.524c.474.892.894,1.815,1.293,2.744.384.891,1.22.842,1.938.937.665.089.9-.5,1.1-1.023.441-1.153.913-2.294,1.318-3.458a1.617,1.617,0,0,0,.007-1.023c-1.484-3.935-3-7.859-4.5-11.788a4.161,4.161,0,0,1,2.047-5.493,4.059,4.059,0,0,1,5.411,1.9c.68,1.511,1.228,3.08,1.835,4.622.072.183.152.363.279.664.213-.53.386-.945.548-1.364.554-1.434,1.162-2.85,1.643-4.308a4.8,4.8,0,0,1,3.622-3.533Zm-22.9,43.994c.527,1.129,1.027,2.272,1.586,3.385a10.15,10.15,0,0,1,1.261,5.114c-.094,2.083-.023,4.173-.021,6.26,0,1.08.342,1.426,1.41,1.427q7.933,0,15.865,0c1.032,0,1.378-.35,1.391-1.388.017-1.417.036-2.836.042-4.254a9.011,9.011,0,0,1,2.99-6.975,17.656,17.656,0,0,0,3.815-4.851c1.493-2.847,2.89-5.745,4.287-8.64a31.843,31.843,0,0,1,5.759-8.8,3,3,0,0,0,.339-.428.944.944,0,0,0-.118-1.315,1.9,1.9,0,0,0-2.325-.4,13.461,13.461,0,0,0-1.811,1.213,30.16,30.16,0,0,0-5.463,6.163,12.2,12.2,0,0,1-3.958,3.714,40.934,40.934,0,0,1-3.9,1.647,4.07,4.07,0,0,0-2.749,3.466c-.082.776-.493,1.2-1.121,1.164s-1.01-.514-.94-1.3a5.985,5.985,0,0,1,3.858-5.164c.933-.416,1.927-.7,2.924-1.05-.106-.278-.181-.482-.263-.684q-3.9-9.677-7.8-19.357c-1.029-2.572-1.985-5.173-2.988-7.757a2.054,2.054,0,0,0-2.255-1.454,2.1,2.1,0,0,0-1.581,3.048q2.98,7.793,5.971,15.58c.666,1.738,1.342,3.472,1.993,5.214a1.035,1.035,0,1,1-1.93.736c-.057-.13-.1-.265-.152-.4-.65-1.69-1.3-3.381-2-5.19-.325.825-.585,1.544-.891,2.244a3.026,3.026,0,0,1-2.828,1.947l-.507.026c.109.249.185.432.268.612.8,1.746,1.652,3.473,2.4,5.241a4.117,4.117,0,0,1-3.087,5.71,9.521,9.521,0,0,1-1.006.09c.836,2.718.477,4.378-1.2,5.578A4.43,4.43,0,0,1,161.089,272.939Zm8.9-9.64c-.14-.395-.25-.8-.425-1.184q-2.439-5.284-4.9-10.56a4.329,4.329,0,0,0-.34-.641,1.944,1.944,0,0,0-1.986-.9,1.815,1.815,0,0,0-1.684,1.514,3.147,3.147,0,0,0,.231,1.68c1.621,3.592,3.3,7.159,4.959,10.732a3.916,3.916,0,0,0,.314.587,2.041,2.041,0,0,0,2.3.8A2.189,2.189,0,0,0,169.99,263.3Zm-3.9,6.44a11.418,11.418,0,0,0-.4-1.19c-1.25-2.72-2.515-5.432-3.776-8.147-.426-.917-.83-1.846-1.284-2.749a2.07,2.07,0,0,0-3.169-.807,2.1,2.1,0,0,0-.529,2.681q2.319,5.012,4.653,10.015a13.563,13.563,0,0,0,.641,1.306,2.038,2.038,0,0,0,2.329.871A2.244,2.244,0,0,0,166.089,269.739Zm14.194-22.891c.124-.287.209-.467.28-.654q1.4-3.648,2.8-7.3c.671-1.755,1.372-3.5,1.985-5.273a2.02,2.02,0,0,0-1.7-2.68,2.071,2.071,0,0,0-2.213,1.428c-.817,2.067-1.612,4.142-2.41,6.217a7.652,7.652,0,0,0-.866,2.495,8.085,8.085,0,0,0,.872,2.556C179.433,244.68,179.844,245.718,180.284,246.848Zm-7.391,40.147c.445,0,.891.015,1.335-.014a1.027,1.027,0,0,0,1.07-1.011,1.048,1.048,0,0,0-1.046-1.042,3.623,3.623,0,0,0-.424-.013c-2.125,0-4.249,0-6.375,0a2.626,2.626,0,0,0-.778.09.926.926,0,0,0-.678.968.936.936,0,0,0,.711.946,2.661,2.661,0,0,0,.721.069c1.073.006,2.146,0,3.218,0Zm4.518-1.037c0,.709.483,1.037,1.532,1.037s1.531-.321,1.532-1.035-.484-1.044-1.53-1.044S177.411,285.25,177.41,285.958Z" transform="translate(509.238 1275.079)" fill="#67a746"/>
  </g>
</svg>
