<svg xmlns="http://www.w3.org/2000/svg" width="110" height="110" viewBox="0 0 110 110">
  <g id="Group_21136" data-name="Group 21136" transform="translate(-629 -1480)">
    <g id="Ellipse_568" data-name="Ellipse 568" transform="translate(629 1480)" fill="#fff" stroke="#67a746" stroke-width="1" stroke-dasharray="3 3">
      <circle cx="55" cy="55" r="55" stroke="none"/>
      <circle cx="55" cy="55" r="54.5" fill="none"/>
    </g>
    <g id="Group_21138" data-name="Group 21138" transform="translate(345.859 1302.281)">
      <path id="Path_37855" data-name="Path 37855" d="M379.861,214.584a.962.962,0,0,0-.871-.787c-.554-.043-13.661-.975-21.856,7-4.534,4.414-6.625,10.67-6.217,18.6a.961.961,0,0,0,1.153.891c.438-.09,10.778-2.294,15.308-9.477a.96.96,0,1,0-1.625-1.025c-3.271,5.185-10.246,7.576-12.959,8.337-.127-6.786,1.779-12.143,5.672-15.938,6.5-6.331,16.773-6.561,19.62-6.5.432,3.015,1.7,14.37-2.258,21.94-7.056,13.483-22.916,7.176-23.587,6.9a.964.964,0,0,0-.966.14c-10.043,8.056-6.761,22.8-6.615,23.427a.96.96,0,0,0,.934.744.946.946,0,0,0,.218-.025.962.962,0,0,0,.72-1.152c-.033-.138-3.052-13.77,5.532-21.152,3.1,1.079,18.377,5.556,25.466-7.992C382.418,229.173,379.967,215.175,379.861,214.584Z" transform="translate(-12.778 -2.416)" fill="#67a746"/>
      <path id="Path_37856" data-name="Path 37856" d="M330.987,229.983c-4.838-8.981-16.234-11.7-16.716-11.807a.962.962,0,0,0-1.066.49c-.249.474-6.07,11.709-4.413,20.958,2.268,12.656,14.986,13.651,18.92,13.651.708,0,1.133-.032,1.159-.035a.961.961,0,0,0-.163-1.914c-.637.054-15.659,1.162-18.025-12.042-1.318-7.354,2.67-16.487,3.884-19.037,2.53.743,10.983,3.682,14.733,10.656,2.254,4.191,2.453,9.163.594,14.793-2.157-1.424-7.239-5.242-8.594-10.375a.96.96,0,1,0-1.857.491c1.935,7.334,10.145,11.978,10.494,12.172a.96.96,0,0,0,1.367-.5C333.774,240.845,333.668,234.959,330.987,229.983Z" transform="translate(0 -4.002)" fill="#67a746"/>
      <path id="Path_37857" data-name="Path 37857" d="M363.763,270.556c-4.475-.725-8.555,2.077-8.726,2.2a.961.961,0,0,0-.221,1.362c.125.168,3.113,4.115,7.586,4.839a9.387,9.387,0,0,0,1.512.12,14.021,14.021,0,0,0,7.214-2.316.96.96,0,0,0,.22-1.362C371.223,275.228,368.235,271.28,363.763,270.556Zm-1.054,6.5a10.72,10.72,0,0,1-5.642-3.278,9.123,9.123,0,0,1,12.028,1.95A10.731,10.731,0,0,1,362.709,277.058Z" transform="translate(-16.586 -22.801)" fill="#67a746"/>
      <path id="Path_37858" data-name="Path 37858" d="M345.459,223.308a.957.957,0,0,0,.455.115.982.982,0,0,0,.291-.044.959.959,0,0,0,.569-.487c.094-.187,2.272-4.633.9-8.953s-5.708-6.7-5.892-6.8a.96.96,0,0,0-1.315.417c-.093.187-2.271,4.633-.9,8.953S345.275,223.208,345.459,223.308Zm-3.675-13.9a9.123,9.123,0,0,1,3.677,11.617,9.119,9.119,0,0,1-3.677-11.617Z" transform="translate(-11.01)" fill="#67a746"/>
    </g>
  </g>
</svg>
