<svg xmlns="http://www.w3.org/2000/svg" width="110" height="110" viewBox="0 0 110 110">
  <g id="Group_21130" data-name="Group 21130" transform="translate(-629 -1480)">
    <g id="Ellipse_568" data-name="Ellipse 568" transform="translate(629 1480)" fill="#fff" stroke="#67a746" stroke-width="1" stroke-dasharray="3 3">
      <circle cx="55" cy="55" r="55" stroke="none"/>
      <circle cx="55" cy="55" r="54.5" fill="none"/>
    </g>
    <g id="Group_21131" data-name="Group 21131" transform="translate(402.81 1330.391)">
      <path id="Path_38001" data-name="Path 38001" d="M284.113,206.071a9.857,9.857,0,0,1-6.657-2.485,12.184,12.184,0,0,1-3.38-5.454,26.44,26.44,0,0,1-1.028-10.462,14.017,14.017,0,0,1,1.789-6.37,10.268,10.268,0,0,1,7.384-4.956c.27-.046.539-.1.806-.156l.353-.07,1.964.015.407.071c.362.053.718.106,1.07.18,5.014,1.052,8.156,4.5,8.846,9.713A27.847,27.847,0,0,1,295.149,197a12.7,12.7,0,0,1-3.978,6.8,10.015,10.015,0,0,1-6.711,2.274Zm.093-28.257a9.721,9.721,0,0,0-4.95,1.3c-2.548,1.479-4.017,3.949-4.49,7.551a27.477,27.477,0,0,0,.142,8.218,13.076,13.076,0,0,0,2.826,6.659,8.1,8.1,0,0,0,6.459,2.886,13.268,13.268,0,0,0,2.414-.238c3.018-.562,5.132-2.5,6.46-5.931a23.466,23.466,0,0,0,1.3-8.569l-.062-.923c-.043-.663-.088-1.334-.171-2a11.235,11.235,0,0,0-1.758-5.047,8.659,8.659,0,0,0-5.918-3.7A13.188,13.188,0,0,0,284.205,177.815Z" transform="translate(-3.267 0)" fill="#67a746" stroke="#67a746" stroke-width="1"/>
      <path id="Path_38002" data-name="Path 38002" d="M280.928,240.62a47.358,47.358,0,0,1-18.576-3.73c-.438-.19-.878-.417-1.3-.638-.5-.262-1.021-.531-1.57-.757a2.507,2.507,0,0,1-1.538-2.4,25.18,25.18,0,0,1,.095-7.119c.582-3.362,2.29-5.393,5.22-6.21a32.628,32.628,0,0,0,9.211-4.37,1.425,1.425,0,0,1,.736-.278.666.666,0,0,1,.464.2.805.805,0,0,1-.141,1.33l-.183.113a49.844,49.844,0,0,1-4.593,2.623,32.517,32.517,0,0,1-4.966,1.917,5.591,5.591,0,0,0-4.158,4.875,24.277,24.277,0,0,0-.133,6.429,1.871,1.871,0,0,0,1.061,1.6,41.389,41.389,0,0,0,11.848,3.973,50.226,50.226,0,0,0,8.879.805,48.143,48.143,0,0,0,11.2-1.328,37.325,37.325,0,0,0,9.46-3.531,1.757,1.757,0,0,0,.87-1.224,20.4,20.4,0,0,0-.29-7.63,5.084,5.084,0,0,0-3.7-3.851,34.308,34.308,0,0,1-9.838-4.642c-.442-.3-.524-.532-.546-.725a.749.749,0,0,1,.341-.771.791.791,0,0,1,.451-.168.772.772,0,0,1,.389.123c.323.193.643.394.962.594.284.18.536.338.791.494a34.245,34.245,0,0,0,8.123,3.586,6.421,6.421,0,0,1,4.494,4.642,21.274,21.274,0,0,1,.516,7.856c-.025.3-.068.6-.11.9l-.067.474a1.879,1.879,0,0,1-1.07,1.527,40.876,40.876,0,0,1-8.229,3.395A50.406,50.406,0,0,1,280.928,240.62Z" transform="translate(0 -7.521)" fill="#67a746" stroke="#67a746" stroke-width="1"/>
    </g>
  </g>
</svg>
