<svg id="Group_21159" data-name="Group 21159" xmlns="http://www.w3.org/2000/svg" width="69.193" height="75.047" viewBox="0 0 69.193 75.047">
  <path id="Path_38563" data-name="Path 38563" d="M90.79,42.07C89.464,38.316,85.182,31.89,71.4,30.934a1.127,1.127,0,0,0-1.129.933,9.071,9.071,0,0,1-17.63.023,1.164,1.164,0,0,0-1.219-.956c-6.852.483-11.354,2.327-14.3,4.514a14.166,14.166,0,0,0-5.01,6.621c-1.889,5.318-3.824,20.8-3.9,21.451a1.168,1.168,0,0,0,.288.9,1.133,1.133,0,0,0,.863.391h9.927v31a1.155,1.155,0,0,0,1.151,1.151H51.189a1.151,1.151,0,0,0,1.153-1.151h0a1.152,1.152,0,0,0-1.153-1.151h-9.6v-49.8a1.151,1.151,0,1,0-2.3,0V62.507H30.659c.6-4.537,2.154-15.533,3.616-19.667,1.9-5.343,7.715-8.728,16.374-9.534a11.374,11.374,0,0,0,21.6,0c8.661.806,14.474,4.192,16.376,9.534,1.474,4.144,3.016,15.13,3.614,19.667H83.616V44.855a1.151,1.151,0,1,0-2.3,0v23.3A1.151,1.151,0,0,0,82.464,69.3h0a1.152,1.152,0,0,0,1.151-1.151V64.81h9.937a1.1,1.1,0,0,0,.851-.391,1.16,1.16,0,0,0,.288-.9C94.612,62.865,92.677,47.388,90.79,42.07Z" transform="translate(-28.2 -30.934)" fill="#67a746"/>
  <path id="Path_38564" data-name="Path 38564" d="M80.63,59.3a15.133,15.133,0,0,0-9.366-6.691c-.352-1.009-1.842-1.464-3.229-1.464a4.206,4.206,0,0,0-2.96.964c-9.438.6-14.9,7.1-15.387,18.327-.985,1.094-2.214,2.261-3.318,3.308a39.634,39.634,0,0,0-3.244,3.3c-.88,1.108-1.577,1.984-.989,2.783.553.757,1.476.4,2.216.115,1.108-.4,4.15-.691,7.729,1.065l.325.16c3.464,1.712,7.045,3.48,10.326,3.48.278,0,.557-.012.828-.039,3.33-.323,6.794-3.186,10.9-9a35.077,35.077,0,0,0,7.006-1.622l.092-.043a1.076,1.076,0,0,0,.171-.095.942.942,0,0,0,.138-.117.811.811,0,0,0,.115-.142.923.923,0,0,0,.084-.158l.051-.117C83.553,68.164,83.024,63.187,80.63,59.3ZM80.373,72.29a35.191,35.191,0,0,1-5.283,1.293c1.433-8.657.214-14.577-3.939-19.015a13.156,13.156,0,0,1,7.828,5.744A15.474,15.474,0,0,1,80.373,72.29ZM51.667,69.934C52.259,60.1,56.9,54.607,65.1,54.048a1.759,1.759,0,0,0,.142.132c-3.359,3.5-5.246,8.757-6.085,16.962A64.948,64.948,0,0,0,51.667,69.934ZM72.008,75.69c-3.357,4.52-6.107,6.745-8.634,6.989-2.95.294-6.591-1.511-10.116-3.254l-.321-.158a14.9,14.9,0,0,0-6.463-1.554,10.786,10.786,0,0,0-1.453.095c.695-.775,1.667-1.7,2.7-2.674s2.276-2.161,3.32-3.312a64.9,64.9,0,0,1,8.788,1.437l.072.018c2.117.465,4.208.962,6.525,1.519l.9.216A22.6,22.6,0,0,0,72.008,75.69Zm-5.133-2.777c-1.786-.43-3.805-.913-5.818-1.363.837-8.422,2.7-13.415,6.2-16.629a6.058,6.058,0,0,0,1.494.008c4.617,4.187,5.922,9.834,4.35,18.82a19.64,19.64,0,0,1-5.322-.621Zm14.945.364Z" transform="translate(-13.716 -9.599)" fill="#67a746"/>
</svg>
