<svg xmlns="http://www.w3.org/2000/svg" width="70" height="70" viewBox="0 0 70 70">
  <path id="Path_38560" data-name="Path 38560" d="M223,200a35,35,0,1,0,35,35A35.038,35.038,0,0,0,223,200Zm0,2.5a32.407,32.407,0,0,1,23.625,10.216,21.128,21.128,0,0,0-11.834,5l-.164.146c-.673.6-1.344,1.2-2.034,1.774l-5.251,4.395a31.221,31.221,0,0,1-10.915,6.057,19.219,19.219,0,0,1-7.495.91,59.136,59.136,0,0,1,9.086-28.116A32.574,32.574,0,0,1,223,202.5Zm-8.329,1.086a61.555,61.555,0,0,0-8.209,26.912,10.788,10.788,0,0,1-2.92-1.411c-5.294-3.665-6.482-11.389-6.7-13.346A32.6,32.6,0,0,1,214.671,203.586Zm-19.85,15.251c.775,3.574,2.675,9.1,7.288,12.3a13.379,13.379,0,0,0,4.235,1.943,61.191,61.191,0,0,0,.435,8.821c-10.56-2.5-15.182-7.234-16.239-8.467A32.268,32.268,0,0,1,194.821,218.838Zm2.226,35.7a32.326,32.326,0,0,1-6.481-17.55c2.656,2.307,7.815,5.689,16.605,7.576q.5,3,1.3,5.95c-4.3-.078-7.59.706-9.8,2.36A7.138,7.138,0,0,0,197.048,254.538Zm1.691,2.056a4.288,4.288,0,0,1,1.526-1.794c1.429-1.019,4.085-1.971,8.95-1.762a61.24,61.24,0,0,0,6.246,13.57A32.512,32.512,0,0,1,198.739,256.594ZM223,267.5a32.78,32.78,0,0,1-4.17-.276,58.812,58.812,0,0,1-6.906-13.971c1.362.155,2.852.381,4.506.707,13.581,2.682,20.621,6.972,23.259,8.915A32.3,32.3,0,0,1,223,267.5Zm18.9-6.086c-2.284-1.855-9.593-6.866-24.988-9.9a55.13,55.13,0,0,0-5.8-.85q-.795-2.771-1.314-5.6a68.453,68.453,0,0,0,9.044.869q1.161.036,2.326.036a79.94,79.94,0,0,0,24.986-4.131c4.684-1.54,7.458-2.515,9.135-3.19A32.508,32.508,0,0,1,241.9,261.414Zm3.472-21.955a76.819,76.819,0,0,1-26.452,3.973,64.066,64.066,0,0,1-9.541-.991,58.75,58.75,0,0,1-.538-8.926c.5.044,1,.075,1.51.075a23.482,23.482,0,0,0,6.8-1.109,33.7,33.7,0,0,0,11.791-6.531l5.252-4.4c.71-.594,1.4-1.21,2.091-1.825l.164-.145a18.828,18.828,0,0,1,12.215-4.483A32.332,32.332,0,0,1,255.5,235c0,.288-.014.571-.021.856C254.616,236.249,252.181,237.221,245.374,239.459Z" transform="translate(-188 -200)" fill="#67a746"/>
</svg>
