<svg xmlns="http://www.w3.org/2000/svg" width="73.025" height="70.5" viewBox="0 0 73.025 70.5">
  <g id="Group_21158" data-name="Group 21158" transform="translate(0.282 0.25)">
    <path id="Path_38561" data-name="Path 38561" d="M20.651,71.618a12.229,12.229,0,0,1-4.9-23.416L35.6,39.461v-24.5A4,4,0,0,1,39.58,10.98H56.051a4,4,0,0,1,3.983,3.984V48.1A11.25,11.25,0,0,1,53.359,58.34L25.578,70.568A12.171,12.171,0,0,1,20.651,71.618ZM16.019,50.067a10.38,10.38,0,0,0-4.927,13.345,10.414,10.414,0,0,0,13.655,5.545l.428-.181L16.433,49.862ZM37.394,40.049a.9.9,0,0,1-.539.82L18.073,49.147l8.749,18.925,21.841-9.624-.252-.434a12.723,12.723,0,0,1,9.431-19l.394-.049V20.133H37.394Zm20.32.833a10.925,10.925,0,0,0-7.577,16.486l.206.335,2.293-1.013a9.456,9.456,0,0,0,5.6-8.591V40.8Zm-18.138-28.1a2.2,2.2,0,0,0-2.182,2.183v3.374H58.236V14.963a2.2,2.2,0,0,0-2.182-2.185H39.576Z" transform="translate(-8.455 -10.98)" fill="#67a746" stroke="#67a746" stroke-width="0.5"/>
    <path id="Path_38562" data-name="Path 38562" d="M44.067,82.029A12.261,12.261,0,0,1,33.1,75.167a.9.9,0,0,1,.833-1.237.9.9,0,0,1,.789.465,10.448,10.448,0,0,0,9.338,5.826h0a10.329,10.329,0,0,0,4.079-.837l.426-.182-4.456-9.637a.918.918,0,0,1,.447-1.256.879.879,0,0,1,.344-.069.9.9,0,0,1,.832.554l4.471,9.677,21.841-9.623-.252-.435a12.722,12.722,0,0,1,9.431-19l.394-.049V30.533H67.009a.9.9,0,0,1,0-1.8h14.6V25.363a2.2,2.2,0,0,0-2.182-2.185H67.009a.9.9,0,0,1,0-1.8H79.444a4,4,0,0,1,3.983,3.984V58.505a11.255,11.255,0,0,1-6.674,10.244L49.006,80.977A12.086,12.086,0,0,1,44.067,82.029ZM81.1,51.291a10.925,10.925,0,0,0-7.577,16.485l.206.336L76.02,67.1a9.456,9.456,0,0,0,5.6-8.591v-7.3Z" transform="translate(-10.934 -12.029)" fill="#67a746" stroke="#67a746" stroke-width="0.5"/>
  </g>
</svg>
