<svg id="Group_21157" data-name="Group 21157" xmlns="http://www.w3.org/2000/svg" width="66.579" height="70.136" viewBox="0 0 66.579 70.136">
  <path id="Path_37848" data-name="Path 37848" d="M253.162,230.664a10.75,10.75,0,1,0-10.75-10.75A10.763,10.763,0,0,0,253.162,230.664Zm0-19.042a8.291,8.291,0,1,1-8.291,8.291A8.3,8.3,0,0,1,253.162,211.622Z" transform="translate(-220.31 -209.163)" fill="#67a746"/>
  <path id="Path_37849" data-name="Path 37849" d="M290.978,258.573a16.616,16.616,0,0,1-16.6-16.6,1.23,1.23,0,1,0-2.459,0,19.079,19.079,0,0,0,19.057,19.056,1.23,1.23,0,0,0,0-2.459Z" transform="translate(-225.629 -214.855)" fill="#67a746"/>
  <path id="Path_37850" data-name="Path 37850" d="M235.738,241.976a1.23,1.23,0,1,0-2.459,0,16.616,16.616,0,0,1-16.6,16.6,1.23,1.23,0,1,0,0,2.459A19.078,19.078,0,0,0,235.738,241.976Z" transform="translate(-215.451 -214.855)" fill="#67a746"/>
  <path id="Path_37851" data-name="Path 37851" d="M253.162,266.255a1.231,1.231,0,0,0,.913-.406c1.007-1.117,9.837-11.069,9.837-16.638a10.75,10.75,0,0,0-21.5,0c0,5.57,8.831,15.521,9.837,16.637A1.227,1.227,0,0,0,253.162,266.255Zm0-25.335a8.3,8.3,0,0,1,8.291,8.291c0,3.516-5.341,10.495-8.291,13.948-2.95-3.453-8.291-10.432-8.291-13.948A8.3,8.3,0,0,1,253.162,240.92Z" transform="translate(-220.31 -214.443)" fill="#67a746"/>
  <path id="Path_37852" data-name="Path 37852" d="M265.5,268.49c-4.865,0-13.07,6.734-15.814,9.112-2.745-2.377-10.95-9.112-15.814-9.112a10.75,10.75,0,0,0,0,21.5c4.865,0,13.07-6.734,15.814-9.111,2.745,2.376,10.95,9.111,15.814,9.111a10.75,10.75,0,0,0,0-21.5Zm-31.628,19.042a8.291,8.291,0,0,1,0-16.582c3.516,0,10.5,5.342,13.948,8.291C244.367,282.191,237.387,287.532,233.871,287.532Zm31.628,0c-3.517,0-10.5-5.341-13.948-8.291,3.452-2.95,10.431-8.291,13.948-8.291a8.291,8.291,0,1,1,0,16.582Z" transform="translate(-216.833 -219.855)" fill="#67a746"/>
</svg>
