<svg xmlns="http://www.w3.org/2000/svg" width="112.557" height="115.316" viewBox="0 0 112.557 115.316"><defs><style>.a{fill:#67a746;fill-rule:evenodd;}</style></defs><g transform="matrix(0.485, -0.875, 0.875, 0.485, -5.17, 69.946)"><path class="a" d="M25.688,33.044a37.954,37.954,0,0,0-4,1.9A41.606,41.606,0,0,0,1.019,63.861,51.3,51.3,0,0,0,.092,76.949,54.828,54.828,0,0,0,2.559,89.783a.671.671,0,1,0,1.292-.364A58.972,58.972,0,0,1,2.116,76.853a54.166,54.166,0,0,1,.97-12.581A39.455,39.455,0,0,1,22.811,37q1.413-.767,2.867-1.4a36.6,36.6,0,0,0,.641,5.862C28.624,53.452,36.86,63.1,49.6,62.9c7.811-.062,12.087-4.65,13.081-10.27.946-5.344-1.177-11.686-6.073-15.984-7.621-6.688-18.685-7.919-29.027-4.319A33.984,33.984,0,0,1,36.429,11.1,29.024,29.024,0,0,1,51.435,2.611a36.874,36.874,0,0,1,12.247-.465,41.551,41.551,0,0,1,5.294.813.25.25,0,1,0,.165-.473A26.027,26.027,0,0,0,63.935.627,31.309,31.309,0,0,0,35.051,9.81,35.962,35.962,0,0,0,25.688,33.044Zm1.835,1.816a34.358,34.358,0,0,0,.636,6.248c2.159,11,9.7,19.932,21.4,19.66,6.414-.2,9.874-3.937,10.645-8.562a15.4,15.4,0,0,0-5.222-13.713C47.8,32.15,37.272,31.23,27.523,34.86Z" transform="translate(10.663 0)"/><path class="a" d="M13.681,22.215c-1.194-1.978-2.985-4.964-3.173-5.285l-3.5-5.636L.813,2.442a.44.44,0,1,0-.745.469L5.2,12.364l3.153,5.818c.224.392,2.716,4.711,3.752,6.428a2.943,2.943,0,0,0,1.481,1.316,1.662,1.662,0,0,0,1.492-.916,23.2,23.2,0,0,0,1.274-4.18L20.369,6.766C21.7,1.922,22.511.446,21.338.039c-.236-.1-.487-.035-1,.438a2.023,2.023,0,0,0-.347.644,43.879,43.879,0,0,0-1.56,5.028L13.947,20.134C13.91,20.261,13.844,21.29,13.681,22.215Z" transform="translate(0 67.656)"/></g></svg>