<svg xmlns="http://www.w3.org/2000/svg" width="50.651" height="72.542" viewBox="0 0 50.651 72.542"><defs><style>.a{fill:#67a746;}</style></defs><path class="a" d="M214.227,277.327c0-1.1-.341-1.448-1.43-1.448q-8.693,0-17.388,0c-1.041,0-1.393.365-1.4,1.411,0,.662,0,1.324,0,2.069-.17-.115-.212-.138-.247-.169-5.67-5.114-13.558-4.25-17.945,1.981a.674.674,0,0,1-.831.293,4.579,4.579,0,0,1-3.58-4.374q-.056-8.286,0-16.572a4.421,4.421,0,0,1,3.864-4.385c1.345-.177,2.726-.066,4.089-.117a.983.983,0,0,1,.927.468,7.134,7.134,0,0,0,6.127,3.061,23.515,23.515,0,0,0,3.072-.468c.031.1.094.271.141.451.573,2.14,1.156,4.277,1.709,6.421.256,1,.558,1.629,1.955,1.167.68-.225,1.392-.349,2.119-.525.519,1.928,1.006,3.773,1.514,5.611.242.881.651,1.1,1.52.881q2.393-.615,4.783-1.238c1.258-.33,1.468-.712,1.126-2-.462-1.748-.925-3.5-1.383-5.225a1,1,0,0,1,.172-.109c.521-.147,1.043-.289,1.564-.435,1.155-.322,1.372-.693,1.063-1.85q-2.6-9.732-5.2-19.464c-.546-2.044-1.089-4.088-1.629-6.115,1.643-1,1.81-1.434,1.314-3.292-.206-.774-.438-1.544-.6-2.326a2.567,2.567,0,0,0-1.691-2.082h-.99c-.26.094-.516.207-.782.28q-6.781,1.831-13.561,3.657a2.027,2.027,0,0,0-1.625,2.606c.285,1.192.613,2.373.957,3.55a1.949,1.949,0,0,0,2,1.476c.181,0,.363,0,.585,0l1.1,4.112a2.025,2.025,0,0,1-.3.1,7.61,7.61,0,0,0-5.21,3.2,1.019,1.019,0,0,1-.714.275c-1.717.065-3.449-.02-5.15.165a12.234,12.234,0,0,0-10.511,10.506c-.227,2.15-.126,4.337-.159,6.506-.013.833.388,1.312,1.045,1.317s1.066-.479,1.07-1.3c.007-1.653-.029-3.307.012-4.958a10.117,10.117,0,0,1,3.452-7.489c2.819-2.572,6.236-2.844,9.762-2.551v3.5c-.968,0-1.977-.017-2.985,0a6.708,6.708,0,0,0-6.67,6.616c-.058,5.524-.043,11.05,0,16.576a6.219,6.219,0,0,0,2.576,5.125,22.523,22.523,0,0,0,2.617,1.477c-.208,1.04-.433,2.163-.658,3.285a10.29,10.29,0,0,1-8.082-9.574c-.058-2.288-.014-4.58-.022-6.87,0-.822-.409-1.32-1.055-1.324s-1.06.49-1.062,1.311c0,2.243-.054,4.488.014,6.729A12.466,12.466,0,0,0,173.861,289.2v3.765c-1.732,0-3.422-.007-5.112,0a3.157,3.157,0,0,0-3.371,3.361c-.017,1.181.021,2.362-.013,3.541a1.784,1.784,0,0,0,.64,1.614h39.171a1.681,1.681,0,0,0,.677-1.6c-.03-1.109-.005-2.219-.009-3.328-.007-2.33-1.263-3.592-3.578-3.6-1.621,0-3.241,0-4.912,0v-3.56h.8c1.578,0,3.157.012,4.735,0a2.1,2.1,0,0,0,2.285-2.293c.006-1.107,0-2.214,0-3.414h.807c2.308,0,4.618.006,6.927,0,.959,0,1.31-.373,1.313-1.337Q214.234,279.842,214.227,277.327Zm-15.479-6.5-1.284-4.8,3.43-.921c.431,1.614.849,3.175,1.288,4.815ZM183.974,238.4l-.917-3.445,14.4-3.866.924,3.439Zm.165,8.855a5.347,5.347,0,0,1,6.868,2.352c.1.186.177.384.275.572a1.035,1.035,0,0,0,1.389.6,1.045,1.045,0,0,0,.526-1.479,6.244,6.244,0,0,0-2.161-2.917,26.009,26.009,0,0,0-2.651-1.433c-.194-.1-.489-.206-.536-.367-.441-1.535-.839-3.082-1.265-4.687l10.289-2.763,6.694,25.034-10.285,2.764-1.241-4.586a3.654,3.654,0,0,0-.111-.409c-.543-1.346-.737-2.609.566-3.7a3.282,3.282,0,0,0,.674-1.229,1.068,1.068,0,0,0-.445-1.513,1.081,1.081,0,0,0-1.485.665,5.374,5.374,0,0,1-3.549,3.1,5.3,5.3,0,0,1-6.389-3.315A5.358,5.358,0,0,1,184.139,247.258Zm18.017,47.837c1.278,0,1.564.293,1.566,1.593,0,.867,0,1.735,0,2.634h-36.2c0-1.121-.036-2.2.013-3.282.03-.66.454-.942,1.248-.943q4.913-.008,9.827,0a5.723,5.723,0,0,0,.635-.01,1.083,1.083,0,0,0,1.032-1.06,1.053,1.053,0,0,0-1.1-1.046c-1.01-.02-2.02-.005-3.279-.005a54.652,54.652,0,0,1,.464-7.62,9.519,9.519,0,0,1,18.7.87,57.605,57.605,0,0,1,.045,6.747H184.411a4.853,4.853,0,0,0-.706.018.963.963,0,0,0-.9.931.951.951,0,0,0,.7,1.088,2.867,2.867,0,0,0,.835.084Q193.249,295.1,202.156,295.094Zm.872-7.857h-5.637l-.631-3.491h6.268Zm9.045-5.723H196.165v-3.469h15.908ZM185.707,289.4a3.908,3.908,0,1,0-3.862-3.966A3.909,3.909,0,0,0,185.707,289.4Zm.063-5.68a1.749,1.749,0,0,1,1.736,1.83,1.779,1.779,0,0,1-1.79,1.718,1.8,1.8,0,0,1-1.747-1.843A1.778,1.778,0,0,1,185.77,283.719Z" transform="translate(-163.579 -228.945)"/></svg>