<svg xmlns="http://www.w3.org/2000/svg" width="24" height="24" viewBox="0 0 24 24">
  <g id="Group_12999" data-name="Group 12999" transform="translate(-298.341 -346.604)">
    <path id="Path_37867" data-name="Path 37867" d="M298.341,346.6h24v24h-24Z" fill="none"/>
    <path id="Path_37868" data-name="Path 37868" d="M310.341,369.8a2.2,2.2,0,0,1-2.18-1.9h4.36A2.2,2.2,0,0,1,310.341,369.8Zm-9.7-3.5v-1.4h1v-7.269a8.7,8.7,0,1,1,17.4,0V364.9h1v1.4Zm9.7-16a7.323,7.323,0,0,0-7.3,7.33V364.9h14.6v-7.269A7.323,7.323,0,0,0,310.341,350.3Z" fill="#030504"/>
  </g>
</svg>
