<svg xmlns="http://www.w3.org/2000/svg" width="50.516" height="50.672" viewBox="0 0 50.516 50.672">
  <g id="Group_13000" data-name="Group 13000" transform="translate(0.25 0.25)">
    <path id="Path_37869" data-name="Path 37869" d="M162.836,151.9a4.275,4.275,0,0,1-4.27-4.27V110.251a4.275,4.275,0,0,1,4.27-4.27h5.854v-3.406a.844.844,0,0,1,1.687,0v3.406h26.393v-3.406a.844.844,0,1,1,1.687,0v3.406h5.854a4.275,4.275,0,0,1,4.27,4.27v37.381a4.275,4.275,0,0,1-4.27,4.27Zm-2.583-4.27a2.586,2.586,0,0,0,2.583,2.583h41.475a2.586,2.586,0,0,0,2.583-2.583V118.949H160.253Zm2.583-39.964a2.586,2.586,0,0,0-2.583,2.583v7.011h46.641v-7.011a2.586,2.586,0,0,0-2.583-2.583h-5.854v3.317a.844.844,0,0,1-1.687,0v-3.317H170.377v3.317a.844.844,0,0,1-1.687,0v-3.317Z" transform="translate(-158.566 -101.731)" fill="#fff" stroke="#fff" stroke-width="0.5"/>
    <path id="Path_37870" data-name="Path 37870" d="M219.465,189.628a8.382,8.382,0,0,1-.991-.349c-.876-.436-1.809-.927-2.752-1.449a1.09,1.09,0,0,0-.615-.183,1.131,1.131,0,0,0-.62.185c-.518.29-1.079.583-1.621.865-.351.183-.7.365-1.049.552a1.922,1.922,0,0,1-1.057.321,1.927,1.927,0,0,1-1.861-2.382c.1-.533.186-1.044.27-1.555.087-.533.177-1.083.281-1.62a.921.921,0,0,0-.326-.947c-.419-.4-.833-.806-1.247-1.212q-.516-.505-1.035-1.008a1.91,1.91,0,0,1,1.1-3.374c1.181-.151,2.221-.308,3.2-.481a1.2,1.2,0,0,0,.752-.553c.441-.832.882-1.719,1.394-2.8a1.954,1.954,0,0,1,1.822-1.285,1.934,1.934,0,0,1,1.816,1.274c.492,1.053.945,1.965,1.4,2.819a1.192,1.192,0,0,0,.758.544c.721.125,1.44.229,2.136.331.381.056.762.111,1.143.17a1.9,1.9,0,0,1,1.1,3.268c-.773.773-1.562,1.542-2.352,2.291a.977.977,0,0,0-.337,1.009c.166.851.314,1.744.456,2.607l.109.658a1.984,1.984,0,0,1-1.63,2.28A2.021,2.021,0,0,1,219.465,189.628Zm-4.561-15.94a2.432,2.432,0,0,0-.462.5l-.013.019-.01.021c-.586,1.149-1.112,2.188-1.615,3.271a1.076,1.076,0,0,1-.93.689c-1.227.146-2.417.331-3.631.523l-.025,0-.024.008a2.341,2.341,0,0,0-.616.3l-.232.159.115.257a2.557,2.557,0,0,0,.326.54l.013.016.014.015c.891.885,1.8,1.776,2.712,2.65a.87.87,0,0,1,.293.858c-.223,1.186-.414,2.355-.633,3.751l0,.022v.023a2.547,2.547,0,0,0,.075.668l.072.286.293-.032a2.8,2.8,0,0,0,.659-.155l.019-.007.018-.009c.633-.323,1.263-.653,1.892-.983q.71-.372,1.42-.74c.145-.064.307-.129.472-.186l.115.043a3.656,3.656,0,0,1,.415.172q.713.37,1.423.745c.642.338,1.284.676,1.929,1.007a1.172,1.172,0,0,0,.495.123.565.565,0,0,0,.334-.1c.3-.214.24-.7.225-.8-.176-1.115-.39-2.437-.647-3.787a.927.927,0,0,1,.314-.93c.81-.769,1.646-1.588,2.731-2.669.042-.042.405-.418.292-.774-.119-.373-.667-.46-.69-.464-1.136-.178-2.425-.381-3.7-.542a1.01,1.01,0,0,1-.9-.605c-.474-1.009-.978-2.01-1.465-2.978l-.2-.406-.012-.018a2.545,2.545,0,0,0-.419-.477l-.214-.19Z" transform="translate(-190.097 -148.52)" fill="#fff" stroke="#fff" stroke-width="0.5"/>
  </g>
</svg>
