<svg xmlns="http://www.w3.org/2000/svg" width="50.015" height="50.015" viewBox="0 0 50.015 50.015"><defs><style>.a{fill:#666;}.b{fill:#67a746;}</style></defs><g transform="translate(-621.165 -32.153)"><path class="a" d="M671.18,41.749v37.9c-.034.106-.074.21-.1.318a4.065,4.065,0,0,1-2.5,2.9c-.3.122-.611.2-.917.294H624.682c-.106-.034-.21-.074-.317-.1a4.068,4.068,0,0,1-2.9-2.5c-.122-.3-.2-.612-.3-.919v-37.9a1.735,1.735,0,0,0,.086-.225,4.044,4.044,0,0,1,3.472-3.243,12.472,12.472,0,0,1,1.718-.012c0-.732-.007-1.364,0-2A3.123,3.123,0,0,1,628.63,33.3c.119-.04.233-.094.349-.142h1.074c2.055.74,2.632,1.568,2.632,3.775v1.265h10.373c0-.673-.019-1.308,0-1.941a3.051,3.051,0,0,1,1.631-2.706,7.7,7.7,0,0,1,.99-.393h1.075a.457.457,0,0,0,.115.081A3.1,3.1,0,0,1,649.3,36.5c0,.563,0,1.127,0,1.7h10.358c0-.673-.019-1.32,0-1.965a3.039,3.039,0,0,1,1.636-2.7,7.635,7.635,0,0,1,.99-.389h1.075a.447.447,0,0,0,.113.082,3.119,3.119,0,0,1,2.427,3.315c0,.547,0,1.094,0,1.685.452,0,.854-.015,1.255,0a3.984,3.984,0,0,1,3.514,2.156A9.5,9.5,0,0,1,671.18,41.749ZM623.119,51.909v.544q0,11.209,0,22.418a2.185,2.185,0,0,0,2.443,2.436h41.221a2.186,2.186,0,0,0,2.443-2.437q0-11.209,0-22.418v-.543h-.647q-8.913,0-17.827,0c-.711,0-1.156-.381-1.158-.973s.444-.971,1.152-.979c.114,0,.228,0,.342,0h18.125c0-2.66.029-5.262-.017-7.863a1.774,1.774,0,0,0-1.27-1.7,11.793,11.793,0,0,0-2.022-.282c0,.613,0,1.083,0,1.553a3.123,3.123,0,1,1-6.244.02c-.006-.484,0-.968,0-1.466H649.3c0,.582.016,1.133,0,1.683a3.118,3.118,0,0,1-6.233-.113c-.016-.528,0-1.057,0-1.578H632.686c0,.506.005.99,0,1.474a3.123,3.123,0,1,1-6.244-.02c0-.482,0-.964,0-1.478h-.982a2.161,2.161,0,0,0-2.338,2.345q0,3.468,0,6.935v.489h18.235a4.269,4.269,0,0,1,.537.012.971.971,0,0,1-.007,1.93,4.384,4.384,0,0,1-.537.011H623.119Zm46.053,26.774a5.554,5.554,0,0,1-3.121.582q-19.022-.008-38.044-.016c-1.631,0-3.316.334-4.866-.564a2.177,2.177,0,0,0,2.344,2.53H666.85c.13,0,.261,0,.391-.007A2.139,2.139,0,0,0,669.172,78.683Zm-38.44-39.667c0-.863.006-1.726,0-2.588a1.176,1.176,0,1,0-2.335,0q-.007,2.589,0,5.177a1.176,1.176,0,1,0,2.335,0C630.738,40.742,630.732,39.879,630.732,39.016Zm33.219,0c0-.863,0-1.726,0-2.588a1.176,1.176,0,1,0-2.335,0q-.009,2.588,0,5.177a1.176,1.176,0,1,0,2.335,0C663.956,40.739,663.951,39.876,663.951,39.014Zm-16.6.021c0-.879.005-1.758,0-2.637a1.175,1.175,0,0,0-1.166-1.287,1.187,1.187,0,0,0-1.167,1.294q-.013,2.613,0,5.225a1.172,1.172,0,1,0,2.333-.007C647.354,40.76,647.349,39.9,647.349,39.035Z" transform="translate(0 -1)"/><path class="b" d="M795.142,277.285a8.756,8.756,0,0,1-1.088-.379c-.945-.47-1.88-.964-2.8-1.473a.8.8,0,0,0-.892-.011c-.89.5-1.81.957-2.711,1.441a2.243,2.243,0,0,1-2.569-.085,2.211,2.211,0,0,1-.855-2.376c.2-1.053.345-2.117.549-3.17a.6.6,0,0,0-.217-.631c-.776-.742-1.535-1.5-2.309-2.246a2.26,2.26,0,0,1,1.315-3.977c1.064-.137,2.126-.293,3.182-.48a.847.847,0,0,0,.523-.393c.486-.919.944-1.853,1.389-2.793a2.283,2.283,0,0,1,4.286.019c.441.941.9,1.874,1.387,2.792a.844.844,0,0,0,.535.374c1.089.188,2.185.332,3.278.5a2.248,2.248,0,0,1,1.286,3.871q-1.174,1.173-2.377,2.315a.645.645,0,0,0-.232.673c.215,1.1.39,2.208.575,3.314A2.333,2.333,0,0,1,795.142,277.285Zm-4.341-4.2c.237.095.47.166.683.277,1.125.584,2.243,1.183,3.371,1.762.141.072.382.124.482.053s.113-.317.088-.474c-.2-1.268-.409-2.536-.649-3.8a1.271,1.271,0,0,1,.434-1.261c.919-.875,1.824-1.767,2.723-2.663.113-.113.246-.322.21-.435s-.265-.21-.422-.234c-1.237-.194-2.474-.387-3.716-.544a1.348,1.348,0,0,1-1.17-.811c-.533-1.132-1.1-2.25-1.661-3.367a2.2,2.2,0,0,0-.365-.416,2.112,2.112,0,0,0-.4.43c-.554,1.086-1.106,2.174-1.619,3.279a1.409,1.409,0,0,1-1.222.889c-1.211.145-2.416.332-3.621.523a2.017,2.017,0,0,0-.53.259,2.246,2.246,0,0,0,.285.472q1.351,1.342,2.724,2.662a1.207,1.207,0,0,1,.39,1.183c-.234,1.246-.436,2.5-.632,3.751a2.209,2.209,0,0,0,.065.582,2.478,2.478,0,0,0,.583-.137c1.115-.569,2.219-1.159,3.331-1.733A6.469,6.469,0,0,1,790.8,273.086Z" transform="translate(-144.615 -203.901)"/><path class="a" d="M868.132,207.129a.974.974,0,1,1,1.01-.911A.987.987,0,0,1,868.132,207.129Z" transform="translate(-221.998 -155.137)"/></g></svg>