<svg xmlns="http://www.w3.org/2000/svg" width="541.741" height="456.79" viewBox="0 0 541.741 456.79">
  <g id="Group_20620" data-name="Group 20620" transform="translate(624.166 -68.811)">
    <path id="Path_38066" data-name="Path 38066" d="M-467.3,517.608s-144.783-70.1-144.783-249.941S-289.755,85.545-247.844,86.307s140.972,3.81,134.877,131.066,1.524,281.946-379.485,221.746C-492.452,439.12-495.5,499.32-467.3,517.608Z" transform="translate(5.155 7.522)" fill="#d2dccd" opacity="0.5"/>
    <path id="Path_38067" data-name="Path 38067" d="M-462.15,525.13s-125.733-45.72-156.214-207.268,75.44-185.933,180.6-218.7,312.427-68.582,317,70.868S-126.1,409.3-244.974,436.736-487.3,446.642-487.3,446.642-491.106,503.031-462.15,525.13Z" transform="translate(0)" fill="none" stroke="#222" stroke-width="1"/>
    <path id="Path_38068" data-name="Path 38068" d="M-464.314,511.375s-179.074-71.629-151.641-280.422c13.716-96.776,146.308-115.064,238.511-121.922S-73.4,67.12-85.592,209.616s2.285,290.328-403.87,223.27C-489.461,432.886-494.413,487.372-464.314,511.375Z" transform="translate(2.164 13.755)" fill="none" stroke="#222" stroke-width="1"/>
  </g>
</svg>
