<svg xmlns="http://www.w3.org/2000/svg" width="68.41" height="80.6" viewBox="0 0 68.41 80.6">
  <g id="Group_21398" data-name="Group 21398" transform="translate(57.182 12.18)">
    <path id="Path_38826" data-name="Path 38826" d="M-55.494,68.295a1.651,1.651,0,0,1-.815-.235,1.538,1.538,0,0,1-.748-1.324V-4.876a7.241,7.241,0,0,1,7.185-7.179h53.8A7.24,7.24,0,0,1,11.1-4.87v53.8A7.238,7.238,0,0,1,3.918,56.1H-30.721L-54.764,68.126A1.888,1.888,0,0,1-55.494,68.295Zm5.616-77.209a4.042,4.042,0,0,0-4.037,4.038V64.2l22.09-11.068a1.812,1.812,0,0,1,.74-.169H3.924a4.042,4.042,0,0,0,4.037-4.038v-53.8A4.042,4.042,0,0,0,3.924-8.914Z" fill="#0fd3f2" stroke="#0fd3f2" stroke-width="0.25"/>
    <path id="Path_38827" data-name="Path 38827" d="M-23.692,35.675a17.892,17.892,0,0,1-15.441-8.892,1.56,1.56,0,0,1,.585-2.06,1.6,1.6,0,0,1,.656-.134,1.6,1.6,0,0,1,1.379.775,14.686,14.686,0,0,0,5.3,5.293,14.682,14.682,0,0,0,7.366,1.99,14.741,14.741,0,0,0,12.708-7.309,1.592,1.592,0,0,1,1.364-.75,1.6,1.6,0,0,1,.742.181,1.58,1.58,0,0,1,.7,2.1,17.811,17.811,0,0,1-6.441,6.4,17.826,17.826,0,0,1-8.918,2.4Z" transform="translate(0.978 2.019)" fill="#0fd3f2" stroke="#0fd3f2" stroke-width="0.25"/>
  </g>
</svg>
