<svg xmlns="http://www.w3.org/2000/svg" width="184.617" height="170" viewBox="0 0 184.617 170"><defs><style>.a{fill:#e1e9dc;}.b{fill:#aa6755;}.c{fill:#1a3151;}.d{fill:#162a42;}.e{fill:#eaedef;}.f{fill:#3ababa;}.g{fill:#eac1a4;}.h{fill:#145566;}.i{fill:#c8d6a1;}.j{fill:#d9a3a3;}.k{fill:#b5d6ca;}.l{fill:#d1e7f5;}</style></defs><g transform="translate(-1215.881 -2081)"><circle class="a" cx="85" cy="85" r="85" transform="translate(1224 2081)"/><g transform="translate(1150.4 1965.974)"><g transform="translate(65.481 127.52)"><g transform="translate(0 0)"><g transform="translate(0 17.412)"><g transform="translate(48.691 12.568)"><path class="b" d="M320.737,240.4l1.253-1.1,1.433.828.715,1.733-.505,1.32-1.283.735.444.224-.125.473-1.988.85c-.4-.681-1.9-1.375-2.114-1.74l1.386-1.232Z" transform="translate(-318.567 -239.3)"/></g><g transform="translate(10.5 70.64)"><path class="c" d="M147.458,462.458l-13.887-6.635,2.862,31.606L134.775,514.7l-.045.182.033,0,0,.059,2.739.339v0l.1.015L143.719,491l3.238-25.878h0Z" transform="translate(-133.571 -455.823)"/><path class="d" d="M138.2,681.895l-2.841-.093-.726,3.114.072.028-.018,0,4.7,3.616,2.233.323.284-3.316-.6-.574Z" transform="translate(-134.414 -621.193)"/></g><g transform="translate(19.381 73.775)"><path class="c" d="M191.057,471.553l-4.168,54.115-2.749.162-2.762-29.22-4.787-29.1Z" transform="translate(-176.591 -467.51)"/><path class="d" d="M214.115,689.039l3.641,2.682-.341,2.232-6.506-1.274.383-3.216Z" transform="translate(-203.825 -629.624)"/></g><g transform="translate(0 21.157)"><path class="e" d="M123.065,341.577c.879-.793.9-2.173.9-3.555a44.308,44.308,0,0,0-.82-7.772,148.618,148.618,0,0,1-2.3-16.564,107.7,107.7,0,0,0-4.976-26.483l-1.243-4.307q-.371-.84-.771-1.659c-1.552-3.165-4.248-8.544-7.131-9.424l-.182-.054a11.905,11.905,0,0,0-9.654,1.451,10.06,10.06,0,0,0-1.441,1.328c-1.339,1.4-2.432,2.164-3.009,4.3a49.529,49.529,0,0,0-.894,5.808c-.562,3.91-.9,7.868-1.345,11.8-.841,7.376-1.555,14.775-2.455,22.139-.463,3.79-.929,7.587-1.148,11.417-.193,3.386-2.545,6.825-3.866,9.859-.46,1.056,6.144,3.792,6.736,3.971,2.739.828,5.653.617,8.477.633q9.282.055,18.551-.743a13.077,13.077,0,0,0,6.4-2.013A2.078,2.078,0,0,0,123.065,341.577Z" transform="translate(-82.707 -271.326)"/></g><path class="f" d="M146.4,271.2s-3.486-1.223-3.967,9-1.284,36.076-2.408,43.166-2.809,21-2.809,21l10.674.482,12.2-1.251s-4.173-10.009-4.815-17.1.481-33.782-2.247-43.791S149.726,271.381,146.4,271.2Z" transform="translate(-125.964 -250.044)"/><g transform="translate(26.252 15.632)"><path class="e" d="M211.348,268.193l7.778,5.494,4.688-2.085,12-17.135-3.187-3.743-12.732,12.93-10.022-5.681Z" transform="translate(-209.871 -250.723)"/></g><g transform="translate(16.305 4.4)"><path class="c" d="M191.707,217.507c.527,2.057-.236,4.251-.906,6.126-.594,1.663-.8,2.757.708,3.206.85.253,2.358.724,3.1-.121.564-.64.247-2.618-.027-3.4-.21-.6-.765-.9-.962-1.512a2.705,2.705,0,0,1-.1-.8,14.144,14.144,0,0,1,.349-3.284,13.978,13.978,0,0,0,.438-2.182,10.206,10.206,0,0,0-.832-3.356c-.579-1.86-2.595-4.356-4.282-2.9a4.644,4.644,0,0,0-1.016,2.47c-.013,1.428.991,1.669,1.684,2.349A7.438,7.438,0,0,1,191.707,217.507Z" transform="translate(-182.714 -208.844)"/><path class="b" d="M167.473,231.568c1.464-.448,2.608-2.045,3.159-3.864a15.91,15.91,0,0,0,.426-5.779c-.506-6.469-6.7-6.054-8.8-1.1C160.433,225.15,163.217,232.87,167.473,231.568Z" transform="translate(-161.69 -214.877)"/><path class="b" d="M178.356,264.079q-.037,1.106-.073,2.211a.55.55,0,0,1-.069.3.29.29,0,0,1-.267.085l-1.387-.062a1.216,1.216,0,0,1-.669-.165,1.939,1.939,0,0,1-.463-1.732,7.191,7.191,0,0,0,.143-1.933c.955.611,1.861-.77,2.815-.159Z" transform="translate(-172.575 -248.086)"/></g><path class="c" d="M140.071,192.673c-1.627.718-2.669,2.855-4.256,3.708-.91.489-1.987.552-2.73,1.393-1.664,1.884-.327,5.838-1.694,8.09-.284.468-.668.822-.953,1.289a7.824,7.824,0,0,0-.751,3.666,5.248,5.248,0,0,0,.024.894c.214,2.966,3.528,2.777,4.844,2.587,1.445-.208.963-1.251.963-1.251l-.052-.083a4.2,4.2,0,0,1,.971-3.256,3.859,3.859,0,0,0,.78-.889c.428-.849.019-1.973.082-2.985.253-4.072,5.514-3.2,7-6.1C146.118,196.183,143.143,191.317,140.071,192.673Z" transform="translate(-119.982 -192.44)"/></g><g transform="translate(137.387 13.871)"><g transform="translate(0 21.116)"><path class="g" d="M755.06,263.4l-1.83-1.33-.474-2.321-.43-.119-.134.681-.818-1.78-1.221-.562-1.413,1.282-.525,2.211,1.129,1.688,1.935.865,2.444,1.961Z" transform="translate(-748.214 -257.966)"/><path class="e" d="M771.668,266.611l-2.743,4.22,10.155,12.8,2.738,1.147L793.48,272.7l-3.119-8.273-8.7,9.6Z" transform="translate(-764.65 -262.691)"/></g><g transform="translate(17.819 62.223)"><g transform="translate(8.107 0.447)"><path class="c" d="M955.637,684.523l.407,2.427-3.227,3.456-2.224-1.912,1.41-2.942,3.227-3.456Z" transform="translate(-934.741 -609.897)"/><path class="h" d="M883.415,412.9l3.6,10.788.34,30.353,7.4,32.649-3.443,1.984-15.109-37.91-1.72-12.007-.684-25.289Z" transform="translate(-873.804 -412.901)"/></g><path class="h" d="M834.815,414.1l-.283,31.81,4.614,41.014h3.548l2.241-37.844,4.855-37.844Z" transform="translate(-834.532 -411.236)"/><path class="c" d="M851.847,691.4v2.492l-3.836,2.492-1.918-2.492,1.918-2.492Z" transform="translate(-843.706 -616.256)"/></g><path class="e" d="M823.612,260.079l9.424-.454s5.638,6.427,8.551,23.127c2.967,17-.548,41.485-.548,41.485s-25.283-4.378-29.429-5.054l6.325-33.575Z" transform="translate(-798.523 -238.065)"/><g transform="translate(17.712)"><path class="g" d="M869.244,224.142l3.3-.419a27.885,27.885,0,0,0-.175-3.426,3.134,3.134,0,0,0,2.139-2.289,4.6,4.6,0,0,0-.053-1.186l-.641-4.863a5.328,5.328,0,0,0-.387-1.619,2.717,2.717,0,0,0-1.966-1.386,5.705,5.705,0,0,0-5.536,1.742,3.953,3.953,0,0,0-.936,1.6,6.78,6.78,0,0,0,.133,3.081l.563,2.8c.216,1.074.528,2.294,1.323,2.7.422.214.921.153,1.3.47C868.987,221.9,868.894,223.208,869.244,224.142Z" transform="translate(-858.49 -200.877)"/><path class="c" d="M834.014,186.3a17.778,17.778,0,0,1,.27-3.249,3.382,3.382,0,0,1,3.244-2.647c2.956-.267,5.809-2.008,8.7-.664,1.65.768,3.866.953,5.36,2.036a5.254,5.254,0,0,1,1.508,1.938,10.867,10.867,0,0,1,.009,9.127,12.391,12.391,0,0,1-1.035,1.691c-.78,1.1-1.713,2.45-2.785,2.855-.024-1.246.853-5.171.118-6.193-1.166-1.622-3.809-1.061-5.258-.665-1.581.432-2.992,1.884-4.56,2.192a4.94,4.94,0,0,1-3.524-1.258C834.554,190.274,834.052,188.308,834.014,186.3Z" transform="translate(-834.011 -179.237)"/></g><path class="i" d="M841.132,265.233l-9.907,51.485-.812,6.752,12.344,2.11s-.487-24.655-.325-27.942,1.993-10.4,2.274-18.058c.162-4.431,1.246-12.39.487-14.981Z" transform="translate(-813.444 -241.705)"/></g><path class="j" d="M489.656,455.18v13.941a4.959,4.959,0,0,0,.083-.877V446.159h-.081Z" transform="translate(-405.645 -360.699)"/><path class="j" d="M489.357,372.63V358.972a4.967,4.967,0,0,0-.084.889v21.858h.081V372.63Z" transform="translate(-405.341 -296.896)"/><path class="j" d="M456.655,594.039a2.484,2.484,0,0,0-1.153.485,19.05,19.05,0,0,1-3.458,2.176,20.525,20.525,0,0,0,3.474-2.137A3.233,3.233,0,0,1,456.655,594.039Z" transform="translate(-375.798 -468.917)"/><path class="j" d="M509.558,350.8a19.034,19.034,0,0,1-3.458-2.176,2.488,2.488,0,0,0-1.153-.485,3.232,3.232,0,0,1,1.137.525A20.522,20.522,0,0,0,509.558,350.8Z" transform="translate(-417.78 -288.968)"/><path class="j" d="M489.641,604.871l0,28.849h.086V605.76A4.97,4.97,0,0,0,489.641,604.871Z" transform="translate(-405.632 -476.844)"/><path class="j" d="M331.17,402.305a4.638,4.638,0,0,1,.443,2.08,4.679,4.679,0,0,0-.433-2.39,18.328,18.328,0,0,1-1.932-7.794A18.088,18.088,0,0,0,331.17,402.305Z" transform="translate(-278.349 -322.676)"/><path class="j" d="M394.526,396.789a20.2,20.2,0,0,1-2.1,7.228,4.68,4.68,0,0,0-.388,1.909,4.643,4.643,0,0,1,.378-1.592A19.431,19.431,0,0,0,394.526,396.789Z" transform="translate(-328.179 -324.57)"/><path class="j" d="M489.354,204.884V175.2l-.081,0v28.8A4.96,4.96,0,0,0,489.354,204.884Z" transform="translate(-405.341 -162.414)"/><path class="c" d="M296.136,424.15a3.236,3.236,0,0,0-1.138.525,20.529,20.529,0,0,1-3.474,2.137,5.084,5.084,0,0,1-5.408-.466c-3.885-2.744-5.324-9.535-3.083-14.482,2.763-6.1,7.788-5.349,11.851-2.057,1.754,1.421,3.967.092,4.4-2.357V384.488h0v-.637h-.081v.514H281.3a3.887,3.887,0,0,1-2.159-3.981,4.678,4.678,0,0,1,.388-1.909,20.2,20.2,0,0,0,2.1-7.228,9.941,9.941,0,0,0-.79-3.972c-2.11-5.049-7.336-6.922-11.145-4.013a9.1,9.1,0,0,0-3.512,7.291,18.327,18.327,0,0,0,1.932,7.794,4.679,4.679,0,0,1,.433,2.39,3.767,3.767,0,0,1-2.216,3.628H250.75c-.052.1-.105.2-.155.307-1.345,2.854-1.068,4.977.938,6.773a25.609,25.609,0,0,1,3.767,3.632c1.718,2.279,1.829,3.623.518,6.442-1.476,3.173-1.469,3.3.8,5.556.609.605,1.253,1.06.4,2.2a3.373,3.373,0,0,0,.275,4.556c1.521,1.723,1.75,3.933,1.464,6.4-.249,2.156-.617,4.285-.927,6.427-.838,5.779.329,8.462,4.348,9.981,4.2,1.585,8.37.212,12.554-.312,2.8-.352,5.565-1.619,8.434-.7,1.863.6,2.891,2.079,3.13,4.788.349,3.952,1.254,7.729,1.772,11.617.422,3.172,1.485,4.162,3.684,4.034,1.842-.107,4.477-.158,7.535-.173l0-28.849C298.948,425.179,297.564,423.957,296.136,424.15Z" transform="translate(-215.279 -299.028)"/><path class="h" d="M542.73,158.5c.862,2.25,3.252,2.875,4.7.964,3.364-4.428,8.116-6.675,11.9-1.574,3.064,4.136,2.878,11.175-.41,15.016a5.462,5.462,0,0,1-5.176,2.085,17.937,17.937,0,0,1-3.761-1.03,2.934,2.934,0,0,0-1.2-.167c-1.424.242-2.551,1.85-2.547,3.777l2.442,13.284h0L550.3,199.7h0l.059.319.055.3.079-.024,17.638-5.47c1.726.252,3.013,2.494,2.481,4.856-.925,4.1-1.656,8.087.773,11.6,2.954,4.275,8.373,4.52,11.558.541,3.928-4.906,2.2-11.082-1.2-15.454a4.546,4.546,0,0,1,.472-5.91l10.783-3.344a62.741,62.741,0,0,0-.117-15.014c-1.865-12.263-5.527-21.745-11.315-28.633-11.873-14.129-25.571-17.995-40.117-14.991a27.824,27.824,0,0,0-4.017,1.157l2.814,15.31Z" transform="translate(-443.552 -127.52)"/><path class="k" d="M489.662,443.784h0v.637h0v-.637Z" transform="translate(-405.65 -358.961)"/><path class="l" d="M456.574,517.759c2.625-.185,1.351-2.314.141-5.619-9.82-26.817,1.877-48.432,3.792-51.457a59.527,59.527,0,0,0,6.6-14.524H456.026c-1.689.766-2.548,3.452-1.515,5.606,2.532,5.281,3.108,11.809-1.59,15.4-3.809,2.908-9.036,1.036-11.145-4.013-1.734-4.151-.311-7.806,1.322-11.518.94-2.137.089-4.706-1.545-5.471H423.418v22.085a4.959,4.959,0,0,1-.083.877v.094c-.459,2.413-2.653,3.711-4.393,2.3-4.065-3.289-9.089-4.038-11.85,2.065-2.239,4.948-.582,11.624,3.3,14.365a4.878,4.878,0,0,0,5.176.536,19.041,19.041,0,0,0,3.458-2.177,2.486,2.486,0,0,1,1.153-.485c1.493-.343,2.816.732,3.152,2.839v.066a4.968,4.968,0,0,1,.084.889v27.96C435.251,517.519,453.349,517.987,456.574,517.759Z" transform="translate(-339.325 -360.699)"/><path class="c" d="M477.534,596.773v-.066c-.335-2.107-1.658-3.182-3.151-2.839C475.81,593.675,477.194,594.9,477.534,596.773Z" transform="translate(-393.525 -468.745)"/><path class="c" d="M418.689,533.707c-4.063-3.292-9.088-4.044-11.851,2.057-2.241,4.947-.8,11.739,3.083,14.482a5.084,5.084,0,0,0,5.408.466,4.878,4.878,0,0,1-5.176-.536c-3.886-2.741-5.543-9.417-3.3-14.365,2.761-6.1,7.786-5.354,11.85-2.065,1.741,1.409,3.934.111,4.393-2.3v-.094C422.656,533.8,420.442,535.128,418.689,533.707Z" transform="translate(-339.082 -422.929)"/><path class="k" d="M319.328,209.306c-2.764-6.1-7.788-5.349-11.851-2.057-1.754,1.421-3.967.092-4.4-2.357a4.953,4.953,0,0,1-.083-.877v-28.8c-6.054.355-11.944,2.724-17.6,6.325-1.52.968-3.015,2.026-4.5,3.115-10.393,7.647-16.175,19.387-15.684,36.588a32.291,32.291,0,0,1-7.921,22.586,23.34,23.34,0,0,0-2.486,3.411q-.143.253-.277.52h15.578a3.766,3.766,0,0,0,2.216-3.628,4.635,4.635,0,0,0-.443-2.08,18.09,18.09,0,0,1-1.922-8.1,9.1,9.1,0,0,1,3.512-7.291c3.809-2.909,9.036-1.036,11.145,4.013a9.95,9.95,0,0,1,.79,3.972,19.431,19.431,0,0,1-2.111,7.545,4.641,4.641,0,0,0-.378,1.592,3.887,3.887,0,0,0,2.159,3.981h17.914V225.386a4.967,4.967,0,0,1,.084-.889c.34-1.876,1.724-3.1,3.152-2.905a2.489,2.489,0,0,1,1.153.485,19.025,19.025,0,0,0,3.458,2.176,5.084,5.084,0,0,0,5.408-.466C320.13,221.044,321.569,214.253,319.328,209.306Z" transform="translate(-219.06 -162.422)"/><g transform="translate(137.26 45.233)"><path class="e" d="M802.56,296.171,790.5,310.963l-17.888-6.928-1.28,5.228,19.66,11.686h5.174L807.1,308.866Z" transform="translate(-766.434 -296.171)"/><path class="g" d="M752.616,324.394l-3.114.074-1.9-3.486,4.833-3.491,1.346,2.146Z" transform="translate(-747.601 -311.773)"/></g><g transform="translate(12.825 49.064)"><path class="b" d="M286.947,371.007l-.058,2.358,3.2,1.515,1.846-1.817v-2.745l-1.782-.129-.056-.6-.584-.488Z" transform="translate(-257.562 -353.37)"/><path class="e" d="M147.484,310.456l13.208,14.613,14.03.354s-.569,7.831-.564,7.18-15.537,1.952-15.537,1.952l-13.789-12.662Z" transform="translate(-144.832 -310.456)"/></g></g></g></g></g></svg>