<svg xmlns="http://www.w3.org/2000/svg" xmlns:xlink="http://www.w3.org/1999/xlink" width="170" height="173" viewBox="0 0 170 173"><defs><style>.a{fill:#dcdd5d;}.ag,.aj,.b{fill:none;}.c{fill:#e1e9dc;}.d{clip-path:url(#a);}.e{fill:#4d8b9e;}.f{fill:#212c4a;}.g,.o,.s{fill:#c1c1b8;}.g{opacity:0.3;}.g,.o,.r{mix-blend-mode:multiply;isolation:isolate;}.h{fill:#54c6bb;}.i{fill:#2f8e85;}.j{fill:#42ada5;}.k{fill:#dfdfdd;}.l{fill:#2e5e6d;}.m{fill:#44798e;}.n{fill:#5186a6;}.o,.r{opacity:0.5;}.p{fill:#d3d2d7;}.q{fill:#fff;}.t{fill:#db5940;}.u{fill:#2f586d;}.v{fill:#264a59;}.w{clip-path:url(#b);}.x{fill:#41718d;}.y{fill:#efefed;}.z{fill:#ddddd4;}.aa{fill:#a9a9aa;}.ab{fill:#c4c4c6;}.ac{fill:#e8a869;}.ad{fill:#2c3b5b;}.ae{fill:#f4b46e;}.af{fill:#384a6b;}.ag{stroke:#212c4a;}.ag,.aj{stroke-miterlimit:10;}.ah{fill:#27212d;}.ai{fill:#3b9e94;}.aj{stroke:#2f8e85;}</style><clipPath id="a"><circle class="a" cx="85" cy="85" r="85" transform="translate(586 2081)"/></clipPath><clipPath id="b"><rect class="b" width="170" height="170" transform="translate(170 167) rotate(-180)"/></clipPath></defs><g transform="translate(-586 -2078)"><path class="c" d="M85,0A85,85,0,1,1,0,85,85,85,0,0,1,85,0Z" transform="translate(586 2081)"/><g class="d"><g transform="translate(721.183 2183.604)"><path class="e" d="M426.914,401.024c2.221,1.71,3.932,3.974,3.513,6.746,3.979-.515,7.927.558,9.23,5.9a4.1,4.1,0,0,1-1.78,4.407,6.078,6.078,0,0,0-2.924-3.915c-1.273-.682-3,.445-2.3,1.4a13.315,13.315,0,0,1,3.419,4.831,6.547,6.547,0,0,1-4.161,3.568,5.837,5.837,0,0,0-1.187-3.091c-.7-.928-1.864-1.913-2.508-1.518a2.694,2.694,0,0,0-1.139,2.658,7.742,7.742,0,0,0,1.657,3.717,5.266,5.266,0,0,1-3.761,1.987c.267-1.159-1.068-4.263-1.963-4.145-1.965.229-.625,3.609.025,4.879-2.235,1.361-8.109.764-8.308.561-.27-.276-2.927-5.534-1.8-9.2,1.038.766,4.565.643,4.833-.62-.024-.591-.311-1.66-4.254-1.758-.545-.014-.134-3.794.33-4.7.982.9,3.978,2.4,5.946,1.42,2.906-1.452-3.006-4.462-4.863-4.492a7.537,7.537,0,0,1,2.471-4.662l2.556,1.606c1.032.648,2.521,1.187,3.3.25,1.433-1.723-3.491-4.56-3.491-4.56C419.811,401.963,423.641,398.5,426.914,401.024Zm-3.225,20.67a1.7,1.7,0,0,0-.141-.786.6.6,0,0,0-.666-.329.576.576,0,0,0-.341.46C422.332,422.1,423.721,423.611,423.688,421.694ZM428,417.43c-.131-.616-.821-2.374-1.477-1.169-.376.691.1,2.554,1.075,2.478a.436.436,0,0,0,.3-.191A1.393,1.393,0,0,0,428,417.43Zm2.66-6.039a.413.413,0,0,0,.343.485s.917.436,1.279.559.818,0,.8-.353a.851.851,0,0,0-.342-.536,2.028,2.028,0,0,0-1.613-.483A.546.546,0,0,0,430.663,411.391ZM418.6,420.769a1.616,1.616,0,0,0,1.73-.114.243.243,0,0,0,.082-.13.226.226,0,0,0-.02-.114,1.065,1.065,0,0,0-1.364-.528C418.677,420.025,418.291,420.551,418.6,420.769Zm4.214-7.326a6.916,6.916,0,0,0,2.079.534c.209-.01.484-.1.5-.3a3.368,3.368,0,0,0-1.241-.8l-1.111-.312C422.839,412.5,421.422,412.72,422.81,413.444Zm2.386-4.769a2.674,2.674,0,0,0,.8.285,1.332,1.332,0,0,0,.7-.031.615.615,0,0,0,.146-1.125,1.4,1.4,0,0,0-.677-.218C423.908,407.351,425.2,408.675,425.2,408.675Z" transform="translate(-412.656 -387.45)"/><path class="f" d="M443.552,403.975c-.633,3.264-2.256,6.42-3.705,9.374-1.711,3.488-3.587,6.891-5.5,10.273-.165.292-.341.575-.508.864-.755-2.64-2.729-5.543-5.646-5.936-.263-.035-.3.343-.081.432a8.4,8.4,0,0,1,5.469,5.943q-.9,1.524-1.849,3.009c-2.878-.968-5.808-1.817-8.578-3.06-.153-.069-.226.156-.116.245A12.116,12.116,0,0,0,427,426.764q2.27.742,4.546,1.463-1.756,2.714-3.664,5.321a17.262,17.262,0,0,1-4.858-1.149,9.126,9.126,0,0,0-2.822-.78.152.152,0,0,0-.055.3c.993.341,2.02.6,3.023.922a16.281,16.281,0,0,0,4.48,1.03c-1.316,1.793-2.676,3.555-4.06,5.3-1.432-.411-3.043.3-4.349.852-.193.081-.08.418.124.353,1.333-.426,2.573-1.094,4-.918q-1.5,1.889-3.028,3.76c-.181.222.192.54.387.326,1.032-1.135,2.025-2.305,3-3.49a20.817,20.817,0,0,1,.464,4.16.078.078,0,0,0,.155.009,13.664,13.664,0,0,0-.33-4.521q1.959-2.4,3.788-4.908c1,2.037,2.116,3.854,2.248,6.243.008.145.232.162.228.013-.058-2.509-1.219-4.4-2.249-6.565q1.863-2.56,3.621-5.194a33.27,33.27,0,0,1,5.461,7.48c.051.108.213.024.165-.084a31.311,31.311,0,0,0-5.42-7.7q1.228-1.84,2.414-3.7c2.615.375,5.932,1.269,7.1,3.719.053.112.223.025.171-.087-1.206-2.612-4.4-3.43-7.1-3.91.274-.429.551-.857.823-1.287a109.112,109.112,0,0,0,5.98-10.942,35.68,35.68,0,0,0,3.282-8.485C444.662,403.649,443.679,403.322,443.552,403.975Z" transform="translate(-416.94 -403.619)"/></g><g transform="translate(724.359 2125.373)"><path class="f" d="M439.751,98.684c-2.221,1.771-4.862,2.906-7.487,1.821-.458,4.039-2.469,7.662-8.041,7.649a4.155,4.155,0,0,1-3.9-2.819,6.157,6.157,0,0,0,4.56-1.927c.979-1.087.288-3.055-.819-2.6A13.487,13.487,0,0,1,418.48,103a6.633,6.633,0,0,1-2.5-4.958,5.91,5.91,0,0,0,3.329-.419c1.082-.461,2.333-1.37,2.1-2.1a2.729,2.729,0,0,0-2.339-1.764,7.841,7.841,0,0,0-4.058.729,5.336,5.336,0,0,1-1.043-4.181c1.076.544,4.452-.018,4.552-.926.251-1.988-3.4-1.49-4.805-1.157-.8-2.528,1.213-8.162,1.461-8.309.337-.2,6.153-1.539,9.485.462-1.005.835-1.738,4.335-.561,4.9.587.12,1.708.1,2.76-3.758.146-.533,3.765.787,4.546,1.464-1.121.748-3.328,3.332-2.837,5.505.724,3.21,5.118-1.876,5.6-3.7a7.633,7.633,0,0,1,3.987,3.56l-2.2,2.125c-.888.858-1.778,2.192-1.045,3.186,1.348,1.827,5.331-2.328,5.331-2.328C440.548,91.469,443.022,96.075,439.751,98.684ZM420.2,90.5a1.727,1.727,0,0,0,.808.052.607.607,0,0,0,.485-.576.583.583,0,0,0-.37-.447C420.127,89.071,418.306,90.072,420.2,90.5Zm3.149,5.277c.638.02,2.534-.233,1.507-1.17-.588-.537-2.537-.519-2.7.458a.442.442,0,0,0,.115.342A1.41,1.41,0,0,0,423.349,95.781Zm5.3,4.08a.419.419,0,0,0-.561.22s-.651.8-.859,1.123-.2.8.154.871a.861.861,0,0,0,.61-.207,2.056,2.056,0,0,0,.867-1.469A.553.553,0,0,0,428.645,99.86Zm-6.3-14.142a1.637,1.637,0,0,0-.307,1.729.246.246,0,0,0,.108.112.23.23,0,0,0,.118.008,1.08,1.08,0,0,0,.85-1.214C423.056,85.978,422.631,85.472,422.343,85.718Zm6.185,5.92a7.009,7.009,0,0,0-1.03,1.916c-.041.208-.019.5.177.57a3.41,3.41,0,0,0,1.088-1.027l.576-1.017C429.445,91.895,429.576,90.449,428.528,91.638Zm4.113,3.5a2.7,2.7,0,0,0-.474.721,1.347,1.347,0,0,0-.14.7.623.623,0,0,0,1.072.417,1.413,1.413,0,0,0,.378-.613C434.255,94.194,432.642,95.141,432.642,95.141Z" transform="translate(-413.529 -79.298)"/><path class="e" d="M452.176,92c-3.057-1.414-5.768-3.774-8.323-5.916-3.016-2.528-5.91-5.2-8.774-7.9-.247-.233-.483-.474-.727-.709,2.78-.1,6.114-1.342,7.207-4.116.1-.25-.264-.38-.406-.185a8.509,8.509,0,0,1-7.17,3.941q-1.282-1.252-2.512-2.548c1.649-2.6,3.194-5.273,5.088-7.7.1-.134-.1-.26-.213-.174a12.263,12.263,0,0,0-2.579,3.5q-1.28,2.053-2.54,4.117-2.245-2.385-4.347-4.893a17.485,17.485,0,0,1,2.307-4.5,9.248,9.248,0,0,0,1.451-2.586.154.154,0,0,0-.277-.126c-.577.894-1.083,1.841-1.639,2.75a16.478,16.478,0,0,0-2.1,4.158c-1.445-1.729-2.849-3.494-4.232-5.277.751-1.309.438-3.067.216-4.484-.033-.21-.391-.18-.377.036.1,1.415.453,2.8-.065,4.154q-1.495-1.934-2.965-3.89c-.174-.232-.578.058-.414.3.866,1.29,1.777,2.551,2.706,3.8a21.1,21.1,0,0,1-4.2-.55c-.1-.031-.139.114-.046.15a13.853,13.853,0,0,0,4.527.77q1.887,2.508,3.91,4.915c-2.245.487-4.3,1.148-6.687.7-.144-.027-.216.189-.068.222,2.482.551,4.624-.133,7-.623q2.067,2.453,4.232,4.821a33.707,33.707,0,0,1-8.681,3.559c-.118.024-.075.2.043.182a31.7,31.7,0,0,0,8.887-3.466q1.512,1.653,3.054,3.271c-1,2.481-2.685,5.527-5.379,6.086-.123.026-.078.214.045.19,2.861-.554,4.439-3.5,5.565-6.032.356.374.71.75,1.066,1.122a110.558,110.558,0,0,0,9.314,8.533,36.145,36.145,0,0,0,7.551,5.284C452.228,93.165,452.788,92.278,452.176,92Z" transform="translate(-415.944 -57.253)"/></g><g transform="translate(730.659 2146.568)"><ellipse class="g" cx="31.092" cy="31.264" rx="31.092" ry="31.264" transform="translate(0 0.893)"/><ellipse class="h" cx="31.092" cy="31.264" rx="31.092" ry="31.264" transform="translate(2.04)"/><ellipse class="i" cx="28.493" cy="28.651" rx="28.493" ry="28.651" transform="translate(4.639 2.614)"/><ellipse class="j" cx="26.483" cy="26.63" rx="26.483" ry="26.63" transform="translate(6.649 4.634)"/><ellipse class="k" cx="24.443" cy="24.579" rx="24.443" ry="24.579" transform="translate(8.689 6.686)"/><ellipse class="h" cx="23.083" cy="23.211" rx="23.083" ry="23.211" transform="translate(10.049 8.053)"/><ellipse class="i" cx="18.32" cy="18.421" rx="18.32" ry="18.421" transform="translate(14.812 12.843)"/><ellipse class="j" cx="15.351" cy="15.436" rx="15.351" ry="15.436" transform="translate(17.781 15.828)"/><ellipse class="k" cx="12.739" cy="12.809" rx="12.739" ry="12.809" transform="translate(20.394 18.455)"/><ellipse class="h" cx="11.297" cy="11.359" rx="11.297" ry="11.359" transform="translate(21.836 19.905)"/></g></g><g transform="translate(586 2081)"><g transform="translate(8.264 20.116)"><path class="g" d="M25.356,64.165H55.124a1.017,1.017,0,0,1,1.018,1.018V93.056a1.058,1.058,0,0,1-1.051,1.064H25.356a1.058,1.058,0,0,1-1.051-1.064V65.232A1.059,1.059,0,0,1,25.356,64.165Z" transform="translate(-24.305 -62.465)"/><g transform="translate(1.7)"><path class="l" d="M30.356,59.165H60.091a1.059,1.059,0,0,1,1.051,1.067V88.056a1.058,1.058,0,0,1-1.051,1.064H30.356a1.058,1.058,0,0,1-1.051-1.064V60.232A1.059,1.059,0,0,1,30.356,59.165Z" transform="translate(-29.305 -59.165)"/><g transform="translate(1.015)"><path class="m" d="M33.308,59.165H62.094a1.017,1.017,0,0,1,1.018,1.018V86.711a1.016,1.016,0,0,1-1.018,1.014H33.308a1.017,1.017,0,0,1-1.018-1.014V60.183A1.017,1.017,0,0,1,33.308,59.165Z" transform="translate(-32.29 -59.165)"/><path class="n" d="M32.29,60.183V82.536H56.5a1.016,1.016,0,0,0,1.018-1.014V59.165H33.308A1.017,1.017,0,0,0,32.29,60.183Z" transform="translate(-32.29 -59.165)"/></g></g><path class="o" d="M80.525,87.823,87.576,84.8a.709.709,0,0,1,.9.294l6.12,11.78a.593.593,0,0,1-.323.82l-7.052,3.024a.709.709,0,0,1-.9-.294L80.2,88.642A.592.592,0,0,1,80.525,87.823Z" transform="translate(-61.153 -76.045)"/><g transform="translate(20.107 8.813)"><path class="f" d="M1.664-.015H5.835A1.679,1.679,0,0,1,7.515,1.664v9.552A1.679,1.679,0,0,1,5.835,12.9H1.664A1.679,1.679,0,0,1-.015,11.216V1.664A1.679,1.679,0,0,1,1.664-.015Z" transform="translate(0 3.315) rotate(-25.266)"/><path class="p" d="M0,0H6.161V9.768H0Z" transform="translate(11.01 10.641) rotate(154.733)"/><path class="q" d="M107.263,121.658a.485.485,0,1,0,.232-.646A.485.485,0,0,0,107.263,121.658Z" transform="translate(-99.133 -108.766)"/><path class="q" d="M93.674,91.639a.213.213,0,1,0,.1-.284A.213.213,0,0,0,93.674,91.639Z" transform="translate(-90.182 -89.21)"/><path class="q" d="M101.345,91.068l2.3,9.714-1.161.548-1.555-10.067Z" transform="translate(-94.986 -89.034)"/><path class="q" d="M98.56,92.5l1.565,10.063-.8.378L98.275,92.635Z" transform="translate(-93.232 -89.979)"/></g><g class="r" transform="translate(2.715 2.363)"><path class="s" d="M32.307,84.661,37,66.49a.5.5,0,0,1,.609-.359L51.16,69.643,46.212,88.783l-2.7-.7h0L32.665,85.271A.5.5,0,0,1,32.307,84.661Z" transform="translate(-32.291 -66.115)"/><path class="s" d="M57.53,129.109l-.782,3.025L55.879,131l-1.308.566.782-3.025Z" transform="translate(-46.996 -107.319)"/></g><g transform="translate(1.7 2.363)"><path class="h" d="M29.32,83.823l4.492-17.351a.477.477,0,0,1,.582-.343l12.953,3.353L42.616,87.759,29.663,84.406A.478.478,0,0,1,29.32,83.823Z" transform="translate(-29.305 -66.115)"/><g transform="translate(10.731 2.658)"><path class="j" d="M.108.016H2.774V18.895H.108Z" transform="matrix(-0.968, -0.251, 0.251, -0.968, 2.681, 19.029)"/></g><g transform="translate(5.717 7.291)"><path class="f" d="M46.387,88.264,51.938,89.7a.358.358,0,0,0,.18-.694L46.566,87.57a.358.358,0,0,0-.18.694Z" transform="translate(-46.118 -87.558)"/></g><g transform="translate(5.418 8.442)"><path class="f" d="M45.51,91.65l5.551,1.437a.358.358,0,1,0,.18-.694L45.69,90.956a.358.358,0,1,0-.18.694Z" transform="translate(-45.241 -90.944)"/></g><g transform="translate(5.121 9.593)"><path class="f" d="M44.634,95.036l5.551,1.437a.358.358,0,0,0,.18-.694l-5.552-1.437a.358.358,0,0,0-.18.694Z" transform="translate(-44.365 -94.33)"/></g><g transform="translate(7.243 20.267)"><path class="t" d="M53.438,126.263l-.748,2.889-.831-1.079-1.25.54.748-2.889Z" transform="translate(-50.609 -125.724)"/></g></g></g><g transform="translate(15.188 74.457)"><g class="r" transform="translate(0 1.664)"><path class="s" d="M61.068,254.917a10.791,10.791,0,0,0,2.613-1.553q.351-.263.716-.521.18-.126.366-.251c.073-.048.149-.1.224-.143.059-.037.117-.075.178-.112s.144-.084.217-.125.143-.082.217-.122.141-.073.214-.11.164-.081.248-.121c.038-.017.072-.036.11-.054s.1-.04.144-.06l.168-.07c.091-.036.184-.071.279-.105.065-.024.13-.048.2-.07.1-.033.2-.063.3-.093.067-.02.131-.041.2-.059.171-.047.348-.09.533-.13,2.914-.619,3.876.7,4.337,1.762l.013.023,0,.006c.009.016.022.041.037.07l.006.012c.015.03.033.068.052.109l.011.023c.018.042.037.089.056.14.005.013.01.025.015.038.018.051.036.106.054.165l.016.054c.016.058.031.12.044.184.005.024.011.048.015.073.012.063.021.129.029.2,0,.031.007.062.01.094.006.066.008.134.01.2,0,.023,0,.045,0,.069a2.821,2.821,0,0,1-.1.726v0q-.025.089-.056.178l-.009.023c-.02.054-.04.108-.064.163-.005.013-.012.026-.018.038-.022.05-.046.1-.071.151l-.029.053c-.025.046-.05.092-.078.139-.013.022-.028.043-.042.065-.027.043-.054.086-.084.128-.018.025-.038.05-.056.075s-.058.08-.09.119-.049.058-.074.086-.061.072-.093.109-.066.067-.1.1-.06.063-.092.094-.084.078-.127.116-.056.053-.087.079c-.049.043-.1.085-.157.127-.028.022-.054.045-.083.067-.064.049-.133.1-.2.147l-.064.046q-.14.1-.294.19a11.061,11.061,0,0,1-3.987,1.578,14.5,14.5,0,0,0-3.341.932c-2.681,1.173-4.659,1.647-5.826-.566-.032-.06-.064-.12-.093-.182C56.222,256.807,59.52,255.5,61.068,254.917Z" transform="translate(-52.9 -241.821)"/><path class="s" d="M48.068,229.016a10.794,10.794,0,0,0,2.345-1.934q.307-.313.628-.624.158-.152.324-.3c.065-.059.133-.117.2-.176s.1-.092.159-.137.129-.1.194-.156.13-.1.2-.154.129-.094.194-.141.149-.105.226-.157c.035-.023.066-.047.1-.07s.09-.054.134-.082l.154-.094c.084-.05.171-.1.259-.146.061-.033.121-.067.184-.1.091-.047.188-.093.284-.138.063-.03.123-.06.188-.089.162-.072.33-.142.507-.209,2.786-1.057,3.937.1,4.555,1.08l.018.022,0,0,.048.064.008.012c.02.028.043.062.068.1l.013.021c.024.039.051.083.078.131l.019.034c.026.048.053.1.079.156l.024.05c.025.055.049.115.072.177.009.023.017.045.026.068.021.061.041.125.059.191.008.03.017.06.024.091.016.064.029.131.04.2,0,.023.01.044.014.067a2.808,2.808,0,0,1,.007.733v0q-.011.091-.029.185l0,.023c-.011.057-.024.114-.039.172,0,.013-.008.026-.012.039-.015.053-.03.107-.048.161-.006.018-.014.036-.02.054-.018.05-.036.1-.057.152-.009.022-.02.045-.03.068-.021.047-.041.095-.065.142-.014.028-.03.055-.044.083-.023.044-.045.087-.071.131s-.04.065-.061.1-.049.081-.075.121-.053.075-.08.112-.051.073-.079.11-.069.086-.1.129-.051.064-.079.1c-.043.05-.09.1-.137.151-.024.025-.045.051-.07.077-.056.058-.117.117-.177.175-.019.019-.037.037-.057.056q-.124.116-.261.233a11.071,11.071,0,0,1-3.7,2.168,14.506,14.506,0,0,0-3.16,1.431c-2.47,1.568-4.353,2.339-5.844.329-.041-.054-.082-.109-.12-.165C43.568,231.624,46.628,229.833,48.068,229.016Z" transform="translate(-44.672 -223.885)"/></g><g transform="translate(0.347)"><g transform="translate(4.239 9.24)"><path class="m" d="M64.7,248.47a10.8,10.8,0,0,1-2.613,1.553c-1.548.588-4.846,1.89-3.687,4.312.029.062.061.122.093.182,1.167,2.214,3.145,1.739,5.826.566a14.534,14.534,0,0,1,3.341-.932,11.065,11.065,0,0,0,3.987-1.578c3.264-2,1.7-4.486,1.7-4.486-.461-1.065-1.422-2.382-4.337-1.762a9.251,9.251,0,0,0-3.6,1.623Q65.054,248.207,64.7,248.47Z" transform="translate(-58.161 -246.166)"/><path class="u" d="M79.507,247.948a12.233,12.233,0,0,1,1.258,2.038,9.6,9.6,0,0,1,.986,4.164,11.065,11.065,0,0,0,3.987-1.578,3.618,3.618,0,0,0,2.077-3.025,2.943,2.943,0,0,0-.375-1.461c-.461-1.065-1.422-2.382-4.337-1.762a9.032,9.032,0,0,0-1.822.587A10.349,10.349,0,0,0,79.507,247.948Z" transform="translate(-72.249 -246.166)"/><path class="e" d="M58.4,258.807c.029.062.061.122.093.182a11.139,11.139,0,0,0,7.45-1.322.671.671,0,0,0,.379-.966,25.209,25.209,0,0,0-1.622-3.759A10.8,10.8,0,0,1,62.09,254.5C60.542,255.083,57.244,256.385,58.4,258.807Z" transform="translate(-58.161 -250.638)"/><path class="v" d="M79.507,249.4a12.232,12.232,0,0,1,1.258,2.038,9.6,9.6,0,0,1,.986,4.164,11.065,11.065,0,0,0,3.987-1.578A3.618,3.618,0,0,0,87.816,251a6.257,6.257,0,0,1-1.142,1.08,1.183,1.183,0,0,1-1.005.356c-.232-.073-.394-.283-.613-.39a2.026,2.026,0,0,0-.923-.089,2.9,2.9,0,0,1-2.851-3.592A10.351,10.351,0,0,0,79.507,249.4Z" transform="translate(-72.249 -247.615)"/><g transform="translate(7.957 2.36)"><path class="f" d="M83,258.248a12.82,12.82,0,0,0-1.425-4.984c-.061-.141.14-.208.223-.108a8.448,8.448,0,0,1,1.52,5.072c0,.2-.313.226-.318.02Z" transform="translate(-81.564 -253.108)"/></g></g><path class="m" d="M51.436,222.189a10.794,10.794,0,0,1-2.345,1.933c-1.44.817-4.5,2.607-2.986,4.825.038.056.079.111.12.165,1.491,2.01,3.374,1.239,5.844-.329a14.539,14.539,0,0,1,3.16-1.431,11.069,11.069,0,0,0,3.7-2.168c2.92-2.476,1-4.693,1-4.693-.617-.982-1.769-2.137-4.555-1.08a9.258,9.258,0,0,0-3.307,2.153Q51.742,221.875,51.436,222.189Z" transform="translate(-45.694 -218.991)"/><path class="u" d="M64.428,221.564a12.193,12.193,0,0,1,1.554,1.822,9.6,9.6,0,0,1,1.61,3.965,11.069,11.069,0,0,0,3.7-2.168,3.617,3.617,0,0,0,1.591-3.306,2.941,2.941,0,0,0-.594-1.387c-.617-.982-1.769-2.137-4.555-1.08a9.035,9.035,0,0,0-1.711.859A10.344,10.344,0,0,0,64.428,221.564Z" transform="translate(-58.058 -218.991)"/><path class="e" d="M46.1,235.154c.038.056.079.111.12.165a11.137,11.137,0,0,0,7.161-2.444.872.872,0,0,0,.367-.547.882.882,0,0,0-.14-.464,25.229,25.229,0,0,0-2.176-3.468,10.793,10.793,0,0,1-2.345,1.933C47.65,231.146,44.59,232.936,46.1,235.154Z" transform="translate(-45.694 -225.198)"/><path class="v" d="M64.428,224.046a12.192,12.192,0,0,1,1.554,1.822,9.6,9.6,0,0,1,1.61,3.965,11.069,11.069,0,0,0,3.7-2.167,3.618,3.618,0,0,0,1.591-3.307,6.258,6.258,0,0,1-.964,1.242c-.254.267-.571.56-.939.5a4.977,4.977,0,0,1-.665-.292,2.025,2.025,0,0,0-.925.052,2.9,2.9,0,0,1-3.366-3.115A10.344,10.344,0,0,0,64.428,224.046Z" transform="translate(-58.058 -221.473)"/><g transform="translate(7.171 3.008)"><path class="f" d="M68.962,232.7a9.613,9.613,0,0,0-.871-2.677c-.362-.716-.863-1.321-1.287-2a.125.125,0,0,1,.188-.161,8.47,8.47,0,0,1,2.289,4.814c.035.2-.283.22-.318.02Z" transform="translate(-66.784 -227.839)"/></g></g></g><g class="w"><g transform="translate(25.174 98.422)"><path class="e" d="M34.242,341.068c-2.45,1.894-5.35,3.088-8.194,1.861-.566,4.4-2.82,8.314-8.895,8.207A4.531,4.531,0,0,1,12.943,348a6.713,6.713,0,0,0,5-2.026c1.086-1.169.365-3.327-.85-2.846a14.711,14.711,0,0,1-6.121,2.3,7.232,7.232,0,0,1-2.646-5.447,6.451,6.451,0,0,0,3.636-.4c1.187-.485,2.567-1.455,2.326-2.254a2.975,2.975,0,0,0-2.521-1.963,8.555,8.555,0,0,0-4.437.728,5.819,5.819,0,0,1-1.068-4.576c1.164.611,4.855.054,4.979-.935.307-2.164-3.682-1.681-5.22-1.341-.827-2.77,1.458-8.879,1.731-9.035.371-.211,6.735-1.575,10.335.662-1.11.894-1.968,4.7-.693,5.338.638.14,1.86.133,3.072-4.052.167-.578,4.092.921,4.932,1.672-1.235.8-3.684,3.577-3.185,5.955.736,3.513,5.611-1.96,6.165-3.936a8.327,8.327,0,0,1,4.288,3.948l-2.433,2.28c-.983.921-1.975,2.361-1.192,3.456,1.439,2.015,5.852-2.45,5.852-2.45C35.231,333.215,37.852,338.278,34.242,341.068Zm-21.182-9.245a1.874,1.874,0,0,0,.879.07.661.661,0,0,0,.538-.619.636.636,0,0,0-.4-.493C13,330.259,11,331.321,13.059,331.823Zm3.346,5.806c.7.033,2.767-.212,1.663-1.25-.632-.6-2.758-.608-2.95.454a.481.481,0,0,0,.12.375A1.539,1.539,0,0,0,16.405,337.63Zm5.707,4.536a.457.457,0,0,0-.615.231s-.724.857-.956,1.21-.232.874.153.952a.938.938,0,0,0,.669-.215,2.242,2.242,0,0,0,.969-1.588A.6.6,0,0,0,22.112,342.166Zm-6.635-15.525a1.786,1.786,0,0,0-.364,1.88.27.27,0,0,0,.116.124.257.257,0,0,0,.128.01,1.177,1.177,0,0,0,.947-1.309C16.249,326.937,15.794,326.377,15.476,326.641Zm6.646,6.558a7.634,7.634,0,0,0-1.154,2.072c-.048.226-.03.545.183.625a3.718,3.718,0,0,0,1.2-1.1l.646-1.1C23.118,333.494,23.284,331.919,22.122,333.2Zm4.427,3.888a2.947,2.947,0,0,0-.529.778,1.474,1.474,0,0,0-.164.76.68.68,0,0,0,1.161.472,1.54,1.54,0,0,0,.423-.662C28.324,336.082,26.549,337.087,26.549,337.087Z" transform="translate(-5.847 -319.596)"/><path class="f" d="M16.887,362.132c-3.31-1.593-6.227-4.212-8.977-6.589-3.247-2.807-6.357-5.766-9.436-8.755-.266-.258-.519-.525-.781-.786,3.033-.067,6.689-1.361,7.927-4.368.112-.271-.282-.419-.439-.208A9.28,9.28,0,0,1-2.7,345.6q-1.376-1.386-2.7-2.819c1.841-2.8,3.571-5.7,5.676-8.307.116-.144-.1-.286-.23-.193a13.375,13.375,0,0,0-2.87,3.772q-1.43,2.217-2.838,4.447-2.408-2.638-4.658-5.407a19.061,19.061,0,0,1,2.59-4.869,10.084,10.084,0,0,0,1.625-2.8.168.168,0,0,0-.3-.142c-.643.965-1.212,1.989-1.833,2.971a17.968,17.968,0,0,0-2.357,4.5c-1.547-1.909-3.048-3.857-4.527-5.825.841-1.415.529-3.336.31-4.885-.033-.229-.424-.2-.411.033.081,1.544.447,3.056-.14,4.528q-1.6-2.133-3.169-4.291c-.186-.255-.631.054-.457.322.923,1.421,1.895,2.81,2.888,4.186a23.02,23.02,0,0,1-4.576-.671.086.086,0,0,0-.053.163,15.1,15.1,0,0,0,4.923.915q2.016,2.766,4.182,5.425c-2.456.494-4.711,1.18-7.3.651-.157-.032-.238.2-.078.241,2.7.642,5.045-.068,7.646-.563q2.213,2.709,4.534,5.327a36.748,36.748,0,0,1-9.525,3.737c-.129.025-.085.221.044.2a34.585,34.585,0,0,0,9.748-3.631q1.621,1.828,3.276,3.618c-1.134,2.688-3.02,5.982-5.966,6.546-.135.026-.089.231.045.207,3.129-.556,4.9-3.737,6.169-6.485.381.414.761.83,1.144,1.241a120.579,120.579,0,0,0,10.014,9.459,39.43,39.43,0,0,0,8.146,5.887C16.925,363.409,17.549,362.451,16.887,362.132Z" transform="translate(22.166 -323.75)"/></g><g transform="translate(66.036 0.296)"><path class="f" d="M43.5,440.312c-1.756,1.512-3.875,2.519-6.049,1.716-.249,3.308-1.777,6.324-6.321,6.485a3.39,3.39,0,0,1-3.27-2.178,5.024,5.024,0,0,0,3.659-1.712c.765-.917.141-2.5-.748-2.093a11,11,0,0,1-4.483,1.96,5.412,5.412,0,0,1-2.193-3.965,4.826,4.826,0,0,0,2.7-.444c.868-.41,1.86-1.189,1.648-1.776a2.227,2.227,0,0,0-1.962-1.366,6.4,6.4,0,0,0-3.286.72,4.353,4.353,0,0,1-.98-3.377c.894.41,3.63-.152,3.684-.9.143-1.629-2.818-1.11-3.954-.8-.728-2.037.737-6.693.935-6.82.269-.172,4.97-1.444,7.749.085-.794.712-1.284,3.588-.306,4.016.482.08,1.4.025,2.135-3.15.1-.439,3.094.526,3.752,1.054-.891.645-2.611,2.819-2.144,4.576.69,2.6,4.115-1.687,4.45-3.185a6.229,6.229,0,0,1,3.361,2.78l-1.728,1.8c-.7.727-1.382,1.842-.754,2.63,1.155,1.449,4.275-2.063,4.275-2.063C43.926,434.4,46.086,438.084,43.5,440.312ZM27.3,434.244a1.4,1.4,0,0,0,.66.017.5.5,0,0,0,.377-.484.476.476,0,0,0-.316-.353C27.2,433.078,25.747,433.951,27.3,434.244Zm2.731,4.206c.521,0,2.059-.268,1.193-1-.5-.419-2.085-.345-2.186.456a.36.36,0,0,0,.1.275A1.154,1.154,0,0,0,30.035,438.451Zm4.444,3.163a.342.342,0,0,0-.45.2s-.507.669-.666.942-.138.662.152.705a.7.7,0,0,0,.491-.188,1.677,1.677,0,0,0,.661-1.225A.452.452,0,0,0,34.478,441.614ZM28.9,430.276a1.336,1.336,0,0,0-.2,1.419.2.2,0,0,0,.091.088.187.187,0,0,0,.1,0,.881.881,0,0,0,.656-1.016C29.494,430.466,29.131,430.066,28.9,430.276Zm5.226,4.637a5.718,5.718,0,0,0-.78,1.594c-.027.171,0,.409.162.459a2.786,2.786,0,0,0,.856-.871l.439-.847C34.886,435.093,34.948,433.911,34.13,434.913Zm3.462,2.73a2.2,2.2,0,0,0-.364.6,1.1,1.1,0,0,0-.093.575.509.509,0,0,0,.887.306,1.15,1.15,0,0,0,.29-.511C38.879,436.821,37.592,437.642,37.592,437.642Z" transform="translate(-21.745 -425.11)"/><path class="e" d="M28.8,455.619a30.112,30.112,0,0,1-6.421-4.149c-2.641-2.022-5.17-4.18-7.681-6.361-.291-.253-.571-.515-.857-.771,2.274-.159,4.925-1.3,5.741-3.589.075-.21-.236-.28-.341-.124a6.951,6.951,0,0,1-5.716,3.429q-1.085-.986-2.13-2.006a67.107,67.107,0,0,1,3.894-6.406.113.113,0,0,0-.167-.153,10.6,10.6,0,0,0-1.973,2.9q-.988,1.728-1.961,3.465-1.9-1.877-3.695-3.855a14.92,14.92,0,0,1,1.778-3.806,7.188,7.188,0,0,0,1.066-2.09.126.126,0,0,0-.233-.085c-.466.726-.829,1.54-1.252,2.294a13.764,13.764,0,0,0-1.575,3.443c-1.232-1.363-2.433-2.757-3.617-4.168a5.817,5.817,0,0,0,.034-3.668c-.034-.173-.322-.118-.3.056a7.6,7.6,0,0,1,.076,3.38Q2.2,431.839.955,430.307c-.167-.206-.517,0-.355.227.746,1.025,1.527,2.025,2.324,3.013a17.2,17.2,0,0,1-3.452-.326c-.082-.022-.1.1-.028.125a11.671,11.671,0,0,0,3.708.484q1.618,1.99,3.345,3.894c-1.816.465-3.493,1.063-5.436.773-.119-.018-.161.163-.04.185a9.162,9.162,0,0,0,3.208-.047c.862-.144,1.649-.455,2.483-.674q1.759,1.934,3.6,3.8a27.133,27.133,0,0,1-6.972,3.171c-.1.023-.048.166.047.145a25.387,25.387,0,0,0,7.137-3.1q1.284,1.3,2.591,2.572c-.745,2.046-2.031,4.594-4.2,5.13-.1.025-.05.174.049.151,2.32-.541,3.511-2.989,4.349-5.089.3.3.607.595.912.889a90.2,90.2,0,0,0,7.859,6.672,29.554,29.554,0,0,0,6.324,4.074C28.9,456.587,29.306,455.831,28.8,455.619Z" transform="translate(1.578 -428.21)"/></g><g transform="translate(82.2 5.422)"><path class="e" d="M419.57,17.118c1.3,1.921,3.076,3.45,5.385,3.246-.63,3.257.051,6.569,4.393,7.919a3.391,3.391,0,0,0,3.728-1.241A5.025,5.025,0,0,1,430,24.428c-.5-1.086.522-2.449,1.272-1.823a11,11,0,0,0,3.809,3.07,5.413,5.413,0,0,0,3.159-3.249,4.83,4.83,0,0,1-2.489-1.139c-.73-.624-1.482-1.636-1.123-2.147a2.226,2.226,0,0,1,2.252-.8,6.4,6.4,0,0,1,2.981,1.559,4.352,4.352,0,0,0,1.833-3c-.97.16-3.462-1.1-3.318-1.833.29-1.61,3.01-.33,4.024.273,1.238-1.774,1.049-6.651.891-6.826-.214-.237-4.415-2.7-7.5-1.956.579.9.295,3.8-.761,3.955-.486-.05-1.353-.342-1.231-3.6.017-.45-3.124-.306-3.9.03.69.856,1.778,3.406.865,4.979-1.348,2.323-3.527-2.71-3.456-4.244a6.232,6.232,0,0,0-3.974,1.8l1.193,2.192c.482.885.849,2.141.035,2.736-1.5,1.094-3.582-3.115-3.582-3.115C420.711,11.307,417.66,14.288,419.57,17.118Zm17.221-1.595a1.408,1.408,0,0,1-.641-.157.5.5,0,0,1-.237-.566.476.476,0,0,1,.4-.257C437.2,14.425,438.37,15.649,436.79,15.523Zm-3.74,3.34c-.5-.14-1.916-.8-.888-1.279.589-.274,2.1.216,1.989,1.015a.361.361,0,0,1-.173.238A1.151,1.151,0,0,1,433.05,18.863Zm-5.12,1.883a.342.342,0,0,1,.383.308s.312.779.395,1.084-.041.675-.332.641a.7.7,0,0,1-.425-.31,1.677,1.677,0,0,1-.316-1.356A.452.452,0,0,1,427.93,20.746Zm8.36-9.473a1.336,1.336,0,0,1-.183,1.421.2.2,0,0,1-.112.061.188.188,0,0,1-.093-.023.881.881,0,0,1-.366-1.153C435.671,11.3,436.126,11.011,436.29,11.274Zm-6.261,3.1a5.719,5.719,0,0,1,.334,1.743c-.019.172-.107.394-.277.4a2.775,2.775,0,0,1-.6-1.065l-.2-.933C429.251,14.348,429.5,13.19,430.028,14.373ZM425.97,16.1a2.212,2.212,0,0,1,.193.677,1.1,1.1,0,0,1-.062.579.508.508,0,0,1-.936.063,1.151,1.151,0,0,1-.145-.569C424.945,14.965,425.97,16.1,425.97,16.1Z" transform="translate(-407.713 -6.414)"/><path class="f" d="M422.556,27.508a30.124,30.124,0,0,0,7.287-2.315c3.08-1.257,6.087-2.673,9.083-4.117.347-.167.686-.346,1.03-.519-2.152-.752-4.409-2.553-4.6-4.972-.017-.222.3-.209.362-.03a6.95,6.95,0,0,0,4.613,4.811q1.306-.666,2.583-1.376a67.122,67.122,0,0,0-2.072-7.2.113.113,0,0,1,.2-.1,10.592,10.592,0,0,1,1.142,3.312q.5,1.927.981,3.858,2.33-1.31,4.579-2.748a14.937,14.937,0,0,0-.714-4.139,7.188,7.188,0,0,1-.479-2.3.126.126,0,0,1,.248-.021c.259.823.4,1.7.605,2.543a13.782,13.782,0,0,1,.614,3.736c1.547-.992,3.073-2.02,4.586-3.07a5.82,5.82,0,0,1,.931-3.548c.078-.158.342-.029.278.135a7.6,7.6,0,0,0-.963,3.241q1.617-1.126,3.222-2.276c.216-.154.5.14.283.313-.989.793-2.006,1.552-3.035,2.3a17.152,17.152,0,0,0,3.417.593c.084,0,.074.123-.006.128a11.671,11.671,0,0,1-3.7-.508q-2.085,1.494-4.252,2.877c1.629.927,3.091,1.944,5.042,2.175.12.014.113.2-.01.189a9.158,9.158,0,0,1-3.083-.889c-.794-.365-1.471-.872-2.218-1.3q-2.206,1.4-4.467,2.717a27.121,27.121,0,0,0,5.893,4.893c.087.048,0,.173-.084.128a25.391,25.391,0,0,1-6.07-4.866q-1.581.917-3.176,1.8c.18,2.17.751,4.966,2.7,6.054.089.05,0,.181-.087.133-2.1-1.132-2.6-3.807-2.857-6.054-.371.206-.742.414-1.113.618a90.266,90.266,0,0,1-9.338,4.37,29.562,29.562,0,0,1-7.172,2.268C422.2,28.413,422.01,27.578,422.556,27.508Z" transform="translate(-422.229 -7.295)"/></g></g><g transform="translate(43.188 15.556)"><g transform="translate(3.733 0.796)"><rect class="g" width="87.504" height="135.598" transform="translate(87.504 135.598) rotate(-180)"/><rect class="g" width="84.473" height="135.598" transform="translate(84.473 135.598) rotate(-180)"/></g><rect class="f" width="80.389" height="124.716" transform="translate(85.528 129.979) rotate(-180)"/><rect class="x" width="85.407" height="4.467" transform="translate(87.365 5.263) rotate(-180)"/><rect class="u" width="85.407" height="2.233" transform="translate(87.365 5.263) rotate(-180)"/><rect class="x" width="83.348" height="4.467" transform="translate(87.081 134.446) rotate(-180)"/><rect class="u" width="83.348" height="2.233" transform="translate(87.081 132.212) rotate(-180)"/><circle class="f" cx="3.03" cy="3.03" r="3.03" transform="translate(84.335 0)"/><circle class="f" cx="3.03" cy="3.03" r="3.03"/><g transform="translate(7.105 5.263)"><path class="y" d="M147.92,63.2V183.985a1.965,1.965,0,0,0,1.965,1.965h72.542a1.966,1.966,0,0,0,1.968-1.965V63.2a1.966,1.966,0,0,0-1.968-1.965H149.885A1.965,1.965,0,0,0,147.92,63.2Z" transform="translate(-147.92 -61.233)"/><g transform="translate(3.158 13.945)"><g transform="translate(0 21.808)"><path class="z" d="M169.948,166.91a18.713,18.713,0,0,1-6.016,4.866,3.88,3.88,0,0,1-2.9.142,6.194,6.194,0,0,0-1.941-.643c-.439.014-.934.268-1.391.318a.487.487,0,0,1-.487-.487c.248-1.849,2.506-1.183,3.675-.685,1.906.811,3.3.015,4.91-1a23.886,23.886,0,0,0,3.721-2.938.3.3,0,0,1,.43.431Z" transform="translate(-157.209 -166.39)"/></g><g transform="translate(4.688 24.724)"><path class="z" d="M188.319,175.922a12.719,12.719,0,0,0-4.866,2.72c-1.215,1.109-2.024,2.5-3.411,3.431a19.553,19.553,0,0,1-3.734,1.8,23.456,23.456,0,0,0-2.462,1.075,7.334,7.334,0,0,1-1.9.962.771.771,0,0,1-.86-1.118c.592-1.215,2.155-1.74,3.339-2.23a25.958,25.958,0,0,0,4.913-2.169c1.477-1.012,2.662-2.385,4.137-3.4a13.955,13.955,0,0,1,4.584-2.01.487.487,0,0,1,.259.939Z" transform="translate(-170.998 -174.966)"/></g><g transform="translate(49.211 13.056)"><path class="z" d="M316.422,141.008a31.778,31.778,0,0,1-5.727,7.463,7.486,7.486,0,0,1-3.38,1.723c-1.76.45-2.878,1.456-4.417,2.294-.522.284-1.211-.309-.854-.854a6.255,6.255,0,0,1,2.826-2.093c1.366-.6,2.953-.6,4.233-1.367,2.81-1.675,5.15-4.731,6.9-7.412a.244.244,0,0,1,.421.246Z" transform="translate(-301.946 -140.649)"/></g><g transform="translate(55.98 5.024)"><path class="z" d="M327.487,118.891l-2.145,2.667a6.966,6.966,0,0,1-2.3,2.26.8.8,0,0,1-1.163-.894,7.072,7.072,0,0,1,1.792-2.77l2.309-2.77c.884-1.061,2.354.453,1.507,1.507Z" transform="translate(-321.856 -117.024)"/></g><g transform="translate(2.179)"><path class="z" d="M168.609,108.2a8.457,8.457,0,0,1-4.965-5,.734.734,0,0,1,.187-.708c.928-.954,1.611,1.124,1.949,1.635a7.633,7.633,0,0,0,3.38,2.764c.735.319.2,1.621-.551,1.308Z" transform="translate(-163.617 -102.248)"/></g><g transform="translate(3.96 10.73)"><path class="z" d="M169.739,135.723c-.264-.349-.447-.586-.714-.907a.595.595,0,0,1,.719-.933c.41.209.825.4,1.244.59a.918.918,0,0,1,.185,1.434.941.941,0,0,1-.646.268.959.959,0,0,1-.789-.452Z" transform="translate(-168.856 -133.808)"/></g><g transform="translate(29.715 81.72)"><path class="z" d="M269.477,343.453c.264,2.446-1.746,4.683-3.507,6.112-2.3,1.868-5.022,3.136-6.565,5.785-1.309,2.246-2.6,3.961-5.163,4.814a14.738,14.738,0,0,1-9-.3c-.915-.328-.849-1.844.243-1.794,2.794.129,5.435,1.076,8.211.112,2.648-.92,3.227-3.2,4.772-5.224a19.261,19.261,0,0,1,4.793-3.991,9.879,9.879,0,0,0,4.513-5.743.872.872,0,0,1,1.7.231Z" transform="translate(-244.606 -342.602)"/></g><g transform="translate(27.465 91.749)"><path class="z" d="M244.669,373.484c-1.115.616-6.148,3.765-6.67,1.233a.493.493,0,0,1,.6-.6,4.188,4.188,0,0,0,2.464-.541,29.131,29.131,0,0,0,2.854-1.381c.843-.46,1.595.823.753,1.288Z" transform="translate(-237.987 -372.098)"/></g><g transform="translate(11.065 98.593)"><path class="z" d="M213.33,397.951q-3.281.192-6.561.385a10.557,10.557,0,0,1-5.308-.742,50.1,50.1,0,0,0-5.572-2.437,28.833,28.833,0,0,0-3.127-.809,6.772,6.772,0,0,1-2.7-.73.664.664,0,0,1,.156-1.2c1.5-.562,3.537.237,5.021.668a29.922,29.922,0,0,1,5.384,2.159,16.348,16.348,0,0,0,2.718,1.333,11.126,11.126,0,0,0,3.427.277q3.281-.059,6.561-.126c.788-.015.778,1.172,0,1.218Z" transform="translate(-189.752 -392.228)"/></g><g transform="translate(12.353 94.233)"><path class="z" d="M200.022,381.462c-1.886.19-4.588.467-6.185-.761a.649.649,0,0,1,.153-1.169,8.866,8.866,0,0,1,2.878-.006,19.152,19.152,0,0,0,3.154-.074c1.286-.129,1.277,1.881,0,2.009Z" transform="translate(-193.541 -379.404)"/></g></g><path class="z" d="M278.133,185.949h30.236a1.964,1.964,0,0,0,1.965-1.965V63.2a1.964,1.964,0,0,0-1.965-1.965H294.746c6.386,4.57,10.871,11.285,9.027,19.8-.568,2.655-1.733,5.242-1.619,7.958.122,2.962,1.719,6.143.236,8.713a31.444,31.444,0,0,1-2.319,2.723c-2.912,3.945.289,9.42.136,14.323-.139,4.506-3.191,8.451-3.767,12.922-.7,5.4,2.291,10.631,2.387,16.077a15.426,15.426,0,0,1-3.4,9.892c-.654.807-1.444,1.744-1.179,2.748a3.728,3.728,0,0,0,.822,1.283c2.141,2.655,2.448,6.425,1.626,9.738s-2.634,6.275-4.417,9.184a10.271,10.271,0,0,1-1.958,2.541,13.888,13.888,0,0,1-4,1.922A43.506,43.506,0,0,0,278.133,185.949Z" transform="translate(-233.861 -61.234)"/><path class="s" d="M147.92,63.2V183.985a1.965,1.965,0,0,0,1.965,1.965h72.542a1.966,1.966,0,0,0,1.968-1.965V182.7H153.132a1.965,1.965,0,0,1-1.965-1.965V61.233h-1.282A1.965,1.965,0,0,0,147.92,63.2Z" transform="translate(-147.92 -61.233)"/><path class="o" d="M147.92,63.2v1.214h76.475V63.2a1.966,1.966,0,0,0-1.968-1.965H149.885A1.965,1.965,0,0,0,147.92,63.2Z" transform="translate(-147.92 -61.233)"/></g><g transform="translate(18.885 8.836)"><path class="aa" d="M182.839,97.255a2.224,2.224,0,0,0,1.282.739q5.031,1.52,10.059,3.045a17.766,17.766,0,0,0,7.073,1.128c2.564-.3,4.882-1.7,7.394-2.309,4.774-1.162,9.686.594,14.482,1.657a5.433,5.433,0,0,0,3.213.023c1.439-.583,2.191-2.2,2.661-3.715,2.072-6.714,1.222-13.97.35-20.958a1.6,1.6,0,0,0-2.039-1.7,24.584,24.584,0,0,1-6.507-1.174c-2-.583-3.992-1.273-6.007-1.775-4.673-1.17-8.381.156-12.947.651a104.643,104.643,0,0,1-15.95.164,2.507,2.507,0,0,0-2,.484,2.631,2.631,0,0,0-.518,1.7q-.369,5.716-.578,11.439-.173,4.6-.238,9.21A2.353,2.353,0,0,0,182.839,97.255Z" transform="translate(-182.569 -71.743)"/><path class="p" d="M188.6,95.668a2.146,2.146,0,0,0,1.229.693q4.825,1.425,9.645,2.855a17.378,17.378,0,0,0,6.782,1.058c2.459-.278,4.681-1.59,7.09-2.165,4.578-1.09,9.287.558,13.887,1.554a5.322,5.322,0,0,0,3.08.021c1.379-.547,2.1-2.062,2.551-3.484,1.987-6.3,1.172-13.1.336-19.654a2.022,2.022,0,0,0-.425-1.2,2.122,2.122,0,0,0-1.53-.4,24.064,24.064,0,0,1-6.239-1.1c-1.919-.547-3.827-1.194-5.761-1.665-4.481-1.1-8.037.147-12.414.611a102.579,102.579,0,0,1-15.295.154A1.839,1.839,0,0,0,189.122,75q-.354,5.36-.554,10.728-.166,4.315-.229,8.637A2.166,2.166,0,0,0,188.6,95.668Z" transform="translate(-186.376 -71.743)"/><path class="ab" d="M188.6,99.755a2.146,2.146,0,0,0,1.229.693q4.825,1.425,9.645,2.855a17.378,17.378,0,0,0,6.782,1.058c2.459-.278,4.681-1.59,7.09-2.165,4.578-1.09,9.287.558,13.887,1.554a5.322,5.322,0,0,0,3.08.021c1.379-.547,2.1-2.062,2.551-3.484,1.987-6.3,1.172-13.1.336-19.654a2.022,2.022,0,0,0-.425-1.2,2.122,2.122,0,0,0-1.53-.4,24.064,24.064,0,0,1-6.239-1.1,6.776,6.776,0,0,1,1.154.765,8.9,8.9,0,0,1,3.248,6.461,3.147,3.147,0,0,1-.418,1.894c-.961,1.411-3.409,1.151-4.285,2.619-.754,1.261.186,2.87.029,4.335-.211,2.023-2.455,3.23-4.485,3.345s-4.042-.49-6.071-.4a1.9,1.9,0,0,0-1.147.332c-.4.336-.5.908-.783,1.347a2.79,2.79,0,0,1-2.676.969c-.993-.1-1.955-.468-2.952-.515-2.852-.132-5.817,2.283-8.315.9-.865-.475-1.49-1.355-2.419-1.69-1.526-.547-3.6.447-4.645-.793-1.193-1.419.693-3.835-.361-5.36a7.193,7.193,0,0,0-1.468-1.2,3.319,3.319,0,0,1-.84-1.129q-.166,4.315-.229,8.637A2.166,2.166,0,0,0,188.6,99.755Z" transform="translate(-186.376 -75.83)"/></g><g transform="translate(21.374 12.321)"><g transform="translate(0 10.12)"><path class="f" d="M197.726,121.371c3.516-2.639,7.6-4.415,11.4-6.623.342-1.676-1.585-3.07-3.294-2.987s-3.209,1.088-4.747,1.838c-2.924,1.427-5.654,3.008-8.458,4.659-3.259,1.918-4.46,6.131,1.213,8.93.816.4,14.156,7.07,15.233,5.093.916-1.683.218-7.512-1.324-7.61C205.868,124.551,195.809,122.809,197.726,121.371Z" transform="translate(-189.887 -111.757)"/><path class="ac" d="M244.31,139.4a6.987,6.987,0,0,0-.319-2.886c-.085-.332,4.661-1.8,4.686-1.592l1.411,4.062c.071.33.735,1.269.679,1.6a11.337,11.337,0,0,1-2.089,3.326,4.4,4.4,0,0,1-3.1,1.109c-.363-.027-3.147,0-3.147-2.4C242.431,141.019,244.31,139.4,244.31,139.4Z" transform="translate(-224.566 -127.034)"/><path class="ad" d="M251.857,156.359c2.273,8.876,1.062,16.32.276,25.449a4.632,4.632,0,0,1-.6,2.224,4.3,4.3,0,0,1-2.031,1.414c-5.288,2.164-12.488-1.826-18.115-2.822,3.376-9.581,3.338-15.9.287-25.664a7.884,7.884,0,0,1,.1-4.757c.709-2.14,1.7-4.325,5.221-4.893,0,0-1.5,3.62-.058,4.4,3.99,2.173,5.837-4.818,5.837-4.818a22.275,22.275,0,0,1,3.538.335C249.436,147.994,251.047,153.2,251.857,156.359Z" transform="translate(-217.257 -134.943)"/><g transform="translate(1.171 12.189)"><path class="ae" d="M193.366,182.824c.014-.657-.229-1.519.406-1.348a2.891,2.891,0,0,1,.935.658,19.067,19.067,0,0,1,1.622,1.949,1.664,1.664,0,0,1,.041-1.583c.737-.659.893,1.746,3.45,2.945,2.24,1.051,1.243,1.972,1.243,1.972a1.739,1.739,0,0,1-1.327,1.321c-.639.172-.683-.5-1.338-.6a4.874,4.874,0,0,1-3.49-1.705C193.823,185.19,193.331,184.488,193.366,182.824Z" transform="translate(-193.332 -169.945)"/><path class="af" d="M224.706,166.642c-6.943,5.558-15.507.463-16.457.316,0,0-.881-4.424.7-5.493,5.066,1.836,8.417,4.388,11.52,1.04a17.457,17.457,0,0,0,4.1-6.143c.771-2.337,2.279-11.463,7.729-7.967C236.561,151.129,227.4,164.485,224.706,166.642Z" transform="translate(-203.015 -147.606)"/><path class="ag" d="M269.805,159.814a24.325,24.325,0,0,1-2.485,6.662,32.613,32.613,0,0,1-3.891,5.76" transform="translate(-239.597 -155.663)"/><path class="ag" d="M244.515,175.739a20.188,20.188,0,0,1-2.053,3.353,9.869,9.869,0,0,1-1.305,1.569,16.035,16.035,0,0,1-2.468,1.809" transform="translate(-223.268 -166.174)"/></g></g><g transform="translate(10.867 52.394)"><g transform="translate(7.95)"><path class="ae" d="M287.673,346.183c-.141.176-.641,1.5-.749,1.7a1.592,1.592,0,0,0-.155.747c-.016,1.381.629,2.894-.106,4.064a7.137,7.137,0,0,0-.8,1.135c-.172.452.413,1.051-.21,1.431-.413.252-.834-.023-1.345-1.184a8.191,8.191,0,0,1-.979-4.447,9.788,9.788,0,0,0-.383-2.512c-.2-.924-7.976-7.28-8.371-8.139-1.034-2.249-.024-6.264,2.322-4.842.6.361,7.241,8.416,8.4,8.416C287.542,342.55,288.652,344.959,287.673,346.183Z" transform="translate(-264.331 -300.603)"/><path class="f" d="M253.668,255.551a7.1,7.1,0,0,0-.934,2.65,6.6,6.6,0,0,0,1.154,3.628,44.331,44.331,0,0,0,10.239,12.165,4.526,4.526,0,0,1,1.42,1.589c.534,1.26-.249,2.718-1.28,3.618s-2.45,2.468-3.275,2.468q-5.984-6.492-11.763-13.168a16.264,16.264,0,0,1-3.592-5.548c-.993-3.185.02-6.612,1.029-9.792l2.925-9.219c.748-2.359,1.668-5.094,3.686-6.688s5.7-1.723,7.213.721c1.419,2.3-.54,5.274-1.574,7.3Q256.294,250.415,253.668,255.551Z" transform="translate(-245.229 -236.091)"/></g><g transform="translate(0 26.799)"><path class="ae" d="M229.313,332.006c-.217.06-1.4.844-1.6.941a1.593,1.593,0,0,0-.563.515c-.821,1.111-1.182,2.716-2.462,3.235a7.1,7.1,0,0,0-1.311.453c-.4.266-.279,1.094-1.007,1.038-.482-.037-.663-.506-.4-1.747a8.192,8.192,0,0,1,1.806-4.18A9.765,9.765,0,0,0,224.932,330c.38-.865-2.215-10.57-2.033-11.5.476-2.429,3.642-5.1,4.714-2.571.272.641.955,11.061,1.893,11.737C231.33,328.982,230.822,331.585,229.313,332.006Z" transform="translate(-221.848 -314.912)"/></g></g><g transform="translate(10.713)"><path class="ae" d="M230.828,110.788c-2.814,0-4.49-3.9-4.731-4.955a25.647,25.647,0,0,1-.591-3.427c-.206-2.419-.124-4.439,1.313-6.4,3.623-4.934,12.56-3.887,13.594,2.558C241.5,105.348,237.65,110.788,230.828,110.788Z" transform="translate(-224.053 -89.201)"/><path class="ah" d="M236.263,93.156c-.82-.48-2.265.49-2.509,1.486,0,0-1.218.125-1.037-.209.526-.972.539-3.428.029-3.954-1.218-1.257-2.841-1.206-4.572-.982a16.492,16.492,0,0,1-4.776-.051,2.167,2.167,0,0,1-1.235-.511,2.143,2.143,0,0,1-.477-1.014c-.282-1.133,1.35-2.934-.292-5.126,2.965-1.028,4.5,1.021,4.847.731,1.219-1.016.769-1.535,5.024-1.535.025.422.788.651.946,1.562a20.416,20.416,0,0,1,4.676-.378c.02.628.47,1.669-.094,1.948,2.756.1,2.7.886,4.295,3.139-1.028.723-1.489,1.732-.49,2.93.216.259,1.353,1.312,1.194,1.609-.22.411-1.969,1.492-2.3,2.345-.285.734.009,1.357.974,2.02.265.182-2.521,2.763-4.419,2.686-.872-.035-1.682-1.869-1.677-2.315.007-.542.765.626,2.052-1.223C237.032,95.436,237.228,93.721,236.263,93.156Z" transform="translate(-221.395 -81.992)"/></g></g><g transform="translate(1.346 46.52)"><path class="o" d="M131.2,211.592c.554,1.778,4.5.976,5.546,2.5,2.72,3.979-1.018,11.368-.968,16.231a45.562,45.562,0,0,0,1.529,9.74c.64,2.75,1.419,5.724,3.62,7.41,2.909,2.231,7.029,1.281,10.392-.118s6.911-3.2,10.445-2.363a17.6,17.6,0,0,0,3.859.975,7.171,7.171,0,0,0,3.22-.987c4.924-2.536,15.688-3.14,16.706-7.6,1.376-6.007,13.029-3.725,15.341-1.774a10.416,10.416,0,0,0,7.762,2.6,7.647,7.647,0,0,0,6.329-4.948c.968-2.915-2.04-12.229-3.405-14.975s-3.059-5.437-3.4-8.5c-.658-5.853,3.724-11.077,4.342-16.934a4.839,4.839,0,0,0-.5-3.114,6.746,6.746,0,0,0-2.48-2.106c-2.891-1.6-7.161-2.418-9.606-2.967-4.5-1.008-9.4-2.945-14-1.653-2.441.685-4.374,5.927-6.865,5.478a21.716,21.716,0,0,0-8.876-.129c-4.281,1-6.011,3.593-10.542,4.178-5.3.684-11,.95-15.27,4.263a59.019,59.019,0,0,0-4.306,4.134,9.547,9.547,0,0,1-5.081,2.952c-.1.015-.207.03-.311.041a3.979,3.979,0,0,0-1.762.453,3.81,3.81,0,0,0-1.279,2.26A8.768,8.768,0,0,0,131.2,211.592Z" transform="translate(-130.983 -182.577)"/><path class="j" d="M131.2,210.743c.554,1.726,4.5.947,5.546,2.426,2.72,3.863-1.018,11.035-.968,15.756a43.041,43.041,0,0,0,1.529,9.456c.64,2.669,1.419,5.557,3.62,7.193,2.909,2.165,7.029,1.244,10.392-.114s6.911-3.109,10.445-2.294a18.014,18.014,0,0,0,3.859.947,7.327,7.327,0,0,0,3.22-.958c4.924-2.462,15.688-3.048,16.706-7.379,1.376-5.832,13.029-3.617,15.341-1.722a10.617,10.617,0,0,0,7.762,2.523,7.611,7.611,0,0,0,6.329-4.8c.968-2.83-2.04-11.871-3.405-14.537s-3.059-5.278-3.4-8.251c-.658-5.682,3.724-10.753,4.342-16.438a4.577,4.577,0,0,0-.5-3.023,6.691,6.691,0,0,0-2.48-2.044c-2.891-1.551-7.161-2.348-9.606-2.88-4.5-.979-9.4-2.859-14-1.6-2.441.665-4.374,5.754-6.865,5.318a22.359,22.359,0,0,0-8.876-.125c-4.281.969-6.011,3.488-10.542,4.056-5.3.665-11,.922-15.27,4.138a58.224,58.224,0,0,0-4.306,4.013,9.62,9.62,0,0,1-5.081,2.866c-.1.014-.207.029-.311.039a4.079,4.079,0,0,0-1.762.439,3.675,3.675,0,0,0-1.279,2.194A8.279,8.279,0,0,0,131.2,210.743Z" transform="translate(-130.983 -182.577)"/><path class="ai" d="M172.815,208.36a5.911,5.911,0,0,1-.8,2.312q-1.238,2.417-2.473,4.839a48.374,48.374,0,0,1-3.445,6.014c-1.079,1.526-2.333,2.927-3.388,4.474a21.07,21.07,0,0,0-2.97,6.582c.818.711,2.166-.025,2.591-1.022a17.982,17.982,0,0,0,.543-3.187c.636-2.887,3.606-4.546,5.392-6.9,2.037-2.687,2.805-6.618,5.864-8.033a8.01,8.01,0,0,0,2.537-1.244c1.3-1.315.514-3.488.482-5.339-.054-3.238,2.351-5.035,5.074-6.018a5.446,5.446,0,0,0,2.48-1.762c-4.281.969-6.011,3.488-10.542,4.056-5.3.665-11,.922-15.27,4.138a58.215,58.215,0,0,0-4.306,4.013,1.725,1.725,0,0,1,.947.4c.422.464.139,1.2-.157,1.758q-1.2,2.23-2.394,4.456a14.564,14.564,0,0,0,6.629-2.608c-.1.6-.2,1.2-.3,1.8,2.3-.236,3.331-2.891,4.4-4.942a11.345,11.345,0,0,1,6.343-5.707,2.554,2.554,0,0,1,1.636-.093A2,2,0,0,1,172.815,208.36Z" transform="translate(-145.505 -193.466)"/><path class="ai" d="M131.2,220.259c.554,1.726,4.5.947,5.546,2.426,2.72,3.863-1.018,11.035-.968,15.756A43.042,43.042,0,0,0,137.3,247.9c.64,2.669,1.419,5.557,3.62,7.193,2.909,2.165,7.029,1.244,10.392-.114s6.911-3.109,10.445-2.294a18.016,18.016,0,0,0,3.859.947,7.327,7.327,0,0,0,3.22-.958c4.924-2.462,15.688-3.048,16.706-7.379,1.376-5.832,13.029-3.617,15.341-1.722a10.617,10.617,0,0,0,7.762,2.523,7.611,7.611,0,0,0,6.329-4.8c.968-2.83-2.04-11.871-3.405-14.537s-3.059-5.278-3.4-8.251c-.658-5.682,3.724-10.753,4.342-16.438a4.577,4.577,0,0,0-.5-3.023,6.691,6.691,0,0,0-2.48-2.044c.776,2.952.214,6.261-2.866,7.64a9.467,9.467,0,0,0-2.555,1.2c-1.376,1.215-1.1,3.373-1.061,5.207.079,3.927-1.455,7.683-2.966,11.31a17.974,17.974,0,0,1-3.459,5.986c-1.637,1.647-4.174,2.619-6.329,1.762a56.017,56.017,0,0,0,1.948-8.2,1.955,1.955,0,0,0-2.491.993,7.07,7.07,0,0,0-.55,2.912,19.44,19.44,0,0,1-3.445,9.709c-1.026,1.465-2.555,2.905-4.331,2.695-1.547-.182-2.459-2.441-1.551-3.42-1.676,1.237-2.444,3.463-3.738,5.153-1.426,1.862-4.721,2.877-5.857.826-.482-.865-.372-2.026-1.051-2.744-1.476-1.572-4.567.7-6.143-.772-1.025-.965-.447-2.737.522-3.759s2.283-1.794,2.848-3.084-.4-3.281-1.747-2.884c-.815.236-1.187,1.151-1.5,1.94A21.972,21.972,0,0,1,158.272,237c-1.908,1.9-4.8,3.5-7.186,2.251-1.237-.647-2-1.919-3.07-2.823s-2.859-1.337-3.749-.257a7.312,7.312,0,0,0-.779,1.89c-.272.629-.965,1.219-1.587.936a1.659,1.659,0,0,1-.732-1.172c-.751-2.734-1.48-5.75-.279-8.316-.726.311-1.526-.475-1.576-1.261a4.743,4.743,0,0,1,.7-2.233c.908-1.94.908-4.849-1.1-5.6-1.283-.479-2.937.168-3.97-.733a2.719,2.719,0,0,1-.74-1.3,7.705,7.705,0,0,1,.475-5.56,4.08,4.08,0,0,0-1.762.439,3.675,3.675,0,0,0-1.279,2.194A8.279,8.279,0,0,0,131.2,220.259Z" transform="translate(-130.983 -192.094)"/><path class="aj" d="M269.542,256.567a29.46,29.46,0,0,1-3.664,6.292,9.914,9.914,0,0,1-6.091,3.711" transform="translate(-215.994 -231.411)"/><path class="aj" d="M223.04,227.926a31.381,31.381,0,0,1-7.518,9.392c-2.256,1.91-4.8,3.515-6.737,5.747a30.134,30.134,0,0,0-4.556,8.243" transform="translate(-179.325 -212.507)"/><path class="aj" d="M257.559,299.853a8.068,8.068,0,0,0-.719,2.9,2.744,2.744,0,0,0,1.372,2.5" transform="translate(-214.048 -259.979)"/><path class="aj" d="M222.369,330.2a18.431,18.431,0,0,1-5.032,1.6,7.93,7.93,0,0,1-3.781-.121,5.188,5.188,0,0,1-3.379-5.536" transform="translate(-183.215 -277.332)"/><path class="aj" d="M348.242,229.249c-2.141,3.142-4.382,6.692-3.812,10.451a26.166,26.166,0,0,0,1.851,5.2,18.372,18.372,0,0,1,1.177,7.142c-.094,2.636-1.035,5.588-3.444,6.662" transform="translate(-271.583 -213.381)"/><path class="aj" d="M325.118,292.423a4.935,4.935,0,0,1-1.943,4.774,12.259,12.259,0,0,1-4.973,2.09" transform="translate(-254.547 -255.075)"/><path class="aj" d="M177.029,229.615c-2.472.762-4.973,1.894-6.5,3.978a14.293,14.293,0,0,0-2.039,5.118A16.836,16.836,0,0,1,166.6,243.9a5.393,5.393,0,0,1-4.561,2.686" transform="translate(-151.478 -213.622)"/><path class="aj" d="M299.958,195.279a52.99,52.99,0,0,0-10.5-2.047,17.779,17.779,0,0,0-10.315,2.223c-1.764,1.081-3.252,2.562-4.99,3.684" transform="translate(-225.475 -189.582)"/><path class="aj" d="M171.869,355.612c-1.817-.541-3.629.664-5.305,1.548a9.791,9.791,0,0,1-6.424,1.249,5.312,5.312,0,0,1-4.341-4.453" transform="translate(-147.362 -295.687)"/><path class="aj" d="M205.8,335.074a19.735,19.735,0,0,1-10.983-1.293,11.9,11.9,0,0,1-6.854-8.33" transform="translate(-168.59 -276.874)"/><path class="aj" d="M168.683,324.464a8.394,8.394,0,0,1-3.381-6.255" transform="translate(-153.633 -272.094)"/><path class="aj" d="M192.141,209.471l-16.219,2.516c-4.317.669-8.829,1.42-12.313,4.054-2.492,1.884-4.648,4.788-7.77,4.887" transform="translate(-147.388 -200.327)"/><path class="aj" d="M351.365,307.7a10.375,10.375,0,0,1-.964,4.6,5.167,5.167,0,0,1-3.59,2.833c-1.711.278-3.388-.548-4.925-1.349" transform="translate(-270.179 -265.158)"/><path class="ai" d="M275.313,307.165a1.3,1.3,0,0,0-.522.339A4.363,4.363,0,0,1,275.313,307.165Z" transform="translate(-225.896 -264.805)"/><path class="ai" d="M261.669,227.809c-.983,1.789-2.642,3.831-4.6,3.267.288-1.692,1.866-2.793,3.024-4.06,2.539-2.778,3.218-6.733,3.789-10.453.08-.523.124-1.149-.283-1.486-.462-.382-1.175-.108-1.618.3A12.632,12.632,0,0,0,260.1,218.3c-.612.99-1.664,1.907-2.808,1.695l-.048-2.591c-4.031,2.129-5.825,7.452-10.116,8.992-.77-2.333,3.137-3.863,3.155-6.32a9.783,9.783,0,0,0-3.251,2.7c-.1-1.749,1.422-3.094,2.666-4.327a20.952,20.952,0,0,0,4.344-6.266c.628-1.395,1-3.282-.187-4.252l3.606-.832c.638-.147,1.447-.233,1.816.309.518.763-.422,1.633-1.078,2.281a4.673,4.673,0,0,0-1.152,4.618,16.548,16.548,0,0,1,4.262-1.463c2.236-1.724,4.524-3.507,5.975-5.929a11.725,11.725,0,0,1,1.282-1.989c1.343-1.465,3.54-1.672,5.525-1.784.431-.024-1.141,2.146-1.356,2.293-.691.472-1.362.323-1.922.98-1.325,1.554-1.8,5.3-2.56,7.256A117.312,117.312,0,0,1,261.669,227.809Z" transform="translate(-207.574 -196.146)"/></g></g></g></g></svg>