<svg xmlns="http://www.w3.org/2000/svg" xmlns:xlink="http://www.w3.org/1999/xlink" width="196.708" height="172.195" viewBox="0 0 196.708 172.195"><defs><style>.a{fill:#e1e9dc;}.b{fill:#b4d9d7;}.c{fill:#99c2c3;}.d{fill:#8bbcbd;}.e{fill:#fff;}.f{fill:#ffa64d;}.g{fill:#8f464e;}.h{fill:#7a3d4a;}.i{fill:url(#a);}.j{fill:#e28184;}.k{fill:url(#b);}.l{fill:#d37a85;}.m{fill:url(#c);}.n{fill:#f29193;}.o{fill:#f9eae5;}.p{fill:#e6c8c3;}.q{fill:#f4be67;}.r{fill:#edd5d0;}.s{fill:#543e50;}.t{fill:#d2e589;}.u{fill:#b3c166;}.v{fill:#f7ffc7;}.w{fill:#a0d8d8;}.x{fill:#7eb7ba;}.y{fill:#d4fffc;}.z{fill:#c63980;}.aa{fill:#f94e93;}.ab{fill:#ffd9ea;}.ac{fill:#f2bdd5;}</style><linearGradient id="a" x1="0.5" y1="2.395" x2="0.5" y2="-0.728" gradientUnits="objectBoundingBox"><stop offset="0" stop-color="#ffb7a7"/><stop offset="1" stop-color="#ff9595"/></linearGradient><linearGradient id="b" x1="0.5" y1="2.208" x2="0.5" y2="0.26" xlink:href="#a"/><linearGradient id="c" x1="0.5" y1="0.988" x2="0.5" y2="-0.601" xlink:href="#a"/></defs><g transform="translate(-770.328 -2081)"><path class="a" d="M85,0A85,85,0,1,1,0,85,85,85,0,0,1,85,0Z" transform="translate(781 2081)"/><g transform="translate(740.138 2039.747)"><g transform="translate(30.19 87.931) rotate(-21)"><path class="b" d="M187.322,101.985c-.414-.716-7.627,1.741-9.893,2.534a73.834,73.834,0,0,1-3.551-6.914c2.276-.837,8.669-3.283,8.125-4.142s-7.3.241-9.624.648q-.383-.941-.756-1.908c2.5-.642,10.51-2.768,9.866-3.5s-8.2,1.141-10.519,1.739c-.868-2.38-1.681-4.845-2.405-7.368,1.787-.552,8.318-2.668,7.532-3.9-.776-1.213-6.829-.384-8.594-.113q-.2-.806-.38-1.614c1.824-.456,8.14-2.105,7.554-2.9-.566-.77-6.217-.159-8.151.075-.436-2.219-.787-4.431-1.035-6.609,1.928-.412,6.753-1.518,6.5-2.19s-4.9.145-6.674.486c-.059-.652-.121-1.306-.159-1.949,1.909-.16,6.358-.635,5.846-1.6s-4.277-.957-5.933-.913c0-.184-.017-.374-.018-.558a52.545,52.545,0,0,1,.469-7.6c1.18.064,3.417.117,3.317-.427s-2.03-1.054-3.037-1.285a24.885,24.885,0,0,1,5.438-12.108c1.059,4.57,3.558,6.431,6.518,8.623-1.089,1.522-3.459,5.007-2.791,5.615.694.632,4-2.484,5.244-3.7a44.245,44.245,0,0,1,5.238,5.308c-1.7,1.7-6.886,7.015-6.195,8.126s6.725-3.339,8.759-4.88c1.081,1.466,2.068,2.921,2.873,4.265.422.705.81,1.365,1.188,2.01-1.942,1.676-7.823,6.83-7.526,7.533s6.572-4.379,8.454-5.929q.682,1.19,1.29,2.286c-1.661,1.228-7.289,5.519-6.675,6.839.589,1.266,6.411-2.16,8.5-3.444.97,1.853,1.889,3.681,2.9,5.7-1.852,1.6-7.221,6.352-6.821,7.168.413.845,6.087-3.976,7.7-5.372.344.716.68,1.431,1,2.145-1.093.713-5.544,3.682-5.24,4.539.276.778,4.458-1.477,6.152-2.429.884,2.12,1.664,4.223,2.341,6.288-2.129,1.736-6.945,5.811-6.589,6.9s5.51-1.875,7.707-3.2c.244.884.465,1.754.669,2.615-1.762.882-6.339,3.27-6.293,4.264s4.87-1.236,6.767-2.149c2.137,10.371,1.375,18.705-1.869,21.553-5.1,4.478-10.475,2.7-15.23-1.228,1.014-.943,2.835-2.756,2.33-3.187s-3.034.609-4.474,1.242c-.59-.584-1.166-1.191-1.728-1.816,1.62-.783,7.546-3.711,6.882-4.383s-6.959,1.54-8.755,2.186c-1.052-1.3-2.034-2.632-2.934-3.915,1.308-.613,5.487-2.63,5.139-3.19-.331-.532-4.62.907-6.3,1.5-.324-.484-.637-.958-.932-1.413-.037-.057-.074-.122-.111-.179C180.585,105.372,187.74,102.707,187.322,101.985Z" transform="translate(-165.055 -39.864)"/><path class="c" d="M173.286,53.257c-.1-.543-2.03-1.054-3.037-1.285a24.885,24.885,0,0,1,5.438-12.108c-2.775,17.823,13.061,41.745,18.3,50.808,4.532,7.84,12.368,25.676,14.4,30.35-4.919,3.836-10.06,2.062-14.629-1.709,1.014-.943,2.834-2.756,2.33-3.187s-3.034.609-4.474,1.242c-.59-.584-1.166-1.191-1.728-1.816,1.62-.783,7.546-3.711,6.882-4.383s-6.959,1.54-8.755,2.186c-1.052-1.3-2.034-2.632-2.934-3.915,1.308-.613,5.487-2.63,5.139-3.19-.331-.532-4.62.907-6.3,1.5-.324-.484-.637-.958-.932-1.413-.037-.057-.074-.122-.111-.179,2.153-.782,9.307-3.447,8.889-4.169s-7.627,1.741-9.893,2.534a73.826,73.826,0,0,1-3.551-6.914c2.276-.837,8.669-3.283,8.125-4.142s-7.3.241-9.624.648q-.383-.941-.756-1.908c2.5-.642,10.51-2.768,9.866-3.5s-8.2,1.141-10.519,1.739c-.868-2.38-1.681-4.845-2.405-7.368,1.787-.552,8.318-2.668,7.532-3.9-.776-1.213-6.829-.384-8.593-.113q-.2-.806-.38-1.614c1.824-.456,8.14-2.105,7.554-2.9-.566-.77-6.217-.159-8.151.075-.436-2.219-.787-4.431-1.035-6.609,1.928-.412,6.753-1.518,6.5-2.19s-4.9.145-6.674.486c-.059-.652-.121-1.306-.159-1.949,1.909-.16,6.358-.635,5.846-1.6s-4.277-.957-5.933-.913c0-.184-.017-.374-.018-.558a52.551,52.551,0,0,1,.469-7.6C171.149,53.748,173.386,53.8,173.286,53.257Z" transform="translate(-169.499 -39.864)"/><path class="d" d="M155.108,49.37l.031,1.3a27.409,27.409,0,0,0,.527,3.7,45.605,45.605,0,0,0,1.516,5.559c.705,2.107,1.579,4.458,2.649,6.968,2.116,5.033,4.969,10.729,8.2,16.716,1.612,2.988,3.311,6.064,4.976,9.211,1.687,3.138,3.366,6.343,5.035,9.554,1.652,3.219,3.3,6.438,4.858,9.637.8,1.592,1.55,3.187,2.293,4.763s1.471,3.135,2.161,4.679c.708,1.538,1.368,3.063,2,4.563.652,1.491,1.24,2.968,1.807,4.408,1.149,2.873,2.112,5.631,2.956,8.187s1.5,4.932,2.024,7.049c.506,2.121.91,3.979,1.159,5.523.289,1.537.44,2.758.55,3.588l.171,1.274.006.041a1.1,1.1,0,0,0,2.172-.291v0s-.062-.455-.178-1.307-.273-2.1-.574-3.683c-.26-1.585-.679-3.49-1.2-5.661-.541-2.168-1.227-4.593-2.085-7.2s-1.886-5.391-3.074-8.289c-.589-1.452-1.2-2.939-1.875-4.436-.653-1.509-1.335-3.04-2.065-4.581-.712-1.549-1.449-3.117-2.226-4.688s-1.541-3.173-2.357-4.763c-1.6-3.2-3.287-6.409-4.979-9.619-1.708-3.2-3.425-6.4-5.15-9.522-1.7-3.14-3.433-6.19-5.078-9.163-1.663-2.958-3.224-5.832-4.65-8.59s-2.686-5.4-3.816-7.863-2.057-4.757-2.811-6.817a49.738,49.738,0,0,1-1.692-5.409,27.16,27.16,0,0,1-.655-3.56l-.082-1.3a.272.272,0,0,0-.286-.256A.274.274,0,0,0,155.108,49.37Z" transform="translate(-149.423 -41.464)"/></g><g transform="translate(-6 -1)"><path class="b" d="M204.366,175.472c-1.05-3.263-7.471-7.507-4.053-8.679,2.865-.983,7.445,12.653,9.546,12.581s9.274-4.708,9.052-6.03-3.34-2-5.033-5.549c-2-4.185-7.28-6.269-5.792-7.6s3.83.856,5.888,2.787c1.927,1.809,7.487,7.648,8.9,6.722s5.43-6.67,5.138-7.652-2.99-2.458-4.693-3.722c-2.089-1.552-7.028-1.046-6.49-2.914s3.2-.728,5.193.128c1.862.8,6.488,3.874,7.692,2.729s2.622-6.489,2.341-7.339-6.6-.625-5.759-1.69c.77-.968,3.665.035,6.083.177a18.393,18.393,0,0,0,.393-6.254c-.36-1.913-2.593-4.187-5.642-6.379-.553,1.811-2.309,7.044-4.22,7.2-2.129.175,2.594-7.71,1.788-8.825s-4.571-3.465-6.708-3.621c-1.044-.076-2.851,2.59-3.77,6.1-.963,3.679-1.058,8.227-3.088,9.038-4.116,1.646.73-6.9,2.123-11.681.684-2.347,1.233-4.429.3-5.3s-2.819-.945-4-1.206c-1.341-.3-4.517-.85-5.852-.228s-1.867,5.617-2,10.437c-.191,6.87,2.531,10,.568,11.524s-5.286-5.415-5.032-10.29c.208-4,1.871-10.6.4-10.776s-8.15,1.432-10.716,4,8.157,16.669,5.947,17.889c-2.359,1.3-4.811-6.522-6.71-9.435-1.279-1.962-2.836-4.475-4.061-4.945s-4.211,3.739-4.254,5.829,8.834,9.2,6.825,11.463c-2.28,2.564-4.527-3.515-6.2-5.415a8.545,8.545,0,0,0-2.319-1.782,18.689,18.689,0,0,0-.721,4.467c-.213,6.748,6.335,12.072,6.335,12.072s-1.114,5.394.4,9.194a18.122,18.122,0,0,0,7.1,7.822,17.854,17.854,0,0,1,.691-3.5c.76-2.691-.158-7.281,1.963-6.11,2,1.107.98,10.258,2.867,11.831.415.345,1.161.226,1.769.29,3.1.323,9.878-.848,10.23-2C207.186,179.462,205.487,178.954,204.366,175.472Z"/><path class="c" d="M189.252,180.314a17.854,17.854,0,0,1,.691-3.5c.76-2.691-.158-7.281,1.963-6.11,2,1.107.98,10.258,2.867,11.831.415.345,1.161.226,1.769.29,3.1.323,9.878-.848,10.23-2,.414-1.36-1.285-1.868-2.406-5.35-1.05-3.263-7.471-7.507-4.053-8.679,2.865-.983,7.445,12.653,9.546,12.581s9.274-4.708,9.052-6.03-3.34-2-5.033-5.549c-2-4.185-7.28-6.269-5.792-7.6s3.83.856,5.888,2.787c1.927,1.809,7.487,7.648,8.9,6.722s5.43-6.67,5.138-7.652-2.99-2.458-4.693-3.722c-2.089-1.552-7.028-1.046-6.49-2.914s3.2-.728,5.193.128c1.862.8,6.488,3.874,7.692,2.729s2.622-6.489,2.341-7.339-6.6-.625-5.759-1.69c.77-.968,3.665.035,6.083.177a18.393,18.393,0,0,0,.393-6.254,4.533,4.533,0,0,0-.536-1.359c-7.248,4.863-22.072,11.124-28.957,13.7-7.187,2.69-9.244,2.594-21.524,7.788,0,0-1.114,5.394.4,9.194A18.122,18.122,0,0,0,189.252,180.314Z"/><path class="d" d="M230.177,144.025s-4.326,2.612-11.136,5.876c-3.4,1.634-7.433,3.423-11.83,5.155-4.417,1.732-9.132,3.33-13.788,5.162-2.332.9-4.645,1.833-6.911,2.778s-4.468,1.929-6.588,2.9l-3.1,1.485-2.925,1.489-2.727,1.482-2.5,1.459c-1.572.976-3.014,1.872-4.226,2.749-1.247.834-2.25,1.657-3.1,2.308s-1.442,1.238-1.881,1.6l-.658.575-.068.059a1.382,1.382,0,0,1-1.817-2.082l.015-.013.708-.6c.47-.379,1.12-.993,2.02-1.666s1.974-1.518,3.281-2.364c1.278-.894,2.78-1.795,4.416-2.775l2.589-1.458,2.811-1.471,3.005-1.47,3.168-1.459c2.165-.956,4.413-1.911,6.714-2.835s4.652-1.825,7.012-2.691,4.727-1.709,7.062-2.525,4.629-1.587,6.821-2.384c4.39-1.6,8.428-3.272,11.842-4.806s6.213-2.918,8.153-3.918,3.015-1.618,3.015-1.618a.609.609,0,0,1,.614,1.051Z"/></g><g transform="translate(16 59)"><path class="d" d="M63.96,128.143a138.43,138.43,0,0,1-9.732-10.816l.884-.7a137.331,137.331,0,0,0,9.642,10.715Z"/><path class="e" d="M54.75,117.5c2-1.491,3.195-10.544.16-10.622a2.664,2.664,0,0,0-2.989,2.683s-1.8-2.487-3.986-.931.029,3.94.029,3.94a2.8,2.8,0,0,0-3.315,1.084C43.482,115.546,51.532,119.907,54.75,117.5Z"/><path class="d" d="M56.218,114.695a12.572,12.572,0,0,0-4.245,3.467s2.054.2,2.984-.573S56.218,114.695,56.218,114.695Z"/></g><g transform="translate(-30 45.693)"><g transform="translate(-9 -73.664)"><path class="e" d="M226.4,125.263c.8,1.225,2.563,3.554,3.632,2.857s-.815-3.171-2.032-3.681c1.193.351,4.442,1.335,4.847.159s-1.794-1.761-3.17-1.863c1.311-.442,2.546-2.392,1.9-3.214-.578-.731-3.138.589-4.011,1.764.534-.7.577-3.926-.382-4.267-1.645-.583-2.059,2.455-1.663,3.554-.347-.775-1.964-2-2.81-1.713s1.1,2.555,1.69,3.028c-.924-.433-3.823-.577-4.009.637s2.9,1.212,3.824.884c-.672.346-3.584,1.941-3.075,3.191s3.552-.772,4.165-1.275c-.366.683-1.442,3.57-.539,3.953S226.926,126.14,226.4,125.263Z"/><path class="f" d="M226.4,124.622a1.412,1.412,0,0,1-1.336-1.535,1.362,1.362,0,0,1,1.408-1.366c.816.05,1.173.59,1.294,1.365A1.387,1.387,0,0,1,226.4,124.622Z"/></g><g transform="translate(-3 -15)"><path class="e" d="M104.363,43.279c-1.634,1.2-4.7,3.783-3.517,5s4.436-1.541,4.971-3.142c-.309,1.545-1.189,5.758.573,6.069s2.242-2.529,2.161-4.26c.854,1.56,3.871,2.776,4.948,1.83.957-.841-1.369-3.814-3.208-4.707,1.094.55,5.756.069,6.088-1.184.569-2.147-3.88-2.16-5.4-1.484,1.059-.56,2.561-2.78,2-3.786s-3.5,1.8-4.085,2.608c.47-1.224.2-4.862-1.584-4.892s-1.265,3.82-.64,4.913c-.61-.781-3.392-4.147-5.11-3.305s1.7,4.3,2.528,4.981c-1.045-.343-5.386-1.2-5.788-.016S103.187,44.081,104.363,43.279Z"/><path class="f" d="M105.289,43.181a2.017,2.017,0,0,1,1.978-2.127,1.952,1.952,0,0,1,2.214,1.721c.071,1.145-.645,1.736-1.74,2.039A2,2,0,0,1,105.289,43.181Z"/></g></g><path class="g" d="M167.511,103.482c1.95,13.372,6.495,27.494,5.284,40.943-.919,10.217-5.086,21.507-2.3,31.654.209.763,1.49.642,1.422-.193-1.052-12.9,3.777-25.424,3.487-38.366-.247-11.046-3.582-23.924-6.889-34.314a.519.519,0,0,0-1,.276Z"/><path class="g" d="M105.865,72.726C107.724,62.347,118.042,58,127.668,57.6c12.6-.528,21.148,5.956,22.487,19a.912.912,0,0,0,1.823,0c.144-25.818-44.963-28.07-46.8-3.971-.03.387.615.48.684.093Z"/><path class="g" d="M93.223,100.961c.02-6.2-1.274-12.531-.132-18.693,1.242-6.7,7.377-13.918,13.534-7.024.5.565,1.275-.053,1.165-.678-.947-5.388-8.978-4.57-12.009-1.525-6.713,6.744-3.853,19.7-3.362,27.92a.4.4,0,0,0,.8,0Z"/><path class="g" d="M105.141,61.142c-1.208,3.9-2.909,10.336.992,13.329.758.582,1.637-.513,1.234-1.235-1.156-2.071-2.144-3.414-2.158-5.938a32.272,32.272,0,0,1,.708-5.943.4.4,0,0,0-.776-.213Z"/><path class="g" d="M173.512,167.784c-3.326-14.276-2.487-28.212-2.8-42.86-.458-21.639-4.2-46.544-22.633-59.483-9.828-6.9-37.847-8.979-42.483,6.777-8.858-2.273-12.613,12.446-12.962,18.748-1.089,19.716,2.806,43.992-1.8,63.343-3.971,16.679,1.349,23.667,1.589,27l55.355,3.526c2.75.093,20.9,1.361,20.9,1.361C172.461,180.584,175.035,174.321,173.512,167.784Z"/><path class="h" d="M172.482,180.353a19.777,19.777,0,0,0,1.5-10.627c-29.458-26.5-27.72-49.286-27.72-49.286l-39.869,2.133c-.725,11.012-7.944,24.513-14.873,30.326-.144.7-.294,1.4-.459,2.091-3.971,16.679,1.349,23.667,1.589,27l56.262,1.256Z"/><path class="i" d="M184.553,194.128c-6.361-16.751-13-24.886-20.3-27.577l-.024.033c-3.617-1.776-10.748-3.089-14.382-4.922-4.341-2.19-44.557,0-44.557,0-6.452,3.03-12.742,3.767-16.235,5.617l-.046-.067c-8.733,3.9-14.685,11.117-20.507,26.916Z"/><path class="j" d="M148.722,114.277c-.961,4.566.041,8.862,2.317,8.973,1.547.076,3.055-3.089,4.016-7.655s1.705-8.49-.536-8.879S149.683,109.711,148.722,114.277Z"/><path class="j" d="M106.24,114.277c.961,4.566-.041,8.862-2.317,8.973-1.547.076-3.055-3.089-4.016-7.655s-1.7-8.49.535-8.879S105.279,109.711,106.24,114.277Z"/><path class="k" d="M144.308,127.1l-31.432,5.564c1.688,2.332,4.567,10.325,3.924,14.393-1,6.326-4.917,11.354-11.509,14.6,0,0,3.535,10.643,22.874,10.319,20.15-.337,21.683-10.319,21.683-10.319s-8.377-6.021-9.733-14.6C138.653,137.815,140.507,133.15,144.308,127.1Z"/><path class="l" d="M114.852,152.9s6.605,10.257,15.961,9.352c8.207-.795,11.151-9.752,11.151-9.752a17.859,17.859,0,0,1-1.849-5.442,30.614,30.614,0,0,1-.273-9.1l-24.16,1.158c.867,2.826,1.443,5.889,1.118,7.946A18.3,18.3,0,0,1,114.852,152.9Z"/><path class="m" d="M151.642,118.1c-3.055,21.511-18.686,28.064-24.078,28.064-4.718,0-19.733-3.773-23.84-27.4-1.1-6.355-2.169-12.369-.524-21.614,2.627-14.765,9.043-23.526,24.364-23.526s21.8,7.8,24.344,23.526C153.564,107.39,152.544,111.75,151.642,118.1Z"/><path class="n" d="M151.908,98.806c-2.544-15.195-9.022-22.731-24.344-22.731S105.827,84.54,103.2,98.806c-1.644,8.933-.581,14.744.524,20.885,4.108,22.832,19.122,26.477,23.84,26.477h0c-4.348,0-18.179-3.463-21.964-25.148a57.782,57.782,0,0,1-1.22-13.371,48.984,48.984,0,0,1,.738-6.466c2.42-13.55,11.52-21.591,22.446-21.591s20.083,7.159,22.427,21.591a60.949,60.949,0,0,1,.762,6.862c.239,4.953-.412,8.191-1.007,12.367-2.813,19.731-17.2,25.749-22.173,25.756,5.4-.008,21.015-6.344,24.068-27.117C152.544,112.912,153.564,108.7,151.908,98.806Z"/><path class="l" d="M122.473,170.327c-1.04.422,3.3,4.1,4.9,4.1,1.721,0,5.928-3.692,5.329-4.284s-3.542,1.23-5.329,1.24S123.464,169.924,122.473,170.327Z"/><path class="o" d="M154.631,93.2c-2.543-12.669-9.7-23.409-26.639-23.409S103.654,78.6,100.626,92.094a69.285,69.285,0,0,0-1,15.124,2.123,2.123,0,0,1,2.788.2s-.06-29.436,25.153-29.436c24.693,0,25.1,29.464,25.1,29.464a1.977,1.977,0,0,1,2.718-.444A68.308,68.308,0,0,0,154.631,93.2Z"/><path class="p" d="M103.284,83.976a40.783,40.783,0,0,0-2.658,8.118,69.285,69.285,0,0,0-1,15.124,2.125,2.125,0,0,1,2.789.2,41.227,41.227,0,0,1,3.914-16.431A27.935,27.935,0,0,1,103.284,83.976Z"/><path class="p" d="M154.631,93.2a40.052,40.052,0,0,0-2.926-9.157,27.905,27.905,0,0,1-3.087,7.047,42.5,42.5,0,0,1,4.05,16.358,1.976,1.976,0,0,1,2.718-.444A68.308,68.308,0,0,0,154.631,93.2Z"/><path class="h" d="M106.831,182.643a22.154,22.154,0,0,1,.5-18.159c2.122-4.8,7.349-9.378,7.4-14.941l-12.906,11.406a20.186,20.186,0,0,0-1.589,9.933,26.551,26.551,0,0,0,3,11.4c1.733,3.212,4.342,5.848,4.545,9.756a9.663,9.663,0,0,0,.391-5.362A20.809,20.809,0,0,0,106.831,182.643Z"/><path class="h" d="M106.019,185.041c-1.243-3.083-3.736-5.33-5.281-8.252a21.1,21.1,0,0,1-1.748-14.572c.122-.589-.73-1.036-1.029-.433-3.918,7.9,2.623,17.795,7.667,23.485.149.167.479-.01.391-.228Z"/><path class="h" d="M166.183,144.977a65.3,65.3,0,0,0-.609-18.69c-1.226-7.2-1.309-14.184-1.786-21.42-.033-.5-.853-.691-.936-.127a49.932,49.932,0,0,0,.029,14.4c1.224,8.663,1.822,17.169,2.721,25.84a.291.291,0,0,0,.581,0Z"/><path class="h" d="M159.971,121.943c-1.166-13.9,3.716-31.39-6.209-43.07-.412-.486-1.1.132-.842.649a51.185,51.185,0,0,1,5.87,25.387c-.09,5.723-1.184,11.574.332,17.149.124.456.89.383.849-.115Z"/><path class="h" d="M108.09,73.341c1.973-2.434,3.3-4.864,5.961-6.694,2.713-1.865,5.359-2.135,8.4-3.011a.419.419,0,0,0-.111-.819c-5.46-.576-13.252,5.019-14.985,10.1-.137.4.457.77.734.428Z"/><path class="h" d="M124.856,65.482c9.932-1.263,17.763.036,24.327,7.975.279.337.792-.029.7-.4-.841-3.32-5.164-6.364-8.162-7.677a25,25,0,0,0-16.967-.668c-.4.122-.354.833.105.775Z"/><path class="h" d="M96.4,85.813a20.59,20.59,0,0,1,3.28-6.083c1.759-2.2,3.485-2.7,5.993-3.521.4-.133.6-.8.131-1.007-5.08-2.275-9.269,6.836-9.949,10.461a.283.283,0,0,0,.545.15Z"/><path class="h" d="M96.553,118.743c1.483-9.767-2.537-20.987,1.372-30.237.1-.236-.164-.489-.375-.289-2.486,2.367-2.337,6.175-2.3,9.388.092,7.039.924,14.023.976,21.095,0,.177.294.232.322.043Z"/><ellipse class="b" cx="57.941" cy="5.555" rx="57.941" ry="5.555" transform="translate(66.859 202.338)"/><g transform="translate(50)"><path class="f" d="M54.028,190.387c-.562.31-.259,12.7.173,13.344.58.872,18.982.969,20.19-.023s.776-12.976.431-13.356c-.169-.187-5.09-.043-10.1-.02C59.538,190.354,54.257,190.261,54.028,190.387Z"/><path class="q" d="M53.29,192.874c-.6.332-.277,13.6.184,14.289.622.934,20.327,1.038,21.62-.024s.832-13.9.462-14.3c-.181-.2-5.45-.045-10.818-.021C59.189,192.839,53.535,192.739,53.29,192.874Z"/><path class="f" d="M75.556,192.836c-.164-.18-3.941-.145-9.113-.063.142,4.23.193,10.611-.055,15.074,4.3-.04,8.157-.257,8.706-.708C76.388,206.077,75.926,193.243,75.556,192.836Z"/><path class="o" d="M55.693,195.979c-.485.161-.434,7.359.145,7.8s15.933.468,16.947-.118.651-7.59.362-7.81S56.417,195.738,55.693,195.979Z"/><path class="r" d="M66.52,195.733c.047,2.637.058,5.611,0,8.348a32.1,32.1,0,0,0,6.262-.421c1.014-.586.652-7.589.363-7.809C73.024,195.758,70.008,195.724,66.52,195.733Z"/><path class="o" d="M53.29,192.259c-.35-.024-.35-4.824.184-4.936.767-.16,20.3-.157,21.62.009.827.1.832,4.8.462,4.94S54.221,192.322,53.29,192.259Z"/></g><path class="s" d="M90.755,204.286a14.114,14.114,0,0,0,0,3.449,32.572,32.572,0,0,0,6.172.033,9.744,9.744,0,0,0,.131-3.482A45.875,45.875,0,0,0,90.755,204.286Z"/><path class="t" d="M87.721,179.236c-.113.233.223,5.482.362,9.564.288,8.426.454,14.558.89,15.343.337.6,2.746.653,5.1.639,2.149-.012,4.25-.03,4.7-.639.324-.437.642-4.033.893-9.125.309-6.25.818-15.453.628-15.952C99.969,178.209,88.139,178.379,87.721,179.236Z"/><path class="u" d="M87.721,179.236a6.479,6.479,0,0,0-.007,1.118c2.262-.163,6.194-.091,8.481,1.767,2.032,1.651,1,18.873-.5,20.374-1.254,1.254-5.682,1.578-6.727,1.634l0,.014c.337.6,2.746.653,5.1.639,2.149-.012,4.25-.03,4.7-.639.324-.437.642-4.033.893-9.125.309-6.25.818-15.453.628-15.952-.1-.269-1.347-.437-3.016-.514l-6.385.083C89.167,178.757,87.855,178.961,87.721,179.236Z"/><path class="v" d="M87.427,177.868a2.959,2.959,0,0,0,.049,1.63c.155.085,3.491-.039,6.714.057s6.36.2,6.457.009a3.8,3.8,0,0,0,0-1.543C100.223,177.172,87.74,177.092,87.427,177.868Z"/><path class="v" d="M90.036,187.529a65.665,65.665,0,0,0,0,8.382c.244.447,7.413.559,7.812.079.349-.419.349-7.956.165-8.244C97.776,187.374,90.366,187.215,90.036,187.529Z"/><g transform="translate(-20)"><path class="s" d="M175.68,200.969c-.122.177-.068,6.423,0,6.614.13.362,3.959.452,4.172.064a52.663,52.663,0,0,0,.088-6.678C179.814,200.668,175.857,200.715,175.68,200.969Z"/><path class="w" d="M172.8,179.511c-.073.277.528,6.07.856,10.042.579,7.027.909,11.345,1.189,11.857.214.389,1.608.42,2.967.411,1.242-.008,2.457-.019,2.736-.411a39.215,39.215,0,0,0,.871-6.537c.5-5.349,1.447-14.97,1.333-15.565C182.557,178.266,173.076,178.475,172.8,179.511Z"/><path class="x" d="M172.8,179.511a11.6,11.6,0,0,0,.073,1.314c1.753-.188,4.819-.1,6.558,2,1.471,1.778.262,16.482-.657,17.5-.746.829-3.325,1.04-3.932,1.076l0,.009c.214.389,1.608.42,2.967.411,1.242-.008,2.457-.019,2.736-.411a39.215,39.215,0,0,0,.871-6.537c.5-5.349,1.447-14.97,1.333-15.565-.062-.325-1.043-.529-2.371-.622l-5.094.1C173.92,178.935,172.89,179.181,172.8,179.511Z"/><path class="w" d="M172.467,178.318a3.375,3.375,0,0,0,.163,1.549c.128.079,2.748-.036,5.287.053a28.99,28.99,0,0,0,5.08.009,4.289,4.289,0,0,0,.116-1.463C182.837,177.634,172.66,177.554,172.467,178.318Z"/><path class="y" d="M181.247,196.659c.057-.559.116-1.145.176-1.786.239-2.552.579-6.072.857-9.125-3.6-.174-6.659-.261-8.985-.3.129,1.395.26,2.842.365,4.106.231,2.814.423,5.185.588,7.059C176.7,196.666,179.09,196.677,181.247,196.659Z"/><path class="w" d="M180.052,185.649a66.958,66.958,0,0,1-.479,11.018c.571,0,1.13,0,1.674-.008v-.007c.024-.24.049-.488.074-.74.033-.338.067-.676.1-1.039.239-2.552.579-6.072.857-9.125C181.508,185.711,180.773,185.679,180.052,185.649Z"/></g><g transform="translate(-10)"><path class="t" d="M141.4,184.086c-.909,1.37-.454,21.529-.13,22.637.437,1.492,14.274,1.658,15.182-.04s1.041-21.324.1-22.6c-.471-.636-4.016-.377-7.564-.391S141.858,183.4,141.4,184.086Z"/><path class="u" d="M156.551,184.086c-.356-.481-2.468-.45-5.009-.412.9,1.823.761,21.725-.134,23.469-.158.307-.723.552-1.522.745,3.2-.065,6.165-.45,6.569-1.205C157.364,204.986,157.5,185.359,156.551,184.086Z"/><rect class="s" width="11.389" height="1.863" rx="0.793" transform="translate(143.245 181.833)"/><path class="s" d="M152.23,182.193s.12-6.429-.121-6.97-9.073-.361-9.073-.361v1.5s2.283.6,2.584,1.2.18,4.447.18,4.447Z"/><path class="v" d="M153.962,194.692c0,3.65-2.206,6.61-4.928,6.61s-4.927-2.96-4.927-6.61,2.206-6.61,4.927-6.61S153.962,191.041,153.962,194.692Z"/></g><g transform="translate(-70)"><path class="z" d="M188.308,197.963c-.319.176-.149,7.2.1,7.57.329.494,10.767.554,11.453-.009s.443-7.36.248-7.576c-.1-.106-2.888-.025-5.731-.014C191.434,197.946,188.438,197.892,188.308,197.963Z"/><path class="aa" d="M187.889,199.374c-.342.188-.16,7.712.1,8.105.353.53,11.53.593,12.264-.009s.475-7.882.265-8.112c-.1-.114-3.091-.027-6.136-.015C191.235,199.355,188.028,199.3,187.889,199.374Z"/><path class="z" d="M200.519,199.358a43.573,43.573,0,0,0-5.169-.038c.08,2.4.107,6.018-.035,8.55,2.441-.022,4.627-.144,4.939-.4C200.988,206.868,200.729,199.588,200.519,199.358Z"/><path class="ab" d="M189.252,201.136c-.276.091-.249,4.174.08,4.424s9.037.269,9.613-.063.371-4.3.207-4.43S189.662,201,189.252,201.136Z"/><path class="ac" d="M195.393,201c.026,1.5.032,3.182,0,4.735a18.237,18.237,0,0,0,3.553-.237c.575-.332.371-4.3.207-4.43C199.083,201.014,197.372,200.994,195.393,201Z"/><path class="s" d="M187.889,199.025c-.2-.013-.2-2.736.106-2.8.435-.091,11.512-.084,12.264.01.469.059.47,2.723.261,2.8S188.417,199.061,187.889,199.025Z"/></g></g></g></svg>