<svg xmlns="http://www.w3.org/2000/svg" width="188.564" height="176.671" viewBox="0 0 188.564 176.671"><defs><style>.a{fill:#e1e9dc;}.b{fill:#abbfa0;}.c{fill:#e0e0e0;}.d{fill:#ebebeb;}.e{fill:#f5f5f5;}.f{fill:#e6e6e6;}.g{fill:#263238;}.h{opacity:0.3;}.i{fill:none;stroke:#263238;stroke-miterlimit:10;stroke-width:0.05px;}.j{fill:#ef9d78;}.k{fill:#d37a57;}.l{fill:#455a64;}.m{fill:#e8505b;}</style></defs><g transform="translate(-998.718 -2074.329)"><path class="a" d="M85,0A85,85,0,1,1,0,85,85,85,0,0,1,85,0Z" transform="translate(1008 2081)"/><g transform="translate(978.338 2020.875)"><g transform="translate(28.223 43.221)"><g transform="translate(118.873 51.56)"><g transform="translate(37.326 49.449)"><path class="b" d="M423.657,290.6a20.157,20.157,0,0,1,12.5-1.52c2.269.375,4.633,1.054,6.177,2.758s1.836,4.7.064,6.167a5.919,5.919,0,0,1-3.895.988c-3.305-.039-6.973-.621-9.614,1.368-1.507,1.135-2.51,3.021-4.311,3.579a4.259,4.259,0,0,1-4.686-2.085,7.28,7.28,0,0,1-.53-5.372A8.2,8.2,0,0,1,423.657,290.6Z" transform="translate(-419.096 -288.729)"/></g><g transform="translate(30.977)"><path class="b" d="M405.859,203.04c2.326,3.322,6.846,2.222,8.942.194s2.982-4.966,3.788-7.769c1.842-6.4,3.7-13.12,2.33-19.64a10.914,10.914,0,0,0-2.508-5.339,5.7,5.7,0,0,0-5.4-1.8c-2.279.6-3.7,2.834-4.719,4.958a46.813,46.813,0,0,0-4.626,20.092c-.011,3.236.37,6.63,2.2,9.3" transform="translate(-403.663 -168.541)"/></g><g transform="translate(0 10.688)"><path class="b" d="M355.158,223.1c2.525-3,3-7.369,1.881-11.123a21.436,21.436,0,0,0-6.588-9.557,35.471,35.471,0,0,0-11.8-6.961,12.58,12.58,0,0,0-5.305-.9,5.568,5.568,0,0,0-4.452,2.694c-1.242,2.368-.051,5.24,1.236,7.583a89.953,89.953,0,0,0,7.749,11.8c2.322,2.994,4.982,5.948,8.522,7.3s7.216,1.194,9.092-1.261" transform="translate(-328.372 -194.52)"/></g><g transform="translate(32.973 54.062)"><path class="c" d="M408.557,330.487a7.232,7.232,0,0,0,.211-1.51c.107-1.1.241-2.478.4-4.119a59.5,59.5,0,0,1,.927-6.042,46.566,46.566,0,0,1,2.2-7.131,26.277,26.277,0,0,1,3.642-6.453,13.6,13.6,0,0,1,4.6-3.828,12.864,12.864,0,0,1,3.877-1.207,7.27,7.27,0,0,0,1.5-.218,7.07,7.07,0,0,0-1.529-.023,11.742,11.742,0,0,0-4.043,1.052,13.566,13.566,0,0,0-4.856,3.861,25.667,25.667,0,0,0-3.775,6.582,43.607,43.607,0,0,0-2.181,7.248,51.021,51.021,0,0,0-.8,6.119c-.131,1.749-.181,3.166-.2,4.145A7.087,7.087,0,0,0,408.557,330.487Z" transform="translate(-408.515 -299.941)"/></g><g transform="translate(32.973 13.347)"><path class="c" d="M408.842,269.073a3,3,0,0,0,.04-.7c0-.526,0-1.189-.005-2,0-1.738,0-4.253.089-7.359.154-6.212.689-12.9,1.722-22.324.978-8.863,2.291-19.178,3.677-25.884.3-1.525.6-2.9.878-4.1s.5-2.243.719-3.084l.468-1.947a2.992,2.992,0,0,0,.123-.691,2.918,2.918,0,0,0-.244.657l-.581,1.919c-.258.833-.523,1.865-.824,3.064s-.645,2.566-.97,4.089a227.309,227.309,0,0,0-3.866,24.017c-1.035,9.446-1.5,18.046-1.542,24.273-.037,3.114.029,5.635.109,7.374.05.813.09,1.476.122,2A2.933,2.933,0,0,0,408.842,269.073Z" transform="translate(-408.515 -200.982)"/></g><g transform="translate(11.152 18.419)"><path class="c" d="M377.666,259.741a13.328,13.328,0,0,0-.014-2.092c-.077-1.345-.262-3.288-.641-5.669a74.869,74.869,0,0,0-1.844-8.259,67.69,67.69,0,0,0-3.453-9.772,52.063,52.063,0,0,0-10.142-15.792,25.743,25.743,0,0,0-2.386-2.218c-.366-.31-.69-.618-1.019-.863l-.926-.638a13.342,13.342,0,0,0-1.761-1.128,62.388,62.388,0,0,1,5.774,5.151,54.862,54.862,0,0,1,9.889,15.735,77.222,77.222,0,0,1,3.473,9.682c.906,3.035,1.507,5.826,1.962,8.177.432,2.356.682,4.281.833,5.613A13.546,13.546,0,0,0,377.666,259.741Z" transform="translate(-355.477 -213.309)"/></g><g transform="translate(17.308 94.111)"><path class="c" d="M370.441,397.284l1.662,22.771h29.253l1.662-22.771Z" transform="translate(-370.441 -397.284)"/></g><g transform="translate(14.483 85.136)"><rect class="c" width="38.894" height="8.975"/></g><g transform="translate(14.483 116.011)"><path class="d" d="M363.573,450.513V453h38.251v-2.488Z" transform="translate(-363.573 -450.513)"/></g><g transform="translate(16.31 118.499)"><g transform="translate(0 0)"><path class="c" d="M369.807,460.939l-1.791-4.379h35.03l-2.09,4.379Z" transform="translate(-368.015 -456.56)"/></g></g><g transform="translate(17.801 98.354)"><path class="e" d="M403.181,410.8a.954.954,0,0,1-.137.209l-.437.58-1.7,2.181-.076.1-.073-.1-4.187-5.79h.241l-4.122,5.837-.129.183-.144-.172L387.524,408l.282,0-.269.338-4.371,5.48-.146.183-.135-.19-4.124-5.835.24.011-5.079,5.786-.09.1-.069-.116-1.591-2.672-.408-.711a1.129,1.129,0,0,1-.125-.254,1.155,1.155,0,0,1,.17.226l.451.685,1.67,2.623-.159-.013,5-5.857.126-.148.114.159,4.161,5.809-.28-.007,4.361-5.488.269-.338.139-.174.143.171,4.875,5.828-.274.011,4.163-5.807.122-.17.119.17,4.1,5.853-.149,0,1.773-2.125.475-.55C403.115,410.852,403.174,410.792,403.181,410.8Z" transform="translate(-371.64 -407.598)"/></g><g transform="translate(17.552 93.778)"><path class="e" d="M403.774,396.658c0,.1-7.33.182-16.369.182s-16.371-.082-16.371-.182,7.328-.182,16.371-.182S403.774,396.558,403.774,396.658Z" transform="translate(-371.033 -396.476)"/></g><g transform="translate(16.187 118.562)"><g transform="translate(0 0)"><path class="e" d="M403.3,456.9c0,.1-7.966.182-17.791.182s-17.793-.081-17.793-.182,7.964-.182,17.793-.182S403.3,456.8,403.3,456.9Z" transform="translate(-367.717 -456.714)"/></g></g></g></g><g transform="translate(36.246 72.467)"><g transform="translate(5.334 54.651)"><path class="f" d="M123.687,247.138,120.4,248.9l-7.284,5.608s-22.312,2.963-23.169,3.605S77.992,264.029,76.492,271.1s-4.585,53.2-4.585,53.2l4.049,13.629,81.26.127,19.057-.271s7.323-17.1,7.323-21.816-2.142-40.061-2.142-40.061L158.6,259.79Z" transform="translate(-71.907 -247.138)"/><g transform="translate(34.113 7.04)"><path class="g" d="M161.7,264.25a.866.866,0,0,1-.114.191l-.358.521c-.321.444-.754,1.11-1.263,1.946-.245.424-.527.88-.785,1.4-.277.5-.539,1.061-.811,1.647a34.088,34.088,0,0,0-1.477,3.937,54,54,0,0,0-1.6,7.481c-.136.948-.248,1.726-.33,2.3-.037.252-.068.459-.093.625a.857.857,0,0,1-.047.217.858.858,0,0,1,0-.221c.014-.168.032-.377.053-.63.049-.547.137-1.337.263-2.312a47.9,47.9,0,0,1,1.547-7.521,32.158,32.158,0,0,1,1.5-3.957c.279-.588.548-1.145.834-1.649.266-.514.557-.969.812-1.39.528-.83.982-1.485,1.324-1.916l.391-.5A.838.838,0,0,1,161.7,264.25Z" transform="translate(-154.821 -264.249)"/></g><g class="h" transform="translate(34.359 19.464)"><path d="M162.563,295.582c-.135-.434-.311-.924-.732-1.094-.332-.133-.2.081-.529.217-3.086,1.273-4.576,4.126-5.883,7.34l.074-.077A1.286,1.286,0,0,0,156,303.46a2.455,2.455,0,0,0,2.305-.184,10.679,10.679,0,0,1,2.15-1.084c1.69-.433,3.37.724,4.562,2s2.267,2.79,3.893,3.421A37.519,37.519,0,0,1,162.563,295.582Z" transform="translate(-155.419 -294.446)"/></g><g transform="translate(34.118 17.33)"><path class="g" d="M154.832,299.23A21.908,21.908,0,0,1,158.1,293.8a11.47,11.47,0,0,1,1.537-1.5,5.152,5.152,0,0,1,2.172-1.042l.064-.012.023.062c.518,1.347,1.06,2.816,1.686,4.363a34.964,34.964,0,0,0,2.3,4.764A23.015,23.015,0,0,0,169.419,305a28.8,28.8,0,0,0,4.846,3.842c.595.353,1.172.725,1.767,1.054l1.783.95-.107.007,2.97-2.05,1.439-.993c.477-.324.943-.65,1.382-1a36.165,36.165,0,0,0,4.61-4.333l.007-.007.007-.005a17.327,17.327,0,0,0,4.227-4.612,15.747,15.747,0,0,0,1.905-4.43,16.22,16.22,0,0,0,.485-3.07c.025-.358.018-.634.028-.82s.016-.282.016-.282.009.1.012.281.015.462,0,.822a15.359,15.359,0,0,1-.438,3.094,15.621,15.621,0,0,1-1.881,4.482,17.372,17.372,0,0,1-4.242,4.679l.014-.013a35.99,35.99,0,0,1-4.623,4.373c-.443.351-.91.679-1.386,1l-1.439,1-2.971,2.056-.052.036-.055-.029-1.793-.954c-.6-.331-1.18-.7-1.777-1.06a28.783,28.783,0,0,1-4.88-3.875,23.122,23.122,0,0,1-3.561-4.62,34.835,34.835,0,0,1-2.3-4.8c-.622-1.554-1.157-3.026-1.665-4.375l.087.05a5.021,5.021,0,0,0-2.111,1,11.454,11.454,0,0,0-1.529,1.469,20.379,20.379,0,0,0-1.979,2.779c-.482.806-.818,1.455-1.041,1.9l-.25.505A1.2,1.2,0,0,1,154.832,299.23Z" transform="translate(-154.832 -289.259)"/></g><g transform="translate(63.487 17.17)"><path class="g" d="M242.833,288.872a41.275,41.275,0,0,1-.3,6.275,48.878,48.878,0,0,1-1.255,6.734,57.632,57.632,0,0,1-2.723,7.973l-.157.372-.048-.4c-.029-.241-.052-.5-.091-.761a22.388,22.388,0,0,0-1.037-4.346c-.237-.683-.5-1.342-.792-1.975-.144-.316-.3-.625-.451-.928a5.751,5.751,0,0,0-.5-.858,1.683,1.683,0,0,0-.706-.59.809.809,0,0,0-.809.153,6.022,6.022,0,0,0-.628.666l-.6.681-2.176,2.483-3.163,3.586-.868.968-.23.248a.444.444,0,0,1-.084.079.484.484,0,0,1,.067-.094l.214-.262.838-.994,3.112-3.631,2.157-2.5.592-.685a6.05,6.05,0,0,1,.65-.694,1,1,0,0,1,.992-.186,1.868,1.868,0,0,1,.8.652,5.937,5.937,0,0,1,.525.885c.158.305.312.616.458.936.294.637.564,1.3.8,1.991a22.375,22.375,0,0,1,1.051,4.387c.039.262.063.525.092.768l-.205-.031a58.946,58.946,0,0,0,2.732-7.938,50.718,50.718,0,0,0,1.3-6.7c.239-1.927.334-3.494.377-4.577.028-.541.028-.961.042-1.246.006-.132.011-.239.014-.324A.421.421,0,0,1,242.833,288.872Z" transform="translate(-226.217 -288.872)"/></g><g transform="translate(44.624 5.804)"><path class="g" d="M185.163,261.245a.379.379,0,0,1-.062.081l-.2.223c-.184.186-.419.49-.723.88a16.191,16.191,0,0,0-1.972,3.683,23.815,23.815,0,0,0-1.477,6.016,24.063,24.063,0,0,0,.329,7.563,20.267,20.267,0,0,0,1.15,3.756,19.853,19.853,0,0,0,1.691,3.245,20.775,20.775,0,0,0,4.115,4.616c.664.587,1.339,1.022,1.9,1.442.6.369,1.1.706,1.534.951l1,.551.258.148a.353.353,0,0,1,.085.057.362.362,0,0,1-.095-.037l-.268-.129-1.022-.516c-.438-.234-.952-.563-1.559-.924-.574-.413-1.258-.843-1.933-1.426a20.53,20.53,0,0,1-4.185-4.626,19.808,19.808,0,0,1-1.719-3.272,20.234,20.234,0,0,1-1.166-3.793,23.919,23.919,0,0,1-.315-7.63,23.432,23.432,0,0,1,1.532-6.05,15.5,15.5,0,0,1,2.046-3.677,9.236,9.236,0,0,1,.758-.86l.213-.209C185.135,261.264,185.161,261.242,185.163,261.245Z" transform="translate(-180.37 -261.244)"/></g><g transform="translate(10.727 23.979)"><path class="g" d="M101.666,326.776s.032.036.081.118l.221.381-.06.021c-.294-1.381-1.093-5.621-2-10.634-.546-3.088-1.041-5.882-1.4-7.941-.166-1-.3-1.812-.4-2.411-.039-.266-.072-.483-.1-.657a.934.934,0,0,1-.02-.232.962.962,0,0,1,.062.224l.138.65c.116.6.275,1.408.469,2.4l1.466,7.929c.907,5.013,1.644,9.264,1.853,10.661l.031.21-.092-.189-.193-.4A.456.456,0,0,1,101.666,326.776Z" transform="translate(-97.98 -305.421)"/></g><g transform="translate(8.985 35.085)"><path class="g" d="M98.182,341.82c-.053.025-1.09-2.06-2.314-4.656s-2.174-4.722-2.12-4.748,1.089,2.059,2.314,4.657S98.236,341.794,98.182,341.82Z" transform="translate(-93.746 -332.415)"/></g><g transform="translate(11.837 47.444)"><path class="i" d="M100.677,362.455" transform="translate(-100.677 -362.455)"/></g><g class="h" transform="translate(13 41.005)"><path d="M103.5,395.522c2.58,1.3,8.558-.992,10.732-3.843s2.8-6.559,3.275-10.113q1.066-8.036,1.521-16.136a24.518,24.518,0,0,0,15.451,4.666c3.49-.158,7.468-1.545,8.547-4.868,1.068-3.287-1.231-6.666-3.62-9.164a56.215,56.215,0,0,0-7.411-6.5,12.466,12.466,0,0,0-5.8-2.721,8.608,8.608,0,0,0-6.42,2.222,15.276,15.276,0,0,0-3.893,5.731c-2.752,6.559-2.6,13.905-3.165,21s-1.314,14.437-7.6,19.054" transform="translate(-103.505 -346.803)"/></g><g transform="translate(13.167 52.708)"><path class="g" d="M103.91,412.292a.978.978,0,0,1,.176-.086l.519-.224a9.433,9.433,0,0,0,1.761-1.21,24.656,24.656,0,0,0,4.754-5.926l-.012.035,1.282-9.606c.754-5.546,1.423-10.567,1.96-14.194l.794-4.27.227-1.159.064-.3a.377.377,0,0,1,.029-.1.412.412,0,0,1-.008.1c-.012.081-.026.181-.043.3q-.068.425-.187,1.166l-.726,4.28c-.488,3.649-1.158,8.662-1.9,14.2l-1.308,9.6,0,.019-.009.015a23.949,23.949,0,0,1-4.845,5.917,8.8,8.8,0,0,1-1.807,1.178c-.232.093-.413.155-.534.2A.945.945,0,0,1,103.91,412.292Z" transform="translate(-103.91 -375.249)"/></g><g transform="translate(51.736 39.016)"><path class="g" d="M198.688,393.6a.633.633,0,0,1-.038-.13l-.092-.386c-.071-.341-.208-.838-.317-1.492a37.04,37.04,0,0,1-.567-5.578,54.027,54.027,0,0,1,.444-8.3c.378-3.11,1.009-6.5,1.74-10.032.7-3.545,1.586-6.876,2.3-9.917a47.01,47.01,0,0,0,1.32-8.18,30.015,30.015,0,0,0-.2-5.579c-.071-.657-.184-1.159-.229-1.5l-.06-.392a.627.627,0,0,1-.013-.135.617.617,0,0,1,.035.13c.021.1.047.227.081.388.059.343.186.844.269,1.5a28.57,28.57,0,0,1,.273,5.6,45.947,45.947,0,0,1-1.278,8.216c-.707,3.051-1.583,6.375-2.284,9.916-.731,3.533-1.366,6.913-1.753,10.013a55.512,55.512,0,0,0-.488,8.275,39.64,39.64,0,0,0,.5,5.568c.1.654.22,1.153.277,1.5l.071.39A.607.607,0,0,1,198.688,393.6Z" transform="translate(-197.656 -341.97)"/></g><g transform="translate(59.689 39.016)"><g transform="translate(0)"><path class="g" d="M216.989,347.2c-.052-.035.658-1.167,1.447-2.611s1.363-2.65,1.421-2.625a3.335,3.335,0,0,1-.3.827c-.214.5-.538,1.175-.935,1.9s-.793,1.362-1.1,1.811A3.322,3.322,0,0,1,216.989,347.2Z" transform="translate(-216.987 -341.969)"/></g></g><g class="h" transform="translate(60.786 28.141)"><g transform="translate(0)"><path d="M219.884,329.939a69.163,69.163,0,0,1,6.951-7.042,4.916,4.916,0,0,1,2.307-1.348,3.431,3.431,0,0,1,2.946,1.185,10.123,10.123,0,0,1,1.677,2.833c1.078-2.652-.041-5.638-1.151-8.276-.361-.859-.989-1.878-1.909-1.74a2.128,2.128,0,0,0-1.186.849,128.018,128.018,0,0,0-9.868,13.061" transform="translate(-219.652 -315.537)"/></g></g><g class="h" transform="translate(89.834 21.642)"><path d="M297.613,301.044l.154-1.3c-1.567.15-3.494.334-4.745,1.288-1.461,1.113-2.036,3.01-2.527,4.779-1.119,4.026,2.055,24.742,1.893,28.917,1.389-.59,2.365-9.48,2.615-10.969.608-3.625-.622-5.889-.25-6.9a9.968,9.968,0,0,0,.393-3.189,31.713,31.713,0,0,1,2.467-12.625" transform="translate(-290.255 -299.74)"/></g></g><g transform="translate(62.139 0)"><path class="g" d="M229.913,125.415c-1.992-2.469-1.34-6.413.94-8.619a10.346,10.346,0,0,1,8.875-2.316,14.6,14.6,0,0,1,10.579,7.983c1.067,2.241,1.648,4.889,3.607,6.413,1.721,1.34,4.088,1.458,6.047,2.417a9.814,9.814,0,0,1,4.92,6.9,21.19,21.19,0,0,1-.365,8.7c-.556,2.626-1.3,5.463-.17,7.9,1.1,2.375,3.669,3.669,5.36,5.666a9.436,9.436,0,0,1-1.479,13.107c-1.256.942-2.844,1.658-3.444,3.109-.548,1.324-.081,2.827-.109,4.26a6.369,6.369,0,0,1-7.7,5.744c-1.8-.5-3.451-1.821-5.3-1.568s-3.058,1.946-4.548,3.043a7.966,7.966,0,0,1-10-.739c-1.081-1.074-1.949-2.538-3.422-2.929s-3.017.455-4.523.249c-1.972-.269-3.269-2.227-3.851-4.131s-.739-3.967-1.723-5.7c-1.289-2.265-3.743-3.548-5.805-5.142a20.163,20.163,0,0,1-1.726-30.4" transform="translate(-209.976 -114.305)"/></g><g transform="translate(38.554 5.085)"><g transform="translate(11.36 55.379)"><path class="j" d="M184.829,261.267a18.959,18.959,0,0,0-4.023,16.8c1.465,5.807,6.322,14.293,11.929,16.4,3.636-2.665,8.31-6.388,11.7-9.359,2.195-1.923,3.358-4.733,4.445-7.441.627-1.562,1.264-3.25.87-4.887a7.068,7.068,0,0,0-1.965-3.1,25.151,25.151,0,0,0-21.779-7.265" transform="translate(-180.264 -261.267)"/></g><g transform="translate(15.13 8.015)"><path class="j" d="M206.873,151.712h0a9.978,9.978,0,0,1,11.414-5.256l14.037,3.578c7.014,2.261,12.507,13.116,8.371,22.625-3.265,7.509-6.611,16.944-9.967,22.126-6.748,10.42-15.972,8.039-15.972,8.039l-4.979,11.106-20.353-19.086Z" transform="translate(-189.426 -146.146)"/><g transform="translate(11.704 45.856)"><path class="k" d="M231.484,268.453a32.462,32.462,0,0,1-13.61-10.85s.308,9.527,12.364,13.642Z" transform="translate(-217.874 -257.603)"/></g></g><g transform="translate(0 7.736)"><path class="g" d="M173.226,145.467a8.781,8.781,0,0,0-3.372,7.189c.061,1.538.437,3.354-.7,4.4-1.154,1.06-2.97.491-4.536.5a5.834,5.834,0,0,0-5.57,4.993,7.117,7.117,0,0,1-.481,2.867,6.252,6.252,0,0,1-2.421,1.8,7.26,7.26,0,0,0,.243,12.558,9.356,9.356,0,0,1,2.92,1.793c.843,1.016.875,2.454,1.288,3.708a6.1,6.1,0,0,0,11.552.084" transform="translate(-152.652 -145.467)"/></g><g transform="translate(42.254 2.307)"><path class="g" d="M256.425,133.764a8.687,8.687,0,0,0,6.957,11.412c1.951.286,4.279.039,5.539,1.556,1.324,1.6.539,4.141,1.587,5.932,1.5,2.558,4.049,4.6,6.47,6.309,1.87,1.32-.27,5,.546,7.135s4.169,7.02,6.457,7.107c.5-1.914,3.348-10.316,3.4-12.293a8.658,8.658,0,0,0-1.619-5.585,32.091,32.091,0,0,1-2.134-2.447c-1.254-1.977-.833-4.537-1.239-6.842a9.52,9.52,0,0,0-5.327-6.884c-2.284-1.043-4.962-1.159-7.071-2.521-1.559-1.007-2.673-2.618-4.289-3.531-3.147-1.778-7.091-.423-10.343,1.154" transform="translate(-255.354 -132.272)"/></g><g transform="translate(11.044 0.104)"><path class="g" d="M196.624,154.528a1.417,1.417,0,0,0-.353,2.72c3.731,2.282,6.936-5.428,6.8-7.991a24.79,24.79,0,0,0,5.5-2.89,17.891,17.891,0,0,0,4.625-7.539c1.428.578,8.325.63,7.727.217-1.361-.942-4.116-2.963-4.482-4.545a9.73,9.73,0,0,0-6.457-7.321,8.03,8.03,0,0,0-8.884,3.693,11.547,11.547,0,0,0-11.45,2.868A13.386,13.386,0,0,0,186,145.647a6.547,6.547,0,0,1,.244,3.323c-.434,1.345-1.784,2.07-2.857,2.94-2.928,2.373-4.188,6.567-3.828,10.353s1.006,5.292,2.88,6.661c3.667,2.677-3.953,9.515,2.872,11.826" transform="translate(-179.495 -126.917)"/></g><g transform="translate(43.094)"><path class="l" d="M293.423,180.516c-.019-.028.241-.169.642-.545a5.736,5.736,0,0,0,1.375-1.935,5.851,5.851,0,0,0,.385-3.67,7.576,7.576,0,0,0-2.852-3.964c-1.407-1.21-3.256-2.289-4.564-4.191a9.56,9.56,0,0,1-1.124-6.983c.413-2.506,1.456-4.94,2.125-7.535a14.139,14.139,0,0,0,.5-4.012,7.927,7.927,0,0,0-1.075-3.924,7.265,7.265,0,0,0-3.061-2.652,14.281,14.281,0,0,0-3.868-1.178,27.446,27.446,0,0,1-3.951-.758,4.945,4.945,0,0,1-3.072-2.42,14.6,14.6,0,0,1-.99-3.555,7.13,7.13,0,0,0-1.33-3.023,8.252,8.252,0,0,0-5.04-3.015,8.686,8.686,0,0,0-4.88.588,11.109,11.109,0,0,0-3.163,2.057,16.545,16.545,0,0,0-2.088,2.487.66.66,0,0,1,.089-.2,6.176,6.176,0,0,1,.318-.548,10.525,10.525,0,0,1,1.536-1.894,11,11,0,0,1,3.189-2.182,8.935,8.935,0,0,1,5.064-.686,8.614,8.614,0,0,1,5.328,3.119,7.572,7.572,0,0,1,1.439,3.191,14.426,14.426,0,0,0,.968,3.43,4.441,4.441,0,0,0,2.789,2.16,27.527,27.527,0,0,0,3.881.727,14.721,14.721,0,0,1,4.016,1.217,7.789,7.789,0,0,1,3.284,2.851,8.446,8.446,0,0,1,1.153,4.19,14.613,14.613,0,0,1-.528,4.161c-.694,2.648-1.738,5.061-2.147,7.486a9.13,9.13,0,0,0,1.006,6.653c1.206,1.8,3.019,2.9,4.437,4.148a7.841,7.841,0,0,1,2.9,4.191,6.01,6.01,0,0,1-.489,3.823,5.509,5.509,0,0,1-1.494,1.93A2.916,2.916,0,0,1,293.423,180.516Z" transform="translate(-257.396 -126.665)"/></g><g transform="translate(65.415 29.008)"><path class="l" d="M312.734,197.171c.048.019-.2.589-.451,1.666a12.129,12.129,0,0,0-.146,4.635,11.507,11.507,0,0,0,.932,3.057,15.046,15.046,0,0,0,2.016,3.086,9.138,9.138,0,0,1,1.1,1.765,4.4,4.4,0,0,1,.388,2.183,14.7,14.7,0,0,1-1.433,4.272,5.32,5.32,0,0,0-.38,4.111,9.858,9.858,0,0,0,2.445,3.163,12.539,12.539,0,0,1,2.417,2.936,5.011,5.011,0,0,1,.518,1.691,4.946,4.946,0,0,1-.122,1.62,5.513,5.513,0,0,1-2.944,3.669,4.257,4.257,0,0,1-1.257.346,1.394,1.394,0,0,1-.453,0,7.934,7.934,0,0,0,1.618-.535,5.4,5.4,0,0,0,2.664-3.565,4.28,4.28,0,0,0-.42-3.017,12.379,12.379,0,0,0-2.37-2.789,10.16,10.16,0,0,1-2.589-3.326,4.537,4.537,0,0,1-.275-2.28,8.913,8.913,0,0,1,.648-2.227,14.629,14.629,0,0,0,1.405-4.107,5.236,5.236,0,0,0-1.358-3.612,15.105,15.105,0,0,1-2.025-3.2,11.814,11.814,0,0,1-.582-7.928,8.131,8.131,0,0,1,.441-1.217A1.429,1.429,0,0,1,312.734,197.171Z" transform="translate(-311.648 -197.17)"/></g><g transform="translate(2.445 4.363)"><path class="l" d="M160.919,174.831c-.008.009-.087-.05-.235-.173a4.679,4.679,0,0,1-.6-.606,6.457,6.457,0,0,1-1.367-2.923,6.286,6.286,0,0,1,1.008-4.886,6.785,6.785,0,0,1,5.788-2.833l-.228.3a10.42,10.42,0,0,1-.693-4.28,5.483,5.483,0,0,1,2.2-4.132,4.119,4.119,0,0,1,2.407-.823,6.043,6.043,0,0,1,2.486.7,9.594,9.594,0,0,0,2.3.887,2.485,2.485,0,0,0,2.176-.644,4.81,4.81,0,0,0,1.348-3.236c.1-1.21-.021-2.443.1-3.673a10.263,10.263,0,0,1,3.031-6.236,9.83,9.83,0,0,1,5.569-2.7,10.13,10.13,0,0,1,5.231.657l-.232.092a5.385,5.385,0,0,1,2.832-2.6,5.924,5.924,0,0,1,2.85-.425,5.052,5.052,0,0,1,1.734.5,2.438,2.438,0,0,1,.52.345,6.229,6.229,0,0,0-2.271-.652,5.854,5.854,0,0,0-2.722.49,5.12,5.12,0,0,0-2.615,2.488l-.072.156-.161-.064a9.836,9.836,0,0,0-5.033-.562A9.425,9.425,0,0,0,181,142.627a9.808,9.808,0,0,0-2.851,5.936c-.119,1.164,0,2.39-.1,3.664a5.327,5.327,0,0,1-1.517,3.59,3.031,3.031,0,0,1-2.63.779,9.963,9.963,0,0,1-2.441-.934A5.565,5.565,0,0,0,169.2,155a3.6,3.6,0,0,0-2.1.715,4.99,4.99,0,0,0-2.015,3.753,10.037,10.037,0,0,0,.632,4.088l.111.322-.339-.02a6.418,6.418,0,0,0-5.461,2.6,6.049,6.049,0,0,0-1.05,4.624,6.629,6.629,0,0,0,1.217,2.884C160.637,174.55,160.944,174.8,160.919,174.831Z" transform="translate(-158.594 -137.27)"/></g><g transform="translate(15.382 6.882)"><path class="l" d="M217.814,143.407a4.56,4.56,0,0,0-1.855.721c-1.051.744-1.962,2.544-2.229,4.829l-.023.2-.193-.016a7.4,7.4,0,0,0-6.059,2.532,5.751,5.751,0,0,0-.973,1.64,11.252,11.252,0,0,0-.422,1.991,15.152,15.152,0,0,1-.422,2.155,3.6,3.6,0,0,1-1.3,1.944,9.279,9.279,0,0,1-4.508,1.484,12.862,12.862,0,0,0-4.11,1.064,9.559,9.559,0,0,0-4.761,5.154,9.974,9.974,0,0,0-.561,4.8c.146,1.152.39,1.76.339,1.777a1.562,1.562,0,0,1-.2-.431,8.085,8.085,0,0,1-.348-1.314,9.711,9.711,0,0,1,.411-4.964,9.84,9.84,0,0,1,4.9-5.469,13.17,13.17,0,0,1,4.252-1.141A8.9,8.9,0,0,0,204,158.974c1.175-.828,1.3-2.386,1.531-3.755a11.544,11.544,0,0,1,.458-2.086,6.191,6.191,0,0,1,1.078-1.79,7.752,7.752,0,0,1,6.478-2.605l-.216.18c.327-2.378,1.33-4.222,2.5-4.973a3.22,3.22,0,0,1,1.447-.54A1.838,1.838,0,0,1,217.814,143.407Z" transform="translate(-190.039 -143.391)"/></g><g transform="translate(20.875 23.701)"><path class="j" d="M211.482,189.457a3.534,3.534,0,0,0-2.984-5.184c-1.417,0-2.941.771-4.208,3.2-3.377,6.476,3.821,8.531,3.93,8.352C208.287,195.713,210.108,192.149,211.482,189.457Z" transform="translate(-203.389 -184.273)"/><g transform="translate(1.998 2.17)"><path class="k" d="M210.38,195.443c-.018-.035-.154.02-.39.008a1.273,1.273,0,0,1-.852-.422,3.149,3.149,0,0,1,.014-3.179,4.208,4.208,0,0,1,1.158-1.451,1.47,1.47,0,0,1,1.3-.423.648.648,0,0,1,.5.657c-.008.226-.116.334-.088.363.01.026.2-.036.283-.331a.813.813,0,0,0-.043-.539.962.962,0,0,0-.538-.49,1.789,1.789,0,0,0-1.7.389,4.323,4.323,0,0,0-1.333,1.6c-.639,1.327-.608,2.9.187,3.655a1.363,1.363,0,0,0,1.121.367C210.287,195.593,210.4,195.466,210.38,195.443Z" transform="translate(-208.247 -189.546)"/></g></g></g><g transform="translate(0 78.273)"><g transform="translate(48.868 27.903)"><path class="g" d="M189.922,390.113a4.9,4.9,0,0,0-2.044-1.717l-1.226-3.024a3.294,3.294,0,0,0,0-2.371c-.49-1.308-4.087-8.91-4.005-9.155l-.931-.055s3.315,8.045,3.642,8.454.8,2.8-.014,3.129-2.555-.558-3.29-1.294-3.079-6.271-3.488-7.415a4.409,4.409,0,0,1,.32-2.738l.654-1.553h-.9a29.85,29.85,0,0,0-.9,3.188c-.327,1.553,3.352,8.338,3.924,9.073s2.534,1.308,3.6,2.044.9,3.024.9,3.024a5.672,5.672,0,0,0-.981,2.7c-.082,1.472,3.188,8.42,5.4,9.891s4.823.409,5.068.49.818-1.144.818-1.144S190.494,391.176,189.922,390.113Zm3.013,12.15a4.61,4.61,0,0,1-3.036-1.755c-.268-.354-3.13-5.335-3.5-6.262a4.594,4.594,0,0,1,.036-3.463c.34-1.376,2.467-.569,2.467-.569s6.261,10.818,6.12,11.148A2.179,2.179,0,0,1,192.935,402.263Z" transform="translate(-177.721 -372.375)"/><g transform="translate(17.922 16.236)"><path class="g" d="M222.1,424.866s18.231-6.939,19.082-7.725a65.978,65.978,0,0,0,3.929-5.3s1.506.262,1.31.655-3.077,4.911-6.155,6.221-18.983,7.3-18.983,7.3Z" transform="translate(-221.283 -411.837)"/></g></g><path class="f" d="M68.862,304.554l-7.51,43.3s-2.765,8.426-2.37,10.269,1.791,9.794,6,12.3,12.558.869,14.27-.842,5.084-4.849,5.479-6.3S87.9,339.816,87.9,339.816L89,333.64s-4.081,1.317-6.583-.395-5.792-9.084-5.792-9.084l-3.686,5.661Z" transform="translate(-58.943 -304.554)"/><g transform="translate(3.074 19.607)"><path class="g" d="M81.02,352.21a1.4,1.4,0,0,1-.144.244l-.446.676c-.388.586-.946,1.437-1.617,2.5-1.351,2.121-3.154,5.09-5.125,8.382s-3.749,6.28-5.07,8.421c-.66,1.071-1.2,1.932-1.587,2.522l-.448.675a1.394,1.394,0,0,1-.169.228,1.4,1.4,0,0,1,.132-.251l.414-.7,1.528-2.556L73.5,363.9c1.972-3.293,3.8-6.252,5.182-8.354.688-1.053,1.267-1.892,1.676-2.465l.479-.654A1.367,1.367,0,0,1,81.02,352.21Z" transform="translate(-66.414 -352.21)"/></g><g transform="translate(14.113 24.978)"><path class="g" d="M108.243,374.683a.971.971,0,0,1-.155.18c-.11.109-.26.285-.483.48a8.345,8.345,0,0,1-2.076,1.4,6.58,6.58,0,0,1-1.66.523,6.332,6.332,0,0,1-2,.049,8.257,8.257,0,0,1-2.131-.576,11.577,11.577,0,0,1-2.07-1.149,11.058,11.058,0,0,1-1.742-1.605,11.69,11.69,0,0,1-1.256-1.812,11.572,11.572,0,0,1-1.246-3.5,10.957,10.957,0,0,1-.169-2.5c.011-.3.05-.523.065-.678a.978.978,0,0,1,.04-.234c.019,0-.007.327-.022.914a12.071,12.071,0,0,0,.234,2.468,11.364,11.364,0,0,0,2.512,5.2,11.049,11.049,0,0,0,1.708,1.569,11.614,11.614,0,0,0,2.026,1.129,8.167,8.167,0,0,0,2.075.574,6.24,6.24,0,0,0,1.943-.028,6.561,6.561,0,0,0,1.627-.486,8.9,8.9,0,0,0,2.083-1.328C108,374.9,108.229,374.669,108.243,374.683Z" transform="translate(-93.245 -365.264)"/></g><g transform="translate(17.68 9.002)"><path class="j" d="M101.915,337.039l5.618-3.613s14.978-6.085,16.5-6.436,3.277-1.053,4.1,0,9.361,7.255,9.361,7.255,5.032,9.478,5.032,10.765,1.4,2.935,0,3.4l-1.4.463s-.468,2.295-2.223,2.552a4.953,4.953,0,0,1-2.34,0s-.117,2.3-1.521,2.154-3.744-2.154-3.744-2.154-1.053,1.193-1.872,1.193-3.393-1.755-3.393-1.755l-4.977-4.329-4.384-1.521-2.37,1.507s-5.063.431-5.823.018S101.915,337.039,101.915,337.039Z" transform="translate(-101.915 -326.434)"/></g><g transform="translate(34.868 21.205)"><path class="k" d="M155.264,369.286a4.541,4.541,0,0,1-.258-.664c-.074-.216-.167-.48-.295-.778s-.251-.647-.432-1.013-.358-.776-.591-1.2c-.214-.429-.486-.864-.762-1.326a21.667,21.667,0,0,0-4.6-5.247c-.423-.334-.818-.66-1.216-.929-.385-.286-.762-.525-1.108-.742s-.667-.4-.948-.56-.528-.293-.733-.394a4.559,4.559,0,0,1-.625-.342,4.5,4.5,0,0,1,.661.267,8.292,8.292,0,0,1,.753.363c.288.154.623.315.97.536s.738.444,1.131.726c.406.265.809.588,1.239.921a20.651,20.651,0,0,1,4.646,5.3c.274.47.542.912.752,1.348.228.426.41.838.572,1.216s.29.727.405,1.032a8.269,8.269,0,0,1,.262.794A4.5,4.5,0,0,1,155.264,369.286Z" transform="translate(-143.693 -356.094)"/></g><g transform="translate(40.777 16.818)"><path class="k" d="M169.584,362.866a.824.824,0,0,1-.126-.18c-.074-.123-.193-.3-.32-.543a15.179,15.179,0,0,1-.914-2.13c-.327-.923-.641-2.044-1.012-3.277a17.411,17.411,0,0,0-1.582-3.848,10.064,10.064,0,0,0-2.815-3.017c-1.037-.756-2.034-1.364-2.8-1.987a7.11,7.11,0,0,1-1.589-1.689,4.174,4.174,0,0,1-.3-.558.824.824,0,0,1-.079-.205c.023-.011.138.27.446.717a7.562,7.562,0,0,0,1.614,1.616c.763.6,1.763,1.192,2.818,1.946a10.079,10.079,0,0,1,2.882,3.067,17.014,17.014,0,0,1,1.586,3.9c.362,1.24.66,2.362.967,3.285a17.971,17.971,0,0,0,.845,2.14A8.354,8.354,0,0,1,169.584,362.866Z" transform="translate(-158.053 -345.432)"/></g><g transform="translate(45.132 14.782)"><path class="k" d="M180.035,357.24a.79.79,0,0,1-.063-.2c-.038-.159-.084-.354-.14-.591-.055-.258-.128-.572-.234-.931s-.2-.775-.359-1.219-.305-.938-.516-1.45c-.188-.521-.439-1.056-.692-1.624a25.512,25.512,0,0,0-4.531-6.662c-.435-.444-.841-.875-1.256-1.24-.4-.383-.8-.713-1.159-1.012s-.705-.554-1-.782-.561-.413-.78-.56l-.5-.348a.827.827,0,0,1-.167-.134.766.766,0,0,1,.189.1l.522.315c.227.136.5.309.8.532s.663.456,1.026.761.777.618,1.184,1c.424.363.837.792,1.28,1.236a24.467,24.467,0,0,1,4.567,6.715c.25.575.5,1.117.679,1.644.2.519.358,1.015.494,1.468s.238.87.33,1.234.156.682.2.943c.041.241.074.439.1.6A.828.828,0,0,1,180.035,357.24Z" transform="translate(-168.639 -340.483)"/></g><g transform="translate(31.504 15.553)"><path class="k" d="M138.5,342.369c.006.035-.29.08-.723.267a3.468,3.468,0,0,0-2.1,2.776c-.063.467-.026.764-.061.768a1.578,1.578,0,0,1-.09-.783,3.269,3.269,0,0,1,2.2-2.9A1.574,1.574,0,0,1,138.5,342.369Z" transform="translate(-135.515 -342.356)"/></g><g transform="translate(36.044 11.597)"><path class="k" d="M149.164,332.746c.035.055-.692.515-1.408,1.278s-1.142,1.508-1.2,1.477a5.2,5.2,0,0,1,2.608-2.755Z" transform="translate(-146.552 -332.742)"/></g></g><g transform="translate(91.804 29.682)"><g transform="translate(4.627)"><g transform="translate(0.096 0.126)"><path class="j" d="M294.4,197.967c-.712.294-.856,1.144-.845,1.914.014.964.257,1.12,1.043,2.734a70.466,70.466,0,0,1,2.824,7.639s-1.261,12.631-.431,15.6a5.012,5.012,0,0,0,3.278,3.362l-1.151,9.756H312.9s-.49-9.442-.786-12.321c-.313-3.044-.1-21.457-.1-21.457l-1.354-9.831-3.191-5.518a2.488,2.488,0,0,0-.941,3.021,37.039,37.039,0,0,1,1.195,5.9l-7.978-12.007s-1.568.375-1.662,3.277a2.84,2.84,0,0,0-.828,3.96c1.667,2.737,3.4,10.958,2.792,10.958l-4.95-7.27Z" transform="translate(-293.557 -186.756)"/></g><path class="k" d="M298.984,238.787s.016-.22.062-.646.118-1.064.209-1.889c.19-1.663.469-4.1.827-7.227l.039.058a5.173,5.173,0,0,1-1.755-.973,4.755,4.755,0,0,1-1.317-1.737,6.684,6.684,0,0,1-.483-2.3q-.071-1.215-.058-2.51c.038-3.451.305-7.308.694-11.5l0,.034c-.645-2.032-1.359-4.176-2.255-6.347-.226-.542-.468-1.082-.739-1.616a13.524,13.524,0,0,1-.787-1.657,3.306,3.306,0,0,1-.1-.941,3.262,3.262,0,0,1,.137-.945,1.413,1.413,0,0,1,.576-.8,3,3,0,0,1,.442-.2l.437-.181.074-.031.045.066,5.165,7.577-.186.038a8.206,8.206,0,0,0-.025-1.9,17.486,17.486,0,0,0-.33-1.926,29.9,29.9,0,0,0-1.152-3.821c-.454-1.273-1.025-2.5-1.581-3.776a3.4,3.4,0,0,1-.223-2.1,3.1,3.1,0,0,1,1.178-1.776l-.047.076a7.616,7.616,0,0,1,.44-1.855,3.71,3.71,0,0,1,.483-.875,1.721,1.721,0,0,1,.824-.639l.067-.022.044.067.093.139,7.883,11.87-.192.071a43.3,43.3,0,0,0-.842-4.7c-.1-.38-.2-.756-.328-1.122a3.268,3.268,0,0,1-.2-1.184,2.582,2.582,0,0,1,1.166-2.011l.086-.058.054.094,3.188,5.52.009.016,0,.019q.706,5.159,1.346,9.832v.014c-.057,5.092-.088,9.752-.081,13.876,0,2.062.016,3.99.064,5.77.025.891.075,1.737.158,2.552s.119,1.59.169,2.327c.19,2.947.308,5.26.388,6.835.037.784.065,1.386.084,1.8s.019.617.019.617-.021-.209-.046-.615-.063-1.013-.111-1.8c-.1-1.575-.232-3.886-.437-6.831-.054-.736-.108-1.512-.18-2.324s-.14-1.669-.169-2.559c-.055-1.782-.072-3.711-.084-5.774-.02-4.125,0-8.785.047-13.878v.013q-.646-4.667-1.362-9.83l.012.035-3.194-5.516.14.036a2.384,2.384,0,0,0-1.066,1.847,3.064,3.064,0,0,0,.188,1.107c.129.374.237.755.334,1.139a43.51,43.51,0,0,1,.85,4.729l.06.449-.251-.379-7.887-11.867-.092-.139.111.045a1.563,1.563,0,0,0-.7.56,3.525,3.525,0,0,0-.453.824,7.435,7.435,0,0,0-.426,1.8l-.006.046-.041.031a2.894,2.894,0,0,0-1.089,1.647,3.184,3.184,0,0,0,.212,1.966c.548,1.255,1.129,2.507,1.582,3.783a30.091,30.091,0,0,1,1.159,3.849,17.638,17.638,0,0,1,.332,1.949,8.285,8.285,0,0,1,.021,1.966l-.035.261-.152-.223-5.157-7.582.118.035c-.281.125-.606.231-.85.369a1.219,1.219,0,0,0-.5.691,3.084,3.084,0,0,0-.128.888,3.126,3.126,0,0,0,.09.886,13.606,13.606,0,0,0,.772,1.624c.272.537.515,1.085.742,1.629.9,2.184,1.607,4.329,2.249,6.368l0,.016,0,.018c-.4,4.183-.674,8.039-.723,11.481q-.018,1.29.05,2.5a6.554,6.554,0,0,0,.464,2.259,4.954,4.954,0,0,0,2.985,2.659l.044.014,0,.043c-.38,3.122-.676,5.559-.878,7.221-.1.824-.182,1.455-.237,1.886S298.984,238.787,298.984,238.787Z" transform="translate(-293.324 -186.449)"/><g transform="translate(4.615 3.403)"><path class="k" d="M311.675,210.7a4.327,4.327,0,0,1-.149-.681c-.075-.441-.209-1.075-.387-1.853a30.855,30.855,0,0,0-2.037-5.886,39.522,39.522,0,0,0-3.1-5.411c-.446-.664-.817-1.2-1.075-1.561a4.266,4.266,0,0,1-.382-.583,4.368,4.368,0,0,1,.449.534c.279.351.669.87,1.132,1.525a34.728,34.728,0,0,1,3.173,5.407,27.935,27.935,0,0,1,1.99,5.943c.159.787.272,1.428.322,1.874A4.316,4.316,0,0,1,311.675,210.7Z" transform="translate(-304.542 -194.72)"/></g><g transform="translate(14.206 11.955)"><path class="k" d="M329.674,219.865a26.093,26.093,0,0,1-1.817-4.358,25.988,25.988,0,0,1,1.817,4.358Z" transform="translate(-327.852 -215.506)"/></g></g><g transform="translate(0 46.611)"><path class="f" d="M291.265,301.428h0c-2.417,21.342-5.566,44.061-9.186,67.664h28.047c5.273-11.676,2.048-21.864.642-36.384l-4.625-32.968Z" transform="translate(-282.079 -299.74)"/></g></g><g transform="translate(91.802 92.328)"><path class="g" d="M282.077,392.032a.658.658,0,0,1,.01-.139c.012-.1.029-.236.05-.4.051-.369.122-.89.213-1.554.2-1.361.48-3.308.828-5.708.71-4.83,1.687-11.48,2.767-18.826,1.058-7.357,1.952-14.025,2.542-18.859.3-2.416.527-4.373.68-5.726.078-.666.139-1.188.183-1.557l.053-.4a.667.667,0,0,1,.026-.137.746.746,0,0,1,0,.139l-.032.406c-.034.371-.081.894-.142,1.562-.128,1.356-.332,3.316-.613,5.736-.551,4.84-1.422,11.513-2.48,18.871s-2.082,14.005-2.829,18.818l-.9,5.7c-.108.662-.193,1.181-.253,1.548l-.071.4A.7.7,0,0,1,282.077,392.032Z" transform="translate(-282.075 -338.716)"/></g></g><g transform="translate(78.504 158.325)"><g transform="translate(0 0.032)"><g transform="translate(30.336)"><path class="l" d="M315.366,382.634H235.387l10.32-56.131a4.2,4.2,0,0,1,4.126-3.437H321.7a4.2,4.2,0,0,1,4.12,4.984Z" transform="translate(-235.387 -323.066)"/></g><g transform="translate(0 55.566)"><path class="l" d="M191.99,462.124H161.654l.122-.091a16.4,16.4,0,0,1,9.354-3.273l21.694-.638Z" transform="translate(-161.654 -458.122)"/></g></g><g transform="translate(33.233)"><path class="g" d="M258.743,323.1c0,.021-.223-.041-.647-.044a3.975,3.975,0,0,0-1.777.441,5.471,5.471,0,0,0-2.131,1.939,10.3,10.3,0,0,0-1.306,3.628c-.261,1.419-.491,3-.774,4.678s-.6,3.478-.952,5.364c-.7,3.772-1.522,7.908-2.42,12.243-1.807,8.669-3.478,16.506-4.571,22.2-.55,2.847-.974,5.156-1.262,6.752l-.334,1.837c-.039.2-.07.353-.095.477a.681.681,0,0,1-.042.161.7.7,0,0,1,.012-.166l.065-.481.279-1.847c.252-1.6.645-3.918,1.169-6.772,1.04-5.709,2.68-13.557,4.486-22.224.9-4.334,1.731-8.465,2.442-12.233.361-1.883.678-3.677.978-5.355s.534-3.247.811-4.677a10.372,10.372,0,0,1,1.373-3.678,5.536,5.536,0,0,1,2.221-1.953,3.9,3.9,0,0,1,1.828-.4A2.354,2.354,0,0,1,258.743,323.1Z" transform="translate(-242.43 -322.989)"/></g><g transform="translate(75.589 24.686)"><path class="e" d="M353.113,386.856a3.867,3.867,0,1,1-3.867-3.867A3.867,3.867,0,0,1,353.113,386.856Z" transform="translate(-345.379 -382.989)"/></g></g><g transform="translate(20.38 217.882)"><path class="g" d="M208.5,467.854c0,.059-42.115.107-94.055.107-51.958,0-94.065-.048-94.065-.107s42.107-.107,94.065-.107C166.385,467.747,208.5,467.8,208.5,467.854Z" transform="translate(-20.38 -467.747)"/></g><g transform="translate(81.871 53.453)"><g transform="translate(0 0)"><g transform="translate(4.206)"><path class="m" d="M190.97,85.255l-1.1-10.331-5.27,1.19-4.54-8.021,2.829,10.846,5.345-1.226Z" transform="translate(-180.062 -68.091)"/></g><g transform="translate(0 14.076)"><path class="m" d="M182.808,107.344l-4.9-5.04-2.308,2.833-5.765-2.374,6.033,4.591,2.333-2.884Z" transform="translate(-169.838 -102.303)"/></g></g><g transform="translate(65.896 13.24)"><path class="m" d="M330,110.6l4.45-8.1,3.914,2.786,6.48-5.02L338.8,108.2l-3.964-2.842Z" transform="translate(-330.004 -100.272)"/><g transform="translate(8.167 12.988)"><path class="m" d="M349.854,133.8l4.6-1.963.737,2.5,4.438.026-5.224,1.356-.739-2.535Z" transform="translate(-349.854 -131.84)"/></g></g></g></g></g></svg>