<svg xmlns="http://www.w3.org/2000/svg" width="83.514" height="80.28" viewBox="0 0 83.514 80.28">
  <path id="Path_38828" data-name="Path 38828" d="M40.46,9.28c-.01-.07-.02-.13-.03-.22l-.03-.11a1.425,1.425,0,0,1-.05-.16l-.1-.2-.22-.22V8.31a.435.435,0,0,0-.07-.06l-.06-.04-.07-.07L4.79-15.97a10.626,10.626,0,0,0-6.08-1.87,10.617,10.617,0,0,0-6.07,1.87L-42.3,8.05h0a1.331,1.331,0,0,0-.153.11l-.015.011-.03.02-.015.02c-.021.019-.043.042-.066.065l-.039.035v.007a1.588,1.588,0,0,0-.424,1.1c0,.018,0,.028,0,.045V55.89a6.551,6.551,0,0,0,6.54,6.55H33.93a6.551,6.551,0,0,0,6.54-6.55ZM-5.64-13.47a7.669,7.669,0,0,1,4.36-1.35,7.693,7.693,0,0,1,4.36,1.35L36.28,9.36,1.56,33.24a5.04,5.04,0,0,1-2.85.87,5.032,5.032,0,0,1-2.84-.87L-38.85,9.36ZM37.44,55.89a3.517,3.517,0,0,1-3.51,3.52H-36.5a3.517,3.517,0,0,1-3.51-3.52V12.24L-5.85,35.73a8.02,8.02,0,0,0,4.56,1.4,8.029,8.029,0,0,0,4.57-1.4L37.44,12.24Z" transform="translate(43.044 17.84)" fill="#dcdd5d"/>
</svg>
