<svg xmlns="http://www.w3.org/2000/svg" width="31.158" height="22.605" viewBox="0 0 31.158 22.605">
  <g id="Group_21144" data-name="Group 21144" transform="translate(323.949 -389.612)">
    <path id="Path_38552" data-name="Path 38552" d="M-295.082,395.632h-.212c-6.093-.023-8.59-.047-14.682-.07h-.49v-.452c0-1.494,0-2.988,0-4.481a.857.857,0,0,0-.9-.945q-2.628-.043-5.256-.071a.88.88,0,0,0-.956.864.857.857,0,0,0,.92.857q1.023.032,2.046.042c.787.007,1.573,0,2.423,0v.672q0,6.916,0,13.83c0,.761.314,1.072,1.072,1.072,5.5,0,7.414,0,12.919,0,.648,0,.875-.173,1.077-.793l1.233-3.784q.884-2.712,1.767-5.425A.92.92,0,0,0-295.082,395.632Zm-1.35,2.664q-1.062,3.284-2.123,6.565c-.069.216-.152.323-.41.322-4.9-.008-6.21-.006-11.112-.007-.093,0-.187-.008-.325-.016v-7.808h14.264C-296.248,397.7-296.337,398-296.432,398.3Z" transform="translate(1.261)"/>
    <path id="Path_38553" data-name="Path 38553" d="M-315.423,403.047c.6,0,.948-.318.937-.815-.011-.482-.362-.775-.937-.775H-319.2q-1.9,0-3.808,0a.835.835,0,0,0-.945.778.823.823,0,0,0,.911.814Q-319.23,403.054-315.423,403.047Z" transform="translate(0 2.347)"/>
    <path id="Path_38554" data-name="Path 38554" d="M-322.038,399.961c1.293.01,2.586,0,3.877,0h0c1.282,0,2.563,0,3.844,0a.792.792,0,0,0,.887-.787.79.79,0,0,0-.882-.791c-.787,0-1.574,0-2.363,0-1.774,0-3.549,0-5.323,0a.817.817,0,0,0-.775.389A.783.783,0,0,0-322.038,399.961Z" transform="translate(0.209 1.738)"/>
    <path id="Path_38555" data-name="Path 38555" d="M-314.444,404.451c-.986-.008-1.972,0-2.958,0s-2-.006-2.994,0a.794.794,0,0,0-.839.8.8.8,0,0,0,.84.77q2.96.005,5.918,0a.942.942,0,0,0,.341-.061.784.784,0,0,0,.485-.848A.783.783,0,0,0-314.444,404.451Z" transform="translate(0.538 2.94)"/>
    <path id="Path_38556" data-name="Path 38556" d="M-303.554,405.466a1.8,1.8,0,0,0-1.794,1.832,1.786,1.786,0,0,0,1.807,1.777,1.8,1.8,0,0,0,1.8-1.826A1.816,1.816,0,0,0-303.554,405.466Z" transform="translate(3.686 3.142)"/>
    <path id="Path_38557" data-name="Path 38557" d="M-310.749,405.466a1.822,1.822,0,0,0-1.831,1.806,1.8,1.8,0,0,0,1.791,1.8,1.784,1.784,0,0,0,1.821-1.762A1.8,1.8,0,0,0-310.749,405.466Z" transform="translate(2.253 3.142)"/>
  </g>
</svg>
