<svg id="Group_96" data-name="Group 96" xmlns="http://www.w3.org/2000/svg" width="35" height="35" viewBox="0 0 35 35">
  <g id="Ellipse_5" data-name="Ellipse 5" fill="#fff" stroke="#dadada" stroke-width="1">
    <circle cx="17.5" cy="17.5" r="17.5" stroke="none"/>
    <circle cx="17.5" cy="17.5" r="17" fill="none"/>
  </g>
  <g id="Group_97" data-name="Group 97" transform="translate(8.512 8.512)">
    <path id="Path_58" data-name="Path 58" d="M0,0H17.977V17.977H0Z" fill="none"/>
    <path id="Path_59" data-name="Path 59" d="M9.49,7.243A2.247,2.247,0,1,0,11.737,9.49,2.247,2.247,0,0,0,9.49,7.243Zm0-1.5A3.745,3.745,0,1,1,5.745,9.49,3.745,3.745,0,0,1,9.49,5.745Zm4.869-.187a.936.936,0,1,1-.936-.936A.936.936,0,0,1,14.359,5.558ZM9.49,3.5c-1.853,0-2.156.005-3.018.043a4.069,4.069,0,0,0-1.347.249A2.337,2.337,0,0,0,3.789,5.126a4.063,4.063,0,0,0-.248,1.347C3.5,7.3,3.5,7.588,3.5,9.49c0,1.853.005,2.156.043,3.018a4.085,4.085,0,0,0,.248,1.346A2.329,2.329,0,0,0,5.124,15.19a4.078,4.078,0,0,0,1.348.249c.827.039,1.116.043,3.018.043,1.853,0,2.156-.005,3.018-.043a4.093,4.093,0,0,0,1.346-.248,2.188,2.188,0,0,0,.809-.526,2.166,2.166,0,0,0,.527-.809,4.1,4.1,0,0,0,.249-1.348c.039-.827.043-1.116.043-3.018,0-1.853-.005-2.156-.043-3.018a4.077,4.077,0,0,0-.249-1.347,2.18,2.18,0,0,0-.527-.809,2.16,2.16,0,0,0-.809-.527,4.067,4.067,0,0,0-1.347-.248C11.681,3.5,11.392,3.5,9.49,3.5Zm0-1.5c2.035,0,2.289.007,3.087.045a5.518,5.518,0,0,1,1.819.348,3.652,3.652,0,0,1,1.327.864,3.676,3.676,0,0,1,.864,1.327A5.533,5.533,0,0,1,16.936,6.4c.035.8.045,1.052.045,3.087s-.007,2.289-.045,3.087a5.537,5.537,0,0,1-.348,1.819A3.824,3.824,0,0,1,14.4,16.587a5.533,5.533,0,0,1-1.819.348c-.8.035-1.052.045-3.087.045S7.2,16.973,6.4,16.936a5.537,5.537,0,0,1-1.819-.348A3.824,3.824,0,0,1,2.393,14.4a5.514,5.514,0,0,1-.348-1.819C2.01,11.779,2,11.525,2,9.49S2.007,7.2,2.045,6.4a5.514,5.514,0,0,1,.348-1.819A3.824,3.824,0,0,1,4.584,2.393,5.514,5.514,0,0,1,6.4,2.045C7.2,2.01,7.455,2,9.49,2Z" transform="translate(-0.502 -0.502)" fill="#505050"/>
  </g>
</svg>
