<svg xmlns="http://www.w3.org/2000/svg" width="94" height="95" viewBox="0 0 94 95">
  <g id="Group_13065" data-name="Group 13065" transform="translate(-296 -3061)">
    <ellipse id="Ellipse_568" data-name="Ellipse 568" cx="47" cy="47.5" rx="47" ry="47.5" transform="translate(296 3061)" fill="#f7f7f7"/>
    <g id="Group_20884" data-name="Group 20884" transform="translate(80.08 2766.229)">
      <path id="Path_38229" data-name="Path 38229" d="M310.743,417.39a7.416,7.416,0,0,1-4.887-1.632.752.752,0,0,1-.051-1.063.752.752,0,0,1,1.064-.051,6.67,6.67,0,0,0,7.748,0,.753.753,0,1,1,1.013,1.114A7.416,7.416,0,0,1,310.743,417.39Z" transform="translate(-47.823 -58.189)" fill="#67a746"/>
      <path id="Path_38230" data-name="Path 38230" d="M340.732,390.756a1.2,1.2,0,0,1-1.2-1.2v-1.816a1.2,1.2,0,1,1,2.4,0v1.816A1.2,1.2,0,0,1,340.732,390.756Z" transform="translate(-69.533 -40.326)" fill="#67a746"/>
      <path id="Path_38231" data-name="Path 38231" d="M293.8,390.756a1.2,1.2,0,0,1-1.2-1.2v-1.816a1.2,1.2,0,1,1,2.4,0v1.816A1.2,1.2,0,0,1,293.8,390.756Z" transform="translate(-39.494 -40.326)" fill="#67a746"/>
      <path id="Path_38232" data-name="Path 38232" d="M262.748,365.014a18.23,18.23,0,0,1-16.606-11.027l-.033-.079-.085-.008a7.271,7.271,0,0,1-6.919-7.119c0-2.964,1.855-5.034,4.511-5.034.058,0,.116,0,.174.005l.189.008.006-.144a18.992,18.992,0,0,1,.207-2.071l.044-.284-.254.134a10.049,10.049,0,0,1-4.7,1,9.488,9.488,0,0,1-7.683-3.925,3.011,3.011,0,0,1-.573-2.764c.457-1.088,1.5-1.117,2.265-1.138,1.105-.031,2.149-.06,3.069-2.058l.025-.055c1.412-3.067,3.012-6.543,8.193-6.543a5.607,5.607,0,0,1,4.185,1.572,5.7,5.7,0,0,1,1.428,2.683l.057.231.178-.157a18.9,18.9,0,0,1,24.977,0l.178.157.057-.231a5.7,5.7,0,0,1,1.428-2.683,5.607,5.607,0,0,1,4.185-1.572c5.18,0,6.781,3.476,8.193,6.543l.025.055c.921,2,1.964,2.027,3.07,2.058.763.021,1.809.05,2.266,1.138a3.009,3.009,0,0,1-.573,2.764,9.488,9.488,0,0,1-7.683,3.925,10.048,10.048,0,0,1-4.7-1l-.254-.134.044.284a18.946,18.946,0,0,1,.207,2.08l.006.129.129.009c2.5.167,4.179,2.183,4.179,5.018a7.267,7.267,0,0,1-6.687,7.093l-.084.01-.032.077A18.224,18.224,0,0,1,262.748,365.014Zm-19.132-21.762c-2.076,0-3,1.772-3,3.528,0,1.5,1.086,5.45,6.042,5.654l.037.005a.817.817,0,0,1,.116.016l.091.031a.318.318,0,0,1,.045.017c.012.005.115.065.128.074s.067.057.067.057a.5.5,0,0,1,.041.037.294.294,0,0,1,.024.029l.035.046a.38.38,0,0,1,.031.041.691.691,0,0,1,.048.1l.022.043a16.514,16.514,0,0,0,30.832-.021l.021-.04a.745.745,0,0,1,.041-.082.447.447,0,0,1,.031-.044s.046-.061.056-.072a.571.571,0,0,1,.043-.041c.04-.036.051-.046.064-.055a.594.594,0,0,1,.06-.037c.04-.024.052-.031.065-.037a.487.487,0,0,1,.055-.021c.056-.02.067-.025.08-.028a.754.754,0,0,1,.1-.016l.047-.008c4.61-.292,5.83-3.818,5.83-5.642,0-1.756-.929-3.528-3-3.528-.108,0-.221.011-.333.022a.958.958,0,0,1-.282.062l-.1,0c-.2.006-.4.013-.6.013a20.519,20.519,0,0,1-14.52-5.884l-.111-.112-.1.12a20.207,20.207,0,0,1-15.5,6.96,17.774,17.774,0,0,1-5.164-.938l-.422-.122A3.55,3.55,0,0,0,243.616,343.252Zm19.3-18.219a17.57,17.57,0,0,0-17.437,16.937l0,.112.107.031a15.764,15.764,0,0,0,4.526.816,18.713,18.713,0,0,0,14.961-7.18.713.713,0,0,1,.087-.093.739.739,0,0,1,.271-.166l.054-.013a.8.8,0,0,1,.088-.021l.132-.006.086.011a.581.581,0,0,1,.071.011.45.45,0,0,1,.06.022l.057.021a.7.7,0,0,1,.148.085.225.225,0,0,1,.032.029l.05.046.043.05.025.038.017,0a18.825,18.825,0,0,0,13.911,6.08h.152l-.007-.151A17.41,17.41,0,0,0,262.92,325.033Zm18.336.384a4.174,4.174,0,0,0-3.1,1.109,4.909,4.909,0,0,0-1.211,3.164v.028l.019.049a18.887,18.887,0,0,1,3.953,6.777l.021.044c.04.091,1.075,2.3,5.613,2.3a8.036,8.036,0,0,0,6.429-3.254,1.821,1.821,0,0,0,.439-1.346.222.222,0,0,0-.089-.118,2.321,2.321,0,0,0-.824-.1,4.364,4.364,0,0,1-4.4-2.934l-.025-.054C286.68,328.044,285.471,325.418,281.256,325.418Zm-48.85,8.917a2,2,0,0,0,.453,1.3,8.036,8.036,0,0,0,6.429,3.254c4.55,0,5.578-2.221,5.62-2.315a19.007,19.007,0,0,1,3.949-6.785l.019-.021.019-.048a4.926,4.926,0,0,0-1.211-3.192,4.175,4.175,0,0,0-3.1-1.109c-4.216,0-5.425,2.626-6.825,5.667l-.025.054a4.358,4.358,0,0,1-4.395,2.934,2.092,2.092,0,0,0-.846.109l-.142.1Z" transform="translate(0 0)" fill="#67a746"/>
    </g>
  </g>
</svg>
