<svg id="Group_11404" data-name="Group 11404" xmlns="http://www.w3.org/2000/svg" width="62.036" height="62.029" viewBox="0 0 62.036 62.029">
  <path id="Path_28772" data-name="Path 28772" d="M352.073,403.642q-4.483-3.506-8.99-6.979a1.171,1.171,0,0,1-.528-1.051c.027-2.3.014-4.6.012-6.9,0-2.345-1.241-3.578-3.593-3.578-3.39,0-6.782.008-10.172-.014a1.754,1.754,0,0,1-.977-.334c-1.294-.963-2.556-1.971-3.834-2.956a3.1,3.1,0,0,0-4.2-.008c-1.278.987-2.54,2-3.834,2.958a1.765,1.765,0,0,1-.975.34c-3.41.025-6.823.012-10.233.014-2.3,0-3.544,1.252-3.546,3.566s-.014,4.6.01,6.9a1.174,1.174,0,0,1-.514,1.057c-3.023,2.325-6.024,4.68-9.047,7a1.82,1.82,0,0,0-.782,1.589c.016,11.266.037,22.531-.012,33.8-.01,1.983.629,3.353,2.567,3.986H350.35a3.6,3.6,0,0,0,2.542-2.544V404.506A7.642,7.642,0,0,0,352.073,403.642Zm-30.864-20.309a.93.93,0,0,1,1.178-.1c.793.573,1.559,1.182,2.427,1.846h-5.848C319.775,384.445,320.488,383.884,321.209,383.333Zm-26.933,57.6c2.624-2.04,5.123-3.984,7.624-5.926l18.877-14.668c1.024-.795,1.188-.795,2.2-.006q12.954,10.062,25.905,20.125c.168.131.33.272.571.475Zm56.515-1.649c-.213-.152-.387-.268-.553-.4q-13.03-10.118-26.053-20.248a3.267,3.267,0,0,0-3.245-.783,5.38,5.38,0,0,0-1.438.869q-12.99,10.072-25.967,20.159c-.16.123-.322.242-.545.41V406.424c.188.135.356.248.518.373l15.924,12.364c.854.664,1.475.709,1.9.141s.219-1.118-.653-1.8q-8.105-6.3-16.208-12.591c-.156-.119-.3-.25-.5-.418,2.394-1.864,4.748-3.693,7.2-5.6.014.289.033.492.033.694q0,3.3,0,6.6c0,.141,0,.283,0,.424.029.776.414,1.25,1.026,1.262.633.012,1.038-.471,1.038-1.29q.009-6.63,0-13.263c0-1.575-.006-3.15,0-4.725,0-1.024.373-1.4,1.383-1.4q17.23,0,34.457,0c1.03,0,1.383.373,1.383,1.458q0,8.781,0,17.564a6.094,6.094,0,0,0,.027.725,1,1,0,0,0,1.983.084,3.547,3.547,0,0,0,.057-.721q.006-3.331,0-6.663v-.778l7.257,5.641c-.883.688-1.706,1.327-2.532,1.968q-7.147,5.552-14.3,11.1a3.577,3.577,0,0,0-.549.473.952.952,0,0,0-.049,1.276,1,1,0,0,0,1.294.291,4.123,4.123,0,0,0,.543-.383l15.971-12.4c.17-.131.348-.252.584-.424Z" transform="translate(-290.857 -381)" fill="#67a746"/>
  <path id="Path_28773" data-name="Path 28773" d="M326.91,388.367a1.025,1.025,0,0,0-1.024-1.024h-25.6a1.024,1.024,0,0,0,0,2.048h25.6A1.023,1.023,0,0,0,326.91,388.367Z" transform="translate(-282.05 -374.351)" fill="#67a746"/>
  <path id="Path_28774" data-name="Path 28774" d="M313.058,390.316H300.282a1.024,1.024,0,1,0,0,2.048h12.775a1.024,1.024,0,0,0,0-2.048Z" transform="translate(-282.05 -371.234)" fill="#67a746"/>
</svg>
