<svg xmlns="http://www.w3.org/2000/svg" width="22.019" height="22.024" viewBox="0 0 22.019 22.024">
  <path id="Path_28775" data-name="Path 28775" d="M665.141,561.409a.957.957,0,0,1-.526-.531q-1.886-3.906-3.789-7.8a.706.706,0,0,0-.3-.3q-3.888-1.9-7.785-3.778a.974.974,0,0,1-.551-.536v-.3a1.012,1.012,0,0,1,.634-.529q10.18-4.066,20.357-8.142a.784.784,0,0,1,.663-.043.65.65,0,0,1,.307.875c-.206.534-.422,1.064-.635,1.6q-3.773,9.43-7.543,18.862a1.012,1.012,0,0,1-.529.634Zm-4.114-9.834,9.73-9.73-16.326,6.531Zm10.742-8.778-.028-.015c-.036.032-.075.063-.109.1q-4.76,4.759-9.522,9.516c-.1.1-.089.178-.033.293q1.06,2.171,2.11,4.346l1.033,2.131Z" transform="translate(-652.189 -539.385)" fill="#67a746"/>
</svg>
