<svg xmlns="http://www.w3.org/2000/svg" width="94" height="95" viewBox="0 0 94 95">
  <g id="Group_13065" data-name="Group 13065" transform="translate(-296 -3061)">
    <ellipse id="Ellipse_568" data-name="Ellipse 568" cx="47" cy="47.5" rx="47" ry="47.5" transform="translate(296 3061)" fill="#f7f7f7"/>
    <path id="Path_38239" data-name="Path 38239" d="M288.55,112.791c-.08-4.61-3.137-5.407-6.67-6.326-.488-.127-.988-.259-1.492-.4l-.112-.033-.078.088a15.215,15.215,0,0,1-2.2,2.041,16.034,16.034,0,0,1-19.051,0,15.219,15.219,0,0,1-2.2-2.041l-.078-.088-.112.033c-.5.145-1,.276-1.492.4-3.533.919-6.59,1.716-6.67,6.326h-1.5c.087-5.767,4.177-6.832,7.79-7.772,4-1.041,7.773-2.024,7.967-8.451l0-.1-.086-.058a16.006,16.006,0,0,1-6.385-10.073l-.027-.124-.125-.021c-1.641-.268-2.832-2.036-2.832-4.2s1.191-3.935,2.832-4.2l.125-.021.13-.554-.079-.073a6.416,6.416,0,0,1-1.7-3.346,7.249,7.249,0,0,1,1.8-6.264c2.51-2.85,4.613-3.133,9.165-3.133a11.646,11.646,0,0,0,3.17-.451,8.94,8.94,0,0,1,2.258-.366,5.874,5.874,0,0,1,1.575.221c2.485.681,3.482,3.757,3.728,4.685l.045.168.172-.033a5.478,5.478,0,0,1,1.034-.1,4.5,4.5,0,0,1,.573.035,5.558,5.558,0,0,1,4.426,3.692,6.761,6.761,0,0,1-.786,5.567l-.1.169.174.092a4.372,4.372,0,0,1,1.993,3.916c0,2.166-1.191,3.934-2.832,4.2l-.125.021-.027.124a16.007,16.007,0,0,1-6.385,10.073l-.086.058,0,.1c.193,6.427,3.969,7.41,7.967,8.451,3.613.94,7.7,2.005,7.79,7.772ZM264.109,97.534c-.448,5.157-3.243,6.919-5.628,7.878l-.264.106.2.2a13.586,13.586,0,0,0,1.425,1.243,14.539,14.539,0,0,0,17.262,0,13.685,13.685,0,0,0,1.424-1.243l.2-.2-.264-.106c-2.385-.959-5.18-2.721-5.628-7.878l-.022-.257-.237.1a10.331,10.331,0,0,1-8.211,0l-.237-.1Zm-6.6-12.231c1.168,6.625,5.777,11.433,10.962,11.433s9.793-4.808,10.962-11.433l.128-.73.828.141c1.036,0,1.853-1.223,1.853-2.727,0-1.376-.726-2.6-1.618-2.721l-.091-.012-.152.156a1.043,1.043,0,0,1-.083.087l-.653.6-.48-.747c-.878-1.369-1.423-2.316-1.95-3.232-.3-.518-.557-.965-.853-1.46a10.767,10.767,0,0,1-1.2-3.187l-.057-.274-.231.158c-2.071,1.419-4.756,1.507-7.354,1.593a16.1,16.1,0,0,0-5.643.82,6.873,6.873,0,0,0-4.023,3.4c-.144.523-.257,1.011-.343,1.5l-.129.734-.9-.157c-.962,0-1.777,1.28-1.777,2.74,0,1.486.809,2.743,1.766,2.743l.915-.157ZM277.405,70a3.659,3.659,0,0,0-.783.086l-.165.036.02.168a9.719,9.719,0,0,0,1.172,3.594c.318.531.591,1.006.865,1.482.381.661.76,1.321,1.257,2.126l.146.237.164-.225a5.467,5.467,0,0,0,.968-4.784,4.089,4.089,0,0,0-3.2-2.693A3.5,3.5,0,0,0,277.405,70Zm-11.931-4.117c-4.572,0-5.995.309-8.036,2.626a5.689,5.689,0,0,0-1.451,4.993,5.562,5.562,0,0,0,.815,2.025l.154.228.155-.226a8.3,8.3,0,0,1,4.183-3.143,17.424,17.424,0,0,1,6.178-.937c2.876-.1,5.593-.184,7.347-2l.069-.072-.021-.1c-.125-.583-.848-3.518-2.778-4.046a4.414,4.414,0,0,0-1.179-.166,7.612,7.612,0,0,0-1.888.318,13.168,13.168,0,0,1-3.459.5Z" transform="translate(74.525 3020.317)" fill="#67a746"/>
  </g>
</svg>
