<svg xmlns="http://www.w3.org/2000/svg" width="55.149" height="72.243" viewBox="0 0 55.149 72.243"><defs><style>.a{fill:#67a746;}</style></defs><path class="a" d="M188.7,228.945a5.933,5.933,0,0,1,2.7,1.435,4.884,4.884,0,0,1,.948,5.486c-2.13,5.518-4.241,11.042-6.381,16.556a1.606,1.606,0,0,0,.007,1.329c1.6,3.783,3.164,7.581,4.741,11.374.09.215.194.425.372.818a35.809,35.809,0,0,0,2.519-2.722,42.808,42.808,0,0,1,5.533-6.566,25.374,25.374,0,0,1,3.87-2.913,4.463,4.463,0,0,1,5.8.989,3.523,3.523,0,0,1-.079,4.868,35.219,35.219,0,0,0-6.541,9.881c-1.724,3.518-3.435,7.045-5.266,10.508a22.089,22.089,0,0,1-4.719,5.938,8.075,8.075,0,0,0-2.675,6.206c-.015,1.693-.017,3.385-.036,5.078a3.668,3.668,0,0,1-4.012,3.974q-6,.006-11.99,0c-2.187,0-4.373.005-6.56,0a3.625,3.625,0,0,1-3.922-3.905c-.009-2.562-.05-5.127.017-7.688a8.187,8.187,0,0,0-.912-3.927,33.966,33.966,0,0,1-3.08-7.768c-.374-1.713-.514-3.477-.773-5.215a3.817,3.817,0,0,0-.266-1.006c-.963-2.115-1.974-4.208-2.918-6.332a4.8,4.8,0,0,1,3.259-6.843,12.173,12.173,0,0,1,1.414-.141c-.107-.275-.212-.545-.319-.814a4.8,4.8,0,0,1,8.672-4.089c.55,1.036,1.038,2.106,1.5,3.184.445,1.033,1.416.977,2.249,1.088.772.1,1.041-.575,1.275-1.187.511-1.338,1.059-2.662,1.529-4.013a1.876,1.876,0,0,0,.008-1.188c-1.722-4.567-3.485-9.12-5.226-13.68a4.828,4.828,0,0,1,2.375-6.374,4.71,4.71,0,0,1,6.28,2.207c.789,1.753,1.425,3.575,2.13,5.364.084.213.176.421.323.771.247-.615.448-1.1.636-1.583.643-1.664,1.348-3.308,1.906-5a5.566,5.566,0,0,1,4.2-4.1ZM162.13,280c.611,1.31,1.192,2.637,1.84,3.929a11.779,11.779,0,0,1,1.463,5.935c-.11,2.417-.027,4.842-.024,7.264,0,1.254.4,1.654,1.636,1.655q9.206,0,18.41,0c1.2,0,1.6-.406,1.614-1.611.019-1.645.041-3.291.049-4.937a10.457,10.457,0,0,1,3.469-8.095,20.489,20.489,0,0,0,4.427-5.63c1.732-3.3,3.354-6.667,4.975-10.027a36.953,36.953,0,0,1,6.683-10.212,3.479,3.479,0,0,0,.393-.5,1.1,1.1,0,0,0-.137-1.526,2.2,2.2,0,0,0-2.7-.47,15.618,15.618,0,0,0-2.1,1.408,35,35,0,0,0-6.34,7.153,14.152,14.152,0,0,1-4.593,4.31,47.5,47.5,0,0,1-4.524,1.911,4.723,4.723,0,0,0-3.19,4.022c-.095.9-.572,1.4-1.3,1.351s-1.172-.6-1.091-1.509a6.946,6.946,0,0,1,4.477-5.993c1.082-.483,2.236-.808,3.393-1.218-.123-.322-.211-.559-.305-.794q-4.53-11.23-9.052-22.463c-1.194-2.985-2.3-6-3.467-9a2.383,2.383,0,0,0-2.617-1.687,2.44,2.44,0,0,0-1.835,3.537q3.458,9.043,6.929,18.08c.773,2.017,1.558,4.029,2.313,6.051a1.2,1.2,0,1,1-2.24.854c-.066-.151-.118-.307-.176-.46-.754-1.962-1.509-3.923-2.317-6.023-.377.957-.679,1.792-1.033,2.6a3.512,3.512,0,0,1-3.282,2.259l-.588.03c.127.289.215.5.312.71.932,2.027,1.917,4.03,2.788,6.082a4.778,4.778,0,0,1-3.582,6.626,11.057,11.057,0,0,1-1.167.1c.97,3.155.554,5.08-1.4,6.473A5.141,5.141,0,0,1,162.13,280Zm10.33-11.187c-.163-.458-.29-.934-.493-1.374q-2.831-6.132-5.685-12.254a5.024,5.024,0,0,0-.394-.744,2.255,2.255,0,0,0-2.305-1.041,2.107,2.107,0,0,0-1.954,1.756,3.652,3.652,0,0,0,.268,1.95c1.881,4.168,3.827,8.307,5.754,12.454a4.549,4.549,0,0,0,.365.682,2.369,2.369,0,0,0,2.667.928A2.54,2.54,0,0,0,172.46,268.812Zm-4.526,7.474a13.25,13.25,0,0,0-.466-1.381c-1.45-3.157-2.919-6.3-4.382-9.454-.494-1.064-.963-2.142-1.49-3.19a2.4,2.4,0,0,0-3.678-.937,2.435,2.435,0,0,0-.613,3.111q2.691,5.817,5.4,11.622a15.74,15.74,0,0,0,.744,1.515,2.365,2.365,0,0,0,2.7,1.011A2.6,2.6,0,0,0,167.933,276.285Zm16.472-26.564c.144-.333.242-.542.325-.759q1.63-4.233,3.252-8.47c.778-2.036,1.593-4.061,2.3-6.119a2.344,2.344,0,0,0-1.971-3.11,2.4,2.4,0,0,0-2.568,1.658c-.948,2.4-1.87,4.807-2.8,7.214a8.879,8.879,0,0,0-1,2.9A9.383,9.383,0,0,0,182.959,246C183.419,247.205,183.9,248.409,184.405,249.721Zm-8.577,46.589c.517,0,1.035.017,1.549-.016a1.192,1.192,0,0,0,1.242-1.173,1.216,1.216,0,0,0-1.214-1.209,4.21,4.21,0,0,0-.492-.015c-2.466,0-4.931,0-7.4,0a3.048,3.048,0,0,0-.9.1,1.075,1.075,0,0,0-.787,1.124,1.086,1.086,0,0,0,.825,1.1,3.086,3.086,0,0,0,.837.08c1.245.007,2.49,0,3.734,0Q174.524,296.31,175.828,296.31Zm5.243-1.2c0,.823.56,1.2,1.778,1.2s1.777-.372,1.778-1.2-.561-1.211-1.776-1.212S181.072,294.285,181.071,295.106Z" transform="translate(-154.597 -228.945)"/></svg>