<svg xmlns="http://www.w3.org/2000/svg" width="80.001" height="80.001" viewBox="0 0 80.001 80.001">
  <g id="Group_13062" data-name="Group 13062" transform="translate(223.745 -224.07)">
    <path id="Path_36" data-name="Path 36" d="M-183.742,224.07a40.045,40.045,0,0,0-40,40,40.049,40.049,0,0,0,40,40,40.044,40.044,0,0,0,40-40A40.041,40.041,0,0,0-183.742,224.07Zm0,77.257A37.3,37.3,0,0,1-221,264.068a37.3,37.3,0,0,1,37.259-37.254,37.294,37.294,0,0,1,37.254,37.254A37.3,37.3,0,0,1-183.742,301.327Z" transform="translate(0 0)" fill="#fff"/>
    <g id="Group_49" data-name="Group 49" transform="translate(-190.942 251.681)">
      <path id="Path_37" data-name="Path 37" d="M-134.324,292.839-150.992,282.5a2.043,2.043,0,0,0-3.12,1.736v20.685a2.043,2.043,0,0,0,3.12,1.736l16.667-10.342A2.044,2.044,0,0,0-134.324,292.839Z" transform="translate(154.112 -282.187)" fill="#fff"/>
    </g>
  </g>
</svg>
