<svg xmlns="http://www.w3.org/2000/svg" width="80.001" height="80.001" viewBox="0 0 80.001 80.001">
  <g id="Group_13026" data-name="Group 13026" transform="translate(223.745 -224.07)">
    <path id="Path_36" data-name="Path 36" d="M-183.742,224.07a40.045,40.045,0,0,0-40,40,40.049,40.049,0,0,0,40,40,40.044,40.044,0,0,0,40-40A40.041,40.041,0,0,0-183.742,224.07Zm0,77.257A37.3,37.3,0,0,1-221,264.068a37.3,37.3,0,0,1,37.259-37.254,37.294,37.294,0,0,1,37.254,37.254A37.3,37.3,0,0,1-183.742,301.327Z" transform="translate(0 0)" fill="#fff"/>
    <g id="Group_13029" data-name="Group 13029" transform="translate(-200.744 247.071)">
      <path id="Path_37948" data-name="Path 37948" d="M0,0H34V34H0Z" fill="none"/>
      <path id="Path_37949" data-name="Path 37949" d="M4.8,15.935H9a2.793,2.793,0,0,1,2.8,2.787V25.69A2.793,2.793,0,0,1,9,28.477H4.8A2.793,2.793,0,0,1,2,25.69V15.935a13.991,13.991,0,0,1,27.982,0V25.69a2.793,2.793,0,0,1-2.8,2.787h-4.2a2.793,2.793,0,0,1-2.8-2.787V18.722a2.793,2.793,0,0,1,2.8-2.787h4.2a11.193,11.193,0,0,0-22.385,0Z" transform="translate(1.009 1.009)" fill="#fff"/>
    </g>
  </g>
</svg>
