<svg xmlns="http://www.w3.org/2000/svg" width="202.564" height="130.237" viewBox="0 0 202.564 130.237">
  <g id="Group_21572" data-name="Group 21572" transform="translate(-159.426 -102.9)">
    <g id="Group_21577" data-name="Group 21577" transform="translate(159.426 102.9)">
      <g id="Group_21574" data-name="Group 21574" transform="translate(0 83.387)">
        <path id="Path_41805" data-name="Path 41805" d="M215.681,204.866h-4.713a4.4,4.4,0,0,1-3.267-1.26,4.468,4.468,0,0,1-1.259-3.267v-18.2c0-2.147-.653-3.733-1.96-4.666a7.041,7.041,0,0,0-4.34-1.447,6.725,6.725,0,0,0-4.293,1.447,5.572,5.572,0,0,0-1.867,4.666v22.771H184.6v-20.9q0-9.1,4.76-12.179a20.862,20.862,0,0,1,10.5-3.36,20.123,20.123,0,0,1,10.825,3.08c3.313,2.053,4.946,6.206,4.946,12.459l.047,20.858Z" transform="translate(-149 -159.136)"/>
        <path id="Path_41806" data-name="Path 41806" d="M190.457,190c0,6.253-1.68,10.406-4.946,12.459a20.127,20.127,0,0,1-10.826,3.08,20.861,20.861,0,0,1-10.5-3.36q-4.76-3.08-4.76-12.179V169.1h9.333v22.771c0,2.147.607,3.686,1.867,4.666a6.724,6.724,0,0,0,4.292,1.447,7.139,7.139,0,0,0,4.34-1.447,5.466,5.466,0,0,0,1.913-4.666v-18.2a4.579,4.579,0,0,1,1.26-3.313,4.5,4.5,0,0,1,3.313-1.26h4.713V190Z" transform="translate(-159.426 -158.876)"/>
        <path id="Path_41807" data-name="Path 41807" d="M293.011,161.869h4.573a4.278,4.278,0,0,1,3.22,1.4,4.518,4.518,0,0,1,1.353,3.127v23.891c0,7.373-2.053,12.506-5.507,15.073-3.733,2.847-7.653,3.36-11.9,3.36a21.066,21.066,0,0,1-6.813-1.12,11.347,11.347,0,0,1-5.366-3.686c-2.567-3.313-3.92-7.84-3.92-13.533,0-5.6,1.307-10.125,3.92-13.531a13,13,0,0,1,16.193-3.873,13.061,13.061,0,0,1,4.293,4.153l-.047-15.259Zm-15.259,28.137c0,3.547.653,6.3,2.007,8.166a6.7,6.7,0,0,0,5.786,2.8,6.537,6.537,0,0,0,5.6-2.8c1.26-1.867,1.867-4.62,1.867-8.166A12.836,12.836,0,0,0,291,182.355a7.007,7.007,0,0,0-5.786-2.66,6.429,6.429,0,0,0-5.506,2.8A12.608,12.608,0,0,0,277.752,190.006Z" transform="translate(-114.198 -161.869)"/>
        <g id="Group_21573" data-name="Group 21573" transform="translate(71.767 9.473)">
          <path id="Path_41808" data-name="Path 41808" d="M210.178,169.1h4.806a4.553,4.553,0,0,1,3.22,1.307,4.407,4.407,0,0,1,1.353,3.22v31.031h-9.38V169.1Z" transform="translate(-210.178 -168.349)"/>
          <path id="Path_41809" data-name="Path 41809" d="M240.458,204.7H230.94l-12.413-35.6h9.893l7.093,25.011,6.252-21.791a4.2,4.2,0,0,1,4.293-3.22h6.953Z" transform="translate(-206.721 -168.349)"/>
          <path id="Path_41810" data-name="Path 41810" d="M268.617,193.952h6.718a14.566,14.566,0,0,1-5.645,8.586,17.04,17.04,0,0,1-10.453,3.08c-5.086,0-9.053-1.68-11.9-4.946-2.847-3.22-4.293-7.793-4.293-13.766,0-5.692,1.4-10.171,4.153-13.391,2.847-3.313,6.813-4.946,11.9-4.946,5.366,0,9.473,1.633,12.458,4.806,2.847,3.313,4.293,7.886,4.293,13.765v1.447a2.15,2.15,0,0,1-.14.933H252.565c.093,2.753.747,4.806,2.007,6.16a6.419,6.419,0,0,0,5.226,2.147,7.8,7.8,0,0,0,3.873-.933,1.827,1.827,0,0,0,.747-.467l.747-.747c.093-.28.42-.607,1.027-1.073A3.754,3.754,0,0,1,268.617,193.952ZM252.611,183.5h13.626a8.72,8.72,0,0,0-1.867-5.366,6.541,6.541,0,0,0-4.946-1.867,6.655,6.655,0,0,0-4.806,1.867A7.48,7.48,0,0,0,252.611,183.5Z" transform="translate(-196.568 -168.568)"/>
        </g>
      </g>
      <g id="Group_21575" data-name="Group 21575" transform="translate(194.584 83.433)">
        <path id="Path_41811" data-name="Path 41811" d="M305.011,165.775a3.992,3.992,0,1,1-3.967-3.873A3.856,3.856,0,0,1,305.011,165.775Zm-7,0a3.011,3.011,0,1,0,6.02,0,3.012,3.012,0,1,0-6.02,0Zm2.427,2.007h-.887v-3.873a10.15,10.15,0,0,1,1.493-.14,1.918,1.918,0,0,1,1.307.327,1.059,1.059,0,0,1,.42.84,1.04,1.04,0,0,1-.793.933v.047c.373.093.56.42.7.933a6.15,6.15,0,0,0,.28.933h-.933a4.809,4.809,0,0,1-.327-.933.7.7,0,0,0-.793-.607h-.42l-.047,1.54Zm0-2.193h.42c.513,0,.887-.187.887-.56s-.28-.607-.84-.607a1.451,1.451,0,0,0-.513.047l.047,1.12Z" transform="translate(-297.031 -161.901)"/>
      </g>
      <g id="Group_21576" data-name="Group 21576" transform="translate(63.974)">
        <path id="Path_41812" data-name="Path 41812" d="M264.63,158.943h0c0-28.279-26.224-26.319-29.957-56.043h-.047c-3.267,29.164-29.959,27.251-29.959,56.043h0a29.994,29.994,0,0,0,59.963,0Z" transform="translate(-204.667 -102.9)" fill="#67a845"/>
        <path id="Path_41813" data-name="Path 41813" d="M259.214,155.476h0c0-24.732-23.938-25.339-25.8-45.217h-.047C231.87,130.137,207.6,130.37,207.6,155.476h0a25.808,25.808,0,0,0,51.61,0Z" transform="translate(-203.451 -99.853)" fill="#93b93e"/>
        <path id="Path_41814" data-name="Path 41814" d="M254.327,153.03h0c0-21.092-20.624-22.072-22.024-36.864h0c-1.12,14.885-21.979,15.445-21.979,36.864h-.047a22.032,22.032,0,0,0,44.05,0Z" transform="translate(-202.344 -97.407)" fill="#c0ca31"/>
        <path id="Path_41815" data-name="Path 41815" d="M248.839,150.9h0c.42-18.013-17.218-18.946-17.778-29.819h0c-.607,10.873-18.2,11.759-17.779,29.819h0a17.784,17.784,0,0,0,35.557,0Z" transform="translate(-201.103 -95.371)" fill="#dddd5d"/>
        <path id="Path_41816" data-name="Path 41816" d="M216.414,144.043a18.165,18.165,0,0,0-.327,4.013h0c0,.327.047.607.047.887l5.833-.933Zm.187-.887,12.879,9.286V140.683l-7.7-5.553A17.17,17.17,0,0,0,216.6,143.157Zm27.157,3.92a18.964,18.964,0,0,0-.513-3.826l-3.453,7.186Zm-.887-4.946a15.529,15.529,0,0,0-3.407-5.506l-9.191,7.793v14.091l7.978-6.812Zm-12.551,17.5v2.053A13.747,13.747,0,0,0,243.8,148.15Zm0-32.8v16.519l8.632-7.326C235.593,132.7,231.534,130.51,230.32,126.824Zm-14.093,22.959a13.77,13.77,0,0,0,13.3,11.9v-8.212l-6.626-4.76Zm6.206-15.166,7.093,5.086V126.917C228.407,130,225.374,132.05,222.434,134.617Z" transform="translate(-199.942 -92.994)" fill="#fff"/>
      </g>
    </g>
  </g>
</svg>
