<svg xmlns="http://www.w3.org/2000/svg" width="31.889" height="39.505" viewBox="0 0 31.889 39.505">
  <g id="Group_20688" data-name="Group 20688" transform="translate(0.25 0.25)">
    <path id="Path_38101" data-name="Path 38101" d="M178.341,156.438h-2.96v-1.469a.628.628,0,1,0-1.256,0v1.469h-6.167v-1.469a.628.628,0,0,0-1.256,0v1.469h-6.167v-1.469a.628.628,0,0,0-1.256,0v1.469h-2.959a4.689,4.689,0,0,0-4.684,4.684v27.539a4.69,4.69,0,0,0,4.684,4.684h22.02a4.69,4.69,0,0,0,4.684-4.684V161.122A4.689,4.689,0,0,0,178.341,156.438Zm3.429,32.223a3.433,3.433,0,0,1-3.429,3.429h-22.02a3.432,3.432,0,0,1-3.429-3.429v-24.69H181.77Zm0-25.946H152.893v-1.594a3.432,3.432,0,0,1,3.429-3.429h2.959v1.469a.628.628,0,0,0,1.256,0v-1.469H166.7v1.469a.628.628,0,0,0,1.256,0v-1.469h6.167v1.469a.628.628,0,0,0,1.256,0v-1.469h2.96a3.433,3.433,0,0,1,3.429,3.429Z" transform="translate(-151.637 -154.341)" fill="#fff" stroke="#fff" stroke-width="0.5"/>
    <path id="Path_38102" data-name="Path 38102" d="M200.367,285.063a.628.628,0,0,0,.888,0l2.794-2.794a.628.628,0,1,0-.888-.888l-2.35,2.35-1.025-1.026a.628.628,0,0,0-.888.888Z" transform="translate(-193.788 -267.925)" fill="#fff" stroke="#fff" stroke-width="0.5"/>
    <path id="Path_38103" data-name="Path 38103" d="M280.177,298.8h12.059a.628.628,0,0,0,0-1.256H280.177a.628.628,0,0,0,0,1.256Z" transform="translate(-266.166 -282.565)" fill="#fff" stroke="#fff" stroke-width="0.5"/>
    <path id="Path_38104" data-name="Path 38104" d="M200.367,358.58a.628.628,0,0,0,.888,0l2.794-2.794a.628.628,0,1,0-.888-.888l-2.35,2.35-1.025-1.025a.628.628,0,1,0-.888.888Z" transform="translate(-193.788 -333.75)" fill="#fff" stroke="#fff" stroke-width="0.5"/>
    <path id="Path_38105" data-name="Path 38105" d="M280.177,372.322h12.059a.628.628,0,0,0,0-1.256H280.177a.628.628,0,1,0,0,1.256Z" transform="translate(-266.166 -348.39)" fill="#fff" stroke="#fff" stroke-width="0.5"/>
    <path id="Path_38106" data-name="Path 38106" d="M280.177,445.838h12.059a.628.628,0,0,0,0-1.256H280.177a.628.628,0,1,0,0,1.256Z" transform="translate(-266.166 -414.214)" fill="#fff" stroke="#fff" stroke-width="0.5"/>
    <path id="Path_38107" data-name="Path 38107" d="M203.944,424.638h-4.174a.628.628,0,0,0-.628.628v4.174a.628.628,0,0,0,.628.628h4.174a.628.628,0,0,0,.628-.628v-4.174A.628.628,0,0,0,203.944,424.638Zm-.628,4.174H200.4v-2.918h2.918Z" transform="translate(-194.173 -396.357)" fill="#fff" stroke="#fff" stroke-width="0.5"/>
  </g>
</svg>
