<svg xmlns="http://www.w3.org/2000/svg" width="80.833" height="67.506" viewBox="0 0 80.833 67.506"><defs><style>.a{fill:#abbfa0;}</style></defs><g transform="translate(-503.001 -4074)"><path class="a" d="M25.871,30.592a21.5,21.5,0,0,0-5.921-.861,18.6,18.6,0,0,0-7.419,1.519c1.863-6.831,6.347-18.614,15.273-19.939a2.123,2.123,0,0,0,1.731-1.528l1.95-6.976A2.117,2.117,0,0,0,29.731.137a14.6,14.6,0,0,0-2-.137C17.02,0,6.408,11.183,1.932,27.2-.7,36.591-1.467,50.718,5.005,59.606c3.627,4.977,8.91,7.63,15.712,7.9H20.8a18.807,18.807,0,0,0,5.072-36.914Zm0,0" transform="translate(503.001 4074)"/><path class="a" d="M37.179,39.473a18.881,18.881,0,0,0-11.307-8.881,21.487,21.487,0,0,0-5.916-.861,18.621,18.621,0,0,0-7.424,1.519C14.4,24.419,18.878,12.636,27.8,11.311a2.119,2.119,0,0,0,1.731-1.528l1.949-6.976A2.117,2.117,0,0,0,29.734.137a14.6,14.6,0,0,0-2-.137C17.023,0,6.412,11.183,1.933,27.2c-2.63,9.394-3.4,23.521,3.076,32.409,3.623,4.977,8.91,7.634,15.712,7.9H20.8A18.808,18.808,0,0,0,37.179,39.473Zm0,0" transform="translate(544.23 4074)"/></g></svg>