<svg id="Group_13065" data-name="Group 13065" xmlns="http://www.w3.org/2000/svg" width="94" height="95" viewBox="0 0 94 95">
  <ellipse id="Ellipse_568" data-name="Ellipse 568" cx="47" cy="47.5" rx="47" ry="47.5" fill="#f7f7f7"/>
  <path id="Path_38240" data-name="Path 38240" d="M424.7,200.61a.72.72,0,0,1-.72-.72V189.418a12.511,12.511,0,0,1,10.861-12.382l.453-.06-.281-.36a9.008,9.008,0,0,1-1.871-5.522,9.166,9.166,0,0,1,.454-2.839,8.684,8.684,0,0,1,1.314-2.526L435,165.6l-.063-.141a5.379,5.379,0,0,1-.488-2.224c0-3.284,2.966-5.956,6.61-5.956s6.61,2.672,6.61,5.956a5.4,5.4,0,0,1-.488,2.224l-.063.141.092.123a8.7,8.7,0,0,1,1.314,2.525,9.174,9.174,0,0,1,.454,2.84,9.007,9.007,0,0,1-1.872,5.522l-.28.36.453.06a12.316,12.316,0,0,1,5.318,2.02l.225.149.143-.229a9.865,9.865,0,0,1,8.064-4.66l.253-.007v-.6a1.728,1.728,0,0,1,.022-.234l.009-.068-.012-.178a9.057,9.057,0,0,1-.674-3.446c0-4.728,3.552-8.573,7.919-8.573s7.919,3.846,7.919,8.573a9.089,9.089,0,0,1-.674,3.448l-.025.064.022.181a1.728,1.728,0,0,1,.022.234v.6l.253.007a9.834,9.834,0,0,1,9.564,9.867V199.89a.72.72,0,0,1-.72.72Zm53.666-14.682a.72.72,0,0,1,.72.72V199.17h5.1V184.182a8.412,8.412,0,0,0-8.1-8.426l-.272-.01v.582a.708.708,0,0,1-.51.673l-.2.063.035.377a1.387,1.387,0,0,1,.02.2,5.962,5.962,0,0,1-5.956,5.956H467.9a5.962,5.962,0,0,1-5.956-5.956,1.442,1.442,0,0,1,.018-.2l.035-.373-.2-.063a.709.709,0,0,1-.509-.673v-.582l-.272.01a8.407,8.407,0,0,0-6.936,4.161,8.013,8.013,0,0,0-.495.962,8.111,8.111,0,0,0-.363,1.058,8.394,8.394,0,0,0-.312,2.245V199.17h5.1V186.647a.768.768,0,0,1,.72-.72.72.72,0,0,1,.72.72V199.17h18.194V186.647A.721.721,0,0,1,478.368,185.927Zm-47.121,5.236a.72.72,0,0,1,.72.72v7.287h19.5l-.1-15.807-.406,1.426a8.546,8.546,0,0,1-7.939,5.35H439.1a8.583,8.583,0,0,1-8.574-8.574V180.1l-.412.289a11.037,11.037,0,0,0-4.692,9.033v9.752h5.1v-7.287A.721.721,0,0,1,431.246,191.163Zm4.894-12.788a10.9,10.9,0,0,0-4.017.887l-.157.068v2.234A7.142,7.142,0,0,0,439.1,188.7h3.927a7.142,7.142,0,0,0,7.134-7.134V179.33l-.158-.068a10.924,10.924,0,0,0-4.03-.889l-.27-.008v1.89a4.646,4.646,0,1,1-9.292,0v-1.89Zm1.708,1.881a3.208,3.208,0,0,0,6.415,0v-1.318l-.364.151a7.248,7.248,0,0,1-5.687-.005l-.364-.153Zm25.557-2.891a1.855,1.855,0,0,0-.025.274,4.522,4.522,0,0,0,4.516,4.516h1.309a4.521,4.521,0,0,0,4.516-4.516,1.88,1.88,0,0,0-.022-.259l-.031-.226-.241-.1h-2.258a2.223,2.223,0,0,1-.3-.027,3.444,3.444,0,0,1-1.674-.631,3.252,3.252,0,0,1-.456-.4l-.192-.207-.191.207a3.334,3.334,0,0,1-2.026,1.02,3.05,3.05,0,0,1-.4.042h-2.49Zm-28.63-7.965a7.633,7.633,0,0,0-.191,1.694,7.4,7.4,0,0,0,2.7,5.767,6.189,6.189,0,0,0,1.9,1.025,5.342,5.342,0,0,0,3.759,0,6.211,6.211,0,0,0,1.9-1.025,7.4,7.4,0,0,0,2.7-5.767,7.628,7.628,0,0,0-.19-1.694l-.046-.2H434.821Zm34.5,4.312a1.076,1.076,0,0,0,.05.292,2.067,2.067,0,0,0,.365.849,1.949,1.949,0,0,0,.4.381,1.853,1.853,0,0,0,1.084.376h3.207v-1.9a1.908,1.908,0,0,0-1.9-1.9h-3.207Zm-4.647-1.9a1.9,1.9,0,0,0-1.742,1.151,1.858,1.858,0,0,0-.156.747v1.9h3.207a1.844,1.844,0,0,0,1.083-.376,1.883,1.883,0,0,0,.4-.381,1.859,1.859,0,0,0,.344-.76,1.441,1.441,0,0,0,.072-.381v-1.9Zm3.927-9.163c-3.572,0-6.479,3.2-6.479,7.134a7.824,7.824,0,0,0,.1,1.13l.065.445.355-.276a3.284,3.284,0,0,1,2.03-.709h7.854a3.286,3.286,0,0,1,2.03.709l.355.275.065-.444a7.819,7.819,0,0,0,.1-1.13C475.03,165.851,472.124,162.651,468.551,162.651Zm-27.487,1.309a6.12,6.12,0,0,0-4.088,1.627,7.038,7.038,0,0,0-.7.733,7.222,7.222,0,0,0-.6.846c-.076.11-.1.154-.131.2l-.216.389H446.8l-.222-.4-.075-.118a7.824,7.824,0,0,0-.648-.919,6.76,6.76,0,0,0-.7-.734A6.122,6.122,0,0,0,441.064,163.959Zm0-5.236c-2.851,0-5.17,2.026-5.17,4.516a4.012,4.012,0,0,0,.09.787l.085.419.335-.266a7.373,7.373,0,0,1,9.321,0l.335.264.084-.418a4.017,4.017,0,0,0,.09-.787C446.234,160.75,443.914,158.724,441.064,158.724Z" transform="translate(-407.806 -133.947)" fill="#67a746"/>
</svg>
