<svg xmlns="http://www.w3.org/2000/svg" width="26.396" height="24.091" viewBox="0 0 26.396 24.091">
  <g id="Group_21693" data-name="Group 21693" transform="translate(-315.121 -476.385)">
    <path id="Path_41854" data-name="Path 41854" d="M322.005,491.871h15.487a.86.86,0,0,0,.836-.651l.667-2.687a.881.881,0,0,0-.663-1.086.861.861,0,0,0-1,.635l-.512,2.069H322.677l-2.15-8.6h8.9a.861.861,0,1,0,0-1.722H320.1l-.7-2.788a.859.859,0,0,0-.835-.653h-2.581a.862.862,0,0,0-.857.945.89.89,0,0,0,.9.775h1.872l3.278,13.114A.857.857,0,0,0,322.005,491.871Z" transform="translate(0)" fill="#231f20"/>
    <path id="Path_41855" data-name="Path 41855" d="M334.765,492.585a3.442,3.442,0,1,0,3.442,3.442A3.442,3.442,0,0,0,334.765,492.585Zm0,5.162a1.721,1.721,0,1,1,1.72-1.721A1.72,1.72,0,0,1,334.765,497.747Z" transform="translate(1.008 1.008)" fill="#231f20"/>
    <path id="Path_41856" data-name="Path 41856" d="M323.425,492.585a3.442,3.442,0,1,0,3.442,3.442A3.441,3.441,0,0,0,323.425,492.585Zm0,5.162a1.721,1.721,0,1,1,1.721-1.721A1.721,1.721,0,0,1,323.425,497.747Z" transform="translate(0.302 1.008)" fill="#231f20"/>
    <path id="Path_41857" data-name="Path 41857" d="M339.615,479.827h-2.582v-2.581a.86.86,0,0,0-.86-.86h0a.86.86,0,0,0-.86.86v2.581H332.73a.86.86,0,0,0,0,1.721h2.581v2.582a.86.86,0,0,0,.86.859h0a.859.859,0,0,0,.86-.859v-2.582h2.582a.86.86,0,1,0,0-1.721Z" transform="translate(1.042)" fill="#231f20"/>
  </g>
</svg>
