<svg id="Group_21583" data-name="Group 21583" xmlns="http://www.w3.org/2000/svg" width="35" height="35" viewBox="0 0 35 35">
  <g id="Ellipse_5" data-name="Ellipse 5" fill="#fff" stroke="#dadada" stroke-width="1">
    <circle cx="17.5" cy="17.5" r="17.5" stroke="none"/>
    <circle cx="17.5" cy="17.5" r="17" fill="none"/>
  </g>
  <g id="Group_93" data-name="Group 93" transform="translate(9 9)">
    <path id="Path_54" data-name="Path 54" d="M0,0H18V18H0Z" fill="none"/>
    <path id="Path_55" data-name="Path 55" d="M17.066,5.164a6.288,6.288,0,0,1-1.8.493,3.147,3.147,0,0,0,1.38-1.735,6.268,6.268,0,0,1-1.992.761,3.136,3.136,0,0,0-5.344,2.86A8.9,8.9,0,0,1,2.843,4.266a3.141,3.141,0,0,0,.97,4.188,3.126,3.126,0,0,1-1.42-.392V8.1a3.139,3.139,0,0,0,2.516,3.076,3.157,3.157,0,0,1-1.417.054,3.139,3.139,0,0,0,2.93,2.179,6.3,6.3,0,0,1-4.643,1.3,8.872,8.872,0,0,0,4.807,1.41,8.864,8.864,0,0,0,8.925-8.925c0-.135,0-.271-.01-.4a6.372,6.372,0,0,0,1.565-1.624Z" transform="translate(-0.445 -0.922)" fill="#505050"/>
  </g>
</svg>
