<svg xmlns="http://www.w3.org/2000/svg" width="35" height="35" viewBox="0 0 35 35">
  <g id="Group_21586" data-name="Group 21586" transform="translate(-1501 -1193.301)">
    <g id="Ellipse_2931" data-name="Ellipse 2931" transform="translate(1501 1193.301)" fill="#fff" stroke="#dadada" stroke-width="1">
      <circle cx="17.5" cy="17.5" r="17.5" stroke="none"/>
      <circle cx="17.5" cy="17.5" r="17" fill="none"/>
    </g>
    <g id="Group_21585" data-name="Group 21585" transform="translate(1509.475 1201.775)">
      <path id="Path_41821" data-name="Path 41821" d="M0,0H18.051V18.051H0Z" fill="none"/>
      <path id="Path_41822" data-name="Path 41822" d="M5.951,14.405l.545.318A6.015,6.015,0,1,0,4.32,12.548l.317.545L4.146,14.9l1.805-.493ZM2,17.042,3.02,13.306a7.518,7.518,0,1,1,2.718,2.717Zm4.8-11.05a2.547,2.547,0,0,1,.3,0c.041,0,.081.008.122.012a.379.379,0,0,1,.3.187q.336.763.653,1.534a.456.456,0,0,1-.07.4,3.294,3.294,0,0,1-.2.28c-.085.109-.268.309-.268.309a.241.241,0,0,0-.046.2.665.665,0,0,0,.077.154l.044.071a4.765,4.765,0,0,0,.767.954c.09.087.178.177.273.26a4.52,4.52,0,0,0,1.181.752l0,0,.19.083a1.08,1.08,0,0,0,.144.05.263.263,0,0,0,.276-.1,8.782,8.782,0,0,1,.6-.7v0a.363.363,0,0,1,.284-.1.389.389,0,0,1,.133.03c.4.183,1.053.468,1.053.468l.438.2a.253.253,0,0,1,.143.2,1.452,1.452,0,0,1-.01.281,2.1,2.1,0,0,1-.141.551.869.869,0,0,1-.158.227,1.789,1.789,0,0,1-.248.217l-.094.068q-.14.089-.288.165a1.5,1.5,0,0,1-.627.173,3.877,3.877,0,0,1-.418.011l-.427-.065A7.106,7.106,0,0,1,7.9,11.328c-.17-.15-.327-.311-.488-.471A7.152,7.152,0,0,1,5.934,8.795a2.61,2.61,0,0,1-.249-1.063A2.053,2.053,0,0,1,6.11,6.468a1.779,1.779,0,0,1,.2-.229.957.957,0,0,1,.221-.171.723.723,0,0,1,.279-.075Z" transform="translate(-0.496 -0.496)" fill="#666"/>
    </g>
  </g>
</svg>
