<svg xmlns="http://www.w3.org/2000/svg" width="94" height="95" viewBox="0 0 94 95">
  <g id="Group_13065" data-name="Group 13065" transform="translate(-296 -3061)">
    <ellipse id="Ellipse_568" data-name="Ellipse 568" cx="47" cy="47.5" rx="47" ry="47.5" transform="translate(296 3061)" fill="#f7f7f7"/>
    <path id="Path_38238" data-name="Path 38238" d="M197.374,292.235c-.118-3.244-3.422-4.721-7.236-6.426-.554-.248-1.115-.5-1.674-.76l-.189-.088-1.931,6.211h-17.11l-1.931-6.21-.19.088c-.559.261-1.119.511-1.67.758-3.816,1.706-7.119,3.183-7.238,6.427h-1.459c.058-2.146,1.143-3.85,3.4-5.35l.208-.138-.194-.157a7.53,7.53,0,0,1-3.119-7.349l.167-.9.844.37a7.25,7.25,0,0,0,2.83.713,2.74,2.74,0,0,0,1.521-.4,3.061,3.061,0,0,0,1.188-2.623,9.98,9.98,0,0,0-1.266-3.947A22.665,22.665,0,0,1,159.771,262a22.164,22.164,0,0,1,2.006-9.884c3.011-6.69,7.983-10.24,14.38-10.264a8.876,8.876,0,0,1,6.461,2.96l.078.09.114-.036a7.28,7.28,0,0,1,2.215-.346,8.81,8.81,0,0,1,1.772.191c6.989,1.432,8.443,11.075,8.5,11.486l.088.6a20.041,20.041,0,0,1-2.042,13.681c-.136.261-.282.527-.434.8-.8,1.449-1.625,2.945-1.259,4.457a4.123,4.123,0,0,0,1.961,2.828,2.582,2.582,0,0,0,1.034.2,5.936,5.936,0,0,0,2.826-.924l.741-.424.3.8c1.388,3.66.385,6.687-2.823,8.522l-.25.143.236.165c2.091,1.458,3.1,3.109,3.152,5.186Zm-22.959-14.566c-.544,3.446-3.308,5.319-5.655,6.565l-.133.071,1.681,5.409h14.963l1.681-5.409-.134-.071c-2.346-1.247-5.111-3.121-5.654-6.566l-.033-.211-.2.066a10,10,0,0,1-6.278,0l-.2-.066Zm15.2-20.37c.056.212.112.426.16.643l.027.121.121.019c1.6.261,2.764,1.985,2.764,4.1s-1.162,3.838-2.762,4.1l-.123.02-.026.121c-1.017,4.706-3.616,8.484-7.13,10.364l-.107.057.011.119c.337,4.008,4.148,5.711,8.182,7.514,1.174.524,2.146.964,3.1,1.462l.076.04.08-.033c3.028-1.283,4.2-3.374,3.487-6.217l-.053-.21-.2.088a6.419,6.419,0,0,1-2.579.618,4.041,4.041,0,0,1-1.6-.322,5.431,5.431,0,0,1-2.8-3.825c-.5-2.065.555-3.971,1.4-5.5.155-.282.291-.528.416-.768a18.53,18.53,0,0,0,1.893-12.794l-.089-.611c-.446-3.119-2.556-9.279-7.351-10.264a7.332,7.332,0,0,0-1.482-.163,6.112,6.112,0,0,0-2.333.479l-.662.259-.275-.656a7.322,7.322,0,0,0-5.563-2.748c-5.8.024-10.325,3.276-13.083,9.405A20.806,20.806,0,0,0,161.229,262a21.406,21.406,0,0,0,2.421,9.834,11.1,11.1,0,0,1,1.4,4.56,4.5,4.5,0,0,1-1.848,3.843,4.173,4.173,0,0,1-2.316.634,7.494,7.494,0,0,1-2.266-.392l-.243-.078.005.255c.056,2.66,2.069,4.418,3.265,5.229l.09.061.1-.05c.975-.508,2.013-.972,3.017-1.421,4.034-1.8,7.845-3.506,8.182-7.514l.01-.119-.106-.057c-3.514-1.878-6.113-5.657-7.13-10.364l-.025-.121-.123-.02c-1.6-.262-2.762-1.987-2.762-4.1s1.162-3.839,2.764-4.1l.122-.019.026-.121c.076-.345.165-.682.26-1.015l.063-.223-.231-.009c-.482-.02-.969-.047-1.463-.089l.133-1.452c.826.07,1.663.106,2.488.106,6.8,0,12.049-2.366,13.716-4.705l.891-1.251.405,1.482c.74,2.705,4.181,4.751,8.031,4.788l.009,1.455c-.057,0-.333-.022-.333-.022l-.246-.008ZM167.1,265.418c1.139,6.462,5.637,11.153,10.694,11.153s9.556-4.691,10.695-11.153l.127-.719.879.158c.939,0,1.735-1.25,1.735-2.675,0-1.451-.788-2.675-1.722-2.675l-.893.153-.126-.714a16.048,16.048,0,0,0-.5-2.03l-.033-.1-.107-.021a9.54,9.54,0,0,1-6.6-4.231l-.113-.2-.169.155c-2.7,2.478-7.746,4.088-13.16,4.2l-.13,0-.039.125a15.956,15.956,0,0,0-.534,2.107l-.126.714-.807-.138c-1,0-1.809,1.218-1.809,2.661s.789,2.677,1.723,2.677l.892-.159Z" transform="translate(165.063 2841.456)" fill="#67a746"/>
  </g>
</svg>
