<svg xmlns="http://www.w3.org/2000/svg" width="1001.855" height="594.166" viewBox="0 0 1001.855 594.166">
  <g id="Group_141" data-name="Group 141" transform="translate(-659.595 -386.862)">
    <path id="Path_42" data-name="Path 42" d="M1405.063,572.269a234.176,234.176,0,0,0-35.048,2.63A353.137,353.137,0,0,0,1050.9,373.848c-194.956,0-353.015,157.4-353.015,351.563a349.189,349.189,0,0,0,82.624,226h800.94a228.689,228.689,0,0,0,54.838-148.883C1636.287,675.359,1532.766,572.269,1405.063,572.269Z" transform="translate(25.163 13.014)" fill="#fff" opacity="0.4"/>
    <g id="Group_143" data-name="Group 143" transform="translate(659.595 551.853)">
      <path id="Path_43" data-name="Path 43" d="M848.626,672.848s-33.7-.607-48.817-60.058c-16.315-64.176-23.628-141.674-62.688-139.329s-49.817,53.3-37.262,106.89c11.025,47.048,53.008,145.073,159.915,142.1Z" transform="translate(-636.406 -473.409)" fill="#fad6c0"/>
      <g id="Group_142" data-name="Group 142" transform="translate(0 50.995)">
        <path id="Path_44" data-name="Path 44" d="M820.959,732.6a1.737,1.737,0,0,1-.29-.025c-22.284-4.06-40.42-16.317-53.907-36.435-40.036-59.725-27.421-171.207-23.28-190.682a1.612,1.612,0,1,1,3.154.671c-4.1,19.255-16.6,129.428,22.8,188.218,12.982,19.366,30.413,31.16,51.807,35.056a1.611,1.611,0,0,1-.287,3.2Z" transform="translate(-607.872 -504.181)" fill="#d1876d"/>
        <g id="Group_141-2" data-name="Group 141" transform="translate(0 83.797)">
          <path id="Path_45" data-name="Path 45" d="M916.117,816.431c-32.028,11.905-85.706,23.892-122.095,6.461s-34.683-39.885-24.765-51.321,17.992-23.776-6.833-38.626-64.731-38.712-85.905-83.211-22.526-74.974-3.8-89.45c18.173-14.043,26.9-.186,46.313,28.079s41.39-4.65,67.477-.328,29.466,23.723,34.683,39.885,14.139,18.945,27.675,15.9,28.822,1.729,32.34,17.356Z" transform="translate(-659.595 -554.747)" fill="#d2886c"/>
          <path id="Path_46" data-name="Path 46" d="M888.048,736.973a1.707,1.707,0,0,1-.463.04c-1.521-.08-37.921-2.341-97.916-36.841C725.758,663.423,684.343,596.09,683.934,595.416a1.708,1.708,0,0,1,2.917-1.776c.406.671,41.388,67.27,104.52,103.572,59.193,34.037,96.027,36.368,96.392,36.39a1.708,1.708,0,0,1,.285,3.371Z" transform="translate(-643.764 -529.723)" fill="#751f08"/>
          <path id="Path_47" data-name="Path 47" d="M771.448,697.87a1.709,1.709,0,0,1-1.791-.713c-16.87-25.075-32.5-83.27-33.157-85.733a1.713,1.713,0,0,1,1.211-2.091,1.783,1.783,0,0,1,2.088,1.211c.161.6,16.141,60.108,32.689,84.705a1.705,1.705,0,0,1-.464,2.37A1.678,1.678,0,0,1,771.448,697.87Z" transform="translate(-609.093 -518.899)" fill="#751f08"/>
          <path id="Path_48" data-name="Path 48" d="M767.191,696.076a85.465,85.465,0,0,1-9.3,1.607,1.707,1.707,0,0,1-1.874-1.523,1.685,1.685,0,0,1,1.525-1.871c.317-.042,32.106-3.507,43.08-21.227a1.707,1.707,0,1,1,2.9,1.795C795.5,687.828,778.049,693.635,767.191,696.076Z" transform="translate(-596.232 -477.523)" fill="#751f08"/>
        </g>
      </g>
    </g>
    <rect id="Rectangle_14" data-name="Rectangle 14" width="858.785" height="17.583" rx="5.305" transform="translate(746.869 963.445)" fill="#cb433e"/>
    <path id="Path_49" data-name="Path 49" d="M871.692,436.164s-26.631,36.821-28.515,95.023-32.008,107.82-56.817,130.265l151.215,4.135,5.906-202.326Z" transform="translate(83.308 53.967)" fill="#291306"/>
    <g id="Group_184" data-name="Group 184" transform="translate(1349.508 685.689)">
      <g id="Group_175" data-name="Group 175">
        <g id="Group_149" data-name="Group 149" transform="translate(86.32 49.249)">
          <g id="Group_148" data-name="Group 148">
            <path id="Path_51" data-name="Path 51" d="M1145.349,729.49s43.784-50.395,60.308-100.788,8.674-44.611,8.674-44.611-22.306,48.953-39.24,72.6S1128,715.032,1128,715.032Z" transform="translate(-1128 -583.888)" fill="#a86142"/>
          </g>
        </g>
        <g id="Group_151" data-name="Group 151" transform="translate(73.244 55.994)">
          <g id="Group_150" data-name="Group 150">
            <path id="Path_52" data-name="Path 52" d="M1141.808,589.267a2.551,2.551,0,0,1,4.75,1.622c-2.67,17.7-8.44,59.241-8.213,86.182.295,35-.012,48.529-.012,48.529h-18.224s3.236-72.351,7.353-94.41C1130.35,615.722,1136.477,598.552,1141.808,589.267Z" transform="translate(-1120.109 -587.959)" fill="#a86142"/>
          </g>
        </g>
        <g id="Group_153" data-name="Group 153" transform="translate(52.178 49.754)">
          <g id="Group_152" data-name="Group 152">
            <path id="Path_53" data-name="Path 53" d="M1140.228,722.194a193.039,193.039,0,0,1-15-54.412c-1.5-12.883,1.177-30.293,5.159-53.529a144.192,144.192,0,0,0,2.305-25.756,4.348,4.348,0,0,0-8.165-2.038c-2.2,3.924-8.564,17.331-10.182,25.736-4.411,22.94-9.411,34.411-5.588,56.175s17.941,55.294,17.941,55.294Z" transform="translate(-1107.397 -584.193)" fill="#d1876d"/>
          </g>
        </g>
        <g id="Group_156" data-name="Group 156" transform="translate(0 21.857)">
          <g id="Group_155" data-name="Group 155">
            <g id="Group_154" data-name="Group 154">
              <path id="Path_54" data-name="Path 54" d="M1144.505,734.727s-48.073-103.312-51.406-118.64-14.661-50.645-15.994-48.647-3.331,20.659,5.331,41.983,45.652,128.45,45.652,128.45h16.416" transform="translate(-1075.911 -567.359)" fill="#a86142"/>
            </g>
          </g>
        </g>
        <g id="Group_159" data-name="Group 159" transform="translate(90.272 50.616)">
          <g id="Group_158" data-name="Group 158">
            <g id="Group_157" data-name="Group 157">
              <path id="Path_55" data-name="Path 55" d="M1130.385,718.7a9.678,9.678,0,0,0,1.347-.925c.854-.646,2.149-1.556,3.724-2.844a169.894,169.894,0,0,0,12.921-11.4,216.81,216.81,0,0,0,34.875-44.764,293.159,293.159,0,0,0,23.807-51.572c2.418-6.861,4.183-12.477,5.326-16.38.589-1.947.993-3.473,1.276-4.506a9.522,9.522,0,0,0,.373-1.591,9.881,9.881,0,0,0-.57,1.531q-.544,1.658-1.46,4.446c-1.259,3.863-3.127,9.438-5.628,16.253a311.906,311.906,0,0,1-24.006,51.293,226.257,226.257,0,0,1-34.5,44.77c-5.146,5.114-9.549,9.01-12.664,11.613-1.533,1.333-2.786,2.29-3.6,2.988A9.85,9.85,0,0,0,1130.385,718.7Z" transform="translate(-1130.385 -584.713)" fill="#fad5c2"/>
            </g>
          </g>
        </g>
        <g id="Group_162" data-name="Group 162" transform="translate(84.968 58.361)">
          <g id="Group_161" data-name="Group 161">
            <g id="Group_160" data-name="Group 160">
              <path id="Path_56" data-name="Path 56" d="M1127.229,666.065a17.46,17.46,0,0,0,.431-3.031c.229-2.14.527-4.927.887-8.283.761-6.988,1.949-16.628,3.648-27.216s3.6-20.116,5.068-26.994c.711-3.3,1.3-6.037,1.753-8.14a17.225,17.225,0,0,0,.54-3.014,17.733,17.733,0,0,0-.928,2.918c-.538,1.894-1.249,4.653-2.075,8.077-1.651,6.846-3.662,16.375-5.373,26.99s-2.779,20.291-3.356,27.309c-.292,3.51-.479,6.354-.562,8.321A17.429,17.429,0,0,0,1127.229,666.065Z" transform="translate(-1127.184 -589.387)" fill="#fad5c2"/>
            </g>
          </g>
        </g>
        <g id="Group_165" data-name="Group 165" transform="translate(62.005 51.209)">
          <g id="Group_164" data-name="Group 164">
            <g id="Group_163" data-name="Group 163">
              <path id="Path_57" data-name="Path 57" d="M1125.075,585.071a7.472,7.472,0,0,0-.568,1.312c-.365.973-.844,2.247-1.44,3.838-.636,1.664-1.367,3.717-2.063,6.151-.714,2.426-1.641,5.161-2.337,8.271q-.572,2.327-1.192,4.859c-.4,1.692-.69,3.48-1.057,5.318-.785,3.667-1.271,7.645-1.854,11.819a176.6,176.6,0,0,0,1.957,54.612c.882,4.123,1.651,8.056,2.7,11.658.5,1.806.912,3.57,1.437,5.228s1.044,3.241,1.534,4.761c.917,3.053,2.037,5.714,2.923,8.082.869,2.378,1.745,4.373,2.5,5.987l1.712,3.725a7.5,7.5,0,0,0,.66,1.268,7.445,7.445,0,0,0-.471-1.354c-.388-.961-.9-2.222-1.533-3.795-.694-1.634-1.515-3.646-2.328-6.035-.833-2.38-1.9-5.048-2.769-8.1q-.7-2.28-1.466-4.759c-.5-1.657-.893-3.419-1.372-5.22-1.006-3.594-1.738-7.515-2.59-11.62a182.515,182.515,0,0,1-1.947-54.327c.555-4.155,1.006-8.117,1.752-11.774.348-1.831.613-3.616,1-5.3s.762-3.3,1.12-4.852c.648-3.109,1.523-5.847,2.182-8.281.641-2.441,1.314-4.506,1.891-6.186.522-1.614.938-2.908,1.258-3.9A7.508,7.508,0,0,0,1125.075,585.071Z" transform="translate(-1113.328 -585.071)" fill="#bf7b63"/>
            </g>
          </g>
        </g>
        <g id="Group_168" data-name="Group 168" transform="translate(1.738 24.015)">
          <g id="Group_167" data-name="Group 167">
            <g id="Group_166" data-name="Group 166">
              <path id="Path_58" data-name="Path 58" d="M1076.968,568.661a1.522,1.522,0,0,0,.038.464c.056.363.127.8.212,1.342.212,1.175.479,2.92.948,5.142.928,4.445,2.474,10.84,4.88,18.6s5.677,16.862,9.572,26.858c3.879,10,8.387,20.9,12.654,32.5,4.333,11.58,7.673,22.884,10.81,33.14,3.109,10.266,6.059,19.479,8.909,27.087a173.048,173.048,0,0,0,7.59,17.667c.983,2.047,1.871,3.573,2.441,4.622l.673,1.182a1.523,1.523,0,0,0,.26.386,1.64,1.64,0,0,0-.168-.436l-.583-1.228c-.51-1.079-1.337-2.632-2.264-4.7-1.936-4.095-4.542-10.115-7.268-17.744-2.756-7.618-5.626-16.83-8.684-27.11-3.086-10.265-6.407-21.608-10.752-33.222-4.279-11.628-8.814-22.516-12.737-32.489-3.939-9.968-7.285-19.019-9.761-26.732s-4.136-14.058-5.182-18.466c-.53-2.2-.858-3.932-1.135-5.094-.126-.532-.229-.966-.313-1.324A1.622,1.622,0,0,0,1076.968,568.661Z" transform="translate(-1076.96 -568.661)" fill="#fad5c2"/>
            </g>
          </g>
        </g>
        <g id="Group_174" data-name="Group 174" transform="translate(74.351)">
          <g id="Group_170" data-name="Group 170">
            <g id="Group_169" data-name="Group 169">
              <path id="Path_59" data-name="Path 59" d="M1196.413,555.365a4.137,4.137,0,0,1,6.813,4.221,118.017,118.017,0,0,1-6.041,15.533c-6.609,14.045-26.023,64.44-35.109,92.115s-21.893,79.308-21.893,79.308l-19.406-3.147s17.753-84.836,35.1-115.4C1169.818,603.432,1183.758,567.938,1196.413,555.365Z" transform="translate(-1120.777 -554.17)" fill="#d1876d"/>
            </g>
          </g>
          <g id="Group_173" data-name="Group 173" transform="translate(9.645 0.87)">
            <g id="Group_172" data-name="Group 172">
              <g id="Group_171" data-name="Group 171">
                <path id="Path_60" data-name="Path 60" d="M1126.609,744.622a2.04,2.04,0,0,0,.111-.517c.058-.4.129-.906.219-1.528.2-1.342.386-3.334.8-5.876.712-5.1,1.984-12.445,4.068-21.406a306.541,306.541,0,0,1,9.083-31c3.981-11.5,8.974-23.92,14.631-36.776,11.416-25.681,22.821-48.461,30.315-65.306,3.789-8.4,6.722-15.263,8.652-20.04.986-2.381,1.69-4.256,2.183-5.52.219-.59.4-1.065.538-1.447a2.018,2.018,0,0,0,.151-.507,2.089,2.089,0,0,0-.248.467c-.166.371-.375.835-.634,1.409l-2.358,5.442c-2.043,4.728-5.074,11.537-8.944,19.894-7.658,16.754-19.16,39.472-30.595,65.194-5.666,12.876-10.644,25.338-14.586,36.882a291.991,291.991,0,0,0-8.9,31.148,216.845,216.845,0,0,0-3.757,21.515c-.35,2.555-.467,4.557-.6,5.908l-.117,1.539A2.065,2.065,0,0,0,1126.609,744.622Z" transform="translate(-1126.597 -554.695)" fill="#bf7b63"/>
              </g>
            </g>
          </g>
        </g>
      </g>
      <g id="Group_183" data-name="Group 183" transform="translate(34.52 186.436)">
        <g id="Group_177" data-name="Group 177" transform="translate(0 0)">
          <g id="Group_176" data-name="Group 176">
            <rect id="Rectangle_15" data-name="Rectangle 15" width="75.747" height="92.288" transform="translate(75.747 92.288) rotate(-180)" fill="#ff735d"/>
          </g>
        </g>
        <g id="Group_180" data-name="Group 180" transform="translate(0 0)">
          <g id="Group_179" data-name="Group 179">
            <g id="Group_178" data-name="Group 178">
              <rect id="Rectangle_16" data-name="Rectangle 16" width="75.747" height="92.288" fill="#792c20"/>
            </g>
          </g>
        </g>
        <g id="Group_182" data-name="Group 182" transform="translate(24.163 0)">
          <g id="Group_181" data-name="Group 181" transform="translate(0)">
            <rect id="Rectangle_17" data-name="Rectangle 17" width="67.202" height="92.288" transform="translate(67.202 92.288) rotate(-180)" fill="#751f08"/>
          </g>
        </g>
      </g>
    </g>
    <path id="Path_61" data-name="Path 61" d="M937.553,432.718s27.272,65.215-5.492,133.34c-16.225,31.9,2.821,55.522,2.821,55.522s-21.33-17.3-16.448-59.054S941.552,495.486,937.553,432.718Z" transform="translate(169.627 51.703)" fill="#291306"/>
    <g id="Group_277" data-name="Group 277" transform="translate(823.541 446.906)">
      <g id="Group_224" data-name="Group 224" transform="translate(0 214.123)">
        <g id="Group_187" data-name="Group 187" transform="translate(107.878)">
          <g id="Group_186" data-name="Group 186">
            <g id="Group_185" data-name="Group 185">
              <path id="Path_62" data-name="Path 62" d="M833.555,545.066l39.824-5.777,79.663,11.787,22.359,7.9-3.966,48.889-76.588,14.108-51.685-15.314-19.539-28.749Z" transform="translate(-823.622 -539.289)" fill="#d2886c"/>
            </g>
          </g>
        </g>
        <g id="Group_208" data-name="Group 208" transform="translate(0 2.598)">
          <g id="Group_190" data-name="Group 190" transform="translate(32.552)">
            <g id="Group_189" data-name="Group 189">
              <g id="Group_188" data-name="Group 188">
                <path id="Path_63" data-name="Path 63" d="M838.329,548.709l33.328-7.852s23.562,72.841,81.714,69.706c47.4-2.555,47.936-55.459,47.936-55.459l34.161,10.941s13.065,87.612-1.4,149.68c-3.379,14.5-7.9,34.053-7.9,34.053l4.618,90.689-252.616.4,60.161-292.163Z" transform="translate(-778.168 -540.857)" fill="#a10e2e"/>
              </g>
            </g>
          </g>
          <g id="Group_192" data-name="Group 192" transform="translate(35.124 260.816)" opacity="0.3">
            <g id="Group_191" data-name="Group 191">
              <path id="Path_64" data-name="Path 64" d="M936.334,719.431c-12.29-.3-23.638.736-35.93.432-14.754-.363-29.614-.721-44.176,1.68-10.914,1.8-21.533,5.127-32.459,6.851-14.888,2.348-30.794,1.51-44.05-5.663l2.136-12.373,50.337-12.117Z" transform="translate(-779.72 -698.242)"/>
            </g>
          </g>
          <g id="Group_195" data-name="Group 195" transform="translate(274.684 24.468)">
            <g id="Group_194" data-name="Group 194">
              <g id="Group_193" data-name="Group 193">
                <path id="Path_65" data-name="Path 65" d="M967.964,576.751c-11.552-14.924-30.766-21.129-30.766-21.129L924.279,668.137l24.475,163.821,80.168-.381S984.7,598.379,967.964,576.751Z" transform="translate(-924.279 -555.622)" fill="#a10e2e"/>
              </g>
            </g>
          </g>
          <g id="Group_198" data-name="Group 198" transform="translate(0 7.021)">
            <g id="Group_197" data-name="Group 197">
              <g id="Group_196" data-name="Group 196">
                <path id="Path_66" data-name="Path 66" d="M855.13,545.094s-53.958,4.322-73.319,92.726c-8.758,39.988-19.822,86.85-23.012,118.346-2.313,22.844,10.1,58.608,32.877,61.533l28.633,3.846a47.264,47.264,0,0,0,16.867-.623c18.083-4.153,19.923-16.562,23.111-29.748l8.357-26.384c4.57-25.09-18.8-29.768-31.713-29.49l9.625-114.518Z" transform="translate(-758.525 -545.094)" fill="#a10e2e"/>
              </g>
            </g>
          </g>
          <g id="Group_201" data-name="Group 201" transform="translate(280.543 87.022)">
            <g id="Group_200" data-name="Group 200">
              <g id="Group_199" data-name="Group 199">
                <path id="Path_67" data-name="Path 67" d="M941.555,593.369a6.742,6.742,0,0,1,.247,1.233c.137.9.318,2.082.543,3.563q.169,1.176.371,2.578.147,1.43.313,3.083c.224,2.212.494,4.731.61,7.53a185.616,185.616,0,0,1,.132,19.664,236.74,236.74,0,0,1-2.388,23.961c-1.24,8.455-2.8,16.448-4.382,23.674-1.553,7.234-3.145,13.7-4.488,19.131-1.375,5.421-2.512,9.8-3.337,12.817-.4,1.443-.723,2.6-.965,3.47a7,7,0,0,1-.393,1.195,6.845,6.845,0,0,1,.224-1.238c.2-.883.472-2.05.807-3.508.747-3.134,1.79-7.51,3.071-12.88,1.266-5.444,2.8-11.922,4.3-19.154,1.538-7.224,3.069-15.2,4.305-23.633s2.093-16.5,2.448-23.873c.311-7.368.383-14.021.053-19.595-.078-2.791-.305-5.306-.482-7.517q-.129-1.651-.242-3.082-.159-1.4-.295-2.582-.239-2.232-.383-3.58A6.987,6.987,0,0,1,941.555,593.369Z" transform="translate(-927.814 -593.369)" fill="#1a2e35"/>
              </g>
            </g>
          </g>
          <g id="Group_204" data-name="Group 204" transform="translate(131.459 149.966)" opacity="0.3">
            <g id="Group_203" data-name="Group 203">
              <g id="Group_202" data-name="Group 202">
                <path id="Path_68" data-name="Path 68" d="M914.147,631.352a4.076,4.076,0,0,1-.244.931c-.2.595-.439,1.5-.895,2.608a54.183,54.183,0,0,1-4.5,9.095,58.406,58.406,0,0,1-57.279,27.5,54.268,54.268,0,0,1-9.908-2.179c-1.15-.338-2-.719-2.6-.933a4.176,4.176,0,0,1-.878-.391c.026-.073,1.278.354,3.57,1a61.4,61.4,0,0,0,9.883,1.894A58.788,58.788,0,0,0,908,643.663a61.227,61.227,0,0,0,4.7-8.9C913.625,632.572,914.074,631.327,914.147,631.352Z" transform="translate(-837.852 -631.352)"/>
              </g>
            </g>
          </g>
          <g id="Group_207" data-name="Group 207" transform="translate(291.392 83.375)" opacity="0.3">
            <g id="Group_206" data-name="Group 206">
              <g id="Group_205" data-name="Group 205">
                <path id="Path_69" data-name="Path 69" d="M934.769,669.042c13.766-23.313,14.061-53.61,2.052-77.874,3.583,25.84,3.29,52.326-2.459,77.773" transform="translate(-934.361 -591.168)"/>
              </g>
            </g>
          </g>
        </g>
        <g id="Group_215" data-name="Group 215" transform="translate(83.386 217.618)">
          <g id="Group_214" data-name="Group 214">
            <g id="Group_211" data-name="Group 211">
              <g id="Group_210" data-name="Group 210">
                <g id="Group_209" data-name="Group 209">
                  <path id="Path_70" data-name="Path 70" d="M995.293,721.494c-4.33-8.193-38.187-29.8-38.187-29.8l9.164-2.118,10.117,4.279a24.889,24.889,0,0,0,4.355,9.479c3.72,5.306,10.036-.182,10.036-.182L986.5,682.656l-20.019-12.049s-18.835,2.879-21.876,4.327l-8.031,7.35c-3.523,2.761-13.7,13.654-16.479,13.983s-90.166-19.328-90.166-19.328h0c-11.98,9.486-18.292,28.336-20.194,41.93,0,0-2.131,6.68.186,10.3l107.271,8.419,22.728,6.282s12.576,5.134,18.678,6.417c7.562,1.589,12.658-.848,12.86-5.036s-5.661-4.638-5.661-4.638-9.544-3.452-14.618-6.428-8.251-9.053-8.251-9.053l8.105.969s17.228,11.958,23.7,15.466,7.756-2.93,8.278-4.892-19.349-21.4-19.349-21.4,18.9,11.648,22.294,14.588,8.435,3.818,9.516,1.848S999.624,729.686,995.293,721.494Z" transform="translate(-808.843 -670.607)" fill="#d2886c"/>
                </g>
              </g>
            </g>
            <g id="Group_213" data-name="Group 213" transform="translate(134.42 4.957)">
              <g id="Group_212" data-name="Group 212">
                <path id="Path_71" data-name="Path 71" d="M889.979,673.6Z" transform="translate(-889.957 -673.598)" fill="#ffbf9d"/>
              </g>
            </g>
          </g>
        </g>
        <g id="Group_217" data-name="Group 217" transform="translate(28.339 198.525)" opacity="0.3">
          <g id="Group_216" data-name="Group 216">
            <path id="Path_72" data-name="Path 72" d="M794,663.168a53.925,53.925,0,0,1,31.79-2.89h0c-18.569-1.137-36.478,10.737-42.893,27.738-.777,2.062-2.3,4.491-4.481,4.168-2.028-.3-2.784-2.839-2.786-4.889C775.616,676.576,784.106,667.3,794,663.168Z" transform="translate(-775.626 -659.086)"/>
          </g>
        </g>
        <g id="Group_219" data-name="Group 219" transform="translate(294.348 131.986)">
          <g id="Group_218" data-name="Group 218">
            <path id="Path_73" data-name="Path 73" d="M936.145,634.23a9.9,9.9,0,0,0,2.055-.441l5.515-1.506c4.645-1.308,11.047-3.172,18.1-5.281s13.43-4.068,18.03-5.525l5.436-1.77a9.842,9.842,0,0,0,1.959-.761,9.678,9.678,0,0,0-2.055.439l-5.515,1.506c-4.645,1.307-11.047,3.172-18.1,5.283s-13.427,4.067-18.027,5.525l-5.436,1.768A9.755,9.755,0,0,0,936.145,634.23Z" transform="translate(-936.145 -618.934)" fill="#fff"/>
          </g>
        </g>
        <g id="Group_221" data-name="Group 221" transform="translate(289.526 216.888)">
          <g id="Group_220" data-name="Group 220">
            <path id="Path_74" data-name="Path 74" d="M933.235,692.21c.068.229,16.617-4.519,36.955-10.6s36.781-11.2,36.713-11.431-16.613,4.519-36.96,10.6S933.167,691.981,933.235,692.21Z" transform="translate(-933.235 -670.166)" fill="#fff"/>
          </g>
        </g>
        <g id="Group_223" data-name="Group 223" transform="translate(79.241 105.511)" opacity="0.3">
          <g id="Group_222" data-name="Group 222">
            <path id="Path_75" data-name="Path 75" d="M829.16,602.958c2.615,30-5.56,59.766-13.655,88.767a12.582,12.582,0,0,1-2.229,5c-1.2,1.392-3.3,2.2-4.938,1.37-2.529-1.278-2.194-4.94-1.478-7.679q11.261-43.118,22.523-86.233" transform="translate(-806.342 -602.958)"/>
          </g>
        </g>
      </g>
      <g id="Group_238" data-name="Group 238" transform="translate(185.652 341.692)">
        <g id="Group_231" data-name="Group 231">
          <g id="Group_227" data-name="Group 227" transform="translate(0.403 0.086)">
            <g id="Group_226" data-name="Group 226">
              <g id="Group_225" data-name="Group 225">
                <path id="Path_76" data-name="Path 76" d="M1206.4,624.067l-34.062,167.211H876.7a5.905,5.905,0,0,1-5.9-5.906h0a5.905,5.905,0,0,1,5.9-5.9h59.514l31.578-155.508a6.457,6.457,0,0,1,6.258-5.17L1200,616.321A6.456,6.456,0,0,1,1206.4,624.067Z" transform="translate(-870.797 -616.321)" fill="#9c4f39"/>
              </g>
            </g>
          </g>
          <g id="Group_230" data-name="Group 230">
            <g id="Group_229" data-name="Group 229">
              <g id="Group_228" data-name="Group 228">
                <path id="Path_77" data-name="Path 77" d="M1095.215,617.234l-59.556.6-33.364.343-17.5.182-8.945.093c-.762.02-1.477-.013-2.289.056a6.75,6.75,0,0,0-2.282.66,6.836,6.836,0,0,0-3.247,3.4,10.787,10.787,0,0,0-.618,2.274l-.457,2.249q-.46,2.252-.92,4.519-.925,4.537-1.858,9.13-1.869,9.187-3.785,18.6-3.831,18.825-7.832,38.5c-5.33,26.215-10.873,53.486-16.583,81.581l.4-.325c-11.178,0-22.631,0-34.274,0H877.849a10.9,10.9,0,0,0-2.3.139,6.318,6.318,0,0,0-1.7,11.726,6.412,6.412,0,0,0,2.781.751l2.728.01h10.816q10.788,0,21.442,0l42.034-.005,80.036-.018,138.806-.071h.257l.05-.25c10.411-51.394,18.88-93.2,24.748-122.176,2.912-14.476,5.177-25.743,6.718-33.406.759-3.818,1.337-6.737,1.73-8.714s.558-2.978.558-2.978-.235,1-.65,2.96-1.021,4.884-1.816,8.7c-1.579,7.655-3.9,18.91-6.886,33.372-5.931,28.959-14.492,70.748-25.017,122.121l.307-.25-138.806-.071-80.036-.018-42.034,0q-10.654,0-21.442,0H879.36l-2.7-.01a5.588,5.588,0,0,1-2.419-.653,5.5,5.5,0,0,1,1.473-10.208,10.123,10.123,0,0,1,2.133-.121H902.1c11.643,0,23.1,0,34.274,0h.33l.066-.323c5.7-28.1,11.232-55.371,16.55-81.588q3.984-19.663,7.805-38.5,1.907-9.414,3.768-18.6.932-4.594,1.851-9.131.457-2.267.915-4.521l.456-2.249a9.922,9.922,0,0,1,.573-2.131,6.116,6.116,0,0,1,2.9-3.049,6.053,6.053,0,0,1,2.043-.593c.691-.061,1.483-.036,2.222-.055l8.944-.1,17.5-.2,33.364-.384,59.554-.7,85.433-1.054,13.3-.181q2.886-.04,5.32-.075a10.1,10.1,0,0,1,2.29.123,6.552,6.552,0,0,1,1.911.738,6.454,6.454,0,0,1,3.129,4.768,8.546,8.546,0,0,1-.047,2.013s.038-.167.093-.5a5.737,5.737,0,0,0,.03-1.518,6.505,6.505,0,0,0-3.127-4.887,6.729,6.729,0,0,0-1.954-.776,10.37,10.37,0,0,0-2.327-.144q-2.434.02-5.319.04l-13.3.111" transform="translate(-870.554 -616.269)" fill="#751f08"/>
              </g>
            </g>
          </g>
        </g>
        <g id="Group_234" data-name="Group 234" transform="translate(199.772 74.592)">
          <g id="Group_233" data-name="Group 233">
            <g id="Group_232" data-name="Group 232">
              <path id="Path_78" data-name="Path 78" d="M991.1,671.044a9.764,9.764,0,1,0,9.764-9.764A9.764,9.764,0,0,0,991.1,671.044Z" transform="translate(-991.103 -661.28)" fill="#fad5c2"/>
            </g>
          </g>
        </g>
        <g id="Group_237" data-name="Group 237" transform="translate(74.113 9.135)">
          <g id="Group_236" data-name="Group 236">
            <g id="Group_235" data-name="Group 235">
              <path id="Path_79" data-name="Path 79" d="M979.659,622.984l-20.17.161-4.955.042a12.773,12.773,0,0,0-2.532.152,7.055,7.055,0,0,0-5.4,5.041c-.37,1.636-.645,3.184-.969,4.768-2.5,12.6-4.91,24.745-7.207,36.32-4.574,23.146-8.7,43.993-12.157,61.508-3.427,17.495-6.2,31.66-8.125,41.483-.938,4.879-1.669,8.677-2.169,11.285q-.353,1.906-.544,2.938c-.118.663-.157,1.007-.157,1.007s.094-.333.238-.991q.221-1.029.623-2.923c.537-2.6,1.317-6.388,2.32-11.256,1.984-9.809,4.846-23.958,8.38-41.43,3.512-17.507,7.689-38.342,12.329-61.475,2.312-11.572,4.738-23.719,7.254-36.311.32-1.561.616-3.188.961-4.711a6.246,6.246,0,0,1,4.781-4.461,12.116,12.116,0,0,1,2.378-.136l4.955-.038,20.17-.157,139.455-1.223,42.27-.464,11.492-.169,2.99-.063c.673-.02,1.017-.05,1.017-.05s-.345-.026-1.019-.035c-.7,0-1.7-.008-2.99-.016l-11.492.015-42.271.2" transform="translate(-915.276 -621.781)" fill="#751f08"/>
            </g>
          </g>
        </g>
      </g>
      <g id="Group_276" data-name="Group 276" transform="translate(117.032)">
        <g id="Group_275" data-name="Group 275">
          <g id="Group_240" data-name="Group 240" transform="translate(9.491 96.927)">
            <g id="Group_239" data-name="Group 239">
              <path id="Path_80" data-name="Path 80" d="M834.916,468.569a109.456,109.456,0,0,0,34.937,82.644q7.805-22.618,15.612-45.234" transform="translate(-834.874 -468.569)" fill="#1a2e35"/>
            </g>
          </g>
          <g id="Group_272" data-name="Group 272">
            <g id="Group_242" data-name="Group 242">
              <g id="Group_241" data-name="Group 241">
                <path id="Path_81" data-name="Path 81" d="M956.4,417.025c-13.4-7.325-29.6-8.377-44.577-5.379s-28.936,9.779-42.157,17.429c-7.419,4.292-14.817,9.01-20.148,15.72-9.733,12.245-19.354,32.357-20.292,47.97-.759,12.626,4.077,44.234,9.413,55.7,4.9,10.525,27.816,18.534,39.129,21.132l103.8-120.722A52.551,52.551,0,0,0,956.4,417.025Z" transform="translate(-829.146 -410.08)" fill="#291306"/>
              </g>
            </g>
            <g id="Group_244" data-name="Group 244" transform="translate(120.265 18.779)">
              <g id="Group_243" data-name="Group 243">
                <path id="Path_82" data-name="Path 82" d="M926.6,425.862l-24.882-4.45c13.6,32.395,17.289,106.476,25.071,140.74,9.172-13.31,30.474-53.847,29.335-69.971S956.168,423.114,926.6,425.862Z" transform="translate(-901.718 -421.412)" fill="#291306"/>
              </g>
            </g>
            <g id="Group_246" data-name="Group 246" transform="translate(27.021 23.23)">
              <g id="Group_245" data-name="Group 245">
                <path id="Path_83" data-name="Path 83" d="M845.6,478.02c1.339-18.925,13.591-34.448,31.975-39.138l57.305-14.62c24.767-2.676,41.305,27.791,42.926,52.647,1.8,27.615-1.119,55.2-4.345,75.813-6.49,41.455-34.208,48.358-34.208,48.358-.005-.061-.008,19.716-.028,31.82l-19.178,79.386-61.8-85.366-12.79-148.4C845.437,477.814,845.533,478.964,845.6,478.02Z" transform="translate(-845.452 -424.098)" fill="#d2886c"/>
              </g>
            </g>
            <g id="Group_252" data-name="Group 252" transform="translate(16.796 7.177)">
              <g id="Group_251" data-name="Group 251">
                <g id="Group_250" data-name="Group 250">
                  <g id="Group_249" data-name="Group 249">
                    <g id="Group_248" data-name="Group 248">
                      <g id="Group_247" data-name="Group 247">
                        <path id="Path_84" data-name="Path 84" d="M970.6,445.427c-2.534-6.236-9.376-9.98-16.1-10.319s-13.287,2.2-19.116,5.572c-24.679,14.265-37.363,48.721-61.75,63.482-6,3.631-13.8.3-18.905,5.114s-8.41,12.492-5.588,18.908c-3.276-4.494-6.6-9.07-8.46-14.31s-2.1-11.335.683-16.153c2.111-3.656,5.837-6.446,6.861-10.543.9-3.6-.522-7.37-.366-11.08.159-3.778,1.935-7.28,3.8-10.571,9.55-16.893,22.692-32.174,39.613-41.675,11.055-6.208,23.7-9.839,36.368-9.406s25.328,5.089,34.6,13.735c5.454,5.084,11.188,10.346,8.359,17.246" transform="translate(-839.281 -414.411)" fill="#291306"/>
                      </g>
                    </g>
                  </g>
                </g>
              </g>
            </g>
            <g id="Group_271" data-name="Group 271" transform="translate(10.503 104.947)">
              <g id="Group_270" data-name="Group 270">
                <g id="Group_269" data-name="Group 269">
                  <g id="Group_268" data-name="Group 268">
                    <g id="Group_267" data-name="Group 267">
                      <g id="Group_266" data-name="Group 266">
                        <g id="Group_265" data-name="Group 265">
                          <g id="Group_264" data-name="Group 264">
                            <g id="Group_263" data-name="Group 263">
                              <g id="Group_262" data-name="Group 262">
                                <g id="Group_261" data-name="Group 261">
                                  <g id="Group_260" data-name="Group 260">
                                    <g id="Group_259" data-name="Group 259">
                                      <g id="Group_258" data-name="Group 258">
                                        <g id="Group_257" data-name="Group 257">
                                          <g id="Group_256" data-name="Group 256">
                                            <g id="Group_255" data-name="Group 255">
                                              <g id="Group_254" data-name="Group 254">
                                                <g id="Group_253" data-name="Group 253">
                                                  <path id="Path_85" data-name="Path 85" d="M857.828,475.638c-.437-1.19-22.054-8.99-22.34,13.985-.279,22.322,22.244,17.927,22.291,17.288S857.828,475.638,857.828,475.638Z" transform="translate(-835.484 -473.409)" fill="#d2886c"/>
                                                </g>
                                              </g>
                                            </g>
                                          </g>
                                        </g>
                                      </g>
                                    </g>
                                  </g>
                                </g>
                              </g>
                            </g>
                          </g>
                        </g>
                      </g>
                    </g>
                  </g>
                </g>
              </g>
            </g>
          </g>
          <g id="Group_274" data-name="Group 274" transform="translate(27.641 64.063)">
            <g id="Group_273" data-name="Group 273">
              <path id="Path_86" data-name="Path 86" d="M846.042,480.437c-.431,7.5-.757,15.515,4.66,21.512a10.621,10.621,0,0,0,10.5,3.427c6.152-1.652,7.746-8.16,8.594-13.851,2.116-14.217,3.086-28.588,5.324-42.787Z" transform="translate(-845.826 -448.738)" fill="#291306"/>
            </g>
          </g>
        </g>
      </g>
    </g>
  </g>
</svg>
