<svg xmlns="http://www.w3.org/2000/svg" width="29.685" height="32.619" viewBox="0 0 29.685 32.619">
  <g id="Group_21713" data-name="Group 21713" transform="translate(-294.369 -432.15)">
    <path id="Path_41860" data-name="Path 41860" d="M300.6,450.207h.016a3.965,3.965,0,1,0-2.82-6.757,3.922,3.922,0,0,0-1.164,2.8A3.973,3.973,0,0,0,300.6,450.207Zm-2.161-6.1a3.04,3.04,0,1,1,2.17,5.181,3.062,3.062,0,0,1-3.059-3.029A3.01,3.01,0,0,1,298.434,444.106Z" transform="translate(1.492 7.337)" fill="#ff5acd" stroke="#ff5acd" stroke-width="0.5"/>
    <path id="Path_41861" data-name="Path 41861" d="M311.848,437.64a.436.436,0,0,0,.376-.491c-.009-.1-.033-.406-.6-.41H297.68a.876.876,0,0,0-.622.173.39.39,0,0,0-.1.294c0,.134.014.451.718.451h13.879A1.8,1.8,0,0,0,311.848,437.64Z" transform="translate(1.739 3.223)" fill="#ff5acd" stroke="#ff5acd" stroke-width="0.5"/>
    <path id="Path_41862" data-name="Path 41862" d="M309.164,439.507a.448.448,0,0,0-.106-.863l-.3-.007-11.368.005a.447.447,0,0,0-.432.422.44.44,0,0,0,.357.464,1.3,1.3,0,0,0,.305.024h11.157A1.355,1.355,0,0,0,309.164,439.507Z" transform="translate(1.74 4.632)" fill="#ff5acd" stroke="#ff5acd" stroke-width="0.5"/>
    <path id="Path_41863" data-name="Path 41863" d="M297.548,440.534a.817.817,0,0,0-.39.089.393.393,0,0,0-.173.49c.021.082.089.334.535.334h9.548c.173,0,.577-.045.587-.453a.4.4,0,0,0-.11-.3.66.66,0,0,0-.483-.162Z" transform="translate(1.74 6.038)" fill="#ff5acd" stroke="#ff5acd" stroke-width="0.5"/>
    <path id="Path_41864" data-name="Path 41864" d="M295.081,442.214h.01a.453.453,0,0,0,.444-.457.458.458,0,0,0-.136-.329.45.45,0,0,0-.331-.134h0a.464.464,0,0,0-.446.462A.454.454,0,0,0,295.081,442.214Z" transform="translate(0.003 6.606)" fill="#ff5acd" stroke="#ff5acd" stroke-width="0.5"/>
    <path id="Path_41865" data-name="Path 41865" d="M298.641,446.163l.138.127a.685.685,0,0,0,.431.232.641.641,0,0,0,.43-.261l1.485-1.635c.242-.268.267-.544.066-.736a.415.415,0,0,0-.289-.127.648.648,0,0,0-.451.246l-1.267,1.387-.474-.429a.552.552,0,0,0-.345-.134.422.422,0,0,0-.321.148.456.456,0,0,0,.051.662C298.273,445.821,298.456,445.992,298.641,446.163Z" transform="translate(2.455 8.44)" fill="#ff5acd" stroke="#ff5acd" stroke-width="0.5"/>
    <path id="Path_41866" data-name="Path 41866" d="M322.941,452.755a4.874,4.874,0,0,0-2.614-2.684l-.331-.157-.087-.209.052-.139a6.72,6.72,0,0,0,1.586-3.625.521.521,0,0,0-.1-.4.484.484,0,0,0-.349-.174h-.418a5.464,5.464,0,0,0-3.067.784l-.157.052-.244.087v-3.921c0-2,0-3.991-.017-5.995a2.6,2.6,0,0,0-2.248-2.51,9.1,9.1,0,0,0-1.377-.07h-2.213v-.07a1.324,1.324,0,0,0-1.324-1.324h-8.208a1.324,1.324,0,0,0-1.325,1.324v.07h-3.207a2.637,2.637,0,0,0-2.631,2.475c-.052,2.457-.035,4.9-.035,7.337l.017,2.248a.417.417,0,0,0,.453.436.457.457,0,0,0,.453-.436V436.6a1.793,1.793,0,0,1,1.882-1.882h3.067v.157a1.324,1.324,0,0,0,1.325,1.324h8.208a1.324,1.324,0,0,0,1.324-1.324v-.157h2.893a1.5,1.5,0,0,1,.279.017,1.9,1.9,0,0,1,.453.087,1.23,1.23,0,0,1,.227.087,1.718,1.718,0,0,1,.523.349,1.685,1.685,0,0,1,.4.627.249.249,0,0,1,.035.1,2.212,2.212,0,0,1,.122.767c-.035,3.329-.017,6.675,0,10.021a2.185,2.185,0,0,1-.4,1.412l-.209.052-.139-.087a3.384,3.384,0,0,0-2.771-1.133c-.331,0-.523.052-.627.174-.087.122-.087.331-.017.662.1.366.227.749.349,1.133l.174.523-.087.192-.157.07a4.971,4.971,0,0,0-3.5,2.841,9.2,9.2,0,0,0-.749,5.49c.052.4.139.8.227,1.22l.192.819H297.479a1.783,1.783,0,0,1-.3-.018,1.74,1.74,0,0,1-1.534-1.22,2.289,2.289,0,0,1-.1-.749v-7.18c-.017-.331-.192-.54-.471-.54-.261,0-.453.226-.453.558v7.354a3.4,3.4,0,0,0,.1.68,2.711,2.711,0,0,0,2.771,2.022H308.58a.67.67,0,0,1,.662.383,5.515,5.515,0,0,0,5.054,3.085h.157c.418-.017.854-.017,1.29-.017l1.83.017a5.14,5.14,0,0,0,4.479-2.318A9.491,9.491,0,0,0,322.941,452.755Zm-12.461-17.88a.45.45,0,0,1-.453.453h-8.208a.44.44,0,0,1-.453-.453v-1.15a.45.45,0,0,1,.453-.453h8.208a.461.461,0,0,1,.453.453v1.15Zm5.978,14.743a3.721,3.721,0,0,1,3.817-3.311h.192l-.017.174a4.178,4.178,0,0,1-2.039,3.1l-.174.07-1.795.174Zm-3-1.6a2.048,2.048,0,0,1,1.8,1.6l.035.209h-.209a1.849,1.849,0,0,1-1.9-1.568l-.07-.209Zm8.173,13.175a4.449,4.449,0,0,1-4.061,2.4s-.593-.017-.767-.017l-2.614.017a4.445,4.445,0,0,1-3.782-2,8.584,8.584,0,0,1-1.464-5.385,7.82,7.82,0,0,1,.7-3.032,4.107,4.107,0,0,1,3.8-2.614,5.474,5.474,0,0,1,1.168.139,5.4,5.4,0,0,0,1.272.157,5.809,5.809,0,0,0,1.307-.157,5.449,5.449,0,0,1,1.15-.139,4.159,4.159,0,0,1,3.956,3A8.733,8.733,0,0,1,321.634,461.19Z" transform="translate(0 0)" fill="#ff5acd" stroke="#ff5acd" stroke-width="0.5"/>
  </g>
</svg>
