<svg xmlns="http://www.w3.org/2000/svg" width="27.017" height="32.727" viewBox="0 0 27.017 32.727">
  <g id="Group_21715" data-name="Group 21715" transform="translate(-218.295 -417.334)">
    <path id="Path_41867" data-name="Path 41867" d="M238.038,440.81a3.609,3.609,0,0,0-3.483,1.431,7.433,7.433,0,0,1-1.174,1.067,2.35,2.35,0,0,1-3.161-.008,7.886,7.886,0,0,1-1.245-1.159,3.535,3.535,0,0,0-3.179-1.332,7.611,7.611,0,0,1-1.545-.045,2.443,2.443,0,0,1-2.436-2.661c-.033-.67-.017-1.344-.023-2.016a2.594,2.594,0,0,0-.772-1.884,23.89,23.89,0,0,1-1.645-1.749,2.365,2.365,0,0,1,0-3.314,18.91,18.91,0,0,1,1.573-1.659,2.764,2.764,0,0,0,.85-2.049c-.011-.761.015-1.524.079-2.282a2.4,2.4,0,0,1,2.443-2.353c.044,0,.088,0,.132.006.812-.037,1.627-.039,2.44-.067a2.053,2.053,0,0,0,1.358-.588c.318-.3.623-.619.943-.918.35-.327.691-.666,1.068-.954a2.353,2.353,0,0,1,3.1-.014,8.822,8.822,0,0,1,1.389,1.289,3.428,3.428,0,0,0,2.946,1.245,9.51,9.51,0,0,1,1.78.052,2.417,2.417,0,0,1,2.347,2.485c0,.048,0,.095-.009.142.029.773.031,1.549.055,2.322a2.29,2.29,0,0,0,.707,1.549c.571.6,1.178,1.166,1.694,1.809a2.391,2.391,0,0,1,.01,3.288,10.272,10.272,0,0,1-.693.784c-.318.336-.654.662-.986.989a2.316,2.316,0,0,0-.73,1.617c-.01.283-.035.568-.041.852-.01.451,0,.9-.016,1.356a2.533,2.533,0,0,1-2.725,2.759C238.736,440.822,238.386,440.81,238.038,440.81Zm-15.163-3.852h.017c0,.4-.025.8,0,1.2.079,1.014.461,1.42,1.462,1.51a13.107,13.107,0,0,0,1.818.052,4.072,4.072,0,0,1,3.362,1.451,11.574,11.574,0,0,0,1.23,1.179,1.388,1.388,0,0,0,1.959.1c.033-.03.064-.061.094-.094a7.584,7.584,0,0,0,.575-.52c.371-.359.737-.725,1.1-1.088a3.486,3.486,0,0,1,2.52-1.014c.762-.008,1.526-.006,2.283-.072a1.264,1.264,0,0,0,1.345-1.178,1.147,1.147,0,0,0,0-.173c.06-.772.063-1.549.079-2.322a3.438,3.438,0,0,1,.935-2.395c.391-.414.809-.8,1.192-1.219a7.822,7.822,0,0,0,.745-.938,1.083,1.083,0,0,0,0-1.272,8.275,8.275,0,0,0-.773-.965c-.383-.42-.8-.809-1.187-1.223a2.869,2.869,0,0,1-.847-1.785c-.051-.785-.049-1.574-.074-2.362-.049-1.475-.486-1.908-1.955-1.934-.686-.014-1.369-.025-2.053-.051a3.192,3.192,0,0,1-2.125-.912c-.506-.477-.982-.99-1.5-1.459-1-.9-1.594-.9-2.59,0-.152.139-.3.287-.443.432-.342.334-.678.676-1.025,1a3.171,3.171,0,0,1-2.113.932c-.619.025-1.241.029-1.86.052a6.874,6.874,0,0,0-.963.079,1.147,1.147,0,0,0-1.119,1.135,15.054,15.054,0,0,0-.084,2.047,4.145,4.145,0,0,1-1.437,3.374,11.434,11.434,0,0,0-1.2,1.245,1.367,1.367,0,0,0-.12,1.928,1.441,1.441,0,0,0,.12.121,9.021,9.021,0,0,0,1.071,1.119,4.279,4.279,0,0,1,1.567,3.743A2.6,2.6,0,0,0,222.875,436.958Z" fill="#67a746" stroke="#67a746" stroke-width="0.5"/>
    <path id="Path_41868" data-name="Path 41868" d="M228.368,454.889l2.841-1.5c.715-.379,1.442-.752,2.153-1.145a.523.523,0,0,1,.571,0q2.265,1.216,4.548,2.415c.123.064.248.125.418.209.008-.17.02-.305.02-.44v-4.886a.541.541,0,0,1,1.08-.056c0,.013,0,.025,0,.037a2.219,2.219,0,0,1,0,.272v5.466c0,.934-.455,1.2-1.292.76-1.553-.82-3.108-1.633-4.65-2.473a.777.777,0,0,0-.846.014c-1.557.84-3.122,1.66-4.689,2.484-.784.414-1.246.135-1.246-.754v-5.507a2.1,2.1,0,0,1,.008-.308.538.538,0,0,1,1.071,0,2.519,2.519,0,0,1,.008.387Z" transform="translate(-1.76 -6.419)" fill="#67a746" stroke="#67a746" stroke-width="0.5"/>
    <path id="Path_41869" data-name="Path 41869" d="M233.572,438.817a6.243,6.243,0,1,1,1.71-12.24c.426.123.6.348.545.672-.059.342-.375.506-.781.389a5.163,5.163,0,1,0,3.565,5.96,8.333,8.333,0,0,0,.091-1.385c.01-.406.192-.662.529-.678.318-.016.525.209.563.6a6.211,6.211,0,0,1-5.726,6.661C233.9,438.812,233.738,438.818,233.572,438.817Z" transform="translate(-1.766 -1.773)" fill="#67a746" stroke="#67a746" stroke-width="0.5"/>
    <g id="Group_21714" data-name="Group 21714" transform="translate(229.25 426.197)">
      <path id="Path_41870" data-name="Path 41870" d="M234.435,434.956a.519.519,0,0,1-.367-.153l-1.946-1.929a.518.518,0,0,1,.733-.733l1.579,1.563,5.182-5.165a.518.518,0,0,1,.733.733L234.8,434.8A.51.51,0,0,1,234.435,434.956Z" transform="translate(-231.975 -428.393)" fill="#67a746" stroke="#67a746" stroke-width="0.5"/>
    </g>
  </g>
</svg>
