<svg xmlns="http://www.w3.org/2000/svg" width="32.534" height="32.619" viewBox="0 0 32.534 32.619">
  <g id="Group_21745" data-name="Group 21745" transform="translate(40.075 -16.05)">
    <path id="Path_41873" data-name="Path 41873" d="M-11.019,30.458l.75-3.727a.816.816,0,0,0-.121-.619.816.816,0,0,0-.523-.353.833.833,0,0,0-.639.133l-3.38,2.367a10.438,10.438,0,0,0-4.381-.372A10.443,10.443,0,0,0-27.9,16.2a10.438,10.438,0,0,0-12.027,8.539A10.5,10.5,0,0,0-36.6,34.254l-.746,3.731a.819.819,0,0,0,.12.619.818.818,0,0,0,.525.354.836.836,0,0,0,.638-.134l3.379-2.367a10.376,10.376,0,0,0,3.048.464,10.5,10.5,0,0,0,1.325-.1,10.359,10.359,0,0,0,1.829,7.445,10.362,10.362,0,0,0,6.761,4.25,10.489,10.489,0,0,0,1.754.148A10.453,10.453,0,0,0-7.688,39.983a10.551,10.551,0,0,0,.147-1.755A10.4,10.4,0,0,0-11.019,30.458Zm-1.717.155a.827.827,0,0,0,.287.8,8.8,8.8,0,0,1,1.283,12.359A8.747,8.747,0,0,1-17.7,47.017H-18a8.713,8.713,0,0,1-6.187-2.556,8.714,8.714,0,0,1-2.582-6.2,8.765,8.765,0,0,1,.186-1.813A10.43,10.43,0,0,0-19.7,29.622a8.725,8.725,0,0,1,4.621.329.826.826,0,0,0,.748-.1l2.033-1.424ZM-34.889,34.1a.823.823,0,0,0-.288-.8,8.842,8.842,0,0,1-3.262-5.98,8.837,8.837,0,0,1,1.921-6.535,8.842,8.842,0,0,1,5.979-3.262,8.96,8.96,0,0,1,.966-.052A8.836,8.836,0,0,1-24,19.444a8.848,8.848,0,0,1,3.262,5.98,8.84,8.84,0,0,1-1.922,6.535,8.917,8.917,0,0,1-9.882,2.809.814.814,0,0,0-.748.1l-2.034,1.423Z" fill="#0fd3f2"/>
    <path id="Path_41874" data-name="Path 41874" d="M-32.437,25.708h0a.826.826,0,0,0,.825-.825,2.052,2.052,0,0,1,2.05-2.05,2.052,2.052,0,0,1,2.05,2.05,2.053,2.053,0,0,1-2.05,2.05.826.826,0,0,0-.825.825v1.726a.818.818,0,0,0,.242.583.818.818,0,0,0,.582.241h0a.826.826,0,0,0,.825-.825v-.995a3.7,3.7,0,0,0,2.875-3.605h0a3.7,3.7,0,0,0-3.7-3.7,3.7,3.7,0,0,0-3.7,3.7.818.818,0,0,0,.242.583A.818.818,0,0,0-32.437,25.708Z" fill="#0fd3f2"/>
    <path id="Path_41875" data-name="Path 41875" d="M-18.061,32.682a3.7,3.7,0,0,0-3.7,3.7.826.826,0,0,0,.825.825.826.826,0,0,0,.825-.825,2.052,2.052,0,0,1,2.05-2.05,2.052,2.052,0,0,1,2.05,2.05,2.053,2.053,0,0,1-2.05,2.05.826.826,0,0,0-.825.825v1.725a.826.826,0,0,0,.825.825.826.826,0,0,0,.825-.825v-.995a3.7,3.7,0,0,0,2.874-3.6h0A3.7,3.7,0,0,0-18.061,32.682Z" fill="#0fd3f2"/>
    <path id="Path_41876" data-name="Path 41876" d="M-29.392,31.362a1,1,0,0,0-.994.994,1,1,0,0,0,.994,1,1,1,0,0,0,1-1A1,1,0,0,0-29.392,31.362Z" transform="translate(-0.171 -0.171)" fill="#0fd3f2"/>
    <path id="Path_41877" data-name="Path 41877" d="M-17.9,42.886a.987.987,0,0,0-.987.987.987.987,0,0,0,.987.987.987.987,0,0,0,.987-.987A.987.987,0,0,0-17.9,42.886Z" transform="translate(-0.163 -0.163)" fill="#0fd3f2"/>
  </g>
</svg>
