<svg xmlns="http://www.w3.org/2000/svg" width="24" height="24" viewBox="0 0 24 24">
  <g id="Group_30" data-name="Group 30" transform="translate(-282.929 -344.308)">
    <path id="Path_26" data-name="Path 26" d="M282.429,344.308h24v24h-24Z" transform="translate(0.5)" fill="none"/>
    <path id="Path_37961" data-name="Path 37961" d="M12.008,3.956A7.918,7.918,0,0,0,4,11.782H7a1.979,1.979,0,0,1,2,1.956V18.63a1.979,1.979,0,0,1-2,1.956H4A1.979,1.979,0,0,1,2,18.63V11.782A9.9,9.9,0,0,1,12.008,2a9.9,9.9,0,0,1,10.008,9.782V18.63a1.979,1.979,0,0,1-2,1.956h-3a1.979,1.979,0,0,1-2-1.956V13.739a1.979,1.979,0,0,1,2-1.956h3A7.918,7.918,0,0,0,12.008,3.956ZM4,13.739V18.63H7V13.739Zm13.011,0V18.63h3V13.739Z" transform="translate(282.929 345.307)" fill="#909090"/>
  </g>
</svg>
