<svg id="Group_28" data-name="Group 28" xmlns="http://www.w3.org/2000/svg" width="24" height="24" viewBox="0 0 24 24">
  <path id="Path_22" data-name="Path 22" d="M0,0H24V24H0Z" fill="none"/>
  <path id="Path_23" data-name="Path 23" d="M16.5,3C19.538,3,22,5.5,22,9c0,7-7.5,11-10,12.5C9.5,20,2,16,2,9A5.675,5.675,0,0,1,7.5,3,6.617,6.617,0,0,1,12,5,6.617,6.617,0,0,1,16.5,3ZM12.934,18.6a26.953,26.953,0,0,0,2.42-1.7C18.335,14.533,20,11.943,20,9c0-2.36-1.537-4-3.5-4a4.608,4.608,0,0,0-3.086,1.414L12,7.828,10.586,6.414A4.608,4.608,0,0,0,7.5,5C5.56,5,4,6.656,4,9c0,2.944,1.666,5.533,4.645,7.9a26.909,26.909,0,0,0,2.421,1.7c.3.189.595.37.934.572.339-.2.635-.383.934-.571Z" fill="#909090"/>
</svg>
